<?xml version="1.0" encoding="utf-8" standalone="no"?>
<!DOCTYPE svg PUBLIC "-//W3C//DTD SVG 1.1//EN"
  "http://www.w3.org/Graphics/SVG/1.1/DTD/svg11.dtd">
<svg xmlns:xlink="http://www.w3.org/1999/xlink" width="425.832891pt" height="404.405049pt" viewBox="0 0 425.832891 404.405049" xmlns="http://www.w3.org/2000/svg" version="1.1">
 <metadata>
  <rdf:RDF xmlns:dc="http://purl.org/dc/elements/1.1/" xmlns:cc="http://creativecommons.org/ns#" xmlns:rdf="http://www.w3.org/1999/02/22-rdf-syntax-ns#">
   <cc:Work>
    <dc:type rdf:resource="http://purl.org/dc/dcmitype/StillImage"/>
    <dc:date>2026-05-07T16:22:40.885695</dc:date>
    <dc:format>image/svg+xml</dc:format>
    <dc:creator>
     <cc:Agent>
      <dc:title>Matplotlib v3.9.2, https://matplotlib.org/</dc:title>
     </cc:Agent>
    </dc:creator>
   </cc:Work>
  </rdf:RDF>
 </metadata>
 <defs>
  <style type="text/css">*{stroke-linejoin: round; stroke-linecap: butt}</style>
 </defs>
 <g id="figure_1">
  <g id="patch_1">
   <path d="M 0 404.405049 
L 425.832891 404.405049 
L 425.832891 0 
L 0 0 
z
" style="fill: #ffffff"/>
  </g>
  <g id="axes_1">
   <g id="patch_2">
    <path d="M 374.62 202.202524 
C 374.62 178.077948 369.867985 154.187953 360.635909 131.899751 
C 351.403833 109.611549 337.871238 89.358589 320.812587 72.299938 
C 303.753935 55.241286 283.500976 41.708691 261.212773 32.476616 
C 238.924571 23.24454 215.034576 18.492524 190.91 18.492524 
C 166.785424 18.492524 142.895429 23.24454 120.607227 32.476616 
C 98.319024 41.708691 78.066065 55.241286 61.007413 72.299938 
C 43.948762 89.358589 30.416167 109.611549 21.184091 131.899751 
C 11.952015 154.187953 7.2 178.077948 7.2 202.202524 
C 7.2 226.327101 11.952015 250.217096 21.184091 272.505298 
C 30.416167 294.7935 43.948762 315.04646 61.007413 332.105111 
C 78.066065 349.163763 98.319024 362.696358 120.607227 371.928433 
C 142.895429 381.160509 166.785424 385.912524 190.91 385.912524 
C 215.034576 385.912524 238.924571 381.160509 261.212773 371.928433 
C 283.500976 362.696358 303.753935 349.163763 320.812587 332.105111 
C 337.871238 315.04646 351.403833 294.7935 360.635909 272.505298 
C 369.867985 250.217096 374.62 226.327101 374.62 202.202524 
M 190.91 202.202524 
C 190.91 202.202524 190.91 202.202524 190.91 202.202524 
C 190.91 202.202524 190.91 202.202524 190.91 202.202524 
C 190.91 202.202524 190.91 202.202524 190.91 202.202524 
C 190.91 202.202524 190.91 202.202524 190.91 202.202524 
C 190.91 202.202524 190.91 202.202524 190.91 202.202524 
C 190.91 202.202524 190.91 202.202524 190.91 202.202524 
C 190.91 202.202524 190.91 202.202524 190.91 202.202524 
C 190.91 202.202524 190.91 202.202524 190.91 202.202524 
C 190.91 202.202524 190.91 202.202524 190.91 202.202524 
C 190.91 202.202524 190.91 202.202524 190.91 202.202524 
C 190.91 202.202524 190.91 202.202524 190.91 202.202524 
C 190.91 202.202524 190.91 202.202524 190.91 202.202524 
C 190.91 202.202524 190.91 202.202524 190.91 202.202524 
C 190.91 202.202524 190.91 202.202524 190.91 202.202524 
C 190.91 202.202524 190.91 202.202524 190.91 202.202524 
C 190.91 202.202524 190.91 202.202524 190.91 202.202524 
z
" style="fill: #ffffff"/>
   </g>
   <g id="matplotlib.axis_1">
    <g id="xtick_1">
     <g id="line2d_1">
      <path d="M 190.91 202.202524 
L 374.62 202.202524 
" clip-path="url(#pa24854a8f6)" style="fill: none; stroke: #b0b0b0; stroke-width: 0.8; stroke-linecap: square"/>
     </g>
     <g id="text_1">
      <!-- sigma2_i -->
      <g transform="translate(358.607109 206.014634) scale(0.15 -0.15)">
       <defs>
        <path id="ArialMT-73" d="M 197 991 
L 753 1078 
Q 800 744 1014 566 
Q 1228 388 1613 388 
Q 2000 388 2187 545 
Q 2375 703 2375 916 
Q 2375 1106 2209 1216 
Q 2094 1291 1634 1406 
Q 1016 1563 777 1677 
Q 538 1791 414 1992 
Q 291 2194 291 2438 
Q 291 2659 392 2848 
Q 494 3038 669 3163 
Q 800 3259 1026 3326 
Q 1253 3394 1513 3394 
Q 1903 3394 2198 3281 
Q 2494 3169 2634 2976 
Q 2775 2784 2828 2463 
L 2278 2388 
Q 2241 2644 2061 2787 
Q 1881 2931 1553 2931 
Q 1166 2931 1000 2803 
Q 834 2675 834 2503 
Q 834 2394 903 2306 
Q 972 2216 1119 2156 
Q 1203 2125 1616 2013 
Q 2213 1853 2448 1751 
Q 2684 1650 2818 1456 
Q 2953 1263 2953 975 
Q 2953 694 2789 445 
Q 2625 197 2315 61 
Q 2006 -75 1616 -75 
Q 969 -75 630 194 
Q 291 463 197 991 
z
" transform="scale(0.015625)"/>
        <path id="ArialMT-69" d="M 425 3934 
L 425 4581 
L 988 4581 
L 988 3934 
L 425 3934 
z
M 425 0 
L 425 3319 
L 988 3319 
L 988 0 
L 425 0 
z
" transform="scale(0.015625)"/>
        <path id="ArialMT-67" d="M 319 -275 
L 866 -356 
Q 900 -609 1056 -725 
Q 1266 -881 1628 -881 
Q 2019 -881 2231 -725 
Q 2444 -569 2519 -288 
Q 2563 -116 2559 434 
Q 2191 0 1641 0 
Q 956 0 581 494 
Q 206 988 206 1678 
Q 206 2153 378 2554 
Q 550 2956 876 3175 
Q 1203 3394 1644 3394 
Q 2231 3394 2613 2919 
L 2613 3319 
L 3131 3319 
L 3131 450 
Q 3131 -325 2973 -648 
Q 2816 -972 2473 -1159 
Q 2131 -1347 1631 -1347 
Q 1038 -1347 672 -1080 
Q 306 -813 319 -275 
z
M 784 1719 
Q 784 1066 1043 766 
Q 1303 466 1694 466 
Q 2081 466 2343 764 
Q 2606 1063 2606 1700 
Q 2606 2309 2336 2618 
Q 2066 2928 1684 2928 
Q 1309 2928 1046 2623 
Q 784 2319 784 1719 
z
" transform="scale(0.015625)"/>
        <path id="ArialMT-6d" d="M 422 0 
L 422 3319 
L 925 3319 
L 925 2853 
Q 1081 3097 1340 3245 
Q 1600 3394 1931 3394 
Q 2300 3394 2536 3241 
Q 2772 3088 2869 2813 
Q 3263 3394 3894 3394 
Q 4388 3394 4653 3120 
Q 4919 2847 4919 2278 
L 4919 0 
L 4359 0 
L 4359 2091 
Q 4359 2428 4304 2576 
Q 4250 2725 4106 2815 
Q 3963 2906 3769 2906 
Q 3419 2906 3187 2673 
Q 2956 2441 2956 1928 
L 2956 0 
L 2394 0 
L 2394 2156 
Q 2394 2531 2256 2718 
Q 2119 2906 1806 2906 
Q 1569 2906 1367 2781 
Q 1166 2656 1075 2415 
Q 984 2175 984 1722 
L 984 0 
L 422 0 
z
" transform="scale(0.015625)"/>
        <path id="ArialMT-61" d="M 2588 409 
Q 2275 144 1986 34 
Q 1697 -75 1366 -75 
Q 819 -75 525 192 
Q 231 459 231 875 
Q 231 1119 342 1320 
Q 453 1522 633 1644 
Q 813 1766 1038 1828 
Q 1203 1872 1538 1913 
Q 2219 1994 2541 2106 
Q 2544 2222 2544 2253 
Q 2544 2597 2384 2738 
Q 2169 2928 1744 2928 
Q 1347 2928 1158 2789 
Q 969 2650 878 2297 
L 328 2372 
Q 403 2725 575 2942 
Q 747 3159 1072 3276 
Q 1397 3394 1825 3394 
Q 2250 3394 2515 3294 
Q 2781 3194 2906 3042 
Q 3031 2891 3081 2659 
Q 3109 2516 3109 2141 
L 3109 1391 
Q 3109 606 3145 398 
Q 3181 191 3288 0 
L 2700 0 
Q 2613 175 2588 409 
z
M 2541 1666 
Q 2234 1541 1622 1453 
Q 1275 1403 1131 1340 
Q 988 1278 909 1158 
Q 831 1038 831 891 
Q 831 666 1001 516 
Q 1172 366 1500 366 
Q 1825 366 2078 508 
Q 2331 650 2450 897 
Q 2541 1088 2541 1459 
L 2541 1666 
z
" transform="scale(0.015625)"/>
        <path id="ArialMT-32" d="M 3222 541 
L 3222 0 
L 194 0 
Q 188 203 259 391 
Q 375 700 629 1000 
Q 884 1300 1366 1694 
Q 2113 2306 2375 2664 
Q 2638 3022 2638 3341 
Q 2638 3675 2398 3904 
Q 2159 4134 1775 4134 
Q 1369 4134 1125 3890 
Q 881 3647 878 3216 
L 300 3275 
Q 359 3922 746 4261 
Q 1134 4600 1788 4600 
Q 2447 4600 2831 4234 
Q 3216 3869 3216 3328 
Q 3216 3053 3103 2787 
Q 2991 2522 2730 2228 
Q 2469 1934 1863 1422 
Q 1356 997 1212 845 
Q 1069 694 975 541 
L 3222 541 
z
" transform="scale(0.015625)"/>
        <path id="ArialMT-5f" d="M -97 -1272 
L -97 -866 
L 3631 -866 
L 3631 -1272 
L -97 -1272 
z
" transform="scale(0.015625)"/>
       </defs>
       <use xlink:href="#ArialMT-73"/>
       <use xlink:href="#ArialMT-69" x="50"/>
       <use xlink:href="#ArialMT-67" x="72.216797"/>
       <use xlink:href="#ArialMT-6d" x="127.832031"/>
       <use xlink:href="#ArialMT-61" x="211.132812"/>
       <use xlink:href="#ArialMT-32" x="266.748047"/>
       <use xlink:href="#ArialMT-5f" x="322.363281"/>
       <use xlink:href="#ArialMT-69" x="377.978516"/>
      </g>
     </g>
    </g>
    <g id="xtick_2">
     <g id="line2d_2">
      <path d="M 190.91 202.202524 
L 247.679512 27.483932 
" clip-path="url(#pa24854a8f6)" style="fill: none; stroke: #b0b0b0; stroke-width: 0.8; stroke-linecap: square"/>
     </g>
     <g id="text_2">
      <!-- sigma2_0 -->
      <g transform="translate(219.488562 17.98125) scale(0.15 -0.15)">
       <defs>
        <path id="ArialMT-30" d="M 266 2259 
Q 266 3072 433 3567 
Q 600 4063 929 4331 
Q 1259 4600 1759 4600 
Q 2128 4600 2406 4451 
Q 2684 4303 2865 4023 
Q 3047 3744 3150 3342 
Q 3253 2941 3253 2259 
Q 3253 1453 3087 958 
Q 2922 463 2592 192 
Q 2263 -78 1759 -78 
Q 1097 -78 719 397 
Q 266 969 266 2259 
z
M 844 2259 
Q 844 1131 1108 757 
Q 1372 384 1759 384 
Q 2147 384 2411 759 
Q 2675 1134 2675 2259 
Q 2675 3391 2411 3762 
Q 2147 4134 1753 4134 
Q 1366 4134 1134 3806 
Q 844 3388 844 2259 
z
" transform="scale(0.015625)"/>
       </defs>
       <use xlink:href="#ArialMT-73"/>
       <use xlink:href="#ArialMT-69" x="50"/>
       <use xlink:href="#ArialMT-67" x="72.216797"/>
       <use xlink:href="#ArialMT-6d" x="127.832031"/>
       <use xlink:href="#ArialMT-61" x="211.132812"/>
       <use xlink:href="#ArialMT-32" x="266.748047"/>
       <use xlink:href="#ArialMT-5f" x="322.363281"/>
       <use xlink:href="#ArialMT-30" x="377.978516"/>
      </g>
     </g>
    </g>
    <g id="xtick_3">
     <g id="line2d_3">
      <path d="M 190.91 202.202524 
L 42.285488 94.220496 
" clip-path="url(#pa24854a8f6)" style="fill: none; stroke: #b0b0b0; stroke-width: 0.8; stroke-linecap: square"/>
     </g>
     <g id="text_3">
      <!-- alpha -->
      <g transform="translate(12.610031 89.869237) scale(0.15 -0.15)">
       <defs>
        <path id="ArialMT-6c" d="M 409 0 
L 409 4581 
L 972 4581 
L 972 0 
L 409 0 
z
" transform="scale(0.015625)"/>
        <path id="ArialMT-70" d="M 422 -1272 
L 422 3319 
L 934 3319 
L 934 2888 
Q 1116 3141 1344 3267 
Q 1572 3394 1897 3394 
Q 2322 3394 2647 3175 
Q 2972 2956 3137 2557 
Q 3303 2159 3303 1684 
Q 3303 1175 3120 767 
Q 2938 359 2589 142 
Q 2241 -75 1856 -75 
Q 1575 -75 1351 44 
Q 1128 163 984 344 
L 984 -1272 
L 422 -1272 
z
M 931 1641 
Q 931 1000 1190 694 
Q 1450 388 1819 388 
Q 2194 388 2461 705 
Q 2728 1022 2728 1688 
Q 2728 2322 2467 2637 
Q 2206 2953 1844 2953 
Q 1484 2953 1207 2617 
Q 931 2281 931 1641 
z
" transform="scale(0.015625)"/>
        <path id="ArialMT-68" d="M 422 0 
L 422 4581 
L 984 4581 
L 984 2938 
Q 1378 3394 1978 3394 
Q 2347 3394 2619 3248 
Q 2891 3103 3008 2847 
Q 3125 2591 3125 2103 
L 3125 0 
L 2563 0 
L 2563 2103 
Q 2563 2525 2380 2717 
Q 2197 2909 1863 2909 
Q 1613 2909 1392 2779 
Q 1172 2650 1078 2428 
Q 984 2206 984 1816 
L 984 0 
L 422 0 
z
" transform="scale(0.015625)"/>
       </defs>
       <use xlink:href="#ArialMT-61"/>
       <use xlink:href="#ArialMT-6c" x="55.615234"/>
       <use xlink:href="#ArialMT-70" x="77.832031"/>
       <use xlink:href="#ArialMT-68" x="133.447266"/>
       <use xlink:href="#ArialMT-61" x="189.0625"/>
      </g>
     </g>
    </g>
    <g id="xtick_4">
     <g id="line2d_4">
      <path d="M 190.91 202.202524 
L 42.285488 310.184553 
" clip-path="url(#pa24854a8f6)" style="fill: none; stroke: #b0b0b0; stroke-width: 0.8; stroke-linecap: square"/>
     </g>
     <g id="text_4">
      <!-- Q_D -->
      <g transform="translate(15.538547 322.387375) scale(0.15 -0.15)">
       <defs>
        <path id="ArialMT-51" d="M 3966 491 
Q 4388 200 4744 66 
L 4566 -356 
Q 4072 -178 3581 206 
Q 3072 -78 2456 -78 
Q 1834 -78 1328 222 
Q 822 522 548 1065 
Q 275 1609 275 2291 
Q 275 2969 550 3525 
Q 825 4081 1333 4372 
Q 1841 4663 2469 4663 
Q 3103 4663 3612 4361 
Q 4122 4059 4389 3517 
Q 4656 2975 4656 2294 
Q 4656 1728 4484 1276 
Q 4313 825 3966 491 
z
M 2631 1266 
Q 3156 1119 3497 828 
Q 4031 1316 4031 2294 
Q 4031 2850 3842 3265 
Q 3653 3681 3289 3911 
Q 2925 4141 2472 4141 
Q 1794 4141 1347 3677 
Q 900 3213 900 2291 
Q 900 1397 1342 919 
Q 1784 441 2472 441 
Q 2797 441 3084 563 
Q 2800 747 2484 825 
L 2631 1266 
z
" transform="scale(0.015625)"/>
        <path id="ArialMT-44" d="M 494 0 
L 494 4581 
L 2072 4581 
Q 2606 4581 2888 4516 
Q 3281 4425 3559 4188 
Q 3922 3881 4101 3404 
Q 4281 2928 4281 2316 
Q 4281 1794 4159 1391 
Q 4038 988 3847 723 
Q 3656 459 3429 307 
Q 3203 156 2883 78 
Q 2563 0 2147 0 
L 494 0 
z
M 1100 541 
L 2078 541 
Q 2531 541 2789 625 
Q 3047 709 3200 863 
Q 3416 1078 3536 1442 
Q 3656 1806 3656 2325 
Q 3656 3044 3420 3430 
Q 3184 3816 2847 3947 
Q 2603 4041 2063 4041 
L 1100 4041 
L 1100 541 
z
" transform="scale(0.015625)"/>
       </defs>
       <use xlink:href="#ArialMT-51"/>
       <use xlink:href="#ArialMT-5f" x="77.783203"/>
       <use xlink:href="#ArialMT-44" x="133.398438"/>
      </g>
     </g>
    </g>
    <g id="xtick_5">
     <g id="line2d_5">
      <path d="M 190.91 202.202524 
L 247.679512 376.921117 
" clip-path="url(#pa24854a8f6)" style="fill: none; stroke: #b0b0b0; stroke-width: 0.8; stroke-linecap: square"/>
     </g>
     <g id="text_5">
      <!-- log2_over_omega -->
      <g transform="translate(191.967078 394.048018) scale(0.15 -0.15)">
       <defs>
        <path id="ArialMT-6f" d="M 213 1659 
Q 213 2581 725 3025 
Q 1153 3394 1769 3394 
Q 2453 3394 2887 2945 
Q 3322 2497 3322 1706 
Q 3322 1066 3130 698 
Q 2938 331 2570 128 
Q 2203 -75 1769 -75 
Q 1072 -75 642 372 
Q 213 819 213 1659 
z
M 791 1659 
Q 791 1022 1069 705 
Q 1347 388 1769 388 
Q 2188 388 2466 706 
Q 2744 1025 2744 1678 
Q 2744 2294 2464 2611 
Q 2184 2928 1769 2928 
Q 1347 2928 1069 2612 
Q 791 2297 791 1659 
z
" transform="scale(0.015625)"/>
        <path id="ArialMT-76" d="M 1344 0 
L 81 3319 
L 675 3319 
L 1388 1331 
Q 1503 1009 1600 663 
Q 1675 925 1809 1294 
L 2547 3319 
L 3125 3319 
L 1869 0 
L 1344 0 
z
" transform="scale(0.015625)"/>
        <path id="ArialMT-65" d="M 2694 1069 
L 3275 997 
Q 3138 488 2766 206 
Q 2394 -75 1816 -75 
Q 1088 -75 661 373 
Q 234 822 234 1631 
Q 234 2469 665 2931 
Q 1097 3394 1784 3394 
Q 2450 3394 2872 2941 
Q 3294 2488 3294 1666 
Q 3294 1616 3291 1516 
L 816 1516 
Q 847 969 1125 678 
Q 1403 388 1819 388 
Q 2128 388 2347 550 
Q 2566 713 2694 1069 
z
M 847 1978 
L 2700 1978 
Q 2663 2397 2488 2606 
Q 2219 2931 1791 2931 
Q 1403 2931 1139 2672 
Q 875 2413 847 1978 
z
" transform="scale(0.015625)"/>
        <path id="ArialMT-72" d="M 416 0 
L 416 3319 
L 922 3319 
L 922 2816 
Q 1116 3169 1280 3281 
Q 1444 3394 1641 3394 
Q 1925 3394 2219 3213 
L 2025 2691 
Q 1819 2813 1613 2813 
Q 1428 2813 1281 2702 
Q 1134 2591 1072 2394 
Q 978 2094 978 1738 
L 978 0 
L 416 0 
z
" transform="scale(0.015625)"/>
       </defs>
       <use xlink:href="#ArialMT-6c"/>
       <use xlink:href="#ArialMT-6f" x="22.216797"/>
       <use xlink:href="#ArialMT-67" x="77.832031"/>
       <use xlink:href="#ArialMT-32" x="133.447266"/>
       <use xlink:href="#ArialMT-5f" x="189.0625"/>
       <use xlink:href="#ArialMT-6f" x="244.677734"/>
       <use xlink:href="#ArialMT-76" x="300.292969"/>
       <use xlink:href="#ArialMT-65" x="350.292969"/>
       <use xlink:href="#ArialMT-72" x="405.908203"/>
       <use xlink:href="#ArialMT-5f" x="439.208984"/>
       <use xlink:href="#ArialMT-6f" x="494.824219"/>
       <use xlink:href="#ArialMT-6d" x="550.439453"/>
       <use xlink:href="#ArialMT-65" x="633.740234"/>
       <use xlink:href="#ArialMT-67" x="689.355469"/>
       <use xlink:href="#ArialMT-61" x="744.970703"/>
      </g>
     </g>
    </g>
   </g>
   <g id="matplotlib.axis_2">
    <g id="ytick_1">
     <g id="line2d_6">
      <path d="M 190.91 202.202524 
C 190.91 202.202524 190.91 202.202524 190.91 202.202524 
C 190.91 202.202524 190.91 202.202524 190.91 202.202524 
C 190.91 202.202524 190.91 202.202524 190.91 202.202524 
C 190.91 202.202524 190.91 202.202524 190.91 202.202524 
C 190.91 202.202524 190.91 202.202524 190.91 202.202524 
C 190.91 202.202524 190.91 202.202524 190.91 202.202524 
C 190.91 202.202524 190.91 202.202524 190.91 202.202524 
C 190.91 202.202524 190.91 202.202524 190.91 202.202524 
C 190.91 202.202524 190.91 202.202524 190.91 202.202524 
C 190.91 202.202524 190.91 202.202524 190.91 202.202524 
C 190.91 202.202524 190.91 202.202524 190.91 202.202524 
C 190.91 202.202524 190.91 202.202524 190.91 202.202524 
C 190.91 202.202524 190.91 202.202524 190.91 202.202524 
C 190.91 202.202524 190.91 202.202524 190.91 202.202524 
C 190.91 202.202524 190.91 202.202524 190.91 202.202524 
C 190.91 202.202524 190.91 202.202524 190.91 202.202524 
" clip-path="url(#pa24854a8f6)" style="fill: none; stroke: #b0b0b0; stroke-width: 0.8; stroke-linecap: square"/>
     </g>
     <g id="text_6">
      <!-- 0.0 -->
      <g transform="translate(190.91 199.817524) scale(0.12 -0.12)">
       <defs>
        <path id="ArialMT-2e" d="M 581 0 
L 581 641 
L 1222 641 
L 1222 0 
L 581 0 
z
" transform="scale(0.015625)"/>
       </defs>
       <use xlink:href="#ArialMT-30"/>
       <use xlink:href="#ArialMT-2e" x="55.615234"/>
       <use xlink:href="#ArialMT-30" x="83.398438"/>
      </g>
     </g>
    </g>
    <g id="ytick_2">
     <g id="line2d_7">
      <path d="M 235.968636 202.202524 
C 235.968636 196.285479 234.803107 190.425969 232.538751 184.959331 
C 230.274396 179.492694 226.95525 174.525241 222.771267 170.341258 
C 218.587284 166.157274 213.619831 162.838129 208.153193 160.573773 
C 202.686556 158.309418 196.827046 157.143889 190.91 157.143889 
C 184.992954 157.143889 179.133444 158.309418 173.666807 160.573773 
C 168.200169 162.838129 163.232716 166.157274 159.048733 170.341258 
C 154.86475 174.525241 151.545604 179.492694 149.281249 184.959331 
C 147.016893 190.425969 145.851364 196.285479 145.851364 202.202524 
C 145.851364 208.11957 147.016893 213.97908 149.281249 219.445718 
C 151.545604 224.912355 154.86475 229.879808 159.048733 234.063791 
C 163.232716 238.247775 168.200169 241.56692 173.666807 243.831276 
C 179.133444 246.095631 184.992954 247.26116 190.91 247.26116 
C 196.827046 247.26116 202.686556 246.095631 208.153193 243.831276 
C 213.619831 241.56692 218.587284 238.247775 222.771267 234.063791 
C 226.95525 229.879808 230.274396 224.912355 232.538751 219.445718 
C 234.803107 213.97908 235.968636 208.11957 235.968636 202.202524 
" clip-path="url(#pa24854a8f6)" style="fill: none; stroke: #b0b0b0; stroke-width: 0.8; stroke-linecap: square"/>
     </g>
     <g id="text_7">
      <!-- 0.25 -->
      <g transform="translate(232.538751 182.574331) scale(0.12 -0.12)">
       <defs>
        <path id="ArialMT-35" d="M 266 1200 
L 856 1250 
Q 922 819 1161 601 
Q 1400 384 1738 384 
Q 2144 384 2425 690 
Q 2706 997 2706 1503 
Q 2706 1984 2436 2262 
Q 2166 2541 1728 2541 
Q 1456 2541 1237 2417 
Q 1019 2294 894 2097 
L 366 2166 
L 809 4519 
L 3088 4519 
L 3088 3981 
L 1259 3981 
L 1013 2750 
Q 1425 3038 1878 3038 
Q 2478 3038 2890 2622 
Q 3303 2206 3303 1553 
Q 3303 931 2941 478 
Q 2500 -78 1738 -78 
Q 1113 -78 717 272 
Q 322 622 266 1200 
z
" transform="scale(0.015625)"/>
       </defs>
       <use xlink:href="#ArialMT-30"/>
       <use xlink:href="#ArialMT-2e" x="55.615234"/>
       <use xlink:href="#ArialMT-32" x="83.398438"/>
       <use xlink:href="#ArialMT-35" x="139.013672"/>
      </g>
     </g>
    </g>
    <g id="ytick_3">
     <g id="line2d_8">
      <path d="M 281.027271 202.202524 
C 281.027271 190.368433 278.696213 178.649413 274.167503 167.716138 
C 269.638792 156.782863 263.0005 146.847957 254.632534 138.479991 
C 246.264567 130.112024 236.329662 123.473733 225.396387 118.945022 
C 214.463112 114.416311 202.744092 112.085253 190.91 112.085253 
C 179.075908 112.085253 167.356888 114.416311 156.423613 118.945022 
C 145.490338 123.473733 135.555433 130.112024 127.187466 138.479991 
C 118.8195 146.847957 112.181208 156.782863 107.652497 167.716138 
C 103.123787 178.649413 100.792729 190.368433 100.792729 202.202524 
C 100.792729 214.036616 103.123787 225.755636 107.652497 236.688911 
C 112.181208 247.622186 118.8195 257.557092 127.187466 265.925058 
C 135.555433 274.293025 145.490338 280.931316 156.423613 285.460027 
C 167.356888 289.988738 179.075908 292.319796 190.91 292.319796 
C 202.744092 292.319796 214.463112 289.988738 225.396387 285.460027 
C 236.329662 280.931316 246.264567 274.293025 254.632534 265.925058 
C 263.0005 257.557092 269.638792 247.622186 274.167503 236.688911 
C 278.696213 225.755636 281.027271 214.036616 281.027271 202.202524 
" clip-path="url(#pa24854a8f6)" style="fill: none; stroke: #b0b0b0; stroke-width: 0.8; stroke-linecap: square"/>
     </g>
     <g id="text_8">
      <!-- 0.5 -->
      <g transform="translate(274.167503 165.331138) scale(0.12 -0.12)">
       <use xlink:href="#ArialMT-30"/>
       <use xlink:href="#ArialMT-2e" x="55.615234"/>
       <use xlink:href="#ArialMT-35" x="83.398438"/>
      </g>
     </g>
    </g>
    <g id="ytick_4">
     <g id="line2d_9">
      <path d="M 326.085907 202.202524 
C 326.085907 184.451387 322.58932 166.872857 315.796254 150.472944 
C 309.003188 134.073032 299.04575 119.170674 286.4938 106.618724 
C 273.941851 94.066774 259.039493 84.109337 242.63958 77.316271 
C 226.239667 70.523204 208.661137 67.026617 190.91 67.026617 
C 173.158863 67.026617 155.580333 70.523204 139.18042 77.316271 
C 122.780507 84.109337 107.878149 94.066774 95.3262 106.618724 
C 82.77425 119.170674 72.816812 134.073032 66.023746 150.472944 
C 59.23068 166.872857 55.734093 184.451387 55.734093 202.202524 
C 55.734093 219.953662 59.23068 237.532192 66.023746 253.932105 
C 72.816812 270.332017 82.77425 285.234375 95.3262 297.786325 
C 107.878149 310.338275 122.780507 320.295712 139.18042 327.088778 
C 155.580333 333.881844 173.158863 337.378431 190.91 337.378431 
C 208.661137 337.378431 226.239667 333.881844 242.63958 327.088778 
C 259.039493 320.295712 273.941851 310.338275 286.4938 297.786325 
C 299.04575 285.234375 309.003188 270.332017 315.796254 253.932105 
C 322.58932 237.532192 326.085907 219.953662 326.085907 202.202524 
" clip-path="url(#pa24854a8f6)" style="fill: none; stroke: #b0b0b0; stroke-width: 0.8; stroke-linecap: square"/>
     </g>
     <g id="text_9">
      <!-- 0.75 -->
      <g transform="translate(315.796254 148.087944) scale(0.12 -0.12)">
       <defs>
        <path id="ArialMT-37" d="M 303 3981 
L 303 4522 
L 3269 4522 
L 3269 4084 
Q 2831 3619 2401 2847 
Q 1972 2075 1738 1259 
Q 1569 684 1522 0 
L 944 0 
Q 953 541 1156 1306 
Q 1359 2072 1739 2783 
Q 2119 3494 2547 3981 
L 303 3981 
z
" transform="scale(0.015625)"/>
       </defs>
       <use xlink:href="#ArialMT-30"/>
       <use xlink:href="#ArialMT-2e" x="55.615234"/>
       <use xlink:href="#ArialMT-37" x="83.398438"/>
       <use xlink:href="#ArialMT-35" x="139.013672"/>
      </g>
     </g>
    </g>
    <g id="ytick_5">
     <g id="line2d_10">
      <path d="M 371.144543 202.202524 
C 371.144543 178.534341 366.482427 155.096301 357.425005 133.229751 
C 348.367583 111.363201 335.091 91.49339 318.355067 74.757457 
C 301.619134 58.021524 281.749324 44.744941 259.882773 35.687519 
C 238.016223 26.630098 214.578183 21.967982 190.91 21.967982 
C 167.241817 21.967982 143.803777 26.630098 121.937227 35.687519 
C 100.070676 44.744941 80.200866 58.021524 63.464933 74.757457 
C 46.729 91.49339 33.452417 111.363201 24.394995 133.229751 
C 15.337573 155.096301 10.675457 178.534341 10.675457 202.202524 
C 10.675457 225.870708 15.337573 249.308748 24.394995 271.175298 
C 33.452417 293.041848 46.729 312.911659 63.464933 329.647592 
C 80.200866 346.383525 100.070676 359.660108 121.937227 368.717529 
C 143.803777 377.774951 167.241817 382.437067 190.91 382.437067 
C 214.578183 382.437067 238.016223 377.774951 259.882773 368.717529 
C 281.749324 359.660108 301.619134 346.383525 318.355067 329.647592 
C 335.091 312.911659 348.367583 293.041848 357.425005 271.175298 
C 366.482427 249.308748 371.144543 225.870708 371.144543 202.202524 
" clip-path="url(#pa24854a8f6)" style="fill: none; stroke: #b0b0b0; stroke-width: 0.8; stroke-linecap: square"/>
     </g>
     <g id="text_10">
      <!-- 1.0 -->
      <g transform="translate(357.425005 130.844751) scale(0.12 -0.12)">
       <defs>
        <path id="ArialMT-31" d="M 2384 0 
L 1822 0 
L 1822 3584 
Q 1619 3391 1289 3197 
Q 959 3003 697 2906 
L 697 3450 
Q 1169 3672 1522 3987 
Q 1875 4303 2022 4600 
L 2384 4600 
L 2384 0 
z
" transform="scale(0.015625)"/>
       </defs>
       <use xlink:href="#ArialMT-31"/>
       <use xlink:href="#ArialMT-2e" x="55.615234"/>
       <use xlink:href="#ArialMT-30" x="83.398438"/>
      </g>
     </g>
    </g>
   </g>
   <g id="line2d_11">
    <path d="M 229.11885 202.202524 
L 191.714365 199.726942 
L 153.065457 174.706855 
L 53.731662 301.868421 
L 221.607346 296.67924 
L 229.11885 202.202524 
" clip-path="url(#pa24854a8f6)" style="fill: none; stroke: #ffdd8e; stroke-opacity: 0.5; stroke-width: 0.5; stroke-linecap: square"/>
    <defs>
     <path id="mbd97c93008" d="M 0 1 
C 0.265203 1 0.51958 0.894634 0.707107 0.707107 
C 0.894634 0.51958 1 0.265203 1 0 
C 1 -0.265203 0.894634 -0.51958 0.707107 -0.707107 
C 0.51958 -0.894634 0.265203 -1 0 -1 
C -0.265203 -1 -0.51958 -0.894634 -0.707107 -0.707107 
C -0.894634 -0.51958 -1 -0.265203 -1 0 
C -1 0.265203 -0.894634 0.51958 -0.707107 0.707107 
C -0.51958 0.894634 -0.265203 1 0 1 
z
" style="stroke: #ffdd8e"/>
    </defs>
    <g clip-path="url(#pa24854a8f6)">
     <use xlink:href="#mbd97c93008" x="229.11885" y="202.202524" style="fill: #ffdd8e; stroke: #ffdd8e"/>
     <use xlink:href="#mbd97c93008" x="191.714365" y="199.726942" style="fill: #ffdd8e; stroke: #ffdd8e"/>
     <use xlink:href="#mbd97c93008" x="153.065457" y="174.706855" style="fill: #ffdd8e; stroke: #ffdd8e"/>
     <use xlink:href="#mbd97c93008" x="53.731662" y="301.868421" style="fill: #ffdd8e; stroke: #ffdd8e"/>
     <use xlink:href="#mbd97c93008" x="221.607346" y="296.67924" style="fill: #ffdd8e; stroke: #ffdd8e"/>
     <use xlink:href="#mbd97c93008" x="229.11885" y="202.202524" style="fill: #ffdd8e; stroke: #ffdd8e"/>
    </g>
   </g>
   <g id="line2d_12">
    <path d="M 230.024558 202.202524 
L 195.04988 189.461285 
L 149.495411 172.113064 
L 120.226539 253.557065 
L 217.383816 283.680552 
L 230.024558 202.202524 
" clip-path="url(#pa24854a8f6)" style="fill: none; stroke: #ffdd8e; stroke-opacity: 0.5; stroke-width: 0.5; stroke-linecap: square"/>
    <g clip-path="url(#pa24854a8f6)">
     <use xlink:href="#mbd97c93008" x="230.024558" y="202.202524" style="fill: #ffdd8e; stroke: #ffdd8e"/>
     <use xlink:href="#mbd97c93008" x="195.04988" y="189.461285" style="fill: #ffdd8e; stroke: #ffdd8e"/>
     <use xlink:href="#mbd97c93008" x="149.495411" y="172.113064" style="fill: #ffdd8e; stroke: #ffdd8e"/>
     <use xlink:href="#mbd97c93008" x="120.226539" y="253.557065" style="fill: #ffdd8e; stroke: #ffdd8e"/>
     <use xlink:href="#mbd97c93008" x="217.383816" y="283.680552" style="fill: #ffdd8e; stroke: #ffdd8e"/>
     <use xlink:href="#mbd97c93008" x="230.024558" y="202.202524" style="fill: #ffdd8e; stroke: #ffdd8e"/>
    </g>
   </g>
   <g id="line2d_13">
    <path d="M 230.250919 202.202524 
L 196.214159 185.878002 
L 163.028747 181.945608 
L 119.560888 254.040689 
L 217.391979 283.705676 
L 230.250919 202.202524 
" clip-path="url(#pa24854a8f6)" style="fill: none; stroke: #ffdd8e; stroke-opacity: 0.5; stroke-width: 0.5; stroke-linecap: square"/>
    <g clip-path="url(#pa24854a8f6)">
     <use xlink:href="#mbd97c93008" x="230.250919" y="202.202524" style="fill: #ffdd8e; stroke: #ffdd8e"/>
     <use xlink:href="#mbd97c93008" x="196.214159" y="185.878002" style="fill: #ffdd8e; stroke: #ffdd8e"/>
     <use xlink:href="#mbd97c93008" x="163.028747" y="181.945608" style="fill: #ffdd8e; stroke: #ffdd8e"/>
     <use xlink:href="#mbd97c93008" x="119.560888" y="254.040689" style="fill: #ffdd8e; stroke: #ffdd8e"/>
     <use xlink:href="#mbd97c93008" x="217.391979" y="283.705676" style="fill: #ffdd8e; stroke: #ffdd8e"/>
     <use xlink:href="#mbd97c93008" x="230.250919" y="202.202524" style="fill: #ffdd8e; stroke: #ffdd8e"/>
    </g>
   </g>
   <g id="line2d_14">
    <path d="M 231.498637 202.202524 
L 194.56178 190.963501 
L 183.835392 197.062521 
L 121.263764 252.803477 
L 234.839695 337.404225 
L 231.498637 202.202524 
" clip-path="url(#pa24854a8f6)" style="fill: none; stroke: #ffdd8e; stroke-opacity: 0.5; stroke-width: 0.5; stroke-linecap: square"/>
    <g clip-path="url(#pa24854a8f6)">
     <use xlink:href="#mbd97c93008" x="231.498637" y="202.202524" style="fill: #ffdd8e; stroke: #ffdd8e"/>
     <use xlink:href="#mbd97c93008" x="194.56178" y="190.963501" style="fill: #ffdd8e; stroke: #ffdd8e"/>
     <use xlink:href="#mbd97c93008" x="183.835392" y="197.062521" style="fill: #ffdd8e; stroke: #ffdd8e"/>
     <use xlink:href="#mbd97c93008" x="121.263764" y="252.803477" style="fill: #ffdd8e; stroke: #ffdd8e"/>
     <use xlink:href="#mbd97c93008" x="234.839695" y="337.404225" style="fill: #ffdd8e; stroke: #ffdd8e"/>
     <use xlink:href="#mbd97c93008" x="231.498637" y="202.202524" style="fill: #ffdd8e; stroke: #ffdd8e"/>
    </g>
   </g>
   <g id="line2d_15">
    <path d="M 231.498637 202.202524 
L 194.56178 190.963501 
L 183.835392 197.062521 
L 121.249494 252.813844 
L 234.839695 337.404225 
L 231.498637 202.202524 
" clip-path="url(#pa24854a8f6)" style="fill: none; stroke: #ffdd8e; stroke-opacity: 0.5; stroke-width: 0.5; stroke-linecap: square"/>
    <g clip-path="url(#pa24854a8f6)">
     <use xlink:href="#mbd97c93008" x="231.498637" y="202.202524" style="fill: #ffdd8e; stroke: #ffdd8e"/>
     <use xlink:href="#mbd97c93008" x="194.56178" y="190.963501" style="fill: #ffdd8e; stroke: #ffdd8e"/>
     <use xlink:href="#mbd97c93008" x="183.835392" y="197.062521" style="fill: #ffdd8e; stroke: #ffdd8e"/>
     <use xlink:href="#mbd97c93008" x="121.249494" y="252.813844" style="fill: #ffdd8e; stroke: #ffdd8e"/>
     <use xlink:href="#mbd97c93008" x="234.839695" y="337.404225" style="fill: #ffdd8e; stroke: #ffdd8e"/>
     <use xlink:href="#mbd97c93008" x="231.498637" y="202.202524" style="fill: #ffdd8e; stroke: #ffdd8e"/>
    </g>
   </g>
   <g id="line2d_16">
    <path d="M 231.502057 202.202524 
L 196.075192 186.305699 
L 188.797967 200.668043 
L 120.806306 253.13584 
L 234.837623 337.397847 
L 231.502057 202.202524 
" clip-path="url(#pa24854a8f6)" style="fill: none; stroke: #ffdd8e; stroke-opacity: 0.5; stroke-width: 0.5; stroke-linecap: square"/>
    <g clip-path="url(#pa24854a8f6)">
     <use xlink:href="#mbd97c93008" x="231.502057" y="202.202524" style="fill: #ffdd8e; stroke: #ffdd8e"/>
     <use xlink:href="#mbd97c93008" x="196.075192" y="186.305699" style="fill: #ffdd8e; stroke: #ffdd8e"/>
     <use xlink:href="#mbd97c93008" x="188.797967" y="200.668043" style="fill: #ffdd8e; stroke: #ffdd8e"/>
     <use xlink:href="#mbd97c93008" x="120.806306" y="253.13584" style="fill: #ffdd8e; stroke: #ffdd8e"/>
     <use xlink:href="#mbd97c93008" x="234.837623" y="337.397847" style="fill: #ffdd8e; stroke: #ffdd8e"/>
     <use xlink:href="#mbd97c93008" x="231.502057" y="202.202524" style="fill: #ffdd8e; stroke: #ffdd8e"/>
    </g>
   </g>
   <g id="line2d_17">
    <path d="M 231.502057 202.202524 
L 196.075192 186.305699 
L 188.457899 200.420969 
L 120.272121 253.523948 
L 234.837623 337.397847 
L 231.502057 202.202524 
" clip-path="url(#pa24854a8f6)" style="fill: none; stroke: #ffdd8e; stroke-opacity: 0.5; stroke-width: 0.5; stroke-linecap: square"/>
    <g clip-path="url(#pa24854a8f6)">
     <use xlink:href="#mbd97c93008" x="231.502057" y="202.202524" style="fill: #ffdd8e; stroke: #ffdd8e"/>
     <use xlink:href="#mbd97c93008" x="196.075192" y="186.305699" style="fill: #ffdd8e; stroke: #ffdd8e"/>
     <use xlink:href="#mbd97c93008" x="188.457899" y="200.420969" style="fill: #ffdd8e; stroke: #ffdd8e"/>
     <use xlink:href="#mbd97c93008" x="120.272121" y="253.523948" style="fill: #ffdd8e; stroke: #ffdd8e"/>
     <use xlink:href="#mbd97c93008" x="234.837623" y="337.397847" style="fill: #ffdd8e; stroke: #ffdd8e"/>
     <use xlink:href="#mbd97c93008" x="231.502057" y="202.202524" style="fill: #ffdd8e; stroke: #ffdd8e"/>
    </g>
   </g>
   <g id="line2d_18">
    <path d="M 231.514734 202.202524 
L 194.56178 190.963501 
L 184.088388 197.246334 
L 120.806306 253.13584 
L 234.839568 337.403834 
L 231.514734 202.202524 
" clip-path="url(#pa24854a8f6)" style="fill: none; stroke: #ffdd8e; stroke-opacity: 0.5; stroke-width: 0.5; stroke-linecap: square"/>
    <g clip-path="url(#pa24854a8f6)">
     <use xlink:href="#mbd97c93008" x="231.514734" y="202.202524" style="fill: #ffdd8e; stroke: #ffdd8e"/>
     <use xlink:href="#mbd97c93008" x="194.56178" y="190.963501" style="fill: #ffdd8e; stroke: #ffdd8e"/>
     <use xlink:href="#mbd97c93008" x="184.088388" y="197.246334" style="fill: #ffdd8e; stroke: #ffdd8e"/>
     <use xlink:href="#mbd97c93008" x="120.806306" y="253.13584" style="fill: #ffdd8e; stroke: #ffdd8e"/>
     <use xlink:href="#mbd97c93008" x="234.839568" y="337.403834" style="fill: #ffdd8e; stroke: #ffdd8e"/>
     <use xlink:href="#mbd97c93008" x="231.514734" y="202.202524" style="fill: #ffdd8e; stroke: #ffdd8e"/>
    </g>
   </g>
   <g id="line2d_19">
    <path d="M 231.514734 202.202524 
L 194.56178 190.963501 
L 175.194884 190.784824 
L 109.795442 261.1357 
L 232.474553 330.125065 
L 231.514734 202.202524 
" clip-path="url(#pa24854a8f6)" style="fill: none; stroke: #ffdd8e; stroke-opacity: 0.5; stroke-width: 0.5; stroke-linecap: square"/>
    <g clip-path="url(#pa24854a8f6)">
     <use xlink:href="#mbd97c93008" x="231.514734" y="202.202524" style="fill: #ffdd8e; stroke: #ffdd8e"/>
     <use xlink:href="#mbd97c93008" x="194.56178" y="190.963501" style="fill: #ffdd8e; stroke: #ffdd8e"/>
     <use xlink:href="#mbd97c93008" x="175.194884" y="190.784824" style="fill: #ffdd8e; stroke: #ffdd8e"/>
     <use xlink:href="#mbd97c93008" x="109.795442" y="261.1357" style="fill: #ffdd8e; stroke: #ffdd8e"/>
     <use xlink:href="#mbd97c93008" x="232.474553" y="330.125065" style="fill: #ffdd8e; stroke: #ffdd8e"/>
     <use xlink:href="#mbd97c93008" x="231.514734" y="202.202524" style="fill: #ffdd8e; stroke: #ffdd8e"/>
    </g>
   </g>
   <g id="line2d_20">
    <path d="M 231.514734 202.202524 
L 197.2106 182.811272 
L 175.194884 190.784824 
L 109.795442 261.1357 
L 237.870969 346.733527 
L 231.514734 202.202524 
" clip-path="url(#pa24854a8f6)" style="fill: none; stroke: #ffdd8e; stroke-opacity: 0.5; stroke-width: 0.5; stroke-linecap: square"/>
    <g clip-path="url(#pa24854a8f6)">
     <use xlink:href="#mbd97c93008" x="231.514734" y="202.202524" style="fill: #ffdd8e; stroke: #ffdd8e"/>
     <use xlink:href="#mbd97c93008" x="197.2106" y="182.811272" style="fill: #ffdd8e; stroke: #ffdd8e"/>
     <use xlink:href="#mbd97c93008" x="175.194884" y="190.784824" style="fill: #ffdd8e; stroke: #ffdd8e"/>
     <use xlink:href="#mbd97c93008" x="109.795442" y="261.1357" style="fill: #ffdd8e; stroke: #ffdd8e"/>
     <use xlink:href="#mbd97c93008" x="237.870969" y="346.733527" style="fill: #ffdd8e; stroke: #ffdd8e"/>
     <use xlink:href="#mbd97c93008" x="231.514734" y="202.202524" style="fill: #ffdd8e; stroke: #ffdd8e"/>
    </g>
   </g>
   <g id="line2d_21">
    <path d="M 232.082727 202.202524 
L 194.950766 189.766324 
L 149.267541 171.947507 
L 121.61997 252.544678 
L 234.837256 337.396716 
L 232.082727 202.202524 
" clip-path="url(#pa24854a8f6)" style="fill: none; stroke: #ffdd8e; stroke-opacity: 0.5; stroke-width: 0.5; stroke-linecap: square"/>
    <g clip-path="url(#pa24854a8f6)">
     <use xlink:href="#mbd97c93008" x="232.082727" y="202.202524" style="fill: #ffdd8e; stroke: #ffdd8e"/>
     <use xlink:href="#mbd97c93008" x="194.950766" y="189.766324" style="fill: #ffdd8e; stroke: #ffdd8e"/>
     <use xlink:href="#mbd97c93008" x="149.267541" y="171.947507" style="fill: #ffdd8e; stroke: #ffdd8e"/>
     <use xlink:href="#mbd97c93008" x="121.61997" y="252.544678" style="fill: #ffdd8e; stroke: #ffdd8e"/>
     <use xlink:href="#mbd97c93008" x="234.837256" y="337.396716" style="fill: #ffdd8e; stroke: #ffdd8e"/>
     <use xlink:href="#mbd97c93008" x="232.082727" y="202.202524" style="fill: #ffdd8e; stroke: #ffdd8e"/>
    </g>
   </g>
   <g id="line2d_22">
    <path d="M 232.082727 202.202524 
L 194.950766 189.766324 
L 137.841562 163.646047 
L 123.255102 251.356685 
L 234.83726 337.396729 
L 232.082727 202.202524 
" clip-path="url(#pa24854a8f6)" style="fill: none; stroke: #ffdd8e; stroke-opacity: 0.5; stroke-width: 0.5; stroke-linecap: square"/>
    <g clip-path="url(#pa24854a8f6)">
     <use xlink:href="#mbd97c93008" x="232.082727" y="202.202524" style="fill: #ffdd8e; stroke: #ffdd8e"/>
     <use xlink:href="#mbd97c93008" x="194.950766" y="189.766324" style="fill: #ffdd8e; stroke: #ffdd8e"/>
     <use xlink:href="#mbd97c93008" x="137.841562" y="163.646047" style="fill: #ffdd8e; stroke: #ffdd8e"/>
     <use xlink:href="#mbd97c93008" x="123.255102" y="251.356685" style="fill: #ffdd8e; stroke: #ffdd8e"/>
     <use xlink:href="#mbd97c93008" x="234.83726" y="337.396729" style="fill: #ffdd8e; stroke: #ffdd8e"/>
     <use xlink:href="#mbd97c93008" x="232.082727" y="202.202524" style="fill: #ffdd8e; stroke: #ffdd8e"/>
    </g>
   </g>
   <g id="line2d_23">
    <path d="M 234.059975 202.202524 
L 196.214159 185.878002 
L 163.028747 181.945608 
L 119.560888 254.040689 
L 217.544004 284.173561 
L 234.059975 202.202524 
" clip-path="url(#pa24854a8f6)" style="fill: none; stroke: #ffdd8e; stroke-opacity: 0.5; stroke-width: 0.5; stroke-linecap: square"/>
    <g clip-path="url(#pa24854a8f6)">
     <use xlink:href="#mbd97c93008" x="234.059975" y="202.202524" style="fill: #ffdd8e; stroke: #ffdd8e"/>
     <use xlink:href="#mbd97c93008" x="196.214159" y="185.878002" style="fill: #ffdd8e; stroke: #ffdd8e"/>
     <use xlink:href="#mbd97c93008" x="163.028747" y="181.945608" style="fill: #ffdd8e; stroke: #ffdd8e"/>
     <use xlink:href="#mbd97c93008" x="119.560888" y="254.040689" style="fill: #ffdd8e; stroke: #ffdd8e"/>
     <use xlink:href="#mbd97c93008" x="217.544004" y="284.173561" style="fill: #ffdd8e; stroke: #ffdd8e"/>
     <use xlink:href="#mbd97c93008" x="234.059975" y="202.202524" style="fill: #ffdd8e; stroke: #ffdd8e"/>
    </g>
   </g>
   <g id="line2d_24">
    <path d="M 234.059975 202.202524 
L 196.214159 185.878002 
L 163.028747 181.945608 
L 118.674854 254.68443 
L 217.544004 284.173561 
L 234.059975 202.202524 
" clip-path="url(#pa24854a8f6)" style="fill: none; stroke: #ffdd8e; stroke-opacity: 0.5; stroke-width: 0.5; stroke-linecap: square"/>
    <g clip-path="url(#pa24854a8f6)">
     <use xlink:href="#mbd97c93008" x="234.059975" y="202.202524" style="fill: #ffdd8e; stroke: #ffdd8e"/>
     <use xlink:href="#mbd97c93008" x="196.214159" y="185.878002" style="fill: #ffdd8e; stroke: #ffdd8e"/>
     <use xlink:href="#mbd97c93008" x="163.028747" y="181.945608" style="fill: #ffdd8e; stroke: #ffdd8e"/>
     <use xlink:href="#mbd97c93008" x="118.674854" y="254.68443" style="fill: #ffdd8e; stroke: #ffdd8e"/>
     <use xlink:href="#mbd97c93008" x="217.544004" y="284.173561" style="fill: #ffdd8e; stroke: #ffdd8e"/>
     <use xlink:href="#mbd97c93008" x="234.059975" y="202.202524" style="fill: #ffdd8e; stroke: #ffdd8e"/>
    </g>
   </g>
   <g id="line2d_25">
    <path d="M 235.688731 202.202524 
L 194.459383 191.278647 
L 156.093246 176.906672 
L 49.343365 305.056705 
L 202.493415 237.85261 
L 235.688731 202.202524 
" clip-path="url(#pa24854a8f6)" style="fill: none; stroke: #ffdd8e; stroke-opacity: 0.5; stroke-width: 0.5; stroke-linecap: square"/>
    <g clip-path="url(#pa24854a8f6)">
     <use xlink:href="#mbd97c93008" x="235.688731" y="202.202524" style="fill: #ffdd8e; stroke: #ffdd8e"/>
     <use xlink:href="#mbd97c93008" x="194.459383" y="191.278647" style="fill: #ffdd8e; stroke: #ffdd8e"/>
     <use xlink:href="#mbd97c93008" x="156.093246" y="176.906672" style="fill: #ffdd8e; stroke: #ffdd8e"/>
     <use xlink:href="#mbd97c93008" x="49.343365" y="305.056705" style="fill: #ffdd8e; stroke: #ffdd8e"/>
     <use xlink:href="#mbd97c93008" x="202.493415" y="237.85261" style="fill: #ffdd8e; stroke: #ffdd8e"/>
     <use xlink:href="#mbd97c93008" x="235.688731" y="202.202524" style="fill: #ffdd8e; stroke: #ffdd8e"/>
    </g>
   </g>
   <g id="line2d_26">
    <path d="M 235.803363 202.202524 
L 191.931956 199.057268 
L 156.092414 176.906067 
L 49.377378 305.031993 
L 202.463724 237.761231 
L 235.803363 202.202524 
" clip-path="url(#pa24854a8f6)" style="fill: none; stroke: #ffdd8e; stroke-opacity: 0.5; stroke-width: 0.5; stroke-linecap: square"/>
    <g clip-path="url(#pa24854a8f6)">
     <use xlink:href="#mbd97c93008" x="235.803363" y="202.202524" style="fill: #ffdd8e; stroke: #ffdd8e"/>
     <use xlink:href="#mbd97c93008" x="191.931956" y="199.057268" style="fill: #ffdd8e; stroke: #ffdd8e"/>
     <use xlink:href="#mbd97c93008" x="156.092414" y="176.906067" style="fill: #ffdd8e; stroke: #ffdd8e"/>
     <use xlink:href="#mbd97c93008" x="49.377378" y="305.031993" style="fill: #ffdd8e; stroke: #ffdd8e"/>
     <use xlink:href="#mbd97c93008" x="202.463724" y="237.761231" style="fill: #ffdd8e; stroke: #ffdd8e"/>
     <use xlink:href="#mbd97c93008" x="235.803363" y="202.202524" style="fill: #ffdd8e; stroke: #ffdd8e"/>
    </g>
   </g>
   <g id="line2d_27">
    <path d="M 235.803363 202.202524 
L 191.931956 199.057268 
L 156.092414 176.906067 
L 49.377378 305.031994 
L 202.450748 237.721296 
L 235.803363 202.202524 
" clip-path="url(#pa24854a8f6)" style="fill: none; stroke: #ffdd8e; stroke-opacity: 0.5; stroke-width: 0.5; stroke-linecap: square"/>
    <g clip-path="url(#pa24854a8f6)">
     <use xlink:href="#mbd97c93008" x="235.803363" y="202.202524" style="fill: #ffdd8e; stroke: #ffdd8e"/>
     <use xlink:href="#mbd97c93008" x="191.931956" y="199.057268" style="fill: #ffdd8e; stroke: #ffdd8e"/>
     <use xlink:href="#mbd97c93008" x="156.092414" y="176.906067" style="fill: #ffdd8e; stroke: #ffdd8e"/>
     <use xlink:href="#mbd97c93008" x="49.377378" y="305.031994" style="fill: #ffdd8e; stroke: #ffdd8e"/>
     <use xlink:href="#mbd97c93008" x="202.450748" y="237.721296" style="fill: #ffdd8e; stroke: #ffdd8e"/>
     <use xlink:href="#mbd97c93008" x="235.803363" y="202.202524" style="fill: #ffdd8e; stroke: #ffdd8e"/>
    </g>
   </g>
   <g id="line2d_28">
    <path d="M 235.803363 202.202524 
L 191.931956 199.057268 
L 156.092414 176.906067 
L 49.377375 305.031996 
L 202.450748 237.721296 
L 235.803363 202.202524 
" clip-path="url(#pa24854a8f6)" style="fill: none; stroke: #ffdd8e; stroke-opacity: 0.5; stroke-width: 0.5; stroke-linecap: square"/>
    <g clip-path="url(#pa24854a8f6)">
     <use xlink:href="#mbd97c93008" x="235.803363" y="202.202524" style="fill: #ffdd8e; stroke: #ffdd8e"/>
     <use xlink:href="#mbd97c93008" x="191.931956" y="199.057268" style="fill: #ffdd8e; stroke: #ffdd8e"/>
     <use xlink:href="#mbd97c93008" x="156.092414" y="176.906067" style="fill: #ffdd8e; stroke: #ffdd8e"/>
     <use xlink:href="#mbd97c93008" x="49.377375" y="305.031996" style="fill: #ffdd8e; stroke: #ffdd8e"/>
     <use xlink:href="#mbd97c93008" x="202.450748" y="237.721296" style="fill: #ffdd8e; stroke: #ffdd8e"/>
     <use xlink:href="#mbd97c93008" x="235.803363" y="202.202524" style="fill: #ffdd8e; stroke: #ffdd8e"/>
    </g>
   </g>
   <g id="line2d_29">
    <path d="M 235.803363 202.202524 
L 191.931956 199.057268 
L 156.092414 176.906067 
L 49.377313 305.03204 
L 202.450748 237.721296 
L 235.803363 202.202524 
" clip-path="url(#pa24854a8f6)" style="fill: none; stroke: #ffdd8e; stroke-opacity: 0.5; stroke-width: 0.5; stroke-linecap: square"/>
    <g clip-path="url(#pa24854a8f6)">
     <use xlink:href="#mbd97c93008" x="235.803363" y="202.202524" style="fill: #ffdd8e; stroke: #ffdd8e"/>
     <use xlink:href="#mbd97c93008" x="191.931956" y="199.057268" style="fill: #ffdd8e; stroke: #ffdd8e"/>
     <use xlink:href="#mbd97c93008" x="156.092414" y="176.906067" style="fill: #ffdd8e; stroke: #ffdd8e"/>
     <use xlink:href="#mbd97c93008" x="49.377313" y="305.03204" style="fill: #ffdd8e; stroke: #ffdd8e"/>
     <use xlink:href="#mbd97c93008" x="202.450748" y="237.721296" style="fill: #ffdd8e; stroke: #ffdd8e"/>
     <use xlink:href="#mbd97c93008" x="235.803363" y="202.202524" style="fill: #ffdd8e; stroke: #ffdd8e"/>
    </g>
   </g>
   <g id="line2d_30">
    <path d="M 235.803363 202.202524 
L 191.931956 199.057268 
L 156.092414 176.906067 
L 49.377305 305.032046 
L 202.450748 237.721296 
L 235.803363 202.202524 
" clip-path="url(#pa24854a8f6)" style="fill: none; stroke: #ffdd8e; stroke-opacity: 0.5; stroke-width: 0.5; stroke-linecap: square"/>
    <g clip-path="url(#pa24854a8f6)">
     <use xlink:href="#mbd97c93008" x="235.803363" y="202.202524" style="fill: #ffdd8e; stroke: #ffdd8e"/>
     <use xlink:href="#mbd97c93008" x="191.931956" y="199.057268" style="fill: #ffdd8e; stroke: #ffdd8e"/>
     <use xlink:href="#mbd97c93008" x="156.092414" y="176.906067" style="fill: #ffdd8e; stroke: #ffdd8e"/>
     <use xlink:href="#mbd97c93008" x="49.377305" y="305.032046" style="fill: #ffdd8e; stroke: #ffdd8e"/>
     <use xlink:href="#mbd97c93008" x="202.450748" y="237.721296" style="fill: #ffdd8e; stroke: #ffdd8e"/>
     <use xlink:href="#mbd97c93008" x="235.803363" y="202.202524" style="fill: #ffdd8e; stroke: #ffdd8e"/>
    </g>
   </g>
   <g id="line2d_31">
    <path d="M 235.803363 202.202524 
L 191.931956 199.057268 
L 156.092414 176.906067 
L 49.377304 305.032047 
L 202.450748 237.721296 
L 235.803363 202.202524 
" clip-path="url(#pa24854a8f6)" style="fill: none; stroke: #ffdd8e; stroke-opacity: 0.5; stroke-width: 0.5; stroke-linecap: square"/>
    <g clip-path="url(#pa24854a8f6)">
     <use xlink:href="#mbd97c93008" x="235.803363" y="202.202524" style="fill: #ffdd8e; stroke: #ffdd8e"/>
     <use xlink:href="#mbd97c93008" x="191.931956" y="199.057268" style="fill: #ffdd8e; stroke: #ffdd8e"/>
     <use xlink:href="#mbd97c93008" x="156.092414" y="176.906067" style="fill: #ffdd8e; stroke: #ffdd8e"/>
     <use xlink:href="#mbd97c93008" x="49.377304" y="305.032047" style="fill: #ffdd8e; stroke: #ffdd8e"/>
     <use xlink:href="#mbd97c93008" x="202.450748" y="237.721296" style="fill: #ffdd8e; stroke: #ffdd8e"/>
     <use xlink:href="#mbd97c93008" x="235.803363" y="202.202524" style="fill: #ffdd8e; stroke: #ffdd8e"/>
    </g>
   </g>
   <g id="line2d_32">
    <path d="M 235.803363 202.202524 
L 191.931956 199.057268 
L 156.092414 176.906067 
L 49.377297 305.032052 
L 202.450748 237.721296 
L 235.803363 202.202524 
" clip-path="url(#pa24854a8f6)" style="fill: none; stroke: #ffdd8e; stroke-opacity: 0.5; stroke-width: 0.5; stroke-linecap: square"/>
    <g clip-path="url(#pa24854a8f6)">
     <use xlink:href="#mbd97c93008" x="235.803363" y="202.202524" style="fill: #ffdd8e; stroke: #ffdd8e"/>
     <use xlink:href="#mbd97c93008" x="191.931956" y="199.057268" style="fill: #ffdd8e; stroke: #ffdd8e"/>
     <use xlink:href="#mbd97c93008" x="156.092414" y="176.906067" style="fill: #ffdd8e; stroke: #ffdd8e"/>
     <use xlink:href="#mbd97c93008" x="49.377297" y="305.032052" style="fill: #ffdd8e; stroke: #ffdd8e"/>
     <use xlink:href="#mbd97c93008" x="202.450748" y="237.721296" style="fill: #ffdd8e; stroke: #ffdd8e"/>
     <use xlink:href="#mbd97c93008" x="235.803363" y="202.202524" style="fill: #ffdd8e; stroke: #ffdd8e"/>
    </g>
   </g>
   <g id="line2d_33">
    <path d="M 236.776687 202.202524 
L 193.67851 193.681927 
L 98.884275 135.341921 
L 161.789166 223.360049 
L 215.976406 279.348989 
L 236.776687 202.202524 
" clip-path="url(#pa24854a8f6)" style="fill: none; stroke: #ffdd8e; stroke-opacity: 0.5; stroke-width: 0.5; stroke-linecap: square"/>
    <g clip-path="url(#pa24854a8f6)">
     <use xlink:href="#mbd97c93008" x="236.776687" y="202.202524" style="fill: #ffdd8e; stroke: #ffdd8e"/>
     <use xlink:href="#mbd97c93008" x="193.67851" y="193.681927" style="fill: #ffdd8e; stroke: #ffdd8e"/>
     <use xlink:href="#mbd97c93008" x="98.884275" y="135.341921" style="fill: #ffdd8e; stroke: #ffdd8e"/>
     <use xlink:href="#mbd97c93008" x="161.789166" y="223.360049" style="fill: #ffdd8e; stroke: #ffdd8e"/>
     <use xlink:href="#mbd97c93008" x="215.976406" y="279.348989" style="fill: #ffdd8e; stroke: #ffdd8e"/>
     <use xlink:href="#mbd97c93008" x="236.776687" y="202.202524" style="fill: #ffdd8e; stroke: #ffdd8e"/>
    </g>
   </g>
   <g id="line2d_34">
    <path d="M 238.380874 202.202524 
L 194.151235 192.227028 
L 104.842249 139.670643 
L 50.730063 304.049211 
L 226.117075 310.55876 
L 238.380874 202.202524 
" clip-path="url(#pa24854a8f6)" style="fill: none; stroke: #ffdd8e; stroke-opacity: 0.5; stroke-width: 0.5; stroke-linecap: square"/>
    <g clip-path="url(#pa24854a8f6)">
     <use xlink:href="#mbd97c93008" x="238.380874" y="202.202524" style="fill: #ffdd8e; stroke: #ffdd8e"/>
     <use xlink:href="#mbd97c93008" x="194.151235" y="192.227028" style="fill: #ffdd8e; stroke: #ffdd8e"/>
     <use xlink:href="#mbd97c93008" x="104.842249" y="139.670643" style="fill: #ffdd8e; stroke: #ffdd8e"/>
     <use xlink:href="#mbd97c93008" x="50.730063" y="304.049211" style="fill: #ffdd8e; stroke: #ffdd8e"/>
     <use xlink:href="#mbd97c93008" x="226.117075" y="310.55876" style="fill: #ffdd8e; stroke: #ffdd8e"/>
     <use xlink:href="#mbd97c93008" x="238.380874" y="202.202524" style="fill: #ffdd8e; stroke: #ffdd8e"/>
    </g>
   </g>
   <g id="line2d_35">
    <path d="M 238.380874 202.202524 
L 194.151235 192.227028 
L 103.03058 138.354389 
L 56.37229 299.949893 
L 211.531464 265.668863 
L 238.380874 202.202524 
" clip-path="url(#pa24854a8f6)" style="fill: none; stroke: #ffdd8e; stroke-opacity: 0.5; stroke-width: 0.5; stroke-linecap: square"/>
    <g clip-path="url(#pa24854a8f6)">
     <use xlink:href="#mbd97c93008" x="238.380874" y="202.202524" style="fill: #ffdd8e; stroke: #ffdd8e"/>
     <use xlink:href="#mbd97c93008" x="194.151235" y="192.227028" style="fill: #ffdd8e; stroke: #ffdd8e"/>
     <use xlink:href="#mbd97c93008" x="103.03058" y="138.354389" style="fill: #ffdd8e; stroke: #ffdd8e"/>
     <use xlink:href="#mbd97c93008" x="56.37229" y="299.949893" style="fill: #ffdd8e; stroke: #ffdd8e"/>
     <use xlink:href="#mbd97c93008" x="211.531464" y="265.668863" style="fill: #ffdd8e; stroke: #ffdd8e"/>
     <use xlink:href="#mbd97c93008" x="238.380874" y="202.202524" style="fill: #ffdd8e; stroke: #ffdd8e"/>
    </g>
   </g>
   <g id="line2d_36">
    <path d="M 238.380874 202.202524 
L 194.163522 192.189214 
L 103.03058 138.354389 
L 56.302172 300.000836 
L 210.998547 264.028714 
L 238.380874 202.202524 
" clip-path="url(#pa24854a8f6)" style="fill: none; stroke: #ffdd8e; stroke-opacity: 0.5; stroke-width: 0.5; stroke-linecap: square"/>
    <g clip-path="url(#pa24854a8f6)">
     <use xlink:href="#mbd97c93008" x="238.380874" y="202.202524" style="fill: #ffdd8e; stroke: #ffdd8e"/>
     <use xlink:href="#mbd97c93008" x="194.163522" y="192.189214" style="fill: #ffdd8e; stroke: #ffdd8e"/>
     <use xlink:href="#mbd97c93008" x="103.03058" y="138.354389" style="fill: #ffdd8e; stroke: #ffdd8e"/>
     <use xlink:href="#mbd97c93008" x="56.302172" y="300.000836" style="fill: #ffdd8e; stroke: #ffdd8e"/>
     <use xlink:href="#mbd97c93008" x="210.998547" y="264.028714" style="fill: #ffdd8e; stroke: #ffdd8e"/>
     <use xlink:href="#mbd97c93008" x="238.380874" y="202.202524" style="fill: #ffdd8e; stroke: #ffdd8e"/>
    </g>
   </g>
   <g id="line2d_37">
    <path d="M 238.509213 202.202524 
L 197.453384 182.064058 
L 87.489884 127.063412 
L 77.847917 284.346936 
L 226.841918 312.789597 
L 238.509213 202.202524 
" clip-path="url(#pa24854a8f6)" style="fill: none; stroke: #ffdd8e; stroke-opacity: 0.5; stroke-width: 0.5; stroke-linecap: square"/>
    <g clip-path="url(#pa24854a8f6)">
     <use xlink:href="#mbd97c93008" x="238.509213" y="202.202524" style="fill: #ffdd8e; stroke: #ffdd8e"/>
     <use xlink:href="#mbd97c93008" x="197.453384" y="182.064058" style="fill: #ffdd8e; stroke: #ffdd8e"/>
     <use xlink:href="#mbd97c93008" x="87.489884" y="127.063412" style="fill: #ffdd8e; stroke: #ffdd8e"/>
     <use xlink:href="#mbd97c93008" x="77.847917" y="284.346936" style="fill: #ffdd8e; stroke: #ffdd8e"/>
     <use xlink:href="#mbd97c93008" x="226.841918" y="312.789597" style="fill: #ffdd8e; stroke: #ffdd8e"/>
     <use xlink:href="#mbd97c93008" x="238.509213" y="202.202524" style="fill: #ffdd8e; stroke: #ffdd8e"/>
    </g>
   </g>
   <g id="line2d_38">
    <path d="M 238.620758 202.202524 
L 193.26987 194.939592 
L 86.645728 126.450096 
L 166.724365 219.774417 
L 210.894839 263.709534 
L 238.620758 202.202524 
" clip-path="url(#pa24854a8f6)" style="fill: none; stroke: #ffdd8e; stroke-opacity: 0.5; stroke-width: 0.5; stroke-linecap: square"/>
    <g clip-path="url(#pa24854a8f6)">
     <use xlink:href="#mbd97c93008" x="238.620758" y="202.202524" style="fill: #ffdd8e; stroke: #ffdd8e"/>
     <use xlink:href="#mbd97c93008" x="193.26987" y="194.939592" style="fill: #ffdd8e; stroke: #ffdd8e"/>
     <use xlink:href="#mbd97c93008" x="86.645728" y="126.450096" style="fill: #ffdd8e; stroke: #ffdd8e"/>
     <use xlink:href="#mbd97c93008" x="166.724365" y="219.774417" style="fill: #ffdd8e; stroke: #ffdd8e"/>
     <use xlink:href="#mbd97c93008" x="210.894839" y="263.709534" style="fill: #ffdd8e; stroke: #ffdd8e"/>
     <use xlink:href="#mbd97c93008" x="238.620758" y="202.202524" style="fill: #ffdd8e; stroke: #ffdd8e"/>
    </g>
   </g>
   <g id="line2d_39">
    <path d="M 238.620758 202.202524 
L 194.128115 192.298186 
L 86.645728 126.450096 
L 163.489421 222.124742 
L 210.894839 263.709534 
L 238.620758 202.202524 
" clip-path="url(#pa24854a8f6)" style="fill: none; stroke: #ffdd8e; stroke-opacity: 0.5; stroke-width: 0.5; stroke-linecap: square"/>
    <g clip-path="url(#pa24854a8f6)">
     <use xlink:href="#mbd97c93008" x="238.620758" y="202.202524" style="fill: #ffdd8e; stroke: #ffdd8e"/>
     <use xlink:href="#mbd97c93008" x="194.128115" y="192.298186" style="fill: #ffdd8e; stroke: #ffdd8e"/>
     <use xlink:href="#mbd97c93008" x="86.645728" y="126.450096" style="fill: #ffdd8e; stroke: #ffdd8e"/>
     <use xlink:href="#mbd97c93008" x="163.489421" y="222.124742" style="fill: #ffdd8e; stroke: #ffdd8e"/>
     <use xlink:href="#mbd97c93008" x="210.894839" y="263.709534" style="fill: #ffdd8e; stroke: #ffdd8e"/>
     <use xlink:href="#mbd97c93008" x="238.620758" y="202.202524" style="fill: #ffdd8e; stroke: #ffdd8e"/>
    </g>
   </g>
   <g id="line2d_40">
    <path d="M 239.342099 202.202524 
L 194.128115 192.298186 
L 98.385781 134.979745 
L 163.489421 222.124742 
L 210.894839 263.709534 
L 239.342099 202.202524 
" clip-path="url(#pa24854a8f6)" style="fill: none; stroke: #ffdd8e; stroke-opacity: 0.5; stroke-width: 0.5; stroke-linecap: square"/>
    <g clip-path="url(#pa24854a8f6)">
     <use xlink:href="#mbd97c93008" x="239.342099" y="202.202524" style="fill: #ffdd8e; stroke: #ffdd8e"/>
     <use xlink:href="#mbd97c93008" x="194.128115" y="192.298186" style="fill: #ffdd8e; stroke: #ffdd8e"/>
     <use xlink:href="#mbd97c93008" x="98.385781" y="134.979745" style="fill: #ffdd8e; stroke: #ffdd8e"/>
     <use xlink:href="#mbd97c93008" x="163.489421" y="222.124742" style="fill: #ffdd8e; stroke: #ffdd8e"/>
     <use xlink:href="#mbd97c93008" x="210.894839" y="263.709534" style="fill: #ffdd8e; stroke: #ffdd8e"/>
     <use xlink:href="#mbd97c93008" x="239.342099" y="202.202524" style="fill: #ffdd8e; stroke: #ffdd8e"/>
    </g>
   </g>
   <g id="line2d_41">
    <path d="M 239.730934 202.202524 
L 191.066256 201.721617 
L 149.105107 171.829492 
L 63.92395 294.46329 
L 202.942787 239.235633 
L 239.730934 202.202524 
" clip-path="url(#pa24854a8f6)" style="fill: none; stroke: #ffdd8e; stroke-opacity: 0.5; stroke-width: 0.5; stroke-linecap: square"/>
    <g clip-path="url(#pa24854a8f6)">
     <use xlink:href="#mbd97c93008" x="239.730934" y="202.202524" style="fill: #ffdd8e; stroke: #ffdd8e"/>
     <use xlink:href="#mbd97c93008" x="191.066256" y="201.721617" style="fill: #ffdd8e; stroke: #ffdd8e"/>
     <use xlink:href="#mbd97c93008" x="149.105107" y="171.829492" style="fill: #ffdd8e; stroke: #ffdd8e"/>
     <use xlink:href="#mbd97c93008" x="63.92395" y="294.46329" style="fill: #ffdd8e; stroke: #ffdd8e"/>
     <use xlink:href="#mbd97c93008" x="202.942787" y="239.235633" style="fill: #ffdd8e; stroke: #ffdd8e"/>
     <use xlink:href="#mbd97c93008" x="239.730934" y="202.202524" style="fill: #ffdd8e; stroke: #ffdd8e"/>
    </g>
   </g>
   <g id="line2d_42">
    <path d="M 240.419984 202.202524 
L 196.148623 186.079699 
L 98.424905 135.00817 
L 147.655662 233.62864 
L 226.321385 311.18756 
L 240.419984 202.202524 
" clip-path="url(#pa24854a8f6)" style="fill: none; stroke: #ffdd8e; stroke-opacity: 0.5; stroke-width: 0.5; stroke-linecap: square"/>
    <g clip-path="url(#pa24854a8f6)">
     <use xlink:href="#mbd97c93008" x="240.419984" y="202.202524" style="fill: #ffdd8e; stroke: #ffdd8e"/>
     <use xlink:href="#mbd97c93008" x="196.148623" y="186.079699" style="fill: #ffdd8e; stroke: #ffdd8e"/>
     <use xlink:href="#mbd97c93008" x="98.424905" y="135.00817" style="fill: #ffdd8e; stroke: #ffdd8e"/>
     <use xlink:href="#mbd97c93008" x="147.655662" y="233.62864" style="fill: #ffdd8e; stroke: #ffdd8e"/>
     <use xlink:href="#mbd97c93008" x="226.321385" y="311.18756" style="fill: #ffdd8e; stroke: #ffdd8e"/>
     <use xlink:href="#mbd97c93008" x="240.419984" y="202.202524" style="fill: #ffdd8e; stroke: #ffdd8e"/>
    </g>
   </g>
   <g id="line2d_43">
    <path d="M 240.419984 202.202524 
L 196.167512 186.021566 
L 98.424905 135.00817 
L 147.655662 233.62864 
L 226.321385 311.18756 
L 240.419984 202.202524 
" clip-path="url(#pa24854a8f6)" style="fill: none; stroke: #ffdd8e; stroke-opacity: 0.5; stroke-width: 0.5; stroke-linecap: square"/>
    <g clip-path="url(#pa24854a8f6)">
     <use xlink:href="#mbd97c93008" x="240.419984" y="202.202524" style="fill: #ffdd8e; stroke: #ffdd8e"/>
     <use xlink:href="#mbd97c93008" x="196.167512" y="186.021566" style="fill: #ffdd8e; stroke: #ffdd8e"/>
     <use xlink:href="#mbd97c93008" x="98.424905" y="135.00817" style="fill: #ffdd8e; stroke: #ffdd8e"/>
     <use xlink:href="#mbd97c93008" x="147.655662" y="233.62864" style="fill: #ffdd8e; stroke: #ffdd8e"/>
     <use xlink:href="#mbd97c93008" x="226.321385" y="311.18756" style="fill: #ffdd8e; stroke: #ffdd8e"/>
     <use xlink:href="#mbd97c93008" x="240.419984" y="202.202524" style="fill: #ffdd8e; stroke: #ffdd8e"/>
    </g>
   </g>
   <g id="line2d_44">
    <path d="M 241.712109 202.202524 
L 200.034389 174.120542 
L 94.496776 132.154217 
L 120.234835 253.551038 
L 206.698496 250.794517 
L 241.712109 202.202524 
" clip-path="url(#pa24854a8f6)" style="fill: none; stroke: #ffdd8e; stroke-opacity: 0.5; stroke-width: 0.5; stroke-linecap: square"/>
    <g clip-path="url(#pa24854a8f6)">
     <use xlink:href="#mbd97c93008" x="241.712109" y="202.202524" style="fill: #ffdd8e; stroke: #ffdd8e"/>
     <use xlink:href="#mbd97c93008" x="200.034389" y="174.120542" style="fill: #ffdd8e; stroke: #ffdd8e"/>
     <use xlink:href="#mbd97c93008" x="94.496776" y="132.154217" style="fill: #ffdd8e; stroke: #ffdd8e"/>
     <use xlink:href="#mbd97c93008" x="120.234835" y="253.551038" style="fill: #ffdd8e; stroke: #ffdd8e"/>
     <use xlink:href="#mbd97c93008" x="206.698496" y="250.794517" style="fill: #ffdd8e; stroke: #ffdd8e"/>
     <use xlink:href="#mbd97c93008" x="241.712109" y="202.202524" style="fill: #ffdd8e; stroke: #ffdd8e"/>
    </g>
   </g>
   <g id="line2d_45">
    <path d="M 241.753627 202.202524 
L 196.128926 186.140323 
L 95.582337 132.942923 
L 118.689444 254.67383 
L 210.886041 263.682456 
L 241.753627 202.202524 
" clip-path="url(#pa24854a8f6)" style="fill: none; stroke: #ffdd8e; stroke-opacity: 0.5; stroke-width: 0.5; stroke-linecap: square"/>
    <g clip-path="url(#pa24854a8f6)">
     <use xlink:href="#mbd97c93008" x="241.753627" y="202.202524" style="fill: #ffdd8e; stroke: #ffdd8e"/>
     <use xlink:href="#mbd97c93008" x="196.128926" y="186.140323" style="fill: #ffdd8e; stroke: #ffdd8e"/>
     <use xlink:href="#mbd97c93008" x="95.582337" y="132.942923" style="fill: #ffdd8e; stroke: #ffdd8e"/>
     <use xlink:href="#mbd97c93008" x="118.689444" y="254.67383" style="fill: #ffdd8e; stroke: #ffdd8e"/>
     <use xlink:href="#mbd97c93008" x="210.886041" y="263.682456" style="fill: #ffdd8e; stroke: #ffdd8e"/>
     <use xlink:href="#mbd97c93008" x="241.753627" y="202.202524" style="fill: #ffdd8e; stroke: #ffdd8e"/>
    </g>
   </g>
   <g id="line2d_46">
    <path d="M 241.849427 202.202524 
L 193.110035 195.431513 
L 126.423942 155.350661 
L 114.206839 257.930633 
L 217.730733 284.748254 
L 241.849427 202.202524 
" clip-path="url(#pa24854a8f6)" style="fill: none; stroke: #ffdd8e; stroke-opacity: 0.5; stroke-width: 0.5; stroke-linecap: square"/>
    <g clip-path="url(#pa24854a8f6)">
     <use xlink:href="#mbd97c93008" x="241.849427" y="202.202524" style="fill: #ffdd8e; stroke: #ffdd8e"/>
     <use xlink:href="#mbd97c93008" x="193.110035" y="195.431513" style="fill: #ffdd8e; stroke: #ffdd8e"/>
     <use xlink:href="#mbd97c93008" x="126.423942" y="155.350661" style="fill: #ffdd8e; stroke: #ffdd8e"/>
     <use xlink:href="#mbd97c93008" x="114.206839" y="257.930633" style="fill: #ffdd8e; stroke: #ffdd8e"/>
     <use xlink:href="#mbd97c93008" x="217.730733" y="284.748254" style="fill: #ffdd8e; stroke: #ffdd8e"/>
     <use xlink:href="#mbd97c93008" x="241.849427" y="202.202524" style="fill: #ffdd8e; stroke: #ffdd8e"/>
    </g>
   </g>
   <g id="line2d_47">
    <path d="M 241.849427 202.202524 
L 193.110035 195.431513 
L 126.423074 155.35003 
L 114.206839 257.930633 
L 217.730733 284.748254 
L 241.849427 202.202524 
" clip-path="url(#pa24854a8f6)" style="fill: none; stroke: #ffdd8e; stroke-opacity: 0.5; stroke-width: 0.5; stroke-linecap: square"/>
    <g clip-path="url(#pa24854a8f6)">
     <use xlink:href="#mbd97c93008" x="241.849427" y="202.202524" style="fill: #ffdd8e; stroke: #ffdd8e"/>
     <use xlink:href="#mbd97c93008" x="193.110035" y="195.431513" style="fill: #ffdd8e; stroke: #ffdd8e"/>
     <use xlink:href="#mbd97c93008" x="126.423074" y="155.35003" style="fill: #ffdd8e; stroke: #ffdd8e"/>
     <use xlink:href="#mbd97c93008" x="114.206839" y="257.930633" style="fill: #ffdd8e; stroke: #ffdd8e"/>
     <use xlink:href="#mbd97c93008" x="217.730733" y="284.748254" style="fill: #ffdd8e; stroke: #ffdd8e"/>
     <use xlink:href="#mbd97c93008" x="241.849427" y="202.202524" style="fill: #ffdd8e; stroke: #ffdd8e"/>
    </g>
   </g>
   <g id="line2d_48">
    <path d="M 241.858669 202.202524 
L 193.10391 195.450364 
L 126.423942 155.350661 
L 120.806306 253.13584 
L 215.986432 279.379846 
L 241.858669 202.202524 
" clip-path="url(#pa24854a8f6)" style="fill: none; stroke: #ffdd8e; stroke-opacity: 0.5; stroke-width: 0.5; stroke-linecap: square"/>
    <g clip-path="url(#pa24854a8f6)">
     <use xlink:href="#mbd97c93008" x="241.858669" y="202.202524" style="fill: #ffdd8e; stroke: #ffdd8e"/>
     <use xlink:href="#mbd97c93008" x="193.10391" y="195.450364" style="fill: #ffdd8e; stroke: #ffdd8e"/>
     <use xlink:href="#mbd97c93008" x="126.423942" y="155.350661" style="fill: #ffdd8e; stroke: #ffdd8e"/>
     <use xlink:href="#mbd97c93008" x="120.806306" y="253.13584" style="fill: #ffdd8e; stroke: #ffdd8e"/>
     <use xlink:href="#mbd97c93008" x="215.986432" y="279.379846" style="fill: #ffdd8e; stroke: #ffdd8e"/>
     <use xlink:href="#mbd97c93008" x="241.858669" y="202.202524" style="fill: #ffdd8e; stroke: #ffdd8e"/>
    </g>
   </g>
   <g id="line2d_49">
    <path d="M 241.858669 202.202524 
L 193.10391 195.450364 
L 126.423942 155.350661 
L 120.806306 253.13584 
L 215.989143 279.38819 
L 241.858669 202.202524 
" clip-path="url(#pa24854a8f6)" style="fill: none; stroke: #ffdd8e; stroke-opacity: 0.5; stroke-width: 0.5; stroke-linecap: square"/>
    <g clip-path="url(#pa24854a8f6)">
     <use xlink:href="#mbd97c93008" x="241.858669" y="202.202524" style="fill: #ffdd8e; stroke: #ffdd8e"/>
     <use xlink:href="#mbd97c93008" x="193.10391" y="195.450364" style="fill: #ffdd8e; stroke: #ffdd8e"/>
     <use xlink:href="#mbd97c93008" x="126.423942" y="155.350661" style="fill: #ffdd8e; stroke: #ffdd8e"/>
     <use xlink:href="#mbd97c93008" x="120.806306" y="253.13584" style="fill: #ffdd8e; stroke: #ffdd8e"/>
     <use xlink:href="#mbd97c93008" x="215.989143" y="279.38819" style="fill: #ffdd8e; stroke: #ffdd8e"/>
     <use xlink:href="#mbd97c93008" x="241.858669" y="202.202524" style="fill: #ffdd8e; stroke: #ffdd8e"/>
    </g>
   </g>
   <g id="line2d_50">
    <path d="M 241.858669 202.202524 
L 193.10391 195.450364 
L 126.423942 155.350661 
L 120.491571 253.364508 
L 215.986432 279.379846 
L 241.858669 202.202524 
" clip-path="url(#pa24854a8f6)" style="fill: none; stroke: #ffdd8e; stroke-opacity: 0.5; stroke-width: 0.5; stroke-linecap: square"/>
    <g clip-path="url(#pa24854a8f6)">
     <use xlink:href="#mbd97c93008" x="241.858669" y="202.202524" style="fill: #ffdd8e; stroke: #ffdd8e"/>
     <use xlink:href="#mbd97c93008" x="193.10391" y="195.450364" style="fill: #ffdd8e; stroke: #ffdd8e"/>
     <use xlink:href="#mbd97c93008" x="126.423942" y="155.350661" style="fill: #ffdd8e; stroke: #ffdd8e"/>
     <use xlink:href="#mbd97c93008" x="120.491571" y="253.364508" style="fill: #ffdd8e; stroke: #ffdd8e"/>
     <use xlink:href="#mbd97c93008" x="215.986432" y="279.379846" style="fill: #ffdd8e; stroke: #ffdd8e"/>
     <use xlink:href="#mbd97c93008" x="241.858669" y="202.202524" style="fill: #ffdd8e; stroke: #ffdd8e"/>
    </g>
   </g>
   <g id="line2d_51">
    <path d="M 243.217076 202.202524 
L 196.167035 186.023035 
L 102.774313 138.1682 
L 169.515336 217.746658 
L 200.829615 232.731959 
L 243.217076 202.202524 
" clip-path="url(#pa24854a8f6)" style="fill: none; stroke: #ffdd8e; stroke-opacity: 0.5; stroke-width: 0.5; stroke-linecap: square"/>
    <g clip-path="url(#pa24854a8f6)">
     <use xlink:href="#mbd97c93008" x="243.217076" y="202.202524" style="fill: #ffdd8e; stroke: #ffdd8e"/>
     <use xlink:href="#mbd97c93008" x="196.167035" y="186.023035" style="fill: #ffdd8e; stroke: #ffdd8e"/>
     <use xlink:href="#mbd97c93008" x="102.774313" y="138.1682" style="fill: #ffdd8e; stroke: #ffdd8e"/>
     <use xlink:href="#mbd97c93008" x="169.515336" y="217.746658" style="fill: #ffdd8e; stroke: #ffdd8e"/>
     <use xlink:href="#mbd97c93008" x="200.829615" y="232.731959" style="fill: #ffdd8e; stroke: #ffdd8e"/>
     <use xlink:href="#mbd97c93008" x="243.217076" y="202.202524" style="fill: #ffdd8e; stroke: #ffdd8e"/>
    </g>
   </g>
   <g id="line2d_52">
    <path d="M 245.434105 202.202524 
L 195.925611 186.76606 
L 99.354406 135.683492 
L 118.517748 254.798574 
L 224.934487 306.919127 
L 245.434105 202.202524 
" clip-path="url(#pa24854a8f6)" style="fill: none; stroke: #ffdd8e; stroke-opacity: 0.5; stroke-width: 0.5; stroke-linecap: square"/>
    <g clip-path="url(#pa24854a8f6)">
     <use xlink:href="#mbd97c93008" x="245.434105" y="202.202524" style="fill: #ffdd8e; stroke: #ffdd8e"/>
     <use xlink:href="#mbd97c93008" x="195.925611" y="186.76606" style="fill: #ffdd8e; stroke: #ffdd8e"/>
     <use xlink:href="#mbd97c93008" x="99.354406" y="135.683492" style="fill: #ffdd8e; stroke: #ffdd8e"/>
     <use xlink:href="#mbd97c93008" x="118.517748" y="254.798574" style="fill: #ffdd8e; stroke: #ffdd8e"/>
     <use xlink:href="#mbd97c93008" x="224.934487" y="306.919127" style="fill: #ffdd8e; stroke: #ffdd8e"/>
     <use xlink:href="#mbd97c93008" x="245.434105" y="202.202524" style="fill: #ffdd8e; stroke: #ffdd8e"/>
    </g>
   </g>
   <g id="line2d_53">
    <path d="M 245.678466 202.202524 
L 193.098142 195.468115 
L 126.423942 155.350661 
L 114.448352 257.755163 
L 216.091767 279.704033 
L 245.678466 202.202524 
" clip-path="url(#pa24854a8f6)" style="fill: none; stroke: #ffdd8e; stroke-opacity: 0.5; stroke-width: 0.5; stroke-linecap: square"/>
    <g clip-path="url(#pa24854a8f6)">
     <use xlink:href="#mbd97c93008" x="245.678466" y="202.202524" style="fill: #ffdd8e; stroke: #ffdd8e"/>
     <use xlink:href="#mbd97c93008" x="193.098142" y="195.468115" style="fill: #ffdd8e; stroke: #ffdd8e"/>
     <use xlink:href="#mbd97c93008" x="126.423942" y="155.350661" style="fill: #ffdd8e; stroke: #ffdd8e"/>
     <use xlink:href="#mbd97c93008" x="114.448352" y="257.755163" style="fill: #ffdd8e; stroke: #ffdd8e"/>
     <use xlink:href="#mbd97c93008" x="216.091767" y="279.704033" style="fill: #ffdd8e; stroke: #ffdd8e"/>
     <use xlink:href="#mbd97c93008" x="245.678466" y="202.202524" style="fill: #ffdd8e; stroke: #ffdd8e"/>
    </g>
   </g>
   <g id="line2d_54">
    <path d="M 245.821287 202.202524 
L 196.167035 186.023035 
L 98.680555 135.19391 
L 163.706078 221.967331 
L 215.628887 278.279436 
L 245.821287 202.202524 
" clip-path="url(#pa24854a8f6)" style="fill: none; stroke: #ffdd8e; stroke-opacity: 0.5; stroke-width: 0.5; stroke-linecap: square"/>
    <g clip-path="url(#pa24854a8f6)">
     <use xlink:href="#mbd97c93008" x="245.821287" y="202.202524" style="fill: #ffdd8e; stroke: #ffdd8e"/>
     <use xlink:href="#mbd97c93008" x="196.167035" y="186.023035" style="fill: #ffdd8e; stroke: #ffdd8e"/>
     <use xlink:href="#mbd97c93008" x="98.680555" y="135.19391" style="fill: #ffdd8e; stroke: #ffdd8e"/>
     <use xlink:href="#mbd97c93008" x="163.706078" y="221.967331" style="fill: #ffdd8e; stroke: #ffdd8e"/>
     <use xlink:href="#mbd97c93008" x="215.628887" y="278.279436" style="fill: #ffdd8e; stroke: #ffdd8e"/>
     <use xlink:href="#mbd97c93008" x="245.821287" y="202.202524" style="fill: #ffdd8e; stroke: #ffdd8e"/>
    </g>
   </g>
   <g id="line2d_55">
    <path d="M 245.821287 202.202524 
L 196.167035 186.023035 
L 98.680555 135.19391 
L 163.704341 221.968592 
L 215.628887 278.279436 
L 245.821287 202.202524 
" clip-path="url(#pa24854a8f6)" style="fill: none; stroke: #ffdd8e; stroke-opacity: 0.5; stroke-width: 0.5; stroke-linecap: square"/>
    <g clip-path="url(#pa24854a8f6)">
     <use xlink:href="#mbd97c93008" x="245.821287" y="202.202524" style="fill: #ffdd8e; stroke: #ffdd8e"/>
     <use xlink:href="#mbd97c93008" x="196.167035" y="186.023035" style="fill: #ffdd8e; stroke: #ffdd8e"/>
     <use xlink:href="#mbd97c93008" x="98.680555" y="135.19391" style="fill: #ffdd8e; stroke: #ffdd8e"/>
     <use xlink:href="#mbd97c93008" x="163.704341" y="221.968592" style="fill: #ffdd8e; stroke: #ffdd8e"/>
     <use xlink:href="#mbd97c93008" x="215.628887" y="278.279436" style="fill: #ffdd8e; stroke: #ffdd8e"/>
     <use xlink:href="#mbd97c93008" x="245.821287" y="202.202524" style="fill: #ffdd8e; stroke: #ffdd8e"/>
    </g>
   </g>
   <g id="line2d_56">
    <path d="M 245.821287 202.202524 
L 196.167035 186.023035 
L 94.5682 132.206109 
L 163.704341 221.968592 
L 211.79964 266.494227 
L 245.821287 202.202524 
" clip-path="url(#pa24854a8f6)" style="fill: none; stroke: #ffdd8e; stroke-opacity: 0.5; stroke-width: 0.5; stroke-linecap: square"/>
    <g clip-path="url(#pa24854a8f6)">
     <use xlink:href="#mbd97c93008" x="245.821287" y="202.202524" style="fill: #ffdd8e; stroke: #ffdd8e"/>
     <use xlink:href="#mbd97c93008" x="196.167035" y="186.023035" style="fill: #ffdd8e; stroke: #ffdd8e"/>
     <use xlink:href="#mbd97c93008" x="94.5682" y="132.206109" style="fill: #ffdd8e; stroke: #ffdd8e"/>
     <use xlink:href="#mbd97c93008" x="163.704341" y="221.968592" style="fill: #ffdd8e; stroke: #ffdd8e"/>
     <use xlink:href="#mbd97c93008" x="211.79964" y="266.494227" style="fill: #ffdd8e; stroke: #ffdd8e"/>
     <use xlink:href="#mbd97c93008" x="245.821287" y="202.202524" style="fill: #ffdd8e; stroke: #ffdd8e"/>
    </g>
   </g>
   <g id="line2d_57">
    <path d="M 245.851295 202.202524 
L 197.453384 182.064058 
L 81.528902 122.732505 
L 77.847917 284.346936 
L 226.841918 312.789597 
L 245.851295 202.202524 
" clip-path="url(#pa24854a8f6)" style="fill: none; stroke: #ffdd8e; stroke-opacity: 0.5; stroke-width: 0.5; stroke-linecap: square"/>
    <g clip-path="url(#pa24854a8f6)">
     <use xlink:href="#mbd97c93008" x="245.851295" y="202.202524" style="fill: #ffdd8e; stroke: #ffdd8e"/>
     <use xlink:href="#mbd97c93008" x="197.453384" y="182.064058" style="fill: #ffdd8e; stroke: #ffdd8e"/>
     <use xlink:href="#mbd97c93008" x="81.528902" y="122.732505" style="fill: #ffdd8e; stroke: #ffdd8e"/>
     <use xlink:href="#mbd97c93008" x="77.847917" y="284.346936" style="fill: #ffdd8e; stroke: #ffdd8e"/>
     <use xlink:href="#mbd97c93008" x="226.841918" y="312.789597" style="fill: #ffdd8e; stroke: #ffdd8e"/>
     <use xlink:href="#mbd97c93008" x="245.851295" y="202.202524" style="fill: #ffdd8e; stroke: #ffdd8e"/>
    </g>
   </g>
   <g id="line2d_58">
    <path d="M 245.905156 202.202524 
L 193.421188 194.473881 
L 86.645728 126.450096 
L 161.734426 223.39982 
L 215.524377 277.957789 
L 245.905156 202.202524 
" clip-path="url(#pa24854a8f6)" style="fill: none; stroke: #ffdd8e; stroke-opacity: 0.5; stroke-width: 0.5; stroke-linecap: square"/>
    <g clip-path="url(#pa24854a8f6)">
     <use xlink:href="#mbd97c93008" x="245.905156" y="202.202524" style="fill: #ffdd8e; stroke: #ffdd8e"/>
     <use xlink:href="#mbd97c93008" x="193.421188" y="194.473881" style="fill: #ffdd8e; stroke: #ffdd8e"/>
     <use xlink:href="#mbd97c93008" x="86.645728" y="126.450096" style="fill: #ffdd8e; stroke: #ffdd8e"/>
     <use xlink:href="#mbd97c93008" x="161.734426" y="223.39982" style="fill: #ffdd8e; stroke: #ffdd8e"/>
     <use xlink:href="#mbd97c93008" x="215.524377" y="277.957789" style="fill: #ffdd8e; stroke: #ffdd8e"/>
     <use xlink:href="#mbd97c93008" x="245.905156" y="202.202524" style="fill: #ffdd8e; stroke: #ffdd8e"/>
    </g>
   </g>
   <g id="line2d_59">
    <path d="M 245.909796 202.202524 
L 193.33684 194.73348 
L 98.420623 135.005058 
L 160.480138 224.311114 
L 215.098472 276.646985 
L 245.909796 202.202524 
" clip-path="url(#pa24854a8f6)" style="fill: none; stroke: #ffdd8e; stroke-opacity: 0.5; stroke-width: 0.5; stroke-linecap: square"/>
    <g clip-path="url(#pa24854a8f6)">
     <use xlink:href="#mbd97c93008" x="245.909796" y="202.202524" style="fill: #ffdd8e; stroke: #ffdd8e"/>
     <use xlink:href="#mbd97c93008" x="193.33684" y="194.73348" style="fill: #ffdd8e; stroke: #ffdd8e"/>
     <use xlink:href="#mbd97c93008" x="98.420623" y="135.005058" style="fill: #ffdd8e; stroke: #ffdd8e"/>
     <use xlink:href="#mbd97c93008" x="160.480138" y="224.311114" style="fill: #ffdd8e; stroke: #ffdd8e"/>
     <use xlink:href="#mbd97c93008" x="215.098472" y="276.646985" style="fill: #ffdd8e; stroke: #ffdd8e"/>
     <use xlink:href="#mbd97c93008" x="245.909796" y="202.202524" style="fill: #ffdd8e; stroke: #ffdd8e"/>
    </g>
   </g>
   <g id="line2d_60">
    <path d="M 245.909796 202.202524 
L 193.33684 194.73348 
L 98.357586 134.95926 
L 160.480138 224.311114 
L 215.098472 276.646985 
L 245.909796 202.202524 
" clip-path="url(#pa24854a8f6)" style="fill: none; stroke: #ffdd8e; stroke-opacity: 0.5; stroke-width: 0.5; stroke-linecap: square"/>
    <g clip-path="url(#pa24854a8f6)">
     <use xlink:href="#mbd97c93008" x="245.909796" y="202.202524" style="fill: #ffdd8e; stroke: #ffdd8e"/>
     <use xlink:href="#mbd97c93008" x="193.33684" y="194.73348" style="fill: #ffdd8e; stroke: #ffdd8e"/>
     <use xlink:href="#mbd97c93008" x="98.357586" y="134.95926" style="fill: #ffdd8e; stroke: #ffdd8e"/>
     <use xlink:href="#mbd97c93008" x="160.480138" y="224.311114" style="fill: #ffdd8e; stroke: #ffdd8e"/>
     <use xlink:href="#mbd97c93008" x="215.098472" y="276.646985" style="fill: #ffdd8e; stroke: #ffdd8e"/>
     <use xlink:href="#mbd97c93008" x="245.909796" y="202.202524" style="fill: #ffdd8e; stroke: #ffdd8e"/>
    </g>
   </g>
   <g id="line2d_61">
    <path d="M 245.909796 202.202524 
L 195.022652 189.545084 
L 98.519666 135.077018 
L 161.7359 223.398749 
L 215.976406 279.348989 
L 245.909796 202.202524 
" clip-path="url(#pa24854a8f6)" style="fill: none; stroke: #ffdd8e; stroke-opacity: 0.5; stroke-width: 0.5; stroke-linecap: square"/>
    <g clip-path="url(#pa24854a8f6)">
     <use xlink:href="#mbd97c93008" x="245.909796" y="202.202524" style="fill: #ffdd8e; stroke: #ffdd8e"/>
     <use xlink:href="#mbd97c93008" x="195.022652" y="189.545084" style="fill: #ffdd8e; stroke: #ffdd8e"/>
     <use xlink:href="#mbd97c93008" x="98.519666" y="135.077018" style="fill: #ffdd8e; stroke: #ffdd8e"/>
     <use xlink:href="#mbd97c93008" x="161.7359" y="223.398749" style="fill: #ffdd8e; stroke: #ffdd8e"/>
     <use xlink:href="#mbd97c93008" x="215.976406" y="279.348989" style="fill: #ffdd8e; stroke: #ffdd8e"/>
     <use xlink:href="#mbd97c93008" x="245.909796" y="202.202524" style="fill: #ffdd8e; stroke: #ffdd8e"/>
    </g>
   </g>
   <g id="line2d_62">
    <path d="M 245.909796 202.202524 
L 195.02397 189.541025 
L 87.703734 127.218783 
L 61.946438 295.900036 
L 225.982179 310.143593 
L 245.909796 202.202524 
" clip-path="url(#pa24854a8f6)" style="fill: none; stroke: #ffdd8e; stroke-opacity: 0.5; stroke-width: 0.5; stroke-linecap: square"/>
    <g clip-path="url(#pa24854a8f6)">
     <use xlink:href="#mbd97c93008" x="245.909796" y="202.202524" style="fill: #ffdd8e; stroke: #ffdd8e"/>
     <use xlink:href="#mbd97c93008" x="195.02397" y="189.541025" style="fill: #ffdd8e; stroke: #ffdd8e"/>
     <use xlink:href="#mbd97c93008" x="87.703734" y="127.218783" style="fill: #ffdd8e; stroke: #ffdd8e"/>
     <use xlink:href="#mbd97c93008" x="61.946438" y="295.900036" style="fill: #ffdd8e; stroke: #ffdd8e"/>
     <use xlink:href="#mbd97c93008" x="225.982179" y="310.143593" style="fill: #ffdd8e; stroke: #ffdd8e"/>
     <use xlink:href="#mbd97c93008" x="245.909796" y="202.202524" style="fill: #ffdd8e; stroke: #ffdd8e"/>
    </g>
   </g>
   <g id="line2d_63">
    <path d="M 245.909796 202.202524 
L 195.329465 188.600809 
L 87.703734 127.218783 
L 61.900395 295.933489 
L 226.296486 311.110929 
L 245.909796 202.202524 
" clip-path="url(#pa24854a8f6)" style="fill: none; stroke: #ffdd8e; stroke-opacity: 0.5; stroke-width: 0.5; stroke-linecap: square"/>
    <g clip-path="url(#pa24854a8f6)">
     <use xlink:href="#mbd97c93008" x="245.909796" y="202.202524" style="fill: #ffdd8e; stroke: #ffdd8e"/>
     <use xlink:href="#mbd97c93008" x="195.329465" y="188.600809" style="fill: #ffdd8e; stroke: #ffdd8e"/>
     <use xlink:href="#mbd97c93008" x="87.703734" y="127.218783" style="fill: #ffdd8e; stroke: #ffdd8e"/>
     <use xlink:href="#mbd97c93008" x="61.900395" y="295.933489" style="fill: #ffdd8e; stroke: #ffdd8e"/>
     <use xlink:href="#mbd97c93008" x="226.296486" y="311.110929" style="fill: #ffdd8e; stroke: #ffdd8e"/>
     <use xlink:href="#mbd97c93008" x="245.909796" y="202.202524" style="fill: #ffdd8e; stroke: #ffdd8e"/>
    </g>
   </g>
   <g id="line2d_64">
    <path d="M 245.909796 202.202524 
L 195.329465 188.600809 
L 87.703734 127.218783 
L 61.900395 295.933489 
L 229.861692 322.083505 
L 245.909796 202.202524 
" clip-path="url(#pa24854a8f6)" style="fill: none; stroke: #ffdd8e; stroke-opacity: 0.5; stroke-width: 0.5; stroke-linecap: square"/>
    <g clip-path="url(#pa24854a8f6)">
     <use xlink:href="#mbd97c93008" x="245.909796" y="202.202524" style="fill: #ffdd8e; stroke: #ffdd8e"/>
     <use xlink:href="#mbd97c93008" x="195.329465" y="188.600809" style="fill: #ffdd8e; stroke: #ffdd8e"/>
     <use xlink:href="#mbd97c93008" x="87.703734" y="127.218783" style="fill: #ffdd8e; stroke: #ffdd8e"/>
     <use xlink:href="#mbd97c93008" x="61.900395" y="295.933489" style="fill: #ffdd8e; stroke: #ffdd8e"/>
     <use xlink:href="#mbd97c93008" x="229.861692" y="322.083505" style="fill: #ffdd8e; stroke: #ffdd8e"/>
     <use xlink:href="#mbd97c93008" x="245.909796" y="202.202524" style="fill: #ffdd8e; stroke: #ffdd8e"/>
    </g>
   </g>
   <g id="line2d_65">
    <path d="M 245.909796 202.202524 
L 196.167035 186.023035 
L 101.465802 137.217511 
L 169.515336 217.746658 
L 222.58456 299.686796 
L 245.909796 202.202524 
" clip-path="url(#pa24854a8f6)" style="fill: none; stroke: #ffdd8e; stroke-opacity: 0.5; stroke-width: 0.5; stroke-linecap: square"/>
    <g clip-path="url(#pa24854a8f6)">
     <use xlink:href="#mbd97c93008" x="245.909796" y="202.202524" style="fill: #ffdd8e; stroke: #ffdd8e"/>
     <use xlink:href="#mbd97c93008" x="196.167035" y="186.023035" style="fill: #ffdd8e; stroke: #ffdd8e"/>
     <use xlink:href="#mbd97c93008" x="101.465802" y="137.217511" style="fill: #ffdd8e; stroke: #ffdd8e"/>
     <use xlink:href="#mbd97c93008" x="169.515336" y="217.746658" style="fill: #ffdd8e; stroke: #ffdd8e"/>
     <use xlink:href="#mbd97c93008" x="222.58456" y="299.686796" style="fill: #ffdd8e; stroke: #ffdd8e"/>
     <use xlink:href="#mbd97c93008" x="245.909796" y="202.202524" style="fill: #ffdd8e; stroke: #ffdd8e"/>
    </g>
   </g>
   <g id="line2d_66">
    <path d="M 245.909796 202.202524 
L 196.167035 186.023035 
L 98.424905 135.00817 
L 148.429959 233.066081 
L 215.862534 278.998528 
L 245.909796 202.202524 
" clip-path="url(#pa24854a8f6)" style="fill: none; stroke: #ffdd8e; stroke-opacity: 0.5; stroke-width: 0.5; stroke-linecap: square"/>
    <g clip-path="url(#pa24854a8f6)">
     <use xlink:href="#mbd97c93008" x="245.909796" y="202.202524" style="fill: #ffdd8e; stroke: #ffdd8e"/>
     <use xlink:href="#mbd97c93008" x="196.167035" y="186.023035" style="fill: #ffdd8e; stroke: #ffdd8e"/>
     <use xlink:href="#mbd97c93008" x="98.424905" y="135.00817" style="fill: #ffdd8e; stroke: #ffdd8e"/>
     <use xlink:href="#mbd97c93008" x="148.429959" y="233.066081" style="fill: #ffdd8e; stroke: #ffdd8e"/>
     <use xlink:href="#mbd97c93008" x="215.862534" y="278.998528" style="fill: #ffdd8e; stroke: #ffdd8e"/>
     <use xlink:href="#mbd97c93008" x="245.909796" y="202.202524" style="fill: #ffdd8e; stroke: #ffdd8e"/>
    </g>
   </g>
   <g id="line2d_67">
    <path d="M 245.909796 202.202524 
L 197.453384 182.064058 
L 90.732171 129.419071 
L 77.531745 284.576648 
L 226.848394 312.809528 
L 245.909796 202.202524 
" clip-path="url(#pa24854a8f6)" style="fill: none; stroke: #ffdd8e; stroke-opacity: 0.5; stroke-width: 0.5; stroke-linecap: square"/>
    <g clip-path="url(#pa24854a8f6)">
     <use xlink:href="#mbd97c93008" x="245.909796" y="202.202524" style="fill: #ffdd8e; stroke: #ffdd8e"/>
     <use xlink:href="#mbd97c93008" x="197.453384" y="182.064058" style="fill: #ffdd8e; stroke: #ffdd8e"/>
     <use xlink:href="#mbd97c93008" x="90.732171" y="129.419071" style="fill: #ffdd8e; stroke: #ffdd8e"/>
     <use xlink:href="#mbd97c93008" x="77.531745" y="284.576648" style="fill: #ffdd8e; stroke: #ffdd8e"/>
     <use xlink:href="#mbd97c93008" x="226.848394" y="312.809528" style="fill: #ffdd8e; stroke: #ffdd8e"/>
     <use xlink:href="#mbd97c93008" x="245.909796" y="202.202524" style="fill: #ffdd8e; stroke: #ffdd8e"/>
    </g>
   </g>
   <g id="line2d_68">
    <path d="M 245.909796 202.202524 
L 197.462211 182.036894 
L 87.812511 127.297814 
L 56.002958 300.218228 
L 230.87104 325.189959 
L 245.909796 202.202524 
" clip-path="url(#pa24854a8f6)" style="fill: none; stroke: #ffdd8e; stroke-opacity: 0.5; stroke-width: 0.5; stroke-linecap: square"/>
    <g clip-path="url(#pa24854a8f6)">
     <use xlink:href="#mbd97c93008" x="245.909796" y="202.202524" style="fill: #ffdd8e; stroke: #ffdd8e"/>
     <use xlink:href="#mbd97c93008" x="197.462211" y="182.036894" style="fill: #ffdd8e; stroke: #ffdd8e"/>
     <use xlink:href="#mbd97c93008" x="87.812511" y="127.297814" style="fill: #ffdd8e; stroke: #ffdd8e"/>
     <use xlink:href="#mbd97c93008" x="56.002958" y="300.218228" style="fill: #ffdd8e; stroke: #ffdd8e"/>
     <use xlink:href="#mbd97c93008" x="230.87104" y="325.189959" style="fill: #ffdd8e; stroke: #ffdd8e"/>
     <use xlink:href="#mbd97c93008" x="245.909796" y="202.202524" style="fill: #ffdd8e; stroke: #ffdd8e"/>
    </g>
   </g>
   <g id="line2d_69">
    <path d="M 245.909796 202.202524 
L 197.631044 181.517277 
L 87.703734 127.218783 
L 77.531745 284.576648 
L 215.979562 279.358704 
L 245.909796 202.202524 
" clip-path="url(#pa24854a8f6)" style="fill: none; stroke: #ffdd8e; stroke-opacity: 0.5; stroke-width: 0.5; stroke-linecap: square"/>
    <g clip-path="url(#pa24854a8f6)">
     <use xlink:href="#mbd97c93008" x="245.909796" y="202.202524" style="fill: #ffdd8e; stroke: #ffdd8e"/>
     <use xlink:href="#mbd97c93008" x="197.631044" y="181.517277" style="fill: #ffdd8e; stroke: #ffdd8e"/>
     <use xlink:href="#mbd97c93008" x="87.703734" y="127.218783" style="fill: #ffdd8e; stroke: #ffdd8e"/>
     <use xlink:href="#mbd97c93008" x="77.531745" y="284.576648" style="fill: #ffdd8e; stroke: #ffdd8e"/>
     <use xlink:href="#mbd97c93008" x="215.979562" y="279.358704" style="fill: #ffdd8e; stroke: #ffdd8e"/>
     <use xlink:href="#mbd97c93008" x="245.909796" y="202.202524" style="fill: #ffdd8e; stroke: #ffdd8e"/>
    </g>
   </g>
   <g id="line2d_70">
    <path d="M 249.623689 202.202524 
L 196.167035 186.023035 
L 95.660107 132.999426 
L 163.668532 221.99461 
L 216.519302 281.019853 
L 249.623689 202.202524 
" clip-path="url(#pa24854a8f6)" style="fill: none; stroke: #ffdd8e; stroke-opacity: 0.5; stroke-width: 0.5; stroke-linecap: square"/>
    <g clip-path="url(#pa24854a8f6)">
     <use xlink:href="#mbd97c93008" x="249.623689" y="202.202524" style="fill: #ffdd8e; stroke: #ffdd8e"/>
     <use xlink:href="#mbd97c93008" x="196.167035" y="186.023035" style="fill: #ffdd8e; stroke: #ffdd8e"/>
     <use xlink:href="#mbd97c93008" x="95.660107" y="132.999426" style="fill: #ffdd8e; stroke: #ffdd8e"/>
     <use xlink:href="#mbd97c93008" x="163.668532" y="221.99461" style="fill: #ffdd8e; stroke: #ffdd8e"/>
     <use xlink:href="#mbd97c93008" x="216.519302" y="281.019853" style="fill: #ffdd8e; stroke: #ffdd8e"/>
     <use xlink:href="#mbd97c93008" x="249.623689" y="202.202524" style="fill: #ffdd8e; stroke: #ffdd8e"/>
    </g>
   </g>
   <g id="line2d_71">
    <path d="M 249.747082 202.202524 
L 196.167617 186.021243 
L 98.650252 135.171894 
L 163.540801 222.087412 
L 218.624284 287.498319 
L 249.747082 202.202524 
" clip-path="url(#pa24854a8f6)" style="fill: none; stroke: #ffdd8e; stroke-opacity: 0.5; stroke-width: 0.5; stroke-linecap: square"/>
    <g clip-path="url(#pa24854a8f6)">
     <use xlink:href="#mbd97c93008" x="249.747082" y="202.202524" style="fill: #ffdd8e; stroke: #ffdd8e"/>
     <use xlink:href="#mbd97c93008" x="196.167617" y="186.021243" style="fill: #ffdd8e; stroke: #ffdd8e"/>
     <use xlink:href="#mbd97c93008" x="98.650252" y="135.171894" style="fill: #ffdd8e; stroke: #ffdd8e"/>
     <use xlink:href="#mbd97c93008" x="163.540801" y="222.087412" style="fill: #ffdd8e; stroke: #ffdd8e"/>
     <use xlink:href="#mbd97c93008" x="218.624284" y="287.498319" style="fill: #ffdd8e; stroke: #ffdd8e"/>
     <use xlink:href="#mbd97c93008" x="249.747082" y="202.202524" style="fill: #ffdd8e; stroke: #ffdd8e"/>
    </g>
   </g>
   <g id="line2d_72">
    <path d="M 250.021167 202.202524 
L 196.327005 185.530698 
L 92.444853 130.663407 
L 162.76001 222.654689 
L 235.396466 339.117788 
L 250.021167 202.202524 
" clip-path="url(#pa24854a8f6)" style="fill: none; stroke: #ffdd8e; stroke-opacity: 0.5; stroke-width: 0.5; stroke-linecap: square"/>
    <g clip-path="url(#pa24854a8f6)">
     <use xlink:href="#mbd97c93008" x="250.021167" y="202.202524" style="fill: #ffdd8e; stroke: #ffdd8e"/>
     <use xlink:href="#mbd97c93008" x="196.327005" y="185.530698" style="fill: #ffdd8e; stroke: #ffdd8e"/>
     <use xlink:href="#mbd97c93008" x="92.444853" y="130.663407" style="fill: #ffdd8e; stroke: #ffdd8e"/>
     <use xlink:href="#mbd97c93008" x="162.76001" y="222.654689" style="fill: #ffdd8e; stroke: #ffdd8e"/>
     <use xlink:href="#mbd97c93008" x="235.396466" y="339.117788" style="fill: #ffdd8e; stroke: #ffdd8e"/>
     <use xlink:href="#mbd97c93008" x="250.021167" y="202.202524" style="fill: #ffdd8e; stroke: #ffdd8e"/>
    </g>
   </g>
   <g id="line2d_73">
    <path d="M 255.490469 202.202524 
L 195.925611 186.76606 
L 99.275224 135.625963 
L 122.524953 251.887169 
L 235.297793 338.814105 
L 255.490469 202.202524 
" clip-path="url(#pa24854a8f6)" style="fill: none; stroke: #ffdd8e; stroke-opacity: 0.5; stroke-width: 0.5; stroke-linecap: square"/>
    <g clip-path="url(#pa24854a8f6)">
     <use xlink:href="#mbd97c93008" x="255.490469" y="202.202524" style="fill: #ffdd8e; stroke: #ffdd8e"/>
     <use xlink:href="#mbd97c93008" x="195.925611" y="186.76606" style="fill: #ffdd8e; stroke: #ffdd8e"/>
     <use xlink:href="#mbd97c93008" x="99.275224" y="135.625963" style="fill: #ffdd8e; stroke: #ffdd8e"/>
     <use xlink:href="#mbd97c93008" x="122.524953" y="251.887169" style="fill: #ffdd8e; stroke: #ffdd8e"/>
     <use xlink:href="#mbd97c93008" x="235.297793" y="338.814105" style="fill: #ffdd8e; stroke: #ffdd8e"/>
     <use xlink:href="#mbd97c93008" x="255.490469" y="202.202524" style="fill: #ffdd8e; stroke: #ffdd8e"/>
    </g>
   </g>
   <g id="line2d_74">
    <path d="M 255.490469 202.202524 
L 195.925611 186.76606 
L 99.272984 135.624335 
L 122.524953 251.887169 
L 235.297793 338.814105 
L 255.490469 202.202524 
" clip-path="url(#pa24854a8f6)" style="fill: none; stroke: #ffdd8e; stroke-opacity: 0.5; stroke-width: 0.5; stroke-linecap: square"/>
    <g clip-path="url(#pa24854a8f6)">
     <use xlink:href="#mbd97c93008" x="255.490469" y="202.202524" style="fill: #ffdd8e; stroke: #ffdd8e"/>
     <use xlink:href="#mbd97c93008" x="195.925611" y="186.76606" style="fill: #ffdd8e; stroke: #ffdd8e"/>
     <use xlink:href="#mbd97c93008" x="99.272984" y="135.624335" style="fill: #ffdd8e; stroke: #ffdd8e"/>
     <use xlink:href="#mbd97c93008" x="122.524953" y="251.887169" style="fill: #ffdd8e; stroke: #ffdd8e"/>
     <use xlink:href="#mbd97c93008" x="235.297793" y="338.814105" style="fill: #ffdd8e; stroke: #ffdd8e"/>
     <use xlink:href="#mbd97c93008" x="255.490469" y="202.202524" style="fill: #ffdd8e; stroke: #ffdd8e"/>
    </g>
   </g>
   <g id="line2d_75">
    <path d="M 270.065908 202.202524 
L 192.909027 196.050151 
L 102.720336 138.128983 
L 184.103995 207.147376 
L 207.252891 252.500772 
L 270.065908 202.202524 
" clip-path="url(#pa24854a8f6)" style="fill: none; stroke: #ffdd8e; stroke-opacity: 0.5; stroke-width: 0.5; stroke-linecap: square"/>
    <g clip-path="url(#pa24854a8f6)">
     <use xlink:href="#mbd97c93008" x="270.065908" y="202.202524" style="fill: #ffdd8e; stroke: #ffdd8e"/>
     <use xlink:href="#mbd97c93008" x="192.909027" y="196.050151" style="fill: #ffdd8e; stroke: #ffdd8e"/>
     <use xlink:href="#mbd97c93008" x="102.720336" y="138.128983" style="fill: #ffdd8e; stroke: #ffdd8e"/>
     <use xlink:href="#mbd97c93008" x="184.103995" y="207.147376" style="fill: #ffdd8e; stroke: #ffdd8e"/>
     <use xlink:href="#mbd97c93008" x="207.252891" y="252.500772" style="fill: #ffdd8e; stroke: #ffdd8e"/>
     <use xlink:href="#mbd97c93008" x="270.065908" y="202.202524" style="fill: #ffdd8e; stroke: #ffdd8e"/>
    </g>
   </g>
   <g id="line2d_76">
    <path d="M 270.393036 202.202524 
L 192.917272 196.024776 
L 104.765195 139.61466 
L 160.480138 224.311114 
L 215.098472 276.646985 
L 270.393036 202.202524 
" clip-path="url(#pa24854a8f6)" style="fill: none; stroke: #ffdd8e; stroke-opacity: 0.5; stroke-width: 0.5; stroke-linecap: square"/>
    <g clip-path="url(#pa24854a8f6)">
     <use xlink:href="#mbd97c93008" x="270.393036" y="202.202524" style="fill: #ffdd8e; stroke: #ffdd8e"/>
     <use xlink:href="#mbd97c93008" x="192.917272" y="196.024776" style="fill: #ffdd8e; stroke: #ffdd8e"/>
     <use xlink:href="#mbd97c93008" x="104.765195" y="139.61466" style="fill: #ffdd8e; stroke: #ffdd8e"/>
     <use xlink:href="#mbd97c93008" x="160.480138" y="224.311114" style="fill: #ffdd8e; stroke: #ffdd8e"/>
     <use xlink:href="#mbd97c93008" x="215.098472" y="276.646985" style="fill: #ffdd8e; stroke: #ffdd8e"/>
     <use xlink:href="#mbd97c93008" x="270.393036" y="202.202524" style="fill: #ffdd8e; stroke: #ffdd8e"/>
    </g>
   </g>
   <g id="line2d_77">
    <path d="M 272.938325 202.202524 
L 196.167649 186.021144 
L 98.424905 135.00817 
L 147.242634 233.928723 
L 214.7981 275.722537 
L 272.938325 202.202524 
" clip-path="url(#pa24854a8f6)" style="fill: none; stroke: #ffdd8e; stroke-opacity: 0.5; stroke-width: 0.5; stroke-linecap: square"/>
    <g clip-path="url(#pa24854a8f6)">
     <use xlink:href="#mbd97c93008" x="272.938325" y="202.202524" style="fill: #ffdd8e; stroke: #ffdd8e"/>
     <use xlink:href="#mbd97c93008" x="196.167649" y="186.021144" style="fill: #ffdd8e; stroke: #ffdd8e"/>
     <use xlink:href="#mbd97c93008" x="98.424905" y="135.00817" style="fill: #ffdd8e; stroke: #ffdd8e"/>
     <use xlink:href="#mbd97c93008" x="147.242634" y="233.928723" style="fill: #ffdd8e; stroke: #ffdd8e"/>
     <use xlink:href="#mbd97c93008" x="214.7981" y="275.722537" style="fill: #ffdd8e; stroke: #ffdd8e"/>
     <use xlink:href="#mbd97c93008" x="272.938325" y="202.202524" style="fill: #ffdd8e; stroke: #ffdd8e"/>
    </g>
   </g>
   <g id="patch_3">
    <path d="M 374.62 202.202524 
C 374.62 178.077948 369.867985 154.187953 360.635909 131.899751 
C 351.403833 109.611549 337.871238 89.358589 320.812587 72.299938 
C 303.753935 55.241286 283.500976 41.708691 261.212773 32.476616 
C 238.924571 23.24454 215.034576 18.492524 190.91 18.492524 
C 166.785424 18.492524 142.895429 23.24454 120.607227 32.476616 
C 98.319024 41.708691 78.066065 55.241286 61.007413 72.299938 
C 43.948762 89.358589 30.416167 109.611549 21.184091 131.899751 
C 11.952015 154.187953 7.2 178.077948 7.2 202.202524 
C 7.2 226.327101 11.952015 250.217096 21.184091 272.505298 
C 30.416167 294.7935 43.948762 315.04646 61.007413 332.105111 
C 78.066065 349.163763 98.319024 362.696358 120.607227 371.928433 
C 142.895429 381.160509 166.785424 385.912524 190.91 385.912524 
C 215.034576 385.912524 238.924571 381.160509 261.212773 371.928433 
C 283.500976 362.696358 303.753935 349.163763 320.812587 332.105111 
C 337.871238 315.04646 351.403833 294.7935 360.635909 272.505298 
C 369.867985 250.217096 374.62 226.327101 374.62 202.202524 
" style="fill: none; stroke: #000000; stroke-width: 0.8; stroke-linejoin: miter; stroke-linecap: square"/>
   </g>
  </g>
 </g>
 <defs>
  <clipPath id="pa24854a8f6">
   <path d="M 374.62 202.202524 
C 374.62 178.077948 369.867985 154.187953 360.635909 131.899751 
C 351.403833 109.611549 337.871238 89.358589 320.812587 72.299938 
C 303.753935 55.241286 283.500976 41.708691 261.212773 32.476616 
C 238.924571 23.24454 215.034576 18.492524 190.91 18.492524 
C 166.785424 18.492524 142.895429 23.24454 120.607227 32.476616 
C 98.319024 41.708691 78.066065 55.241286 61.007413 72.299938 
C 43.948762 89.358589 30.416167 109.611549 21.184091 131.899751 
C 11.952015 154.187953 7.2 178.077948 7.2 202.202524 
C 7.2 226.327101 11.952015 250.217096 21.184091 272.505298 
C 30.416167 294.7935 43.948762 315.04646 61.007413 332.105111 
C 78.066065 349.163763 98.319024 362.696358 120.607227 371.928433 
C 142.895429 381.160509 166.785424 385.912524 190.91 385.912524 
C 215.034576 385.912524 238.924571 381.160509 261.212773 371.928433 
C 283.500976 362.696358 303.753935 349.163763 320.812587 332.105111 
C 337.871238 315.04646 351.403833 294.7935 360.635909 272.505298 
C 369.867985 250.217096 374.62 226.327101 374.62 202.202524 
M 190.91 202.202524 
C 190.91 202.202524 190.91 202.202524 190.91 202.202524 
C 190.91 202.202524 190.91 202.202524 190.91 202.202524 
C 190.91 202.202524 190.91 202.202524 190.91 202.202524 
C 190.91 202.202524 190.91 202.202524 190.91 202.202524 
C 190.91 202.202524 190.91 202.202524 190.91 202.202524 
C 190.91 202.202524 190.91 202.202524 190.91 202.202524 
C 190.91 202.202524 190.91 202.202524 190.91 202.202524 
C 190.91 202.202524 190.91 202.202524 190.91 202.202524 
C 190.91 202.202524 190.91 202.202524 190.91 202.202524 
C 190.91 202.202524 190.91 202.202524 190.91 202.202524 
C 190.91 202.202524 190.91 202.202524 190.91 202.202524 
C 190.91 202.202524 190.91 202.202524 190.91 202.202524 
C 190.91 202.202524 190.91 202.202524 190.91 202.202524 
C 190.91 202.202524 190.91 202.202524 190.91 202.202524 
C 190.91 202.202524 190.91 202.202524 190.91 202.202524 
C 190.91 202.202524 190.91 202.202524 190.91 202.202524 
z
"/>
  </clipPath>
 </defs>
</svg>
