<?xml version="1.0" encoding="utf-8" standalone="no"?>
<!DOCTYPE svg PUBLIC "-//W3C//DTD SVG 1.1//EN"
  "http://www.w3.org/Graphics/SVG/1.1/DTD/svg11.dtd">
<svg xmlns:xlink="http://www.w3.org/1999/xlink" width="425.832891pt" height="404.405049pt" viewBox="0 0 425.832891 404.405049" xmlns="http://www.w3.org/2000/svg" version="1.1">
 <metadata>
  <rdf:RDF xmlns:dc="http://purl.org/dc/elements/1.1/" xmlns:cc="http://creativecommons.org/ns#" xmlns:rdf="http://www.w3.org/1999/02/22-rdf-syntax-ns#">
   <cc:Work>
    <dc:type rdf:resource="http://purl.org/dc/dcmitype/StillImage"/>
    <dc:date>2026-05-07T16:12:15.177777</dc:date>
    <dc:format>image/svg+xml</dc:format>
    <dc:creator>
     <cc:Agent>
      <dc:title>Matplotlib v3.9.2, https://matplotlib.org/</dc:title>
     </cc:Agent>
    </dc:creator>
   </cc:Work>
  </rdf:RDF>
 </metadata>
 <defs>
  <style type="text/css">*{stroke-linejoin: round; stroke-linecap: butt}</style>
 </defs>
 <g id="figure_1">
  <g id="patch_1">
   <path d="M 0 404.405049 
L 425.832891 404.405049 
L 425.832891 0 
L 0 0 
z
" style="fill: #ffffff"/>
  </g>
  <g id="axes_1">
   <g id="patch_2">
    <path d="M 374.62 202.202524 
C 374.62 178.077948 369.867985 154.187953 360.635909 131.899751 
C 351.403833 109.611549 337.871238 89.358589 320.812587 72.299938 
C 303.753935 55.241286 283.500976 41.708691 261.212773 32.476616 
C 238.924571 23.24454 215.034576 18.492524 190.91 18.492524 
C 166.785424 18.492524 142.895429 23.24454 120.607227 32.476616 
C 98.319024 41.708691 78.066065 55.241286 61.007413 72.299938 
C 43.948762 89.358589 30.416167 109.611549 21.184091 131.899751 
C 11.952015 154.187953 7.2 178.077948 7.2 202.202524 
C 7.2 226.327101 11.952015 250.217096 21.184091 272.505298 
C 30.416167 294.7935 43.948762 315.04646 61.007413 332.105111 
C 78.066065 349.163763 98.319024 362.696358 120.607227 371.928433 
C 142.895429 381.160509 166.785424 385.912524 190.91 385.912524 
C 215.034576 385.912524 238.924571 381.160509 261.212773 371.928433 
C 283.500976 362.696358 303.753935 349.163763 320.812587 332.105111 
C 337.871238 315.04646 351.403833 294.7935 360.635909 272.505298 
C 369.867985 250.217096 374.62 226.327101 374.62 202.202524 
M 190.91 202.202524 
C 190.91 202.202524 190.91 202.202524 190.91 202.202524 
C 190.91 202.202524 190.91 202.202524 190.91 202.202524 
C 190.91 202.202524 190.91 202.202524 190.91 202.202524 
C 190.91 202.202524 190.91 202.202524 190.91 202.202524 
C 190.91 202.202524 190.91 202.202524 190.91 202.202524 
C 190.91 202.202524 190.91 202.202524 190.91 202.202524 
C 190.91 202.202524 190.91 202.202524 190.91 202.202524 
C 190.91 202.202524 190.91 202.202524 190.91 202.202524 
C 190.91 202.202524 190.91 202.202524 190.91 202.202524 
C 190.91 202.202524 190.91 202.202524 190.91 202.202524 
C 190.91 202.202524 190.91 202.202524 190.91 202.202524 
C 190.91 202.202524 190.91 202.202524 190.91 202.202524 
C 190.91 202.202524 190.91 202.202524 190.91 202.202524 
C 190.91 202.202524 190.91 202.202524 190.91 202.202524 
C 190.91 202.202524 190.91 202.202524 190.91 202.202524 
C 190.91 202.202524 190.91 202.202524 190.91 202.202524 
z
" style="fill: #ffffff"/>
   </g>
   <g id="matplotlib.axis_1">
    <g id="xtick_1">
     <g id="line2d_1">
      <path d="M 190.91 202.202524 
L 374.62 202.202524 
" clip-path="url(#p23482b3384)" style="fill: none; stroke: #b0b0b0; stroke-width: 0.8; stroke-linecap: square"/>
     </g>
     <g id="text_1">
      <!-- sigma2_i -->
      <g transform="translate(358.607109 206.014634) scale(0.15 -0.15)">
       <defs>
        <path id="ArialMT-73" d="M 197 991 
L 753 1078 
Q 800 744 1014 566 
Q 1228 388 1613 388 
Q 2000 388 2187 545 
Q 2375 703 2375 916 
Q 2375 1106 2209 1216 
Q 2094 1291 1634 1406 
Q 1016 1563 777 1677 
Q 538 1791 414 1992 
Q 291 2194 291 2438 
Q 291 2659 392 2848 
Q 494 3038 669 3163 
Q 800 3259 1026 3326 
Q 1253 3394 1513 3394 
Q 1903 3394 2198 3281 
Q 2494 3169 2634 2976 
Q 2775 2784 2828 2463 
L 2278 2388 
Q 2241 2644 2061 2787 
Q 1881 2931 1553 2931 
Q 1166 2931 1000 2803 
Q 834 2675 834 2503 
Q 834 2394 903 2306 
Q 972 2216 1119 2156 
Q 1203 2125 1616 2013 
Q 2213 1853 2448 1751 
Q 2684 1650 2818 1456 
Q 2953 1263 2953 975 
Q 2953 694 2789 445 
Q 2625 197 2315 61 
Q 2006 -75 1616 -75 
Q 969 -75 630 194 
Q 291 463 197 991 
z
" transform="scale(0.015625)"/>
        <path id="ArialMT-69" d="M 425 3934 
L 425 4581 
L 988 4581 
L 988 3934 
L 425 3934 
z
M 425 0 
L 425 3319 
L 988 3319 
L 988 0 
L 425 0 
z
" transform="scale(0.015625)"/>
        <path id="ArialMT-67" d="M 319 -275 
L 866 -356 
Q 900 -609 1056 -725 
Q 1266 -881 1628 -881 
Q 2019 -881 2231 -725 
Q 2444 -569 2519 -288 
Q 2563 -116 2559 434 
Q 2191 0 1641 0 
Q 956 0 581 494 
Q 206 988 206 1678 
Q 206 2153 378 2554 
Q 550 2956 876 3175 
Q 1203 3394 1644 3394 
Q 2231 3394 2613 2919 
L 2613 3319 
L 3131 3319 
L 3131 450 
Q 3131 -325 2973 -648 
Q 2816 -972 2473 -1159 
Q 2131 -1347 1631 -1347 
Q 1038 -1347 672 -1080 
Q 306 -813 319 -275 
z
M 784 1719 
Q 784 1066 1043 766 
Q 1303 466 1694 466 
Q 2081 466 2343 764 
Q 2606 1063 2606 1700 
Q 2606 2309 2336 2618 
Q 2066 2928 1684 2928 
Q 1309 2928 1046 2623 
Q 784 2319 784 1719 
z
" transform="scale(0.015625)"/>
        <path id="ArialMT-6d" d="M 422 0 
L 422 3319 
L 925 3319 
L 925 2853 
Q 1081 3097 1340 3245 
Q 1600 3394 1931 3394 
Q 2300 3394 2536 3241 
Q 2772 3088 2869 2813 
Q 3263 3394 3894 3394 
Q 4388 3394 4653 3120 
Q 4919 2847 4919 2278 
L 4919 0 
L 4359 0 
L 4359 2091 
Q 4359 2428 4304 2576 
Q 4250 2725 4106 2815 
Q 3963 2906 3769 2906 
Q 3419 2906 3187 2673 
Q 2956 2441 2956 1928 
L 2956 0 
L 2394 0 
L 2394 2156 
Q 2394 2531 2256 2718 
Q 2119 2906 1806 2906 
Q 1569 2906 1367 2781 
Q 1166 2656 1075 2415 
Q 984 2175 984 1722 
L 984 0 
L 422 0 
z
" transform="scale(0.015625)"/>
        <path id="ArialMT-61" d="M 2588 409 
Q 2275 144 1986 34 
Q 1697 -75 1366 -75 
Q 819 -75 525 192 
Q 231 459 231 875 
Q 231 1119 342 1320 
Q 453 1522 633 1644 
Q 813 1766 1038 1828 
Q 1203 1872 1538 1913 
Q 2219 1994 2541 2106 
Q 2544 2222 2544 2253 
Q 2544 2597 2384 2738 
Q 2169 2928 1744 2928 
Q 1347 2928 1158 2789 
Q 969 2650 878 2297 
L 328 2372 
Q 403 2725 575 2942 
Q 747 3159 1072 3276 
Q 1397 3394 1825 3394 
Q 2250 3394 2515 3294 
Q 2781 3194 2906 3042 
Q 3031 2891 3081 2659 
Q 3109 2516 3109 2141 
L 3109 1391 
Q 3109 606 3145 398 
Q 3181 191 3288 0 
L 2700 0 
Q 2613 175 2588 409 
z
M 2541 1666 
Q 2234 1541 1622 1453 
Q 1275 1403 1131 1340 
Q 988 1278 909 1158 
Q 831 1038 831 891 
Q 831 666 1001 516 
Q 1172 366 1500 366 
Q 1825 366 2078 508 
Q 2331 650 2450 897 
Q 2541 1088 2541 1459 
L 2541 1666 
z
" transform="scale(0.015625)"/>
        <path id="ArialMT-32" d="M 3222 541 
L 3222 0 
L 194 0 
Q 188 203 259 391 
Q 375 700 629 1000 
Q 884 1300 1366 1694 
Q 2113 2306 2375 2664 
Q 2638 3022 2638 3341 
Q 2638 3675 2398 3904 
Q 2159 4134 1775 4134 
Q 1369 4134 1125 3890 
Q 881 3647 878 3216 
L 300 3275 
Q 359 3922 746 4261 
Q 1134 4600 1788 4600 
Q 2447 4600 2831 4234 
Q 3216 3869 3216 3328 
Q 3216 3053 3103 2787 
Q 2991 2522 2730 2228 
Q 2469 1934 1863 1422 
Q 1356 997 1212 845 
Q 1069 694 975 541 
L 3222 541 
z
" transform="scale(0.015625)"/>
        <path id="ArialMT-5f" d="M -97 -1272 
L -97 -866 
L 3631 -866 
L 3631 -1272 
L -97 -1272 
z
" transform="scale(0.015625)"/>
       </defs>
       <use xlink:href="#ArialMT-73"/>
       <use xlink:href="#ArialMT-69" x="50"/>
       <use xlink:href="#ArialMT-67" x="72.216797"/>
       <use xlink:href="#ArialMT-6d" x="127.832031"/>
       <use xlink:href="#ArialMT-61" x="211.132812"/>
       <use xlink:href="#ArialMT-32" x="266.748047"/>
       <use xlink:href="#ArialMT-5f" x="322.363281"/>
       <use xlink:href="#ArialMT-69" x="377.978516"/>
      </g>
     </g>
    </g>
    <g id="xtick_2">
     <g id="line2d_2">
      <path d="M 190.91 202.202524 
L 247.679512 27.483932 
" clip-path="url(#p23482b3384)" style="fill: none; stroke: #b0b0b0; stroke-width: 0.8; stroke-linecap: square"/>
     </g>
     <g id="text_2">
      <!-- sigma2_0 -->
      <g transform="translate(219.488562 17.98125) scale(0.15 -0.15)">
       <defs>
        <path id="ArialMT-30" d="M 266 2259 
Q 266 3072 433 3567 
Q 600 4063 929 4331 
Q 1259 4600 1759 4600 
Q 2128 4600 2406 4451 
Q 2684 4303 2865 4023 
Q 3047 3744 3150 3342 
Q 3253 2941 3253 2259 
Q 3253 1453 3087 958 
Q 2922 463 2592 192 
Q 2263 -78 1759 -78 
Q 1097 -78 719 397 
Q 266 969 266 2259 
z
M 844 2259 
Q 844 1131 1108 757 
Q 1372 384 1759 384 
Q 2147 384 2411 759 
Q 2675 1134 2675 2259 
Q 2675 3391 2411 3762 
Q 2147 4134 1753 4134 
Q 1366 4134 1134 3806 
Q 844 3388 844 2259 
z
" transform="scale(0.015625)"/>
       </defs>
       <use xlink:href="#ArialMT-73"/>
       <use xlink:href="#ArialMT-69" x="50"/>
       <use xlink:href="#ArialMT-67" x="72.216797"/>
       <use xlink:href="#ArialMT-6d" x="127.832031"/>
       <use xlink:href="#ArialMT-61" x="211.132812"/>
       <use xlink:href="#ArialMT-32" x="266.748047"/>
       <use xlink:href="#ArialMT-5f" x="322.363281"/>
       <use xlink:href="#ArialMT-30" x="377.978516"/>
      </g>
     </g>
    </g>
    <g id="xtick_3">
     <g id="line2d_3">
      <path d="M 190.91 202.202524 
L 42.285488 94.220496 
" clip-path="url(#p23482b3384)" style="fill: none; stroke: #b0b0b0; stroke-width: 0.8; stroke-linecap: square"/>
     </g>
     <g id="text_3">
      <!-- alpha -->
      <g transform="translate(12.610031 89.869237) scale(0.15 -0.15)">
       <defs>
        <path id="ArialMT-6c" d="M 409 0 
L 409 4581 
L 972 4581 
L 972 0 
L 409 0 
z
" transform="scale(0.015625)"/>
        <path id="ArialMT-70" d="M 422 -1272 
L 422 3319 
L 934 3319 
L 934 2888 
Q 1116 3141 1344 3267 
Q 1572 3394 1897 3394 
Q 2322 3394 2647 3175 
Q 2972 2956 3137 2557 
Q 3303 2159 3303 1684 
Q 3303 1175 3120 767 
Q 2938 359 2589 142 
Q 2241 -75 1856 -75 
Q 1575 -75 1351 44 
Q 1128 163 984 344 
L 984 -1272 
L 422 -1272 
z
M 931 1641 
Q 931 1000 1190 694 
Q 1450 388 1819 388 
Q 2194 388 2461 705 
Q 2728 1022 2728 1688 
Q 2728 2322 2467 2637 
Q 2206 2953 1844 2953 
Q 1484 2953 1207 2617 
Q 931 2281 931 1641 
z
" transform="scale(0.015625)"/>
        <path id="ArialMT-68" d="M 422 0 
L 422 4581 
L 984 4581 
L 984 2938 
Q 1378 3394 1978 3394 
Q 2347 3394 2619 3248 
Q 2891 3103 3008 2847 
Q 3125 2591 3125 2103 
L 3125 0 
L 2563 0 
L 2563 2103 
Q 2563 2525 2380 2717 
Q 2197 2909 1863 2909 
Q 1613 2909 1392 2779 
Q 1172 2650 1078 2428 
Q 984 2206 984 1816 
L 984 0 
L 422 0 
z
" transform="scale(0.015625)"/>
       </defs>
       <use xlink:href="#ArialMT-61"/>
       <use xlink:href="#ArialMT-6c" x="55.615234"/>
       <use xlink:href="#ArialMT-70" x="77.832031"/>
       <use xlink:href="#ArialMT-68" x="133.447266"/>
       <use xlink:href="#ArialMT-61" x="189.0625"/>
      </g>
     </g>
    </g>
    <g id="xtick_4">
     <g id="line2d_4">
      <path d="M 190.91 202.202524 
L 42.285488 310.184553 
" clip-path="url(#p23482b3384)" style="fill: none; stroke: #b0b0b0; stroke-width: 0.8; stroke-linecap: square"/>
     </g>
     <g id="text_4">
      <!-- Q_D -->
      <g transform="translate(15.538547 322.387375) scale(0.15 -0.15)">
       <defs>
        <path id="ArialMT-51" d="M 3966 491 
Q 4388 200 4744 66 
L 4566 -356 
Q 4072 -178 3581 206 
Q 3072 -78 2456 -78 
Q 1834 -78 1328 222 
Q 822 522 548 1065 
Q 275 1609 275 2291 
Q 275 2969 550 3525 
Q 825 4081 1333 4372 
Q 1841 4663 2469 4663 
Q 3103 4663 3612 4361 
Q 4122 4059 4389 3517 
Q 4656 2975 4656 2294 
Q 4656 1728 4484 1276 
Q 4313 825 3966 491 
z
M 2631 1266 
Q 3156 1119 3497 828 
Q 4031 1316 4031 2294 
Q 4031 2850 3842 3265 
Q 3653 3681 3289 3911 
Q 2925 4141 2472 4141 
Q 1794 4141 1347 3677 
Q 900 3213 900 2291 
Q 900 1397 1342 919 
Q 1784 441 2472 441 
Q 2797 441 3084 563 
Q 2800 747 2484 825 
L 2631 1266 
z
" transform="scale(0.015625)"/>
        <path id="ArialMT-44" d="M 494 0 
L 494 4581 
L 2072 4581 
Q 2606 4581 2888 4516 
Q 3281 4425 3559 4188 
Q 3922 3881 4101 3404 
Q 4281 2928 4281 2316 
Q 4281 1794 4159 1391 
Q 4038 988 3847 723 
Q 3656 459 3429 307 
Q 3203 156 2883 78 
Q 2563 0 2147 0 
L 494 0 
z
M 1100 541 
L 2078 541 
Q 2531 541 2789 625 
Q 3047 709 3200 863 
Q 3416 1078 3536 1442 
Q 3656 1806 3656 2325 
Q 3656 3044 3420 3430 
Q 3184 3816 2847 3947 
Q 2603 4041 2063 4041 
L 1100 4041 
L 1100 541 
z
" transform="scale(0.015625)"/>
       </defs>
       <use xlink:href="#ArialMT-51"/>
       <use xlink:href="#ArialMT-5f" x="77.783203"/>
       <use xlink:href="#ArialMT-44" x="133.398438"/>
      </g>
     </g>
    </g>
    <g id="xtick_5">
     <g id="line2d_5">
      <path d="M 190.91 202.202524 
L 247.679512 376.921117 
" clip-path="url(#p23482b3384)" style="fill: none; stroke: #b0b0b0; stroke-width: 0.8; stroke-linecap: square"/>
     </g>
     <g id="text_5">
      <!-- log2_over_omega -->
      <g transform="translate(191.967078 394.048018) scale(0.15 -0.15)">
       <defs>
        <path id="ArialMT-6f" d="M 213 1659 
Q 213 2581 725 3025 
Q 1153 3394 1769 3394 
Q 2453 3394 2887 2945 
Q 3322 2497 3322 1706 
Q 3322 1066 3130 698 
Q 2938 331 2570 128 
Q 2203 -75 1769 -75 
Q 1072 -75 642 372 
Q 213 819 213 1659 
z
M 791 1659 
Q 791 1022 1069 705 
Q 1347 388 1769 388 
Q 2188 388 2466 706 
Q 2744 1025 2744 1678 
Q 2744 2294 2464 2611 
Q 2184 2928 1769 2928 
Q 1347 2928 1069 2612 
Q 791 2297 791 1659 
z
" transform="scale(0.015625)"/>
        <path id="ArialMT-76" d="M 1344 0 
L 81 3319 
L 675 3319 
L 1388 1331 
Q 1503 1009 1600 663 
Q 1675 925 1809 1294 
L 2547 3319 
L 3125 3319 
L 1869 0 
L 1344 0 
z
" transform="scale(0.015625)"/>
        <path id="ArialMT-65" d="M 2694 1069 
L 3275 997 
Q 3138 488 2766 206 
Q 2394 -75 1816 -75 
Q 1088 -75 661 373 
Q 234 822 234 1631 
Q 234 2469 665 2931 
Q 1097 3394 1784 3394 
Q 2450 3394 2872 2941 
Q 3294 2488 3294 1666 
Q 3294 1616 3291 1516 
L 816 1516 
Q 847 969 1125 678 
Q 1403 388 1819 388 
Q 2128 388 2347 550 
Q 2566 713 2694 1069 
z
M 847 1978 
L 2700 1978 
Q 2663 2397 2488 2606 
Q 2219 2931 1791 2931 
Q 1403 2931 1139 2672 
Q 875 2413 847 1978 
z
" transform="scale(0.015625)"/>
        <path id="ArialMT-72" d="M 416 0 
L 416 3319 
L 922 3319 
L 922 2816 
Q 1116 3169 1280 3281 
Q 1444 3394 1641 3394 
Q 1925 3394 2219 3213 
L 2025 2691 
Q 1819 2813 1613 2813 
Q 1428 2813 1281 2702 
Q 1134 2591 1072 2394 
Q 978 2094 978 1738 
L 978 0 
L 416 0 
z
" transform="scale(0.015625)"/>
       </defs>
       <use xlink:href="#ArialMT-6c"/>
       <use xlink:href="#ArialMT-6f" x="22.216797"/>
       <use xlink:href="#ArialMT-67" x="77.832031"/>
       <use xlink:href="#ArialMT-32" x="133.447266"/>
       <use xlink:href="#ArialMT-5f" x="189.0625"/>
       <use xlink:href="#ArialMT-6f" x="244.677734"/>
       <use xlink:href="#ArialMT-76" x="300.292969"/>
       <use xlink:href="#ArialMT-65" x="350.292969"/>
       <use xlink:href="#ArialMT-72" x="405.908203"/>
       <use xlink:href="#ArialMT-5f" x="439.208984"/>
       <use xlink:href="#ArialMT-6f" x="494.824219"/>
       <use xlink:href="#ArialMT-6d" x="550.439453"/>
       <use xlink:href="#ArialMT-65" x="633.740234"/>
       <use xlink:href="#ArialMT-67" x="689.355469"/>
       <use xlink:href="#ArialMT-61" x="744.970703"/>
      </g>
     </g>
    </g>
   </g>
   <g id="matplotlib.axis_2">
    <g id="ytick_1">
     <g id="line2d_6">
      <path d="M 190.91 202.202524 
C 190.91 202.202524 190.91 202.202524 190.91 202.202524 
C 190.91 202.202524 190.91 202.202524 190.91 202.202524 
C 190.91 202.202524 190.91 202.202524 190.91 202.202524 
C 190.91 202.202524 190.91 202.202524 190.91 202.202524 
C 190.91 202.202524 190.91 202.202524 190.91 202.202524 
C 190.91 202.202524 190.91 202.202524 190.91 202.202524 
C 190.91 202.202524 190.91 202.202524 190.91 202.202524 
C 190.91 202.202524 190.91 202.202524 190.91 202.202524 
C 190.91 202.202524 190.91 202.202524 190.91 202.202524 
C 190.91 202.202524 190.91 202.202524 190.91 202.202524 
C 190.91 202.202524 190.91 202.202524 190.91 202.202524 
C 190.91 202.202524 190.91 202.202524 190.91 202.202524 
C 190.91 202.202524 190.91 202.202524 190.91 202.202524 
C 190.91 202.202524 190.91 202.202524 190.91 202.202524 
C 190.91 202.202524 190.91 202.202524 190.91 202.202524 
C 190.91 202.202524 190.91 202.202524 190.91 202.202524 
" clip-path="url(#p23482b3384)" style="fill: none; stroke: #b0b0b0; stroke-width: 0.8; stroke-linecap: square"/>
     </g>
     <g id="text_6">
      <!-- 0.0 -->
      <g transform="translate(190.91 199.817524) scale(0.12 -0.12)">
       <defs>
        <path id="ArialMT-2e" d="M 581 0 
L 581 641 
L 1222 641 
L 1222 0 
L 581 0 
z
" transform="scale(0.015625)"/>
       </defs>
       <use xlink:href="#ArialMT-30"/>
       <use xlink:href="#ArialMT-2e" x="55.615234"/>
       <use xlink:href="#ArialMT-30" x="83.398438"/>
      </g>
     </g>
    </g>
    <g id="ytick_2">
     <g id="line2d_7">
      <path d="M 234.753489 202.202524 
C 234.753489 196.44505 233.619392 190.74356 231.416102 185.424347 
C 229.212812 180.105135 225.983178 175.271645 221.912029 171.200496 
C 217.84088 167.129347 213.00739 163.899712 207.688177 161.696422 
C 202.368964 159.493132 196.667474 158.359035 190.91 158.359035 
C 185.152526 158.359035 179.451036 159.493132 174.131823 161.696422 
C 168.81261 163.899712 163.97912 167.129347 159.907971 171.200496 
C 155.836822 175.271645 152.607188 180.105135 150.403898 185.424347 
C 148.200608 190.74356 147.066511 196.44505 147.066511 202.202524 
C 147.066511 207.959999 148.200608 213.661489 150.403898 218.980701 
C 152.607188 224.299914 155.836822 229.133404 159.907971 233.204553 
C 163.97912 237.275702 168.81261 240.505337 174.131823 242.708627 
C 179.451036 244.911917 185.152526 246.046014 190.91 246.046014 
C 196.667474 246.046014 202.368964 244.911917 207.688177 242.708627 
C 213.00739 240.505337 217.84088 237.275702 221.912029 233.204553 
C 225.983178 229.133404 229.212812 224.299914 231.416102 218.980701 
C 233.619392 213.661489 234.753489 207.959999 234.753489 202.202524 
" clip-path="url(#p23482b3384)" style="fill: none; stroke: #b0b0b0; stroke-width: 0.8; stroke-linecap: square"/>
     </g>
     <g id="text_7">
      <!-- 0.25 -->
      <g transform="translate(231.416102 183.039347) scale(0.12 -0.12)">
       <defs>
        <path id="ArialMT-35" d="M 266 1200 
L 856 1250 
Q 922 819 1161 601 
Q 1400 384 1738 384 
Q 2144 384 2425 690 
Q 2706 997 2706 1503 
Q 2706 1984 2436 2262 
Q 2166 2541 1728 2541 
Q 1456 2541 1237 2417 
Q 1019 2294 894 2097 
L 366 2166 
L 809 4519 
L 3088 4519 
L 3088 3981 
L 1259 3981 
L 1013 2750 
Q 1425 3038 1878 3038 
Q 2478 3038 2890 2622 
Q 3303 2206 3303 1553 
Q 3303 931 2941 478 
Q 2500 -78 1738 -78 
Q 1113 -78 717 272 
Q 322 622 266 1200 
z
" transform="scale(0.015625)"/>
       </defs>
       <use xlink:href="#ArialMT-30"/>
       <use xlink:href="#ArialMT-2e" x="55.615234"/>
       <use xlink:href="#ArialMT-32" x="83.398438"/>
       <use xlink:href="#ArialMT-35" x="139.013672"/>
      </g>
     </g>
    </g>
    <g id="ytick_3">
     <g id="line2d_8">
      <path d="M 278.596979 202.202524 
C 278.596979 190.687576 276.328785 179.284596 271.922205 168.646171 
C 267.515625 158.007745 261.056355 148.340765 252.914057 140.198467 
C 244.771759 132.056169 235.104779 125.5969 224.466354 121.19032 
C 213.827929 116.78374 202.424949 114.515546 190.91 114.515546 
C 179.395051 114.515546 167.992071 116.78374 157.353646 121.19032 
C 146.715221 125.5969 137.048241 132.056169 128.905943 140.198467 
C 120.763645 148.340765 114.304375 158.007745 109.897795 168.646171 
C 105.491215 179.284596 103.223021 190.687576 103.223021 202.202524 
C 103.223021 213.717473 105.491215 225.120453 109.897795 235.758878 
C 114.304375 246.397304 120.763645 256.064283 128.905943 264.206582 
C 137.048241 272.34888 146.715221 278.808149 157.353646 283.214729 
C 167.992071 287.621309 179.395051 289.889503 190.91 289.889503 
C 202.424949 289.889503 213.827929 287.621309 224.466354 283.214729 
C 235.104779 278.808149 244.771759 272.34888 252.914057 264.206582 
C 261.056355 256.064283 267.515625 246.397304 271.922205 235.758878 
C 276.328785 225.120453 278.596979 213.717473 278.596979 202.202524 
" clip-path="url(#p23482b3384)" style="fill: none; stroke: #b0b0b0; stroke-width: 0.8; stroke-linecap: square"/>
     </g>
     <g id="text_8">
      <!-- 0.5 -->
      <g transform="translate(271.922205 166.261171) scale(0.12 -0.12)">
       <use xlink:href="#ArialMT-30"/>
       <use xlink:href="#ArialMT-2e" x="55.615234"/>
       <use xlink:href="#ArialMT-35" x="83.398438"/>
      </g>
     </g>
    </g>
    <g id="ytick_4">
     <g id="line2d_9">
      <path d="M 322.440468 202.202524 
C 322.440468 184.930102 319.038177 167.825631 312.428307 151.867994 
C 305.818437 135.910356 296.129533 121.409886 283.916086 109.196439 
C 271.702639 96.982991 257.202169 87.294087 241.244531 80.684217 
C 225.286893 74.074347 208.182423 70.672057 190.91 70.672057 
C 173.637577 70.672057 156.533107 74.074347 140.575469 80.684217 
C 124.617831 87.294087 110.117361 96.982991 97.903914 109.196439 
C 85.690467 121.409886 76.001563 135.910356 69.391693 151.867994 
C 62.781823 167.825631 59.379532 184.930102 59.379532 202.202524 
C 59.379532 219.474947 62.781823 236.579417 69.391693 252.537055 
C 76.001563 268.494693 85.690467 282.995163 97.903914 295.20861 
C 110.117361 307.422058 124.617831 317.110962 140.575469 323.720832 
C 156.533107 330.330702 173.637577 333.732992 190.91 333.732992 
C 208.182423 333.732992 225.286893 330.330702 241.244531 323.720832 
C 257.202169 317.110962 271.702639 307.422058 283.916086 295.20861 
C 296.129533 282.995163 305.818437 268.494693 312.428307 252.537055 
C 319.038177 236.579417 322.440468 219.474947 322.440468 202.202524 
" clip-path="url(#p23482b3384)" style="fill: none; stroke: #b0b0b0; stroke-width: 0.8; stroke-linecap: square"/>
     </g>
     <g id="text_9">
      <!-- 0.75 -->
      <g transform="translate(312.428307 149.482994) scale(0.12 -0.12)">
       <defs>
        <path id="ArialMT-37" d="M 303 3981 
L 303 4522 
L 3269 4522 
L 3269 4084 
Q 2831 3619 2401 2847 
Q 1972 2075 1738 1259 
Q 1569 684 1522 0 
L 944 0 
Q 953 541 1156 1306 
Q 1359 2072 1739 2783 
Q 2119 3494 2547 3981 
L 303 3981 
z
" transform="scale(0.015625)"/>
       </defs>
       <use xlink:href="#ArialMT-30"/>
       <use xlink:href="#ArialMT-2e" x="55.615234"/>
       <use xlink:href="#ArialMT-37" x="83.398438"/>
       <use xlink:href="#ArialMT-35" x="139.013672"/>
      </g>
     </g>
    </g>
    <g id="ytick_5">
     <g id="line2d_10">
      <path d="M 366.283957 202.202524 
C 366.283957 179.172627 361.74757 156.366667 352.93441 135.089817 
C 344.12125 113.812966 331.202711 94.479006 314.918114 78.19441 
C 298.633518 61.909814 279.299558 48.991275 258.022708 40.178115 
C 236.745857 31.364955 213.939897 26.828567 190.91 26.828567 
C 167.880103 26.828567 145.074143 31.364955 123.797292 40.178115 
C 102.520442 48.991275 83.186482 61.909814 66.901886 78.19441 
C 50.617289 94.479006 37.69875 113.812966 28.88559 135.089817 
C 20.07243 156.366667 15.536043 179.172627 15.536043 202.202524 
C 15.536043 225.232422 20.07243 248.038382 28.88559 269.315232 
C 37.69875 290.592083 50.617289 309.926042 66.901886 326.210639 
C 83.186482 342.495235 102.520442 355.413774 123.797292 364.226934 
C 145.074143 373.040094 167.880103 377.576482 190.91 377.576482 
C 213.939897 377.576482 236.745857 373.040094 258.022708 364.226934 
C 279.299558 355.413774 298.633518 342.495235 314.918114 326.210639 
C 331.202711 309.926042 344.12125 290.592083 352.93441 269.315232 
C 361.74757 248.038382 366.283957 225.232422 366.283957 202.202524 
" clip-path="url(#p23482b3384)" style="fill: none; stroke: #b0b0b0; stroke-width: 0.8; stroke-linecap: square"/>
     </g>
     <g id="text_10">
      <!-- 1.0 -->
      <g transform="translate(352.93441 132.704817) scale(0.12 -0.12)">
       <defs>
        <path id="ArialMT-31" d="M 2384 0 
L 1822 0 
L 1822 3584 
Q 1619 3391 1289 3197 
Q 959 3003 697 2906 
L 697 3450 
Q 1169 3672 1522 3987 
Q 1875 4303 2022 4600 
L 2384 4600 
L 2384 0 
z
" transform="scale(0.015625)"/>
       </defs>
       <use xlink:href="#ArialMT-31"/>
       <use xlink:href="#ArialMT-2e" x="55.615234"/>
       <use xlink:href="#ArialMT-30" x="83.398438"/>
      </g>
     </g>
    </g>
   </g>
   <g id="line2d_11">
    <path d="M 219.130626 202.202524 
L 192.134598 198.433601 
L 172.425768 188.772944 
L 66.518038 292.578575 
L 242.181028 359.998523 
L 219.130626 202.202524 
" clip-path="url(#p23482b3384)" style="fill: none; stroke: #8fb4dc; stroke-opacity: 0.5; stroke-width: 0.5; stroke-linecap: square"/>
    <defs>
     <path id="m8fc98aee36" d="M 0 1 
C 0.265203 1 0.51958 0.894634 0.707107 0.707107 
C 0.894634 0.51958 1 0.265203 1 0 
C 1 -0.265203 0.894634 -0.51958 0.707107 -0.707107 
C 0.51958 -0.894634 0.265203 -1 0 -1 
C -0.265203 -1 -0.51958 -0.894634 -0.707107 -0.707107 
C -0.894634 -0.51958 -1 -0.265203 -1 0 
C -1 0.265203 -0.894634 0.51958 -0.707107 0.707107 
C -0.51958 0.894634 -0.265203 1 0 1 
z
" style="stroke: #8fb4dc"/>
    </defs>
    <g clip-path="url(#p23482b3384)">
     <use xlink:href="#m8fc98aee36" x="219.130626" y="202.202524" style="fill: #8fb4dc; stroke: #8fb4dc"/>
     <use xlink:href="#m8fc98aee36" x="192.134598" y="198.433601" style="fill: #8fb4dc; stroke: #8fb4dc"/>
     <use xlink:href="#m8fc98aee36" x="172.425768" y="188.772944" style="fill: #8fb4dc; stroke: #8fb4dc"/>
     <use xlink:href="#m8fc98aee36" x="66.518038" y="292.578575" style="fill: #8fb4dc; stroke: #8fb4dc"/>
     <use xlink:href="#m8fc98aee36" x="242.181028" y="359.998523" style="fill: #8fb4dc; stroke: #8fb4dc"/>
     <use xlink:href="#m8fc98aee36" x="219.130626" y="202.202524" style="fill: #8fb4dc; stroke: #8fb4dc"/>
    </g>
   </g>
   <g id="line2d_12">
    <path d="M 220.781434 202.202524 
L 191.213678 201.2679 
L 190.863288 202.168586 
L 80.646757 282.31346 
L 225.519374 308.719225 
L 220.781434 202.202524 
" clip-path="url(#p23482b3384)" style="fill: none; stroke: #8fb4dc; stroke-opacity: 0.5; stroke-width: 0.5; stroke-linecap: square"/>
    <g clip-path="url(#p23482b3384)">
     <use xlink:href="#m8fc98aee36" x="220.781434" y="202.202524" style="fill: #8fb4dc; stroke: #8fb4dc"/>
     <use xlink:href="#m8fc98aee36" x="191.213678" y="201.2679" style="fill: #8fb4dc; stroke: #8fb4dc"/>
     <use xlink:href="#m8fc98aee36" x="190.863288" y="202.168586" style="fill: #8fb4dc; stroke: #8fb4dc"/>
     <use xlink:href="#m8fc98aee36" x="80.646757" y="282.31346" style="fill: #8fb4dc; stroke: #8fb4dc"/>
     <use xlink:href="#m8fc98aee36" x="225.519374" y="308.719225" style="fill: #8fb4dc; stroke: #8fb4dc"/>
     <use xlink:href="#m8fc98aee36" x="220.781434" y="202.202524" style="fill: #8fb4dc; stroke: #8fb4dc"/>
    </g>
   </g>
   <g id="line2d_13">
    <path d="M 222.978331 202.202524 
L 191.070007 201.710073 
L 190.43402 201.856705 
L 57.685678 298.99566 
L 226.726792 312.435276 
L 222.978331 202.202524 
" clip-path="url(#p23482b3384)" style="fill: none; stroke: #8fb4dc; stroke-opacity: 0.5; stroke-width: 0.5; stroke-linecap: square"/>
    <g clip-path="url(#p23482b3384)">
     <use xlink:href="#m8fc98aee36" x="222.978331" y="202.202524" style="fill: #8fb4dc; stroke: #8fb4dc"/>
     <use xlink:href="#m8fc98aee36" x="191.070007" y="201.710073" style="fill: #8fb4dc; stroke: #8fb4dc"/>
     <use xlink:href="#m8fc98aee36" x="190.43402" y="201.856705" style="fill: #8fb4dc; stroke: #8fb4dc"/>
     <use xlink:href="#m8fc98aee36" x="57.685678" y="298.99566" style="fill: #8fb4dc; stroke: #8fb4dc"/>
     <use xlink:href="#m8fc98aee36" x="226.726792" y="312.435276" style="fill: #8fb4dc; stroke: #8fb4dc"/>
     <use xlink:href="#m8fc98aee36" x="222.978331" y="202.202524" style="fill: #8fb4dc; stroke: #8fb4dc"/>
    </g>
   </g>
   <g id="line2d_14">
    <path d="M 226.88004 202.202524 
L 191.171293 201.398347 
L 77.440974 119.762451 
L 92.776165 273.500929 
L 240.763092 355.634565 
L 226.88004 202.202524 
" clip-path="url(#p23482b3384)" style="fill: none; stroke: #8fb4dc; stroke-opacity: 0.5; stroke-width: 0.5; stroke-linecap: square"/>
    <g clip-path="url(#p23482b3384)">
     <use xlink:href="#m8fc98aee36" x="226.88004" y="202.202524" style="fill: #8fb4dc; stroke: #8fb4dc"/>
     <use xlink:href="#m8fc98aee36" x="191.171293" y="201.398347" style="fill: #8fb4dc; stroke: #8fb4dc"/>
     <use xlink:href="#m8fc98aee36" x="77.440974" y="119.762451" style="fill: #8fb4dc; stroke: #8fb4dc"/>
     <use xlink:href="#m8fc98aee36" x="92.776165" y="273.500929" style="fill: #8fb4dc; stroke: #8fb4dc"/>
     <use xlink:href="#m8fc98aee36" x="240.763092" y="355.634565" style="fill: #8fb4dc; stroke: #8fb4dc"/>
     <use xlink:href="#m8fc98aee36" x="226.88004" y="202.202524" style="fill: #8fb4dc; stroke: #8fb4dc"/>
    </g>
   </g>
   <g id="line2d_15">
    <path d="M 228.423998 202.202524 
L 191.022234 201.857102 
L 155.763632 176.667194 
L 50.723814 304.05375 
L 200.89111 232.921223 
L 228.423998 202.202524 
" clip-path="url(#p23482b3384)" style="fill: none; stroke: #8fb4dc; stroke-opacity: 0.5; stroke-width: 0.5; stroke-linecap: square"/>
    <g clip-path="url(#p23482b3384)">
     <use xlink:href="#m8fc98aee36" x="228.423998" y="202.202524" style="fill: #8fb4dc; stroke: #8fb4dc"/>
     <use xlink:href="#m8fc98aee36" x="191.022234" y="201.857102" style="fill: #8fb4dc; stroke: #8fb4dc"/>
     <use xlink:href="#m8fc98aee36" x="155.763632" y="176.667194" style="fill: #8fb4dc; stroke: #8fb4dc"/>
     <use xlink:href="#m8fc98aee36" x="50.723814" y="304.05375" style="fill: #8fb4dc; stroke: #8fb4dc"/>
     <use xlink:href="#m8fc98aee36" x="200.89111" y="232.921223" style="fill: #8fb4dc; stroke: #8fb4dc"/>
     <use xlink:href="#m8fc98aee36" x="228.423998" y="202.202524" style="fill: #8fb4dc; stroke: #8fb4dc"/>
    </g>
   </g>
   <g id="line2d_16">
    <path d="M 228.570336 202.202524 
L 191.52457 200.311071 
L 135.343899 161.831389 
L 107.572899 262.750472 
L 195.87202 217.47405 
L 228.570336 202.202524 
" clip-path="url(#p23482b3384)" style="fill: none; stroke: #8fb4dc; stroke-opacity: 0.5; stroke-width: 0.5; stroke-linecap: square"/>
    <g clip-path="url(#p23482b3384)">
     <use xlink:href="#m8fc98aee36" x="228.570336" y="202.202524" style="fill: #8fb4dc; stroke: #8fb4dc"/>
     <use xlink:href="#m8fc98aee36" x="191.52457" y="200.311071" style="fill: #8fb4dc; stroke: #8fb4dc"/>
     <use xlink:href="#m8fc98aee36" x="135.343899" y="161.831389" style="fill: #8fb4dc; stroke: #8fb4dc"/>
     <use xlink:href="#m8fc98aee36" x="107.572899" y="262.750472" style="fill: #8fb4dc; stroke: #8fb4dc"/>
     <use xlink:href="#m8fc98aee36" x="195.87202" y="217.47405" style="fill: #8fb4dc; stroke: #8fb4dc"/>
     <use xlink:href="#m8fc98aee36" x="228.570336" y="202.202524" style="fill: #8fb4dc; stroke: #8fb4dc"/>
    </g>
   </g>
   <g id="line2d_17">
    <path d="M 228.786424 202.202524 
L 191.644273 199.942664 
L 149.202735 171.900422 
L 57.611123 299.049828 
L 193.783846 211.047312 
L 228.786424 202.202524 
" clip-path="url(#p23482b3384)" style="fill: none; stroke: #8fb4dc; stroke-opacity: 0.5; stroke-width: 0.5; stroke-linecap: square"/>
    <g clip-path="url(#p23482b3384)">
     <use xlink:href="#m8fc98aee36" x="228.786424" y="202.202524" style="fill: #8fb4dc; stroke: #8fb4dc"/>
     <use xlink:href="#m8fc98aee36" x="191.644273" y="199.942664" style="fill: #8fb4dc; stroke: #8fb4dc"/>
     <use xlink:href="#m8fc98aee36" x="149.202735" y="171.900422" style="fill: #8fb4dc; stroke: #8fb4dc"/>
     <use xlink:href="#m8fc98aee36" x="57.611123" y="299.049828" style="fill: #8fb4dc; stroke: #8fb4dc"/>
     <use xlink:href="#m8fc98aee36" x="193.783846" y="211.047312" style="fill: #8fb4dc; stroke: #8fb4dc"/>
     <use xlink:href="#m8fc98aee36" x="228.786424" y="202.202524" style="fill: #8fb4dc; stroke: #8fb4dc"/>
    </g>
   </g>
   <g id="line2d_18">
    <path d="M 230.599019 202.202524 
L 193.518539 194.174268 
L 149.414679 172.054409 
L 114.096365 258.010897 
L 239.633444 352.157866 
L 230.599019 202.202524 
" clip-path="url(#p23482b3384)" style="fill: none; stroke: #8fb4dc; stroke-opacity: 0.5; stroke-width: 0.5; stroke-linecap: square"/>
    <g clip-path="url(#p23482b3384)">
     <use xlink:href="#m8fc98aee36" x="230.599019" y="202.202524" style="fill: #8fb4dc; stroke: #8fb4dc"/>
     <use xlink:href="#m8fc98aee36" x="193.518539" y="194.174268" style="fill: #8fb4dc; stroke: #8fb4dc"/>
     <use xlink:href="#m8fc98aee36" x="149.414679" y="172.054409" style="fill: #8fb4dc; stroke: #8fb4dc"/>
     <use xlink:href="#m8fc98aee36" x="114.096365" y="258.010897" style="fill: #8fb4dc; stroke: #8fb4dc"/>
     <use xlink:href="#m8fc98aee36" x="239.633444" y="352.157866" style="fill: #8fb4dc; stroke: #8fb4dc"/>
     <use xlink:href="#m8fc98aee36" x="230.599019" y="202.202524" style="fill: #8fb4dc; stroke: #8fb4dc"/>
    </g>
   </g>
   <g id="line2d_19">
    <path d="M 232.792701 202.202524 
L 195.798795 187.15636 
L 80.750628 122.167056 
L 146.890407 234.184631 
L 199.331201 228.120316 
L 232.792701 202.202524 
" clip-path="url(#p23482b3384)" style="fill: none; stroke: #8fb4dc; stroke-opacity: 0.5; stroke-width: 0.5; stroke-linecap: square"/>
    <g clip-path="url(#p23482b3384)">
     <use xlink:href="#m8fc98aee36" x="232.792701" y="202.202524" style="fill: #8fb4dc; stroke: #8fb4dc"/>
     <use xlink:href="#m8fc98aee36" x="195.798795" y="187.15636" style="fill: #8fb4dc; stroke: #8fb4dc"/>
     <use xlink:href="#m8fc98aee36" x="80.750628" y="122.167056" style="fill: #8fb4dc; stroke: #8fb4dc"/>
     <use xlink:href="#m8fc98aee36" x="146.890407" y="234.184631" style="fill: #8fb4dc; stroke: #8fb4dc"/>
     <use xlink:href="#m8fc98aee36" x="199.331201" y="228.120316" style="fill: #8fb4dc; stroke: #8fb4dc"/>
     <use xlink:href="#m8fc98aee36" x="232.792701" y="202.202524" style="fill: #8fb4dc; stroke: #8fb4dc"/>
    </g>
   </g>
   <g id="line2d_20">
    <path d="M 232.896347 202.202524 
L 191.25588 201.138014 
L 73.30096 116.754555 
L 50.803105 303.996142 
L 219.277593 289.508999 
L 232.896347 202.202524 
" clip-path="url(#p23482b3384)" style="fill: none; stroke: #8fb4dc; stroke-opacity: 0.5; stroke-width: 0.5; stroke-linecap: square"/>
    <g clip-path="url(#p23482b3384)">
     <use xlink:href="#m8fc98aee36" x="232.896347" y="202.202524" style="fill: #8fb4dc; stroke: #8fb4dc"/>
     <use xlink:href="#m8fc98aee36" x="191.25588" y="201.138014" style="fill: #8fb4dc; stroke: #8fb4dc"/>
     <use xlink:href="#m8fc98aee36" x="73.30096" y="116.754555" style="fill: #8fb4dc; stroke: #8fb4dc"/>
     <use xlink:href="#m8fc98aee36" x="50.803105" y="303.996142" style="fill: #8fb4dc; stroke: #8fb4dc"/>
     <use xlink:href="#m8fc98aee36" x="219.277593" y="289.508999" style="fill: #8fb4dc; stroke: #8fb4dc"/>
     <use xlink:href="#m8fc98aee36" x="232.896347" y="202.202524" style="fill: #8fb4dc; stroke: #8fb4dc"/>
    </g>
   </g>
   <g id="line2d_21">
    <path d="M 233.107059 202.202524 
L 191.721531 199.704889 
L 189.862218 201.441266 
L 86.941282 277.74022 
L 244.396574 366.817274 
L 233.107059 202.202524 
" clip-path="url(#p23482b3384)" style="fill: none; stroke: #8fb4dc; stroke-opacity: 0.5; stroke-width: 0.5; stroke-linecap: square"/>
    <g clip-path="url(#p23482b3384)">
     <use xlink:href="#m8fc98aee36" x="233.107059" y="202.202524" style="fill: #8fb4dc; stroke: #8fb4dc"/>
     <use xlink:href="#m8fc98aee36" x="191.721531" y="199.704889" style="fill: #8fb4dc; stroke: #8fb4dc"/>
     <use xlink:href="#m8fc98aee36" x="189.862218" y="201.441266" style="fill: #8fb4dc; stroke: #8fb4dc"/>
     <use xlink:href="#m8fc98aee36" x="86.941282" y="277.74022" style="fill: #8fb4dc; stroke: #8fb4dc"/>
     <use xlink:href="#m8fc98aee36" x="244.396574" y="366.817274" style="fill: #8fb4dc; stroke: #8fb4dc"/>
     <use xlink:href="#m8fc98aee36" x="233.107059" y="202.202524" style="fill: #8fb4dc; stroke: #8fb4dc"/>
    </g>
   </g>
   <g id="line2d_22">
    <path d="M 233.516353 202.202524 
L 197.565035 181.720432 
L 178.5539 193.225292 
L 97.577838 270.012309 
L 233.666268 333.792786 
L 233.516353 202.202524 
" clip-path="url(#p23482b3384)" style="fill: none; stroke: #8fb4dc; stroke-opacity: 0.5; stroke-width: 0.5; stroke-linecap: square"/>
    <g clip-path="url(#p23482b3384)">
     <use xlink:href="#m8fc98aee36" x="233.516353" y="202.202524" style="fill: #8fb4dc; stroke: #8fb4dc"/>
     <use xlink:href="#m8fc98aee36" x="197.565035" y="181.720432" style="fill: #8fb4dc; stroke: #8fb4dc"/>
     <use xlink:href="#m8fc98aee36" x="178.5539" y="193.225292" style="fill: #8fb4dc; stroke: #8fb4dc"/>
     <use xlink:href="#m8fc98aee36" x="97.577838" y="270.012309" style="fill: #8fb4dc; stroke: #8fb4dc"/>
     <use xlink:href="#m8fc98aee36" x="233.666268" y="333.792786" style="fill: #8fb4dc; stroke: #8fb4dc"/>
     <use xlink:href="#m8fc98aee36" x="233.516353" y="202.202524" style="fill: #8fb4dc; stroke: #8fb4dc"/>
    </g>
   </g>
   <g id="line2d_23">
    <path d="M 234.071366 202.202524 
L 191.366965 200.796131 
L 184.247577 197.361991 
L 49.486017 304.953062 
L 233.577205 333.518679 
L 234.071366 202.202524 
" clip-path="url(#p23482b3384)" style="fill: none; stroke: #8fb4dc; stroke-opacity: 0.5; stroke-width: 0.5; stroke-linecap: square"/>
    <g clip-path="url(#p23482b3384)">
     <use xlink:href="#m8fc98aee36" x="234.071366" y="202.202524" style="fill: #8fb4dc; stroke: #8fb4dc"/>
     <use xlink:href="#m8fc98aee36" x="191.366965" y="200.796131" style="fill: #8fb4dc; stroke: #8fb4dc"/>
     <use xlink:href="#m8fc98aee36" x="184.247577" y="197.361991" style="fill: #8fb4dc; stroke: #8fb4dc"/>
     <use xlink:href="#m8fc98aee36" x="49.486017" y="304.953062" style="fill: #8fb4dc; stroke: #8fb4dc"/>
     <use xlink:href="#m8fc98aee36" x="233.577205" y="333.518679" style="fill: #8fb4dc; stroke: #8fb4dc"/>
     <use xlink:href="#m8fc98aee36" x="234.071366" y="202.202524" style="fill: #8fb4dc; stroke: #8fb4dc"/>
    </g>
   </g>
   <g id="line2d_24">
    <path d="M 235.010818 202.202524 
L 191.20532 201.293624 
L 134.894354 161.504776 
L 53.700453 301.891095 
L 244.976303 368.601494 
L 235.010818 202.202524 
" clip-path="url(#p23482b3384)" style="fill: none; stroke: #8fb4dc; stroke-opacity: 0.5; stroke-width: 0.5; stroke-linecap: square"/>
    <g clip-path="url(#p23482b3384)">
     <use xlink:href="#m8fc98aee36" x="235.010818" y="202.202524" style="fill: #8fb4dc; stroke: #8fb4dc"/>
     <use xlink:href="#m8fc98aee36" x="191.20532" y="201.293624" style="fill: #8fb4dc; stroke: #8fb4dc"/>
     <use xlink:href="#m8fc98aee36" x="134.894354" y="161.504776" style="fill: #8fb4dc; stroke: #8fb4dc"/>
     <use xlink:href="#m8fc98aee36" x="53.700453" y="301.891095" style="fill: #8fb4dc; stroke: #8fb4dc"/>
     <use xlink:href="#m8fc98aee36" x="244.976303" y="368.601494" style="fill: #8fb4dc; stroke: #8fb4dc"/>
     <use xlink:href="#m8fc98aee36" x="235.010818" y="202.202524" style="fill: #8fb4dc; stroke: #8fb4dc"/>
    </g>
   </g>
   <g id="line2d_25">
    <path d="M 235.29242 202.202524 
L 194.625582 190.76714 
L 176.322542 191.604116 
L 114.815662 257.488297 
L 229.601194 321.281774 
L 235.29242 202.202524 
" clip-path="url(#p23482b3384)" style="fill: none; stroke: #8fb4dc; stroke-opacity: 0.5; stroke-width: 0.5; stroke-linecap: square"/>
    <g clip-path="url(#p23482b3384)">
     <use xlink:href="#m8fc98aee36" x="235.29242" y="202.202524" style="fill: #8fb4dc; stroke: #8fb4dc"/>
     <use xlink:href="#m8fc98aee36" x="194.625582" y="190.76714" style="fill: #8fb4dc; stroke: #8fb4dc"/>
     <use xlink:href="#m8fc98aee36" x="176.322542" y="191.604116" style="fill: #8fb4dc; stroke: #8fb4dc"/>
     <use xlink:href="#m8fc98aee36" x="114.815662" y="257.488297" style="fill: #8fb4dc; stroke: #8fb4dc"/>
     <use xlink:href="#m8fc98aee36" x="229.601194" y="321.281774" style="fill: #8fb4dc; stroke: #8fb4dc"/>
     <use xlink:href="#m8fc98aee36" x="235.29242" y="202.202524" style="fill: #8fb4dc; stroke: #8fb4dc"/>
    </g>
   </g>
   <g id="line2d_26">
    <path d="M 235.32399 202.202524 
L 198.166123 179.870475 
L 100.291294 136.364181 
L 144.16977 236.161289 
L 193.35396 209.724258 
L 235.32399 202.202524 
" clip-path="url(#p23482b3384)" style="fill: none; stroke: #8fb4dc; stroke-opacity: 0.5; stroke-width: 0.5; stroke-linecap: square"/>
    <g clip-path="url(#p23482b3384)">
     <use xlink:href="#m8fc98aee36" x="235.32399" y="202.202524" style="fill: #8fb4dc; stroke: #8fb4dc"/>
     <use xlink:href="#m8fc98aee36" x="198.166123" y="179.870475" style="fill: #8fb4dc; stroke: #8fb4dc"/>
     <use xlink:href="#m8fc98aee36" x="100.291294" y="136.364181" style="fill: #8fb4dc; stroke: #8fb4dc"/>
     <use xlink:href="#m8fc98aee36" x="144.16977" y="236.161289" style="fill: #8fb4dc; stroke: #8fb4dc"/>
     <use xlink:href="#m8fc98aee36" x="193.35396" y="209.724258" style="fill: #8fb4dc; stroke: #8fb4dc"/>
     <use xlink:href="#m8fc98aee36" x="235.32399" y="202.202524" style="fill: #8fb4dc; stroke: #8fb4dc"/>
    </g>
   </g>
   <g id="line2d_27">
    <path d="M 235.988138 202.202524 
L 191.688895 199.805333 
L 185.602798 198.346617 
L 88.412349 276.671427 
L 224.681606 306.140839 
L 235.988138 202.202524 
" clip-path="url(#p23482b3384)" style="fill: none; stroke: #8fb4dc; stroke-opacity: 0.5; stroke-width: 0.5; stroke-linecap: square"/>
    <g clip-path="url(#p23482b3384)">
     <use xlink:href="#m8fc98aee36" x="235.988138" y="202.202524" style="fill: #8fb4dc; stroke: #8fb4dc"/>
     <use xlink:href="#m8fc98aee36" x="191.688895" y="199.805333" style="fill: #8fb4dc; stroke: #8fb4dc"/>
     <use xlink:href="#m8fc98aee36" x="185.602798" y="198.346617" style="fill: #8fb4dc; stroke: #8fb4dc"/>
     <use xlink:href="#m8fc98aee36" x="88.412349" y="276.671427" style="fill: #8fb4dc; stroke: #8fb4dc"/>
     <use xlink:href="#m8fc98aee36" x="224.681606" y="306.140839" style="fill: #8fb4dc; stroke: #8fb4dc"/>
     <use xlink:href="#m8fc98aee36" x="235.988138" y="202.202524" style="fill: #8fb4dc; stroke: #8fb4dc"/>
    </g>
   </g>
   <g id="line2d_28">
    <path d="M 236.5459 202.202524 
L 191.047856 201.778246 
L 149.399498 172.043379 
L 61.346298 296.336064 
L 244.450415 366.982979 
L 236.5459 202.202524 
" clip-path="url(#p23482b3384)" style="fill: none; stroke: #8fb4dc; stroke-opacity: 0.5; stroke-width: 0.5; stroke-linecap: square"/>
    <g clip-path="url(#p23482b3384)">
     <use xlink:href="#m8fc98aee36" x="236.5459" y="202.202524" style="fill: #8fb4dc; stroke: #8fb4dc"/>
     <use xlink:href="#m8fc98aee36" x="191.047856" y="201.778246" style="fill: #8fb4dc; stroke: #8fb4dc"/>
     <use xlink:href="#m8fc98aee36" x="149.399498" y="172.043379" style="fill: #8fb4dc; stroke: #8fb4dc"/>
     <use xlink:href="#m8fc98aee36" x="61.346298" y="296.336064" style="fill: #8fb4dc; stroke: #8fb4dc"/>
     <use xlink:href="#m8fc98aee36" x="244.450415" y="366.982979" style="fill: #8fb4dc; stroke: #8fb4dc"/>
     <use xlink:href="#m8fc98aee36" x="236.5459" y="202.202524" style="fill: #8fb4dc; stroke: #8fb4dc"/>
    </g>
   </g>
   <g id="line2d_29">
    <path d="M 236.624534 202.202524 
L 192.988657 195.805075 
L 116.01916 147.791144 
L 144.019578 236.27041 
L 193.096475 208.931802 
L 236.624534 202.202524 
" clip-path="url(#p23482b3384)" style="fill: none; stroke: #8fb4dc; stroke-opacity: 0.5; stroke-width: 0.5; stroke-linecap: square"/>
    <g clip-path="url(#p23482b3384)">
     <use xlink:href="#m8fc98aee36" x="236.624534" y="202.202524" style="fill: #8fb4dc; stroke: #8fb4dc"/>
     <use xlink:href="#m8fc98aee36" x="192.988657" y="195.805075" style="fill: #8fb4dc; stroke: #8fb4dc"/>
     <use xlink:href="#m8fc98aee36" x="116.01916" y="147.791144" style="fill: #8fb4dc; stroke: #8fb4dc"/>
     <use xlink:href="#m8fc98aee36" x="144.019578" y="236.27041" style="fill: #8fb4dc; stroke: #8fb4dc"/>
     <use xlink:href="#m8fc98aee36" x="193.096475" y="208.931802" style="fill: #8fb4dc; stroke: #8fb4dc"/>
     <use xlink:href="#m8fc98aee36" x="236.624534" y="202.202524" style="fill: #8fb4dc; stroke: #8fb4dc"/>
    </g>
   </g>
   <g id="line2d_30">
    <path d="M 236.688428 202.202524 
L 190.912113 202.196023 
L 187.912275 200.02455 
L 70.874142 289.413681 
L 237.945775 346.963753 
L 236.688428 202.202524 
" clip-path="url(#p23482b3384)" style="fill: none; stroke: #8fb4dc; stroke-opacity: 0.5; stroke-width: 0.5; stroke-linecap: square"/>
    <g clip-path="url(#p23482b3384)">
     <use xlink:href="#m8fc98aee36" x="236.688428" y="202.202524" style="fill: #8fb4dc; stroke: #8fb4dc"/>
     <use xlink:href="#m8fc98aee36" x="190.912113" y="202.196023" style="fill: #8fb4dc; stroke: #8fb4dc"/>
     <use xlink:href="#m8fc98aee36" x="187.912275" y="200.02455" style="fill: #8fb4dc; stroke: #8fb4dc"/>
     <use xlink:href="#m8fc98aee36" x="70.874142" y="289.413681" style="fill: #8fb4dc; stroke: #8fb4dc"/>
     <use xlink:href="#m8fc98aee36" x="237.945775" y="346.963753" style="fill: #8fb4dc; stroke: #8fb4dc"/>
     <use xlink:href="#m8fc98aee36" x="236.688428" y="202.202524" style="fill: #8fb4dc; stroke: #8fb4dc"/>
    </g>
   </g>
   <g id="line2d_31">
    <path d="M 237.98665 202.202524 
L 192.781397 196.442956 
L 168.752519 186.104172 
L 97.190316 270.293861 
L 243.054819 362.687776 
L 237.98665 202.202524 
" clip-path="url(#p23482b3384)" style="fill: none; stroke: #8fb4dc; stroke-opacity: 0.5; stroke-width: 0.5; stroke-linecap: square"/>
    <g clip-path="url(#p23482b3384)">
     <use xlink:href="#m8fc98aee36" x="237.98665" y="202.202524" style="fill: #8fb4dc; stroke: #8fb4dc"/>
     <use xlink:href="#m8fc98aee36" x="192.781397" y="196.442956" style="fill: #8fb4dc; stroke: #8fb4dc"/>
     <use xlink:href="#m8fc98aee36" x="168.752519" y="186.104172" style="fill: #8fb4dc; stroke: #8fb4dc"/>
     <use xlink:href="#m8fc98aee36" x="97.190316" y="270.293861" style="fill: #8fb4dc; stroke: #8fb4dc"/>
     <use xlink:href="#m8fc98aee36" x="243.054819" y="362.687776" style="fill: #8fb4dc; stroke: #8fb4dc"/>
     <use xlink:href="#m8fc98aee36" x="237.98665" y="202.202524" style="fill: #8fb4dc; stroke: #8fb4dc"/>
    </g>
   </g>
   <g id="line2d_32">
    <path d="M 238.616577 202.202524 
L 195.13368 189.203373 
L 171.819072 188.332153 
L 108.081657 262.380838 
L 230.6762 324.590303 
L 238.616577 202.202524 
" clip-path="url(#p23482b3384)" style="fill: none; stroke: #8fb4dc; stroke-opacity: 0.5; stroke-width: 0.5; stroke-linecap: square"/>
    <g clip-path="url(#p23482b3384)">
     <use xlink:href="#m8fc98aee36" x="238.616577" y="202.202524" style="fill: #8fb4dc; stroke: #8fb4dc"/>
     <use xlink:href="#m8fc98aee36" x="195.13368" y="189.203373" style="fill: #8fb4dc; stroke: #8fb4dc"/>
     <use xlink:href="#m8fc98aee36" x="171.819072" y="188.332153" style="fill: #8fb4dc; stroke: #8fb4dc"/>
     <use xlink:href="#m8fc98aee36" x="108.081657" y="262.380838" style="fill: #8fb4dc; stroke: #8fb4dc"/>
     <use xlink:href="#m8fc98aee36" x="230.6762" y="324.590303" style="fill: #8fb4dc; stroke: #8fb4dc"/>
     <use xlink:href="#m8fc98aee36" x="238.616577" y="202.202524" style="fill: #8fb4dc; stroke: #8fb4dc"/>
    </g>
   </g>
   <g id="line2d_33">
    <path d="M 239.542837 202.202524 
L 192.16397 198.343203 
L 125.542911 154.710554 
L 57.050542 299.457113 
L 213.934205 273.063741 
L 239.542837 202.202524 
" clip-path="url(#p23482b3384)" style="fill: none; stroke: #8fb4dc; stroke-opacity: 0.5; stroke-width: 0.5; stroke-linecap: square"/>
    <g clip-path="url(#p23482b3384)">
     <use xlink:href="#m8fc98aee36" x="239.542837" y="202.202524" style="fill: #8fb4dc; stroke: #8fb4dc"/>
     <use xlink:href="#m8fc98aee36" x="192.16397" y="198.343203" style="fill: #8fb4dc; stroke: #8fb4dc"/>
     <use xlink:href="#m8fc98aee36" x="125.542911" y="154.710554" style="fill: #8fb4dc; stroke: #8fb4dc"/>
     <use xlink:href="#m8fc98aee36" x="57.050542" y="299.457113" style="fill: #8fb4dc; stroke: #8fb4dc"/>
     <use xlink:href="#m8fc98aee36" x="213.934205" y="273.063741" style="fill: #8fb4dc; stroke: #8fb4dc"/>
     <use xlink:href="#m8fc98aee36" x="239.542837" y="202.202524" style="fill: #8fb4dc; stroke: #8fb4dc"/>
    </g>
   </g>
   <g id="line2d_34">
    <path d="M 239.645894 202.202524 
L 191.156121 201.445042 
L 141.448656 166.266755 
L 56.024502 300.202575 
L 230.63267 324.456331 
L 239.645894 202.202524 
" clip-path="url(#p23482b3384)" style="fill: none; stroke: #8fb4dc; stroke-opacity: 0.5; stroke-width: 0.5; stroke-linecap: square"/>
    <g clip-path="url(#p23482b3384)">
     <use xlink:href="#m8fc98aee36" x="239.645894" y="202.202524" style="fill: #8fb4dc; stroke: #8fb4dc"/>
     <use xlink:href="#m8fc98aee36" x="191.156121" y="201.445042" style="fill: #8fb4dc; stroke: #8fb4dc"/>
     <use xlink:href="#m8fc98aee36" x="141.448656" y="166.266755" style="fill: #8fb4dc; stroke: #8fb4dc"/>
     <use xlink:href="#m8fc98aee36" x="56.024502" y="300.202575" style="fill: #8fb4dc; stroke: #8fb4dc"/>
     <use xlink:href="#m8fc98aee36" x="230.63267" y="324.456331" style="fill: #8fb4dc; stroke: #8fb4dc"/>
     <use xlink:href="#m8fc98aee36" x="239.645894" y="202.202524" style="fill: #8fb4dc; stroke: #8fb4dc"/>
    </g>
   </g>
   <g id="line2d_35">
    <path d="M 239.828347 202.202524 
L 191.175479 201.385463 
L 49.527212 99.481916 
L 51.276818 303.65197 
L 222.822168 300.418078 
L 239.828347 202.202524 
" clip-path="url(#p23482b3384)" style="fill: none; stroke: #8fb4dc; stroke-opacity: 0.5; stroke-width: 0.5; stroke-linecap: square"/>
    <g clip-path="url(#p23482b3384)">
     <use xlink:href="#m8fc98aee36" x="239.828347" y="202.202524" style="fill: #8fb4dc; stroke: #8fb4dc"/>
     <use xlink:href="#m8fc98aee36" x="191.175479" y="201.385463" style="fill: #8fb4dc; stroke: #8fb4dc"/>
     <use xlink:href="#m8fc98aee36" x="49.527212" y="99.481916" style="fill: #8fb4dc; stroke: #8fb4dc"/>
     <use xlink:href="#m8fc98aee36" x="51.276818" y="303.65197" style="fill: #8fb4dc; stroke: #8fb4dc"/>
     <use xlink:href="#m8fc98aee36" x="222.822168" y="300.418078" style="fill: #8fb4dc; stroke: #8fb4dc"/>
     <use xlink:href="#m8fc98aee36" x="239.828347" y="202.202524" style="fill: #8fb4dc; stroke: #8fb4dc"/>
    </g>
   </g>
   <g id="line2d_36">
    <path d="M 240.618222 202.202524 
L 191.81678 199.411744 
L 152.51543 174.307236 
L 85.271852 278.953131 
L 243.595346 364.351346 
L 240.618222 202.202524 
" clip-path="url(#p23482b3384)" style="fill: none; stroke: #8fb4dc; stroke-opacity: 0.5; stroke-width: 0.5; stroke-linecap: square"/>
    <g clip-path="url(#p23482b3384)">
     <use xlink:href="#m8fc98aee36" x="240.618222" y="202.202524" style="fill: #8fb4dc; stroke: #8fb4dc"/>
     <use xlink:href="#m8fc98aee36" x="191.81678" y="199.411744" style="fill: #8fb4dc; stroke: #8fb4dc"/>
     <use xlink:href="#m8fc98aee36" x="152.51543" y="174.307236" style="fill: #8fb4dc; stroke: #8fb4dc"/>
     <use xlink:href="#m8fc98aee36" x="85.271852" y="278.953131" style="fill: #8fb4dc; stroke: #8fb4dc"/>
     <use xlink:href="#m8fc98aee36" x="243.595346" y="364.351346" style="fill: #8fb4dc; stroke: #8fb4dc"/>
     <use xlink:href="#m8fc98aee36" x="240.618222" y="202.202524" style="fill: #8fb4dc; stroke: #8fb4dc"/>
    </g>
   </g>
   <g id="line2d_37">
    <path d="M 242.941315 202.202524 
L 191.259112 201.128068 
L 90.969581 129.59156 
L 134.553436 243.147965 
L 202.083631 236.591423 
L 242.941315 202.202524 
" clip-path="url(#p23482b3384)" style="fill: none; stroke: #8fb4dc; stroke-opacity: 0.5; stroke-width: 0.5; stroke-linecap: square"/>
    <g clip-path="url(#p23482b3384)">
     <use xlink:href="#m8fc98aee36" x="242.941315" y="202.202524" style="fill: #8fb4dc; stroke: #8fb4dc"/>
     <use xlink:href="#m8fc98aee36" x="191.259112" y="201.128068" style="fill: #8fb4dc; stroke: #8fb4dc"/>
     <use xlink:href="#m8fc98aee36" x="90.969581" y="129.59156" style="fill: #8fb4dc; stroke: #8fb4dc"/>
     <use xlink:href="#m8fc98aee36" x="134.553436" y="243.147965" style="fill: #8fb4dc; stroke: #8fb4dc"/>
     <use xlink:href="#m8fc98aee36" x="202.083631" y="236.591423" style="fill: #8fb4dc; stroke: #8fb4dc"/>
     <use xlink:href="#m8fc98aee36" x="242.941315" y="202.202524" style="fill: #8fb4dc; stroke: #8fb4dc"/>
    </g>
   </g>
   <g id="line2d_38">
    <path d="M 243.434919 202.202524 
L 191.11644 201.567169 
L 56.40472 104.478718 
L 101.845721 266.911511 
L 194.375952 212.869628 
L 243.434919 202.202524 
" clip-path="url(#p23482b3384)" style="fill: none; stroke: #8fb4dc; stroke-opacity: 0.5; stroke-width: 0.5; stroke-linecap: square"/>
    <g clip-path="url(#p23482b3384)">
     <use xlink:href="#m8fc98aee36" x="243.434919" y="202.202524" style="fill: #8fb4dc; stroke: #8fb4dc"/>
     <use xlink:href="#m8fc98aee36" x="191.11644" y="201.567169" style="fill: #8fb4dc; stroke: #8fb4dc"/>
     <use xlink:href="#m8fc98aee36" x="56.40472" y="104.478718" style="fill: #8fb4dc; stroke: #8fb4dc"/>
     <use xlink:href="#m8fc98aee36" x="101.845721" y="266.911511" style="fill: #8fb4dc; stroke: #8fb4dc"/>
     <use xlink:href="#m8fc98aee36" x="194.375952" y="212.869628" style="fill: #8fb4dc; stroke: #8fb4dc"/>
     <use xlink:href="#m8fc98aee36" x="243.434919" y="202.202524" style="fill: #8fb4dc; stroke: #8fb4dc"/>
    </g>
   </g>
   <g id="line2d_39">
    <path d="M 244.019444 202.202524 
L 192.21768 198.177901 
L 156.180397 176.969991 
L 89.179139 276.114321 
L 242.389207 360.639232 
L 244.019444 202.202524 
" clip-path="url(#p23482b3384)" style="fill: none; stroke: #8fb4dc; stroke-opacity: 0.5; stroke-width: 0.5; stroke-linecap: square"/>
    <g clip-path="url(#p23482b3384)">
     <use xlink:href="#m8fc98aee36" x="244.019444" y="202.202524" style="fill: #8fb4dc; stroke: #8fb4dc"/>
     <use xlink:href="#m8fc98aee36" x="192.21768" y="198.177901" style="fill: #8fb4dc; stroke: #8fb4dc"/>
     <use xlink:href="#m8fc98aee36" x="156.180397" y="176.969991" style="fill: #8fb4dc; stroke: #8fb4dc"/>
     <use xlink:href="#m8fc98aee36" x="89.179139" y="276.114321" style="fill: #8fb4dc; stroke: #8fb4dc"/>
     <use xlink:href="#m8fc98aee36" x="242.389207" y="360.639232" style="fill: #8fb4dc; stroke: #8fb4dc"/>
     <use xlink:href="#m8fc98aee36" x="244.019444" y="202.202524" style="fill: #8fb4dc; stroke: #8fb4dc"/>
    </g>
   </g>
   <g id="line2d_40">
    <path d="M 244.358169 202.202524 
L 190.95828 202.053934 
L 180.534793 194.664496 
L 84.4163 279.574726 
L 244.07468 365.826584 
L 244.358169 202.202524 
" clip-path="url(#p23482b3384)" style="fill: none; stroke: #8fb4dc; stroke-opacity: 0.5; stroke-width: 0.5; stroke-linecap: square"/>
    <g clip-path="url(#p23482b3384)">
     <use xlink:href="#m8fc98aee36" x="244.358169" y="202.202524" style="fill: #8fb4dc; stroke: #8fb4dc"/>
     <use xlink:href="#m8fc98aee36" x="190.95828" y="202.053934" style="fill: #8fb4dc; stroke: #8fb4dc"/>
     <use xlink:href="#m8fc98aee36" x="180.534793" y="194.664496" style="fill: #8fb4dc; stroke: #8fb4dc"/>
     <use xlink:href="#m8fc98aee36" x="84.4163" y="279.574726" style="fill: #8fb4dc; stroke: #8fb4dc"/>
     <use xlink:href="#m8fc98aee36" x="244.07468" y="365.826584" style="fill: #8fb4dc; stroke: #8fb4dc"/>
     <use xlink:href="#m8fc98aee36" x="244.358169" y="202.202524" style="fill: #8fb4dc; stroke: #8fb4dc"/>
    </g>
   </g>
   <g id="line2d_41">
    <path d="M 245.473858 202.202524 
L 191.258771 201.129117 
L 53.491223 102.361939 
L 91.235549 274.620252 
L 193.50375 210.185265 
L 245.473858 202.202524 
" clip-path="url(#p23482b3384)" style="fill: none; stroke: #8fb4dc; stroke-opacity: 0.5; stroke-width: 0.5; stroke-linecap: square"/>
    <g clip-path="url(#p23482b3384)">
     <use xlink:href="#m8fc98aee36" x="245.473858" y="202.202524" style="fill: #8fb4dc; stroke: #8fb4dc"/>
     <use xlink:href="#m8fc98aee36" x="191.258771" y="201.129117" style="fill: #8fb4dc; stroke: #8fb4dc"/>
     <use xlink:href="#m8fc98aee36" x="53.491223" y="102.361939" style="fill: #8fb4dc; stroke: #8fb4dc"/>
     <use xlink:href="#m8fc98aee36" x="91.235549" y="274.620252" style="fill: #8fb4dc; stroke: #8fb4dc"/>
     <use xlink:href="#m8fc98aee36" x="193.50375" y="210.185265" style="fill: #8fb4dc; stroke: #8fb4dc"/>
     <use xlink:href="#m8fc98aee36" x="245.473858" y="202.202524" style="fill: #8fb4dc; stroke: #8fb4dc"/>
    </g>
   </g>
   <g id="line2d_42">
    <path d="M 245.657416 202.202524 
L 195.121622 189.240485 
L 54.374117 103.003399 
L 76.803064 285.106066 
L 241.254016 357.145473 
L 245.657416 202.202524 
" clip-path="url(#p23482b3384)" style="fill: none; stroke: #8fb4dc; stroke-opacity: 0.5; stroke-width: 0.5; stroke-linecap: square"/>
    <g clip-path="url(#p23482b3384)">
     <use xlink:href="#m8fc98aee36" x="245.657416" y="202.202524" style="fill: #8fb4dc; stroke: #8fb4dc"/>
     <use xlink:href="#m8fc98aee36" x="195.121622" y="189.240485" style="fill: #8fb4dc; stroke: #8fb4dc"/>
     <use xlink:href="#m8fc98aee36" x="54.374117" y="103.003399" style="fill: #8fb4dc; stroke: #8fb4dc"/>
     <use xlink:href="#m8fc98aee36" x="76.803064" y="285.106066" style="fill: #8fb4dc; stroke: #8fb4dc"/>
     <use xlink:href="#m8fc98aee36" x="241.254016" y="357.145473" style="fill: #8fb4dc; stroke: #8fb4dc"/>
     <use xlink:href="#m8fc98aee36" x="245.657416" y="202.202524" style="fill: #8fb4dc; stroke: #8fb4dc"/>
    </g>
   </g>
   <g id="line2d_43">
    <path d="M 246.495434 202.202524 
L 191.59233 200.102529 
L 185.243629 198.085665 
L 117.46012 255.566986 
L 242.011249 359.475998 
L 246.495434 202.202524 
" clip-path="url(#p23482b3384)" style="fill: none; stroke: #8fb4dc; stroke-opacity: 0.5; stroke-width: 0.5; stroke-linecap: square"/>
    <g clip-path="url(#p23482b3384)">
     <use xlink:href="#m8fc98aee36" x="246.495434" y="202.202524" style="fill: #8fb4dc; stroke: #8fb4dc"/>
     <use xlink:href="#m8fc98aee36" x="191.59233" y="200.102529" style="fill: #8fb4dc; stroke: #8fb4dc"/>
     <use xlink:href="#m8fc98aee36" x="185.243629" y="198.085665" style="fill: #8fb4dc; stroke: #8fb4dc"/>
     <use xlink:href="#m8fc98aee36" x="117.46012" y="255.566986" style="fill: #8fb4dc; stroke: #8fb4dc"/>
     <use xlink:href="#m8fc98aee36" x="242.011249" y="359.475998" style="fill: #8fb4dc; stroke: #8fb4dc"/>
     <use xlink:href="#m8fc98aee36" x="246.495434" y="202.202524" style="fill: #8fb4dc; stroke: #8fb4dc"/>
    </g>
   </g>
   <g id="line2d_44">
    <path d="M 248.14837 202.202524 
L 191.077716 201.686347 
L 127.513261 156.142097 
L 65.138574 293.580814 
L 242.475388 360.904471 
L 248.14837 202.202524 
" clip-path="url(#p23482b3384)" style="fill: none; stroke: #8fb4dc; stroke-opacity: 0.5; stroke-width: 0.5; stroke-linecap: square"/>
    <g clip-path="url(#p23482b3384)">
     <use xlink:href="#m8fc98aee36" x="248.14837" y="202.202524" style="fill: #8fb4dc; stroke: #8fb4dc"/>
     <use xlink:href="#m8fc98aee36" x="191.077716" y="201.686347" style="fill: #8fb4dc; stroke: #8fb4dc"/>
     <use xlink:href="#m8fc98aee36" x="127.513261" y="156.142097" style="fill: #8fb4dc; stroke: #8fb4dc"/>
     <use xlink:href="#m8fc98aee36" x="65.138574" y="293.580814" style="fill: #8fb4dc; stroke: #8fb4dc"/>
     <use xlink:href="#m8fc98aee36" x="242.475388" y="360.904471" style="fill: #8fb4dc; stroke: #8fb4dc"/>
     <use xlink:href="#m8fc98aee36" x="248.14837" y="202.202524" style="fill: #8fb4dc; stroke: #8fb4dc"/>
    </g>
   </g>
   <g id="line2d_45">
    <path d="M 248.615376 202.202524 
L 192.768447 196.482812 
L 124.900507 154.243821 
L 108.064879 262.393028 
L 240.031558 353.383135 
L 248.615376 202.202524 
" clip-path="url(#p23482b3384)" style="fill: none; stroke: #8fb4dc; stroke-opacity: 0.5; stroke-width: 0.5; stroke-linecap: square"/>
    <g clip-path="url(#p23482b3384)">
     <use xlink:href="#m8fc98aee36" x="248.615376" y="202.202524" style="fill: #8fb4dc; stroke: #8fb4dc"/>
     <use xlink:href="#m8fc98aee36" x="192.768447" y="196.482812" style="fill: #8fb4dc; stroke: #8fb4dc"/>
     <use xlink:href="#m8fc98aee36" x="124.900507" y="154.243821" style="fill: #8fb4dc; stroke: #8fb4dc"/>
     <use xlink:href="#m8fc98aee36" x="108.064879" y="262.393028" style="fill: #8fb4dc; stroke: #8fb4dc"/>
     <use xlink:href="#m8fc98aee36" x="240.031558" y="353.383135" style="fill: #8fb4dc; stroke: #8fb4dc"/>
     <use xlink:href="#m8fc98aee36" x="248.615376" y="202.202524" style="fill: #8fb4dc; stroke: #8fb4dc"/>
    </g>
   </g>
   <g id="line2d_46">
    <path d="M 248.718139 202.202524 
L 196.915496 183.719507 
L 103.51323 138.705054 
L 93.341076 273.090497 
L 244.653775 367.608855 
L 248.718139 202.202524 
" clip-path="url(#p23482b3384)" style="fill: none; stroke: #8fb4dc; stroke-opacity: 0.5; stroke-width: 0.5; stroke-linecap: square"/>
    <g clip-path="url(#p23482b3384)">
     <use xlink:href="#m8fc98aee36" x="248.718139" y="202.202524" style="fill: #8fb4dc; stroke: #8fb4dc"/>
     <use xlink:href="#m8fc98aee36" x="196.915496" y="183.719507" style="fill: #8fb4dc; stroke: #8fb4dc"/>
     <use xlink:href="#m8fc98aee36" x="103.51323" y="138.705054" style="fill: #8fb4dc; stroke: #8fb4dc"/>
     <use xlink:href="#m8fc98aee36" x="93.341076" y="273.090497" style="fill: #8fb4dc; stroke: #8fb4dc"/>
     <use xlink:href="#m8fc98aee36" x="244.653775" y="367.608855" style="fill: #8fb4dc; stroke: #8fb4dc"/>
     <use xlink:href="#m8fc98aee36" x="248.718139" y="202.202524" style="fill: #8fb4dc; stroke: #8fb4dc"/>
    </g>
   </g>
   <g id="line2d_47">
    <path d="M 248.843233 202.202524 
L 191.127122 201.534292 
L 50.809592 100.41362 
L 67.090391 292.162736 
L 214.050285 273.420998 
L 248.843233 202.202524 
" clip-path="url(#p23482b3384)" style="fill: none; stroke: #8fb4dc; stroke-opacity: 0.5; stroke-width: 0.5; stroke-linecap: square"/>
    <g clip-path="url(#p23482b3384)">
     <use xlink:href="#m8fc98aee36" x="248.843233" y="202.202524" style="fill: #8fb4dc; stroke: #8fb4dc"/>
     <use xlink:href="#m8fc98aee36" x="191.127122" y="201.534292" style="fill: #8fb4dc; stroke: #8fb4dc"/>
     <use xlink:href="#m8fc98aee36" x="50.809592" y="100.41362" style="fill: #8fb4dc; stroke: #8fb4dc"/>
     <use xlink:href="#m8fc98aee36" x="67.090391" y="292.162736" style="fill: #8fb4dc; stroke: #8fb4dc"/>
     <use xlink:href="#m8fc98aee36" x="214.050285" y="273.420998" style="fill: #8fb4dc; stroke: #8fb4dc"/>
     <use xlink:href="#m8fc98aee36" x="248.843233" y="202.202524" style="fill: #8fb4dc; stroke: #8fb4dc"/>
    </g>
   </g>
   <g id="line2d_48">
    <path d="M 248.94444 202.202524 
L 191.230267 201.216845 
L 61.545939 108.214032 
L 62.405218 295.566713 
L 209.086456 258.143905 
L 248.94444 202.202524 
" clip-path="url(#p23482b3384)" style="fill: none; stroke: #8fb4dc; stroke-opacity: 0.5; stroke-width: 0.5; stroke-linecap: square"/>
    <g clip-path="url(#p23482b3384)">
     <use xlink:href="#m8fc98aee36" x="248.94444" y="202.202524" style="fill: #8fb4dc; stroke: #8fb4dc"/>
     <use xlink:href="#m8fc98aee36" x="191.230267" y="201.216845" style="fill: #8fb4dc; stroke: #8fb4dc"/>
     <use xlink:href="#m8fc98aee36" x="61.545939" y="108.214032" style="fill: #8fb4dc; stroke: #8fb4dc"/>
     <use xlink:href="#m8fc98aee36" x="62.405218" y="295.566713" style="fill: #8fb4dc; stroke: #8fb4dc"/>
     <use xlink:href="#m8fc98aee36" x="209.086456" y="258.143905" style="fill: #8fb4dc; stroke: #8fb4dc"/>
     <use xlink:href="#m8fc98aee36" x="248.94444" y="202.202524" style="fill: #8fb4dc; stroke: #8fb4dc"/>
    </g>
   </g>
   <g id="line2d_49">
    <path d="M 254.845796 202.202524 
L 192.397753 197.623692 
L 119.222261 150.118334 
L 51.145569 303.747328 
L 240.493061 354.803496 
L 254.845796 202.202524 
" clip-path="url(#p23482b3384)" style="fill: none; stroke: #8fb4dc; stroke-opacity: 0.5; stroke-width: 0.5; stroke-linecap: square"/>
    <g clip-path="url(#p23482b3384)">
     <use xlink:href="#m8fc98aee36" x="254.845796" y="202.202524" style="fill: #8fb4dc; stroke: #8fb4dc"/>
     <use xlink:href="#m8fc98aee36" x="192.397753" y="197.623692" style="fill: #8fb4dc; stroke: #8fb4dc"/>
     <use xlink:href="#m8fc98aee36" x="119.222261" y="150.118334" style="fill: #8fb4dc; stroke: #8fb4dc"/>
     <use xlink:href="#m8fc98aee36" x="51.145569" y="303.747328" style="fill: #8fb4dc; stroke: #8fb4dc"/>
     <use xlink:href="#m8fc98aee36" x="240.493061" y="354.803496" style="fill: #8fb4dc; stroke: #8fb4dc"/>
     <use xlink:href="#m8fc98aee36" x="254.845796" y="202.202524" style="fill: #8fb4dc; stroke: #8fb4dc"/>
    </g>
   </g>
   <g id="line2d_50">
    <path d="M 255.565219 202.202524 
L 191.563249 200.192032 
L 55.915902 104.123571 
L 49.69588 304.800588 
L 209.152365 258.346751 
L 255.565219 202.202524 
" clip-path="url(#p23482b3384)" style="fill: none; stroke: #8fb4dc; stroke-opacity: 0.5; stroke-width: 0.5; stroke-linecap: square"/>
    <g clip-path="url(#p23482b3384)">
     <use xlink:href="#m8fc98aee36" x="255.565219" y="202.202524" style="fill: #8fb4dc; stroke: #8fb4dc"/>
     <use xlink:href="#m8fc98aee36" x="191.563249" y="200.192032" style="fill: #8fb4dc; stroke: #8fb4dc"/>
     <use xlink:href="#m8fc98aee36" x="55.915902" y="104.123571" style="fill: #8fb4dc; stroke: #8fb4dc"/>
     <use xlink:href="#m8fc98aee36" x="49.69588" y="304.800588" style="fill: #8fb4dc; stroke: #8fb4dc"/>
     <use xlink:href="#m8fc98aee36" x="209.152365" y="258.346751" style="fill: #8fb4dc; stroke: #8fb4dc"/>
     <use xlink:href="#m8fc98aee36" x="255.565219" y="202.202524" style="fill: #8fb4dc; stroke: #8fb4dc"/>
    </g>
   </g>
   <g id="line2d_51">
    <path d="M 257.901138 202.202524 
L 192.317594 197.870395 
L 160.116888 179.830019 
L 91.200911 274.645418 
L 244.904735 368.38123 
L 257.901138 202.202524 
" clip-path="url(#p23482b3384)" style="fill: none; stroke: #8fb4dc; stroke-opacity: 0.5; stroke-width: 0.5; stroke-linecap: square"/>
    <g clip-path="url(#p23482b3384)">
     <use xlink:href="#m8fc98aee36" x="257.901138" y="202.202524" style="fill: #8fb4dc; stroke: #8fb4dc"/>
     <use xlink:href="#m8fc98aee36" x="192.317594" y="197.870395" style="fill: #8fb4dc; stroke: #8fb4dc"/>
     <use xlink:href="#m8fc98aee36" x="160.116888" y="179.830019" style="fill: #8fb4dc; stroke: #8fb4dc"/>
     <use xlink:href="#m8fc98aee36" x="91.200911" y="274.645418" style="fill: #8fb4dc; stroke: #8fb4dc"/>
     <use xlink:href="#m8fc98aee36" x="244.904735" y="368.38123" style="fill: #8fb4dc; stroke: #8fb4dc"/>
     <use xlink:href="#m8fc98aee36" x="257.901138" y="202.202524" style="fill: #8fb4dc; stroke: #8fb4dc"/>
    </g>
   </g>
   <g id="line2d_52">
    <path d="M 258.674065 202.202524 
L 191.633775 199.974974 
L 143.66026 167.873579 
L 98.190648 269.567077 
L 244.891349 368.340032 
L 258.674065 202.202524 
" clip-path="url(#p23482b3384)" style="fill: none; stroke: #8fb4dc; stroke-opacity: 0.5; stroke-width: 0.5; stroke-linecap: square"/>
    <g clip-path="url(#p23482b3384)">
     <use xlink:href="#m8fc98aee36" x="258.674065" y="202.202524" style="fill: #8fb4dc; stroke: #8fb4dc"/>
     <use xlink:href="#m8fc98aee36" x="191.633775" y="199.974974" style="fill: #8fb4dc; stroke: #8fb4dc"/>
     <use xlink:href="#m8fc98aee36" x="143.66026" y="167.873579" style="fill: #8fb4dc; stroke: #8fb4dc"/>
     <use xlink:href="#m8fc98aee36" x="98.190648" y="269.567077" style="fill: #8fb4dc; stroke: #8fb4dc"/>
     <use xlink:href="#m8fc98aee36" x="244.891349" y="368.340032" style="fill: #8fb4dc; stroke: #8fb4dc"/>
     <use xlink:href="#m8fc98aee36" x="258.674065" y="202.202524" style="fill: #8fb4dc; stroke: #8fb4dc"/>
    </g>
   </g>
   <g id="line2d_53">
    <path d="M 259.00731 202.202524 
L 192.038953 198.727963 
L 53.279011 102.207758 
L 51.305097 303.631424 
L 238.183981 347.696879 
L 259.00731 202.202524 
" clip-path="url(#p23482b3384)" style="fill: none; stroke: #8fb4dc; stroke-opacity: 0.5; stroke-width: 0.5; stroke-linecap: square"/>
    <g clip-path="url(#p23482b3384)">
     <use xlink:href="#m8fc98aee36" x="259.00731" y="202.202524" style="fill: #8fb4dc; stroke: #8fb4dc"/>
     <use xlink:href="#m8fc98aee36" x="192.038953" y="198.727963" style="fill: #8fb4dc; stroke: #8fb4dc"/>
     <use xlink:href="#m8fc98aee36" x="53.279011" y="102.207758" style="fill: #8fb4dc; stroke: #8fb4dc"/>
     <use xlink:href="#m8fc98aee36" x="51.305097" y="303.631424" style="fill: #8fb4dc; stroke: #8fb4dc"/>
     <use xlink:href="#m8fc98aee36" x="238.183981" y="347.696879" style="fill: #8fb4dc; stroke: #8fb4dc"/>
     <use xlink:href="#m8fc98aee36" x="259.00731" y="202.202524" style="fill: #8fb4dc; stroke: #8fb4dc"/>
    </g>
   </g>
   <g id="line2d_54">
    <path d="M 263.719838 202.202524 
L 190.99488 201.941292 
L 157.747398 178.108484 
L 76.202297 285.542549 
L 244.490948 367.107725 
L 263.719838 202.202524 
" clip-path="url(#p23482b3384)" style="fill: none; stroke: #8fb4dc; stroke-opacity: 0.5; stroke-width: 0.5; stroke-linecap: square"/>
    <g clip-path="url(#p23482b3384)">
     <use xlink:href="#m8fc98aee36" x="263.719838" y="202.202524" style="fill: #8fb4dc; stroke: #8fb4dc"/>
     <use xlink:href="#m8fc98aee36" x="190.99488" y="201.941292" style="fill: #8fb4dc; stroke: #8fb4dc"/>
     <use xlink:href="#m8fc98aee36" x="157.747398" y="178.108484" style="fill: #8fb4dc; stroke: #8fb4dc"/>
     <use xlink:href="#m8fc98aee36" x="76.202297" y="285.542549" style="fill: #8fb4dc; stroke: #8fb4dc"/>
     <use xlink:href="#m8fc98aee36" x="244.490948" y="367.107725" style="fill: #8fb4dc; stroke: #8fb4dc"/>
     <use xlink:href="#m8fc98aee36" x="263.719838" y="202.202524" style="fill: #8fb4dc; stroke: #8fb4dc"/>
    </g>
   </g>
   <g id="line2d_55">
    <path d="M 266.322503 202.202524 
L 192.377522 197.685956 
L 70.255906 114.542194 
L 90.357672 275.258067 
L 244.828114 368.145418 
L 266.322503 202.202524 
" clip-path="url(#p23482b3384)" style="fill: none; stroke: #8fb4dc; stroke-opacity: 0.5; stroke-width: 0.5; stroke-linecap: square"/>
    <g clip-path="url(#p23482b3384)">
     <use xlink:href="#m8fc98aee36" x="266.322503" y="202.202524" style="fill: #8fb4dc; stroke: #8fb4dc"/>
     <use xlink:href="#m8fc98aee36" x="192.377522" y="197.685956" style="fill: #8fb4dc; stroke: #8fb4dc"/>
     <use xlink:href="#m8fc98aee36" x="70.255906" y="114.542194" style="fill: #8fb4dc; stroke: #8fb4dc"/>
     <use xlink:href="#m8fc98aee36" x="90.357672" y="275.258067" style="fill: #8fb4dc; stroke: #8fb4dc"/>
     <use xlink:href="#m8fc98aee36" x="244.828114" y="368.145418" style="fill: #8fb4dc; stroke: #8fb4dc"/>
     <use xlink:href="#m8fc98aee36" x="266.322503" y="202.202524" style="fill: #8fb4dc; stroke: #8fb4dc"/>
    </g>
   </g>
   <g id="line2d_56">
    <path d="M 268.371071 202.202524 
L 191.227048 201.226752 
L 125.360199 154.577806 
L 125.523932 249.708284 
L 206.696351 250.787916 
L 268.371071 202.202524 
" clip-path="url(#p23482b3384)" style="fill: none; stroke: #8fb4dc; stroke-opacity: 0.5; stroke-width: 0.5; stroke-linecap: square"/>
    <g clip-path="url(#p23482b3384)">
     <use xlink:href="#m8fc98aee36" x="268.371071" y="202.202524" style="fill: #8fb4dc; stroke: #8fb4dc"/>
     <use xlink:href="#m8fc98aee36" x="191.227048" y="201.226752" style="fill: #8fb4dc; stroke: #8fb4dc"/>
     <use xlink:href="#m8fc98aee36" x="125.360199" y="154.577806" style="fill: #8fb4dc; stroke: #8fb4dc"/>
     <use xlink:href="#m8fc98aee36" x="125.523932" y="249.708284" style="fill: #8fb4dc; stroke: #8fb4dc"/>
     <use xlink:href="#m8fc98aee36" x="206.696351" y="250.787916" style="fill: #8fb4dc; stroke: #8fb4dc"/>
     <use xlink:href="#m8fc98aee36" x="268.371071" y="202.202524" style="fill: #8fb4dc; stroke: #8fb4dc"/>
    </g>
   </g>
   <g id="line2d_57">
    <path d="M 269.126572 202.202524 
L 191.273687 201.083212 
L 105.892249 140.433513 
L 75.259066 286.227847 
L 231.241586 326.330382 
L 269.126572 202.202524 
" clip-path="url(#p23482b3384)" style="fill: none; stroke: #8fb4dc; stroke-opacity: 0.5; stroke-width: 0.5; stroke-linecap: square"/>
    <g clip-path="url(#p23482b3384)">
     <use xlink:href="#m8fc98aee36" x="269.126572" y="202.202524" style="fill: #8fb4dc; stroke: #8fb4dc"/>
     <use xlink:href="#m8fc98aee36" x="191.273687" y="201.083212" style="fill: #8fb4dc; stroke: #8fb4dc"/>
     <use xlink:href="#m8fc98aee36" x="105.892249" y="140.433513" style="fill: #8fb4dc; stroke: #8fb4dc"/>
     <use xlink:href="#m8fc98aee36" x="75.259066" y="286.227847" style="fill: #8fb4dc; stroke: #8fb4dc"/>
     <use xlink:href="#m8fc98aee36" x="231.241586" y="326.330382" style="fill: #8fb4dc; stroke: #8fb4dc"/>
     <use xlink:href="#m8fc98aee36" x="269.126572" y="202.202524" style="fill: #8fb4dc; stroke: #8fb4dc"/>
    </g>
   </g>
   <g id="line2d_58">
    <path d="M 270.84311 202.202524 
L 191.820644 199.399849 
L 120.377547 150.957698 
L 144.828585 235.682633 
L 230.516176 324.097801 
L 270.84311 202.202524 
" clip-path="url(#p23482b3384)" style="fill: none; stroke: #8fb4dc; stroke-opacity: 0.5; stroke-width: 0.5; stroke-linecap: square"/>
    <g clip-path="url(#p23482b3384)">
     <use xlink:href="#m8fc98aee36" x="270.84311" y="202.202524" style="fill: #8fb4dc; stroke: #8fb4dc"/>
     <use xlink:href="#m8fc98aee36" x="191.820644" y="199.399849" style="fill: #8fb4dc; stroke: #8fb4dc"/>
     <use xlink:href="#m8fc98aee36" x="120.377547" y="150.957698" style="fill: #8fb4dc; stroke: #8fb4dc"/>
     <use xlink:href="#m8fc98aee36" x="144.828585" y="235.682633" style="fill: #8fb4dc; stroke: #8fb4dc"/>
     <use xlink:href="#m8fc98aee36" x="230.516176" y="324.097801" style="fill: #8fb4dc; stroke: #8fb4dc"/>
     <use xlink:href="#m8fc98aee36" x="270.84311" y="202.202524" style="fill: #8fb4dc; stroke: #8fb4dc"/>
    </g>
   </g>
   <g id="line2d_59">
    <path d="M 272.102158 202.202524 
L 191.508613 200.360182 
L 109.573232 143.107903 
L 140.103361 239.115708 
L 201.224323 233.946747 
L 272.102158 202.202524 
" clip-path="url(#p23482b3384)" style="fill: none; stroke: #8fb4dc; stroke-opacity: 0.5; stroke-width: 0.5; stroke-linecap: square"/>
    <g clip-path="url(#p23482b3384)">
     <use xlink:href="#m8fc98aee36" x="272.102158" y="202.202524" style="fill: #8fb4dc; stroke: #8fb4dc"/>
     <use xlink:href="#m8fc98aee36" x="191.508613" y="200.360182" style="fill: #8fb4dc; stroke: #8fb4dc"/>
     <use xlink:href="#m8fc98aee36" x="109.573232" y="143.107903" style="fill: #8fb4dc; stroke: #8fb4dc"/>
     <use xlink:href="#m8fc98aee36" x="140.103361" y="239.115708" style="fill: #8fb4dc; stroke: #8fb4dc"/>
     <use xlink:href="#m8fc98aee36" x="201.224323" y="233.946747" style="fill: #8fb4dc; stroke: #8fb4dc"/>
     <use xlink:href="#m8fc98aee36" x="272.102158" y="202.202524" style="fill: #8fb4dc; stroke: #8fb4dc"/>
    </g>
   </g>
   <g id="line2d_60">
    <path d="M 272.454668 202.202524 
L 191.629064 199.989474 
L 107.011481 141.246683 
L 50.611779 304.135148 
L 221.676627 296.892467 
L 272.454668 202.202524 
" clip-path="url(#p23482b3384)" style="fill: none; stroke: #8fb4dc; stroke-opacity: 0.5; stroke-width: 0.5; stroke-linecap: square"/>
    <g clip-path="url(#p23482b3384)">
     <use xlink:href="#m8fc98aee36" x="272.454668" y="202.202524" style="fill: #8fb4dc; stroke: #8fb4dc"/>
     <use xlink:href="#m8fc98aee36" x="191.629064" y="199.989474" style="fill: #8fb4dc; stroke: #8fb4dc"/>
     <use xlink:href="#m8fc98aee36" x="107.011481" y="141.246683" style="fill: #8fb4dc; stroke: #8fb4dc"/>
     <use xlink:href="#m8fc98aee36" x="50.611779" y="304.135148" style="fill: #8fb4dc; stroke: #8fb4dc"/>
     <use xlink:href="#m8fc98aee36" x="221.676627" y="296.892467" style="fill: #8fb4dc; stroke: #8fb4dc"/>
     <use xlink:href="#m8fc98aee36" x="272.454668" y="202.202524" style="fill: #8fb4dc; stroke: #8fb4dc"/>
    </g>
   </g>
   <g id="line2d_61">
    <path d="M 275.008562 202.202524 
L 191.475541 200.461968 
L 99.227544 135.591321 
L 83.374565 280.331592 
L 235.890678 340.638816 
L 275.008562 202.202524 
" clip-path="url(#p23482b3384)" style="fill: none; stroke: #8fb4dc; stroke-opacity: 0.5; stroke-width: 0.5; stroke-linecap: square"/>
    <g clip-path="url(#p23482b3384)">
     <use xlink:href="#m8fc98aee36" x="275.008562" y="202.202524" style="fill: #8fb4dc; stroke: #8fb4dc"/>
     <use xlink:href="#m8fc98aee36" x="191.475541" y="200.461968" style="fill: #8fb4dc; stroke: #8fb4dc"/>
     <use xlink:href="#m8fc98aee36" x="99.227544" y="135.591321" style="fill: #8fb4dc; stroke: #8fb4dc"/>
     <use xlink:href="#m8fc98aee36" x="83.374565" y="280.331592" style="fill: #8fb4dc; stroke: #8fb4dc"/>
     <use xlink:href="#m8fc98aee36" x="235.890678" y="340.638816" style="fill: #8fb4dc; stroke: #8fb4dc"/>
     <use xlink:href="#m8fc98aee36" x="275.008562" y="202.202524" style="fill: #8fb4dc; stroke: #8fb4dc"/>
    </g>
   </g>
   <g id="line2d_62">
    <path d="M 275.892316 202.202524 
L 191.032193 201.826453 
L 134.444907 161.178233 
L 51.410367 303.554941 
L 243.906516 365.30903 
L 275.892316 202.202524 
" clip-path="url(#p23482b3384)" style="fill: none; stroke: #8fb4dc; stroke-opacity: 0.5; stroke-width: 0.5; stroke-linecap: square"/>
    <g clip-path="url(#p23482b3384)">
     <use xlink:href="#m8fc98aee36" x="275.892316" y="202.202524" style="fill: #8fb4dc; stroke: #8fb4dc"/>
     <use xlink:href="#m8fc98aee36" x="191.032193" y="201.826453" style="fill: #8fb4dc; stroke: #8fb4dc"/>
     <use xlink:href="#m8fc98aee36" x="134.444907" y="161.178233" style="fill: #8fb4dc; stroke: #8fb4dc"/>
     <use xlink:href="#m8fc98aee36" x="51.410367" y="303.554941" style="fill: #8fb4dc; stroke: #8fb4dc"/>
     <use xlink:href="#m8fc98aee36" x="243.906516" y="365.30903" style="fill: #8fb4dc; stroke: #8fb4dc"/>
     <use xlink:href="#m8fc98aee36" x="275.892316" y="202.202524" style="fill: #8fb4dc; stroke: #8fb4dc"/>
    </g>
   </g>
   <g id="line2d_63">
    <path d="M 287.557665 202.202524 
L 191.606536 200.058806 
L 51.544513 100.947572 
L 54.941362 300.989522 
L 226.628685 312.133333 
L 287.557665 202.202524 
" clip-path="url(#p23482b3384)" style="fill: none; stroke: #8fb4dc; stroke-opacity: 0.5; stroke-width: 0.5; stroke-linecap: square"/>
    <g clip-path="url(#p23482b3384)">
     <use xlink:href="#m8fc98aee36" x="287.557665" y="202.202524" style="fill: #8fb4dc; stroke: #8fb4dc"/>
     <use xlink:href="#m8fc98aee36" x="191.606536" y="200.058806" style="fill: #8fb4dc; stroke: #8fb4dc"/>
     <use xlink:href="#m8fc98aee36" x="51.544513" y="100.947572" style="fill: #8fb4dc; stroke: #8fb4dc"/>
     <use xlink:href="#m8fc98aee36" x="54.941362" y="300.989522" style="fill: #8fb4dc; stroke: #8fb4dc"/>
     <use xlink:href="#m8fc98aee36" x="226.628685" y="312.133333" style="fill: #8fb4dc; stroke: #8fb4dc"/>
     <use xlink:href="#m8fc98aee36" x="287.557665" y="202.202524" style="fill: #8fb4dc; stroke: #8fb4dc"/>
    </g>
   </g>
   <g id="line2d_64">
    <path d="M 292.946972 202.202524 
L 191.634214 199.973622 
L 75.386141 118.269528 
L 90.318432 275.286576 
L 235.332411 338.920648 
L 292.946972 202.202524 
" clip-path="url(#p23482b3384)" style="fill: none; stroke: #8fb4dc; stroke-opacity: 0.5; stroke-width: 0.5; stroke-linecap: square"/>
    <g clip-path="url(#p23482b3384)">
     <use xlink:href="#m8fc98aee36" x="292.946972" y="202.202524" style="fill: #8fb4dc; stroke: #8fb4dc"/>
     <use xlink:href="#m8fc98aee36" x="191.634214" y="199.973622" style="fill: #8fb4dc; stroke: #8fb4dc"/>
     <use xlink:href="#m8fc98aee36" x="75.386141" y="118.269528" style="fill: #8fb4dc; stroke: #8fb4dc"/>
     <use xlink:href="#m8fc98aee36" x="90.318432" y="275.286576" style="fill: #8fb4dc; stroke: #8fb4dc"/>
     <use xlink:href="#m8fc98aee36" x="235.332411" y="338.920648" style="fill: #8fb4dc; stroke: #8fb4dc"/>
     <use xlink:href="#m8fc98aee36" x="292.946972" y="202.202524" style="fill: #8fb4dc; stroke: #8fb4dc"/>
    </g>
   </g>
   <g id="patch_3">
    <path d="M 374.62 202.202524 
C 374.62 178.077948 369.867985 154.187953 360.635909 131.899751 
C 351.403833 109.611549 337.871238 89.358589 320.812587 72.299938 
C 303.753935 55.241286 283.500976 41.708691 261.212773 32.476616 
C 238.924571 23.24454 215.034576 18.492524 190.91 18.492524 
C 166.785424 18.492524 142.895429 23.24454 120.607227 32.476616 
C 98.319024 41.708691 78.066065 55.241286 61.007413 72.299938 
C 43.948762 89.358589 30.416167 109.611549 21.184091 131.899751 
C 11.952015 154.187953 7.2 178.077948 7.2 202.202524 
C 7.2 226.327101 11.952015 250.217096 21.184091 272.505298 
C 30.416167 294.7935 43.948762 315.04646 61.007413 332.105111 
C 78.066065 349.163763 98.319024 362.696358 120.607227 371.928433 
C 142.895429 381.160509 166.785424 385.912524 190.91 385.912524 
C 215.034576 385.912524 238.924571 381.160509 261.212773 371.928433 
C 283.500976 362.696358 303.753935 349.163763 320.812587 332.105111 
C 337.871238 315.04646 351.403833 294.7935 360.635909 272.505298 
C 369.867985 250.217096 374.62 226.327101 374.62 202.202524 
" style="fill: none; stroke: #000000; stroke-width: 0.8; stroke-linejoin: miter; stroke-linecap: square"/>
   </g>
  </g>
 </g>
 <defs>
  <clipPath id="p23482b3384">
   <path d="M 374.62 202.202524 
C 374.62 178.077948 369.867985 154.187953 360.635909 131.899751 
C 351.403833 109.611549 337.871238 89.358589 320.812587 72.299938 
C 303.753935 55.241286 283.500976 41.708691 261.212773 32.476616 
C 238.924571 23.24454 215.034576 18.492524 190.91 18.492524 
C 166.785424 18.492524 142.895429 23.24454 120.607227 32.476616 
C 98.319024 41.708691 78.066065 55.241286 61.007413 72.299938 
C 43.948762 89.358589 30.416167 109.611549 21.184091 131.899751 
C 11.952015 154.187953 7.2 178.077948 7.2 202.202524 
C 7.2 226.327101 11.952015 250.217096 21.184091 272.505298 
C 30.416167 294.7935 43.948762 315.04646 61.007413 332.105111 
C 78.066065 349.163763 98.319024 362.696358 120.607227 371.928433 
C 142.895429 381.160509 166.785424 385.912524 190.91 385.912524 
C 215.034576 385.912524 238.924571 381.160509 261.212773 371.928433 
C 283.500976 362.696358 303.753935 349.163763 320.812587 332.105111 
C 337.871238 315.04646 351.403833 294.7935 360.635909 272.505298 
C 369.867985 250.217096 374.62 226.327101 374.62 202.202524 
M 190.91 202.202524 
C 190.91 202.202524 190.91 202.202524 190.91 202.202524 
C 190.91 202.202524 190.91 202.202524 190.91 202.202524 
C 190.91 202.202524 190.91 202.202524 190.91 202.202524 
C 190.91 202.202524 190.91 202.202524 190.91 202.202524 
C 190.91 202.202524 190.91 202.202524 190.91 202.202524 
C 190.91 202.202524 190.91 202.202524 190.91 202.202524 
C 190.91 202.202524 190.91 202.202524 190.91 202.202524 
C 190.91 202.202524 190.91 202.202524 190.91 202.202524 
C 190.91 202.202524 190.91 202.202524 190.91 202.202524 
C 190.91 202.202524 190.91 202.202524 190.91 202.202524 
C 190.91 202.202524 190.91 202.202524 190.91 202.202524 
C 190.91 202.202524 190.91 202.202524 190.91 202.202524 
C 190.91 202.202524 190.91 202.202524 190.91 202.202524 
C 190.91 202.202524 190.91 202.202524 190.91 202.202524 
C 190.91 202.202524 190.91 202.202524 190.91 202.202524 
C 190.91 202.202524 190.91 202.202524 190.91 202.202524 
z
"/>
  </clipPath>
 </defs>
</svg>
