<?xml version="1.0" encoding="utf-8" standalone="no"?>
<!DOCTYPE svg PUBLIC "-//W3C//DTD SVG 1.1//EN"
  "http://www.w3.org/Graphics/SVG/1.1/DTD/svg11.dtd">
<svg xmlns:xlink="http://www.w3.org/1999/xlink" width="864pt" height="576pt" viewBox="0 0 864 576" xmlns="http://www.w3.org/2000/svg" version="1.1">
 <metadata>
  <rdf:RDF xmlns:dc="http://purl.org/dc/elements/1.1/" xmlns:cc="http://creativecommons.org/ns#" xmlns:rdf="http://www.w3.org/1999/02/22-rdf-syntax-ns#">
   <cc:Work>
    <dc:type rdf:resource="http://purl.org/dc/dcmitype/StillImage"/>
    <dc:date>2026-05-11T17:48:48.429149</dc:date>
    <dc:format>image/svg+xml</dc:format>
    <dc:creator>
     <cc:Agent>
      <dc:title>Matplotlib v3.9.2, https://matplotlib.org/</dc:title>
     </cc:Agent>
    </dc:creator>
   </cc:Work>
  </rdf:RDF>
 </metadata>
 <defs>
  <style type="text/css">*{stroke-linejoin: round; stroke-linecap: butt}</style>
 </defs>
 <g id="figure_1">
  <g id="patch_1">
   <path d="M 0 576 
L 864 576 
L 864 0 
L 0 0 
z
" style="fill: #ffffff"/>
  </g>
  <g id="axes_1">
   <g id="patch_2">
    <path d="M 108 512.64 
L 108.000007 512.64 
L 108.000007 69.12 
L 108 69.12 
z
" style="fill: #ffffff"/>
   </g>
   <g id="PolyCollection_1">
    <defs>
     <path id="m750e1aad18" d="M 108.004649 -476.355666 
L 108.004649 -476.355666 
L 108.005313 -330.236613 
L 108.005977 -190.194388 
L 108.00664 -143.453308 
L 108.007304 -132.803386 
L 108.007968 -113.809765 
L 108.008632 -111.395652 
L 108.009295 -113.469648 
L 108.009959 -106.957948 
L 108.010623 -114.892136 
L 108.011286 -114.940586 
L 108.01195 -114.581948 
L 108.012614 -111.085304 
L 108.013278 -107.690188 
L 108.013278 -125.03629 
L 108.013278 -125.03629 
L 108.012614 -126.974395 
L 108.01195 -129.295811 
L 108.011286 -129.664431 
L 108.010623 -132.62191 
L 108.009959 -172.797844 
L 108.009295 -178.164682 
L 108.008632 -206.662365 
L 108.007968 -253.944176 
L 108.007304 -298.46437 
L 108.00664 -347.207138 
L 108.005977 -387.494531 
L 108.005313 -486.72 
L 108.004649 -476.355666 
z
" style="stroke: #ffdd8e; stroke-opacity: 0.2"/>
    </defs>
    <g clip-path="url(#p8a3fafbe89)">
     <use xlink:href="#m750e1aad18" x="0" y="576" style="fill: #ffdd8e; fill-opacity: 0.2; stroke: #ffdd8e; stroke-opacity: 0.2"/>
    </g>
   </g>
   <g id="matplotlib.axis_1">
    <g id="xtick_1">
     <g id="line2d_1">
      <defs>
       <path id="mcba6bd5bea" d="M 0 0 
L 0 8 
" style="stroke: #000000; stroke-width: 2.5"/>
      </defs>
      <g>
       <use xlink:href="#mcba6bd5bea" x="108.000003" y="512.64" style="stroke: #000000; stroke-width: 2.5"/>
      </g>
     </g>
     <g id="text_1">
      <!-- 0 -->
      <g transform="translate(101.001253 540.856562) scale(0.22 -0.22)">
       <defs>
        <path id="DejaVuSans-30" d="M 2034 4250 
Q 1547 4250 1301 3770 
Q 1056 3291 1056 2328 
Q 1056 1369 1301 889 
Q 1547 409 2034 409 
Q 2525 409 2770 889 
Q 3016 1369 3016 2328 
Q 3016 3291 2770 3770 
Q 2525 4250 2034 4250 
z
M 2034 4750 
Q 2819 4750 3233 4129 
Q 3647 3509 3647 2328 
Q 3647 1150 3233 529 
Q 2819 -91 2034 -91 
Q 1250 -91 836 529 
Q 422 1150 422 2328 
Q 422 3509 836 4129 
Q 1250 4750 2034 4750 
z
" transform="scale(0.015625)"/>
       </defs>
       <use xlink:href="#DejaVuSans-30"/>
      </g>
     </g>
    </g>
   </g>
   <g id="matplotlib.axis_2">
    <g id="ytick_1">
     <g id="line2d_2">
      <defs>
       <path id="mc0e99b3b7c" d="M 0 0 
L -8 0 
" style="stroke: #000000; stroke-width: 2.5"/>
      </defs>
      <g>
       <use xlink:href="#mc0e99b3b7c" x="108" y="505.696398" style="stroke: #000000; stroke-width: 2.5"/>
      </g>
     </g>
     <g id="text_2">
      <!-- 0.02 -->
      <g transform="translate(47.515625 514.054679) scale(0.22 -0.22)">
       <defs>
        <path id="DejaVuSans-2e" d="M 684 794 
L 1344 794 
L 1344 0 
L 684 0 
L 684 794 
z
" transform="scale(0.015625)"/>
        <path id="DejaVuSans-32" d="M 1228 531 
L 3431 531 
L 3431 0 
L 469 0 
L 469 531 
Q 828 903 1448 1529 
Q 2069 2156 2228 2338 
Q 2531 2678 2651 2914 
Q 2772 3150 2772 3378 
Q 2772 3750 2511 3984 
Q 2250 4219 1831 4219 
Q 1534 4219 1204 4116 
Q 875 4013 500 3803 
L 500 4441 
Q 881 4594 1212 4672 
Q 1544 4750 1819 4750 
Q 2544 4750 2975 4387 
Q 3406 4025 3406 3419 
Q 3406 3131 3298 2873 
Q 3191 2616 2906 2266 
Q 2828 2175 2409 1742 
Q 1991 1309 1228 531 
z
" transform="scale(0.015625)"/>
       </defs>
       <use xlink:href="#DejaVuSans-30"/>
       <use xlink:href="#DejaVuSans-2e" x="63.623047"/>
       <use xlink:href="#DejaVuSans-30" x="95.410156"/>
       <use xlink:href="#DejaVuSans-32" x="159.033203"/>
      </g>
     </g>
    </g>
    <g id="ytick_2">
     <g id="line2d_3">
      <g>
       <use xlink:href="#mc0e99b3b7c" x="108" y="445.091612" style="stroke: #000000; stroke-width: 2.5"/>
      </g>
     </g>
     <g id="text_3">
      <!-- 0.03 -->
      <g transform="translate(47.515625 453.449893) scale(0.22 -0.22)">
       <defs>
        <path id="DejaVuSans-33" d="M 2597 2516 
Q 3050 2419 3304 2112 
Q 3559 1806 3559 1356 
Q 3559 666 3084 287 
Q 2609 -91 1734 -91 
Q 1441 -91 1130 -33 
Q 819 25 488 141 
L 488 750 
Q 750 597 1062 519 
Q 1375 441 1716 441 
Q 2309 441 2620 675 
Q 2931 909 2931 1356 
Q 2931 1769 2642 2001 
Q 2353 2234 1838 2234 
L 1294 2234 
L 1294 2753 
L 1863 2753 
Q 2328 2753 2575 2939 
Q 2822 3125 2822 3475 
Q 2822 3834 2567 4026 
Q 2313 4219 1838 4219 
Q 1578 4219 1281 4162 
Q 984 4106 628 3988 
L 628 4550 
Q 988 4650 1302 4700 
Q 1616 4750 1894 4750 
Q 2613 4750 3031 4423 
Q 3450 4097 3450 3541 
Q 3450 3153 3228 2886 
Q 3006 2619 2597 2516 
z
" transform="scale(0.015625)"/>
       </defs>
       <use xlink:href="#DejaVuSans-30"/>
       <use xlink:href="#DejaVuSans-2e" x="63.623047"/>
       <use xlink:href="#DejaVuSans-30" x="95.410156"/>
       <use xlink:href="#DejaVuSans-33" x="159.033203"/>
      </g>
     </g>
    </g>
    <g id="ytick_3">
     <g id="line2d_4">
      <g>
       <use xlink:href="#mc0e99b3b7c" x="108" y="384.486827" style="stroke: #000000; stroke-width: 2.5"/>
      </g>
     </g>
     <g id="text_4">
      <!-- 0.03 -->
      <g transform="translate(47.515625 392.845108) scale(0.22 -0.22)">
       <use xlink:href="#DejaVuSans-30"/>
       <use xlink:href="#DejaVuSans-2e" x="63.623047"/>
       <use xlink:href="#DejaVuSans-30" x="95.410156"/>
       <use xlink:href="#DejaVuSans-33" x="159.033203"/>
      </g>
     </g>
    </g>
    <g id="ytick_4">
     <g id="line2d_5">
      <g>
       <use xlink:href="#mc0e99b3b7c" x="108" y="323.882041" style="stroke: #000000; stroke-width: 2.5"/>
      </g>
     </g>
     <g id="text_5">
      <!-- 0.04 -->
      <g transform="translate(47.515625 332.240322) scale(0.22 -0.22)">
       <defs>
        <path id="DejaVuSans-34" d="M 2419 4116 
L 825 1625 
L 2419 1625 
L 2419 4116 
z
M 2253 4666 
L 3047 4666 
L 3047 1625 
L 3713 1625 
L 3713 1100 
L 3047 1100 
L 3047 0 
L 2419 0 
L 2419 1100 
L 313 1100 
L 313 1709 
L 2253 4666 
z
" transform="scale(0.015625)"/>
       </defs>
       <use xlink:href="#DejaVuSans-30"/>
       <use xlink:href="#DejaVuSans-2e" x="63.623047"/>
       <use xlink:href="#DejaVuSans-30" x="95.410156"/>
       <use xlink:href="#DejaVuSans-34" x="159.033203"/>
      </g>
     </g>
    </g>
    <g id="ytick_5">
     <g id="line2d_6">
      <g>
       <use xlink:href="#mc0e99b3b7c" x="108" y="263.277255" style="stroke: #000000; stroke-width: 2.5"/>
      </g>
     </g>
     <g id="text_6">
      <!-- 0.04 -->
      <g transform="translate(47.515625 271.635536) scale(0.22 -0.22)">
       <use xlink:href="#DejaVuSans-30"/>
       <use xlink:href="#DejaVuSans-2e" x="63.623047"/>
       <use xlink:href="#DejaVuSans-30" x="95.410156"/>
       <use xlink:href="#DejaVuSans-34" x="159.033203"/>
      </g>
     </g>
    </g>
    <g id="ytick_6">
     <g id="line2d_7">
      <g>
       <use xlink:href="#mc0e99b3b7c" x="108" y="202.672469" style="stroke: #000000; stroke-width: 2.5"/>
      </g>
     </g>
     <g id="text_7">
      <!-- 0.05 -->
      <g transform="translate(47.515625 211.030751) scale(0.22 -0.22)">
       <defs>
        <path id="DejaVuSans-35" d="M 691 4666 
L 3169 4666 
L 3169 4134 
L 1269 4134 
L 1269 2991 
Q 1406 3038 1543 3061 
Q 1681 3084 1819 3084 
Q 2600 3084 3056 2656 
Q 3513 2228 3513 1497 
Q 3513 744 3044 326 
Q 2575 -91 1722 -91 
Q 1428 -91 1123 -41 
Q 819 9 494 109 
L 494 744 
Q 775 591 1075 516 
Q 1375 441 1709 441 
Q 2250 441 2565 725 
Q 2881 1009 2881 1497 
Q 2881 1984 2565 2268 
Q 2250 2553 1709 2553 
Q 1456 2553 1204 2497 
Q 953 2441 691 2322 
L 691 4666 
z
" transform="scale(0.015625)"/>
       </defs>
       <use xlink:href="#DejaVuSans-30"/>
       <use xlink:href="#DejaVuSans-2e" x="63.623047"/>
       <use xlink:href="#DejaVuSans-30" x="95.410156"/>
       <use xlink:href="#DejaVuSans-35" x="159.033203"/>
      </g>
     </g>
    </g>
    <g id="ytick_7">
     <g id="line2d_8">
      <g>
       <use xlink:href="#mc0e99b3b7c" x="108" y="142.067684" style="stroke: #000000; stroke-width: 2.5"/>
      </g>
     </g>
     <g id="text_8">
      <!-- 0.05 -->
      <g transform="translate(47.515625 150.425965) scale(0.22 -0.22)">
       <use xlink:href="#DejaVuSans-30"/>
       <use xlink:href="#DejaVuSans-2e" x="63.623047"/>
       <use xlink:href="#DejaVuSans-30" x="95.410156"/>
       <use xlink:href="#DejaVuSans-35" x="159.033203"/>
      </g>
     </g>
    </g>
    <g id="ytick_8">
     <g id="line2d_9">
      <g>
       <use xlink:href="#mc0e99b3b7c" x="108" y="81.462898" style="stroke: #000000; stroke-width: 2.5"/>
      </g>
     </g>
     <g id="text_9">
      <!-- 0.06 -->
      <g transform="translate(47.515625 89.821179) scale(0.22 -0.22)">
       <defs>
        <path id="DejaVuSans-36" d="M 2113 2584 
Q 1688 2584 1439 2293 
Q 1191 2003 1191 1497 
Q 1191 994 1439 701 
Q 1688 409 2113 409 
Q 2538 409 2786 701 
Q 3034 994 3034 1497 
Q 3034 2003 2786 2293 
Q 2538 2584 2113 2584 
z
M 3366 4563 
L 3366 3988 
Q 3128 4100 2886 4159 
Q 2644 4219 2406 4219 
Q 1781 4219 1451 3797 
Q 1122 3375 1075 2522 
Q 1259 2794 1537 2939 
Q 1816 3084 2150 3084 
Q 2853 3084 3261 2657 
Q 3669 2231 3669 1497 
Q 3669 778 3244 343 
Q 2819 -91 2113 -91 
Q 1303 -91 875 529 
Q 447 1150 447 2328 
Q 447 3434 972 4092 
Q 1497 4750 2381 4750 
Q 2619 4750 2861 4703 
Q 3103 4656 3366 4563 
z
" transform="scale(0.015625)"/>
       </defs>
       <use xlink:href="#DejaVuSans-30"/>
       <use xlink:href="#DejaVuSans-2e" x="63.623047"/>
       <use xlink:href="#DejaVuSans-30" x="95.410156"/>
       <use xlink:href="#DejaVuSans-36" x="159.033203"/>
      </g>
     </g>
    </g>
   </g>
   <g id="PolyCollection_2">
    <defs>
     <path id="m1ca82e09c1" d="M 108.004649 -346.661425 
L 108.004649 -346.661425 
L 108.005313 -266.963617 
L 108.005977 -208.002418 
L 108.00664 -199.317779 
L 108.007304 -171.668703 
L 108.007968 -139.043804 
L 108.008632 -133.118139 
L 108.009295 -135.990635 
L 108.009959 -130.652198 
L 108.010623 -125.347082 
L 108.011286 -107.835098 
L 108.01195 -105.012113 
L 108.012614 -97.971088 
L 108.013278 -97.292138 
L 108.013278 -138.34337 
L 108.013278 -138.34337 
L 108.012614 -140.57345 
L 108.01195 -146.38064 
L 108.011286 -155.193773 
L 108.010623 -174.529499 
L 108.009959 -194.678393 
L 108.009295 -197.824626 
L 108.008632 -233.908544 
L 108.007968 -238.164483 
L 108.007304 -261.780826 
L 108.00664 -297.645565 
L 108.005977 -319.505738 
L 108.005313 -358.966712 
L 108.004649 -346.661425 
z
" style="stroke: #70cdbe; stroke-opacity: 0.2"/>
    </defs>
    <g clip-path="url(#p8a3fafbe89)">
     <use xlink:href="#m1ca82e09c1" x="0" y="576" style="fill: #70cdbe; fill-opacity: 0.2; stroke: #70cdbe; stroke-opacity: 0.2"/>
    </g>
   </g>
   <g id="patch_3">
    <path d="M 108 512.64 
L 108 69.12 
" style="fill: none; stroke: #000000; stroke-width: 2.5; stroke-linejoin: miter; stroke-linecap: square"/>
   </g>
   <g id="patch_4">
    <path d="M 108 512.64 
L 108.000007 512.64 
" style="fill: none; stroke: #000000; stroke-width: 2.5; stroke-linejoin: miter; stroke-linecap: square"/>
   </g>
   <g id="PolyCollection_3">
    <defs>
     <path id="ma4b42fc7c8" d="M 108.004649 -349.085616 
L 108.004649 -349.085616 
L 108.004716 -190.546818 
L 108.004782 -171.62715 
L 108.004848 -170.8907 
L 108.004915 -170.654012 
L 108.004981 -169.035171 
L 108.005048 -168.980696 
L 108.005114 -163.892712 
L 108.00518 -163.61207 
L 108.005247 -163.277078 
L 108.005313 -162.133447 
L 108.005379 -161.660559 
L 108.005446 -160.950813 
L 108.005512 -160.705189 
L 108.005578 -159.349335 
L 108.005645 -159.349335 
L 108.005711 -159.349335 
L 108.005778 -159.22498 
L 108.005844 -158.897706 
L 108.00591 -158.567081 
L 108.005977 -158.319733 
L 108.006043 -152.771671 
L 108.006109 -152.654896 
L 108.006176 -152.483692 
L 108.006242 -152.036222 
L 108.006309 -151.858239 
L 108.006375 -151.806293 
L 108.006441 -151.835476 
L 108.006508 -151.835476 
L 108.006574 -151.835476 
L 108.00664 -151.42739 
L 108.006707 -151.42739 
L 108.006773 -151.42739 
L 108.00684 -151.322105 
L 108.006906 -151.322105 
L 108.006972 -151.265219 
L 108.007039 -151.130472 
L 108.007105 -151.130472 
L 108.007171 -150.450362 
L 108.007238 -150.230136 
L 108.007304 -144.816902 
L 108.00737 -144.816902 
L 108.007437 -144.816902 
L 108.007503 -142.50375 
L 108.00757 -132.906717 
L 108.007636 -132.906717 
L 108.007702 -132.192058 
L 108.007769 -132.192058 
L 108.007835 -117.616635 
L 108.007901 -117.616635 
L 108.007968 -117.616635 
L 108.008034 -117.2501 
L 108.008101 -116.915229 
L 108.008167 -116.657572 
L 108.008233 -116.45677 
L 108.0083 -115.471478 
L 108.008366 -110.415826 
L 108.008432 -110.415826 
L 108.008499 -109.675989 
L 108.008565 -106.674834 
L 108.008632 -106.674834 
L 108.008698 -106.674834 
L 108.008764 -106.674834 
L 108.008831 -97.61554 
L 108.008897 -97.61554 
L 108.008963 -97.61554 
L 108.00903 -97.379037 
L 108.009096 -97.379037 
L 108.009163 -95.798789 
L 108.009229 -93.576903 
L 108.009295 -93.576903 
L 108.009362 -93.597207 
L 108.009428 -93.597207 
L 108.009494 -93.517721 
L 108.009561 -93.517721 
L 108.009627 -93.293761 
L 108.009693 -93.140608 
L 108.00976 -93.140608 
L 108.009826 -93.140608 
L 108.009893 -93.140608 
L 108.009959 -93.140608 
L 108.010025 -92.945072 
L 108.010092 -92.945072 
L 108.010158 -92.945072 
L 108.010224 -92.945072 
L 108.010291 -92.945072 
L 108.010357 -92.945072 
L 108.010424 -92.945072 
L 108.01049 -92.945072 
L 108.010556 -92.832134 
L 108.010623 -92.513505 
L 108.010689 -92.102684 
L 108.010755 -92.102684 
L 108.010822 -92.102684 
L 108.010888 -93.131852 
L 108.010955 -93.498782 
L 108.011021 -93.498782 
L 108.011087 -93.498782 
L 108.011154 -93.498782 
L 108.01122 -93.502422 
L 108.011286 -91.151648 
L 108.011353 -91.151648 
L 108.011419 -85.611037 
L 108.011485 -85.611037 
L 108.011552 -85.260991 
L 108.011618 -85.260991 
L 108.011685 -85.260991 
L 108.011751 -85.260991 
L 108.011817 -85.260991 
L 108.011884 -85.260991 
L 108.01195 -85.260991 
L 108.012016 -85.260991 
L 108.012083 -85.260991 
L 108.012149 -85.260991 
L 108.012216 -85.260991 
L 108.012282 -84.459711 
L 108.012348 -84.459711 
L 108.012415 -84.383426 
L 108.012481 -84.383426 
L 108.012547 -83.822445 
L 108.012614 -83.822445 
L 108.01268 -83.52 
L 108.012747 -83.52 
L 108.012813 -83.784938 
L 108.012879 -83.784938 
L 108.012946 -83.784938 
L 108.013012 -83.784938 
L 108.013078 -83.784938 
L 108.013145 -83.784938 
L 108.013211 -83.784938 
L 108.013278 -83.784938 
L 108.013278 -124.457207 
L 108.013278 -124.457207 
L 108.013211 -124.457207 
L 108.013145 -124.457207 
L 108.013078 -124.457207 
L 108.013012 -124.457207 
L 108.012946 -124.457207 
L 108.012879 -124.457207 
L 108.012813 -124.457207 
L 108.012747 -125.449402 
L 108.01268 -125.449402 
L 108.012614 -125.389376 
L 108.012547 -125.389376 
L 108.012481 -126.525329 
L 108.012415 -126.525329 
L 108.012348 -126.691464 
L 108.012282 -126.691464 
L 108.012216 -126.617441 
L 108.012149 -126.617441 
L 108.012083 -126.617441 
L 108.012016 -126.617441 
L 108.01195 -126.617441 
L 108.011884 -126.617441 
L 108.011817 -126.617441 
L 108.011751 -126.617441 
L 108.011685 -126.617441 
L 108.011618 -126.617441 
L 108.011552 -126.617441 
L 108.011485 -130.873359 
L 108.011419 -130.873359 
L 108.011353 -133.817418 
L 108.011286 -133.817418 
L 108.01122 -136.799865 
L 108.011154 -137.045924 
L 108.011087 -137.045924 
L 108.011021 -137.045924 
L 108.010955 -137.045924 
L 108.010888 -140.564303 
L 108.010822 -145.714597 
L 108.010755 -145.714597 
L 108.010689 -145.714597 
L 108.010623 -146.515872 
L 108.010556 -146.439662 
L 108.01049 -147.053981 
L 108.010424 -147.053981 
L 108.010357 -147.053981 
L 108.010291 -147.053981 
L 108.010224 -147.053981 
L 108.010158 -147.053981 
L 108.010092 -147.053981 
L 108.010025 -147.053981 
L 108.009959 -147.585702 
L 108.009893 -147.585702 
L 108.009826 -147.585702 
L 108.00976 -147.585702 
L 108.009693 -147.585702 
L 108.009627 -148.159806 
L 108.009561 -148.178266 
L 108.009494 -148.178266 
L 108.009428 -148.583618 
L 108.009362 -148.583618 
L 108.009295 -148.846341 
L 108.009229 -148.846341 
L 108.009163 -148.563809 
L 108.009096 -150.377428 
L 108.00903 -150.377428 
L 108.008963 -150.383344 
L 108.008897 -150.383344 
L 108.008831 -150.383344 
L 108.008764 -155.869199 
L 108.008698 -155.869199 
L 108.008632 -155.869199 
L 108.008565 -155.869199 
L 108.008499 -155.777074 
L 108.008432 -155.522075 
L 108.008366 -155.522075 
L 108.0083 -160.648027 
L 108.008233 -161.602088 
L 108.008167 -161.886124 
L 108.008101 -162.355725 
L 108.008034 -162.748111 
L 108.007968 -163.108834 
L 108.007901 -163.108834 
L 108.007835 -163.108834 
L 108.007769 -163.320979 
L 108.007702 -163.320979 
L 108.007636 -166.727445 
L 108.00757 -166.727445 
L 108.007503 -165.615082 
L 108.007437 -167.423056 
L 108.00737 -167.423056 
L 108.007304 -167.423056 
L 108.007238 -168.312719 
L 108.007171 -169.304588 
L 108.007105 -169.594155 
L 108.007039 -169.594155 
L 108.006972 -169.701828 
L 108.006906 -169.88736 
L 108.00684 -169.88736 
L 108.006773 -170.509333 
L 108.006707 -170.509333 
L 108.00664 -170.509333 
L 108.006574 -170.343666 
L 108.006508 -170.343666 
L 108.006441 -170.343666 
L 108.006375 -170.615269 
L 108.006309 -170.805741 
L 108.006242 -170.870177 
L 108.006176 -171.634804 
L 108.006109 -171.706018 
L 108.006043 -172.074081 
L 108.005977 -171.374403 
L 108.00591 -171.369474 
L 108.005844 -172.008526 
L 108.005778 -171.923671 
L 108.005711 -177.374955 
L 108.005645 -177.374955 
L 108.005578 -177.374955 
L 108.005512 -177.716036 
L 108.005446 -177.712831 
L 108.005379 -178.4576 
L 108.005313 -179.681646 
L 108.005247 -181.204625 
L 108.00518 -181.596891 
L 108.005114 -186.891889 
L 108.005048 -192.470348 
L 108.004981 -192.658291 
L 108.004915 -197.099929 
L 108.004848 -216.256772 
L 108.004782 -217.702095 
L 108.004716 -243.629968 
L 108.004649 -349.085616 
z
" style="stroke: #f9b3ad; stroke-opacity: 0.2"/>
    </defs>
    <g clip-path="url(#p8a3fafbe89)">
     <use xlink:href="#ma4b42fc7c8" x="0" y="576" style="fill: #f9b3ad; fill-opacity: 0.2; stroke: #f9b3ad; stroke-opacity: 0.2"/>
    </g>
   </g>
   <g id="PolyCollection_4">
    <defs>
     <path id="m23dd964d79" d="M 108.004649 -476.355666 
L 108.004649 -476.355666 
L 108.004716 -196.585905 
L 108.004782 -190.052281 
L 108.004848 -177.739225 
L 108.004915 -177.58357 
L 108.004981 -175.81244 
L 108.005048 -174.64292 
L 108.005114 -171.563911 
L 108.00518 -166.925114 
L 108.005247 -166.881176 
L 108.005313 -166.761223 
L 108.005379 -159.075849 
L 108.005446 -154.779658 
L 108.005512 -149.406717 
L 108.005578 -149.285016 
L 108.005645 -147.587696 
L 108.005711 -146.188877 
L 108.005778 -146.00067 
L 108.005844 -146.00067 
L 108.00591 -146.00067 
L 108.005977 -143.123479 
L 108.006043 -143.123479 
L 108.006109 -143.043261 
L 108.006176 -143.039449 
L 108.006242 -140.675942 
L 108.006309 -140.614853 
L 108.006375 -140.191104 
L 108.006441 -137.635641 
L 108.006508 -135.496271 
L 108.006574 -135.496271 
L 108.00664 -135.584828 
L 108.006707 -135.441793 
L 108.006773 -135.441793 
L 108.00684 -135.420671 
L 108.006906 -135.318926 
L 108.006972 -133.755394 
L 108.007039 -133.755394 
L 108.007105 -129.453873 
L 108.007171 -129.453873 
L 108.007238 -129.453873 
L 108.007304 -129.453873 
L 108.00737 -129.453873 
L 108.007437 -129.453873 
L 108.007503 -129.453873 
L 108.00757 -127.981543 
L 108.007636 -127.525712 
L 108.007702 -127.525712 
L 108.007769 -126.759529 
L 108.007835 -126.759529 
L 108.007901 -126.759529 
L 108.007968 -125.753917 
L 108.008034 -125.753917 
L 108.008101 -124.41562 
L 108.008167 -124.41562 
L 108.008233 -121.391864 
L 108.0083 -121.391864 
L 108.008366 -121.391864 
L 108.008432 -121.75999 
L 108.008499 -121.75999 
L 108.008565 -121.75999 
L 108.008632 -122.150481 
L 108.008698 -122.150481 
L 108.008764 -121.87352 
L 108.008831 -121.707287 
L 108.008897 -121.707287 
L 108.008963 -121.707287 
L 108.00903 -118.476189 
L 108.009096 -118.336411 
L 108.009163 -117.745593 
L 108.009229 -117.421871 
L 108.009295 -117.264392 
L 108.009362 -116.011545 
L 108.009428 -116.011545 
L 108.009494 -116.011545 
L 108.009561 -116.011545 
L 108.009627 -116.011545 
L 108.009693 -116.011545 
L 108.00976 -115.554757 
L 108.009826 -115.164511 
L 108.009893 -115.164511 
L 108.009959 -110.546976 
L 108.010025 -110.546976 
L 108.010092 -110.546976 
L 108.010158 -111.2529 
L 108.010224 -111.213427 
L 108.010291 -111.213427 
L 108.010357 -111.213427 
L 108.010424 -111.816946 
L 108.01049 -111.759421 
L 108.010556 -111.759421 
L 108.010623 -111.759421 
L 108.010689 -111.759421 
L 108.010755 -110.521436 
L 108.010822 -111.622528 
L 108.010888 -111.246801 
L 108.010955 -111.246801 
L 108.011021 -111.143199 
L 108.011087 -110.91386 
L 108.011154 -110.91386 
L 108.01122 -110.91386 
L 108.011286 -110.91386 
L 108.011353 -110.730043 
L 108.011419 -110.730043 
L 108.011485 -110.730043 
L 108.011552 -110.699301 
L 108.011618 -109.228888 
L 108.011685 -109.228888 
L 108.011751 -109.228888 
L 108.011817 -106.706952 
L 108.011884 -106.706952 
L 108.01195 -106.706952 
L 108.012016 -106.706952 
L 108.012083 -106.706952 
L 108.012149 -106.706952 
L 108.012216 -106.706952 
L 108.012282 -106.706952 
L 108.012348 -106.706952 
L 108.012415 -106.706952 
L 108.012481 -106.706952 
L 108.012547 -106.706952 
L 108.012614 -106.552674 
L 108.01268 -106.552674 
L 108.012747 -106.552674 
L 108.012813 -106.552674 
L 108.012879 -106.552674 
L 108.012946 -106.552674 
L 108.013012 -106.552674 
L 108.013078 -106.552674 
L 108.013145 -106.552674 
L 108.013211 -106.552674 
L 108.013278 -106.058428 
L 108.013278 -128.122565 
L 108.013278 -128.122565 
L 108.013211 -128.355577 
L 108.013145 -128.355577 
L 108.013078 -128.355577 
L 108.013012 -128.355577 
L 108.012946 -128.355577 
L 108.012879 -128.355577 
L 108.012813 -128.355577 
L 108.012747 -128.355577 
L 108.01268 -128.355577 
L 108.012614 -128.355577 
L 108.012547 -128.443718 
L 108.012481 -128.443718 
L 108.012415 -128.443718 
L 108.012348 -128.443718 
L 108.012282 -128.443718 
L 108.012216 -128.443718 
L 108.012149 -128.443718 
L 108.012083 -128.443718 
L 108.012016 -128.443718 
L 108.01195 -128.443718 
L 108.011884 -128.443718 
L 108.011817 -128.443718 
L 108.011751 -129.073231 
L 108.011685 -129.073231 
L 108.011618 -129.073231 
L 108.011552 -130.754266 
L 108.011485 -131.208363 
L 108.011419 -131.208363 
L 108.011353 -131.208363 
L 108.011286 -131.266965 
L 108.01122 -131.266965 
L 108.011154 -131.266965 
L 108.011087 -131.266965 
L 108.011021 -131.280045 
L 108.010955 -131.9037 
L 108.010888 -131.9037 
L 108.010822 -132.255231 
L 108.010755 -135.295676 
L 108.010689 -139.148493 
L 108.010623 -139.148493 
L 108.010556 -139.148493 
L 108.01049 -139.148493 
L 108.010424 -139.333387 
L 108.010357 -141.149002 
L 108.010291 -141.149002 
L 108.010224 -141.149002 
L 108.010158 -141.351948 
L 108.010092 -143.269968 
L 108.010025 -143.269968 
L 108.009959 -143.269968 
L 108.009893 -145.925007 
L 108.009826 -145.925007 
L 108.00976 -146.746857 
L 108.009693 -146.774907 
L 108.009627 -146.774907 
L 108.009561 -146.774907 
L 108.009494 -146.774907 
L 108.009428 -146.774907 
L 108.009362 -146.774907 
L 108.009295 -146.491737 
L 108.009229 -147.061515 
L 108.009163 -147.949889 
L 108.009096 -147.843909 
L 108.00903 -148.431388 
L 108.008963 -148.836578 
L 108.008897 -148.836578 
L 108.008831 -148.836578 
L 108.008764 -148.912764 
L 108.008698 -148.878222 
L 108.008632 -148.878222 
L 108.008565 -153.147419 
L 108.008499 -153.147419 
L 108.008432 -153.147419 
L 108.008366 -156.424575 
L 108.0083 -156.424575 
L 108.008233 -156.424575 
L 108.008167 -156.794687 
L 108.008101 -156.794687 
L 108.008034 -158.123001 
L 108.007968 -158.123001 
L 108.007901 -158.571904 
L 108.007835 -158.571904 
L 108.007769 -158.571904 
L 108.007702 -159.017816 
L 108.007636 -159.017816 
L 108.00757 -160.986177 
L 108.007503 -160.725942 
L 108.007437 -160.725942 
L 108.00737 -160.725942 
L 108.007304 -160.725942 
L 108.007238 -160.725942 
L 108.007171 -160.725942 
L 108.007105 -160.725942 
L 108.007039 -162.24248 
L 108.006972 -162.24248 
L 108.006906 -165.284913 
L 108.00684 -166.880101 
L 108.006773 -167.101399 
L 108.006707 -167.101399 
L 108.00664 -167.200783 
L 108.006574 -168.016598 
L 108.006508 -168.016598 
L 108.006441 -167.816581 
L 108.006375 -170.836758 
L 108.006309 -170.897846 
L 108.006242 -171.321596 
L 108.006176 -172.109538 
L 108.006109 -172.590565 
L 108.006043 -172.995184 
L 108.005977 -172.995184 
L 108.00591 -174.239119 
L 108.005844 -174.239119 
L 108.005778 -174.239119 
L 108.005711 -175.263008 
L 108.005645 -177.258056 
L 108.005578 -179.197024 
L 108.005512 -179.317742 
L 108.005446 -177.823507 
L 108.005379 -179.102957 
L 108.005313 -178.447737 
L 108.005247 -178.570204 
L 108.00518 -181.192876 
L 108.005114 -184.069073 
L 108.005048 -184.626351 
L 108.004981 -189.27489 
L 108.004915 -197.685365 
L 108.004848 -203.10535 
L 108.004782 -208.488891 
L 108.004716 -212.864129 
L 108.004649 -476.355666 
z
" style="stroke: #8fb4dc; stroke-opacity: 0.2"/>
    </defs>
    <g clip-path="url(#p8a3fafbe89)">
     <use xlink:href="#m23dd964d79" x="0" y="576" style="fill: #8fb4dc; fill-opacity: 0.2; stroke: #8fb4dc; stroke-opacity: 0.2"/>
    </g>
   </g>
   <g id="PolyCollection_5">
    <defs>
     <path id="mc5fd72bd56" d="M 108.003986 -349.085616 
L 108.003986 -349.085616 
L 108.004052 -203.882136 
L 108.004118 -189.994888 
L 108.004185 -184.318418 
L 108.004251 -183.306188 
L 108.004317 -184.567803 
L 108.004384 -181.760985 
L 108.00445 -178.255664 
L 108.004517 -174.06314 
L 108.004583 -173.548663 
L 108.004649 -172.830334 
L 108.004716 -172.149976 
L 108.004782 -172.003989 
L 108.004848 -167.496904 
L 108.004915 -167.351032 
L 108.004981 -164.445922 
L 108.005048 -163.777077 
L 108.005114 -154.726559 
L 108.00518 -140.297369 
L 108.005247 -139.951844 
L 108.005313 -139.71642 
L 108.005379 -141.190649 
L 108.005446 -126.487954 
L 108.005512 -125.9762 
L 108.005578 -124.888113 
L 108.005645 -113.72371 
L 108.005711 -113.757011 
L 108.005778 -112.388966 
L 108.005844 -111.691032 
L 108.00591 -111.565312 
L 108.005977 -110.467115 
L 108.006043 -108.437791 
L 108.006109 -108.437791 
L 108.006176 -108.346211 
L 108.006242 -108.308393 
L 108.006309 -108.059298 
L 108.006375 -108.331121 
L 108.006441 -106.861246 
L 108.006508 -106.861246 
L 108.006574 -106.861246 
L 108.00664 -106.527755 
L 108.006707 -106.527755 
L 108.006773 -106.527755 
L 108.00684 -106.595452 
L 108.006906 -106.595452 
L 108.006972 -106.595452 
L 108.007039 -106.598748 
L 108.007105 -105.90992 
L 108.007171 -105.90992 
L 108.007238 -105.90992 
L 108.007304 -105.90992 
L 108.00737 -105.629937 
L 108.007437 -105.629937 
L 108.007503 -105.629937 
L 108.00757 -105.629937 
L 108.007636 -104.200994 
L 108.007702 -104.200994 
L 108.007769 -104.62094 
L 108.007835 -104.476123 
L 108.007901 -104.506559 
L 108.007968 -104.506559 
L 108.008034 -104.23579 
L 108.008101 -103.777293 
L 108.008167 -103.777293 
L 108.008233 -103.777293 
L 108.0083 -103.777293 
L 108.008366 -103.777293 
L 108.008432 -103.777293 
L 108.008499 -103.491023 
L 108.008565 -103.491023 
L 108.008632 -103.19706 
L 108.008698 -103.19706 
L 108.008764 -103.19706 
L 108.008831 -102.072842 
L 108.008897 -102.072842 
L 108.008963 -101.487008 
L 108.00903 -101.487008 
L 108.009096 -101.487008 
L 108.009163 -101.744553 
L 108.009229 -101.744553 
L 108.009295 -101.744553 
L 108.009362 -101.744553 
L 108.009428 -101.744553 
L 108.009494 -101.744553 
L 108.009561 -100.39168 
L 108.009627 -100.39168 
L 108.009693 -100.39168 
L 108.00976 -100.39168 
L 108.009826 -99.84131 
L 108.009893 -99.84131 
L 108.009959 -99.84131 
L 108.010025 -99.84131 
L 108.010092 -99.84131 
L 108.010158 -99.84131 
L 108.010224 -99.84131 
L 108.010291 -99.255127 
L 108.010357 -99.255127 
L 108.010424 -97.662706 
L 108.01049 -97.398029 
L 108.010556 -97.398029 
L 108.010623 -97.398029 
L 108.010689 -97.398029 
L 108.010755 -97.398029 
L 108.010822 -97.398029 
L 108.010888 -96.546186 
L 108.010955 -96.546186 
L 108.011021 -96.546186 
L 108.011087 -96.50776 
L 108.011154 -96.50776 
L 108.01122 -96.24245 
L 108.011286 -96.24245 
L 108.011353 -94.614968 
L 108.011419 -94.614968 
L 108.011485 -94.614968 
L 108.011552 -94.614968 
L 108.011618 -94.614968 
L 108.011685 -95.256624 
L 108.011751 -95.264418 
L 108.011817 -95.264418 
L 108.011884 -95.264418 
L 108.01195 -95.264418 
L 108.012016 -95.264418 
L 108.012083 -95.264418 
L 108.012149 -95.264418 
L 108.012216 -95.264418 
L 108.012282 -95.264418 
L 108.012348 -95.264418 
L 108.012415 -95.264418 
L 108.012481 -95.269922 
L 108.012547 -95.269922 
L 108.012614 -95.269922 
L 108.01268 -95.269922 
L 108.012747 -95.269922 
L 108.012813 -95.335138 
L 108.012879 -95.335138 
L 108.012946 -95.335138 
L 108.013012 -95.335138 
L 108.013078 -95.335138 
L 108.013145 -95.335138 
L 108.013211 -95.335138 
L 108.013278 -95.153895 
L 108.013278 -114.057926 
L 108.013278 -114.057926 
L 108.013211 -114.119103 
L 108.013145 -114.119103 
L 108.013078 -114.119103 
L 108.013012 -114.119103 
L 108.012946 -114.119103 
L 108.012879 -114.119103 
L 108.012813 -114.119103 
L 108.012747 -115.881253 
L 108.01268 -115.881253 
L 108.012614 -115.881253 
L 108.012547 -115.881253 
L 108.012481 -115.881253 
L 108.012415 -116.371595 
L 108.012348 -116.371595 
L 108.012282 -116.371595 
L 108.012216 -116.371595 
L 108.012149 -116.371595 
L 108.012083 -116.371595 
L 108.012016 -116.371595 
L 108.01195 -116.371595 
L 108.011884 -116.371595 
L 108.011817 -116.371595 
L 108.011751 -116.371595 
L 108.011685 -117.106646 
L 108.011618 -119.930074 
L 108.011552 -119.930074 
L 108.011485 -119.930074 
L 108.011419 -119.930074 
L 108.011353 -119.930074 
L 108.011286 -122.181299 
L 108.01122 -122.181299 
L 108.011154 -122.158409 
L 108.011087 -122.158409 
L 108.011021 -122.362402 
L 108.010955 -122.362402 
L 108.010888 -122.362402 
L 108.010822 -123.449911 
L 108.010755 -123.449911 
L 108.010689 -123.449911 
L 108.010623 -123.449911 
L 108.010556 -123.449911 
L 108.01049 -123.449911 
L 108.010424 -123.427653 
L 108.010357 -123.532167 
L 108.010291 -123.532167 
L 108.010224 -123.430822 
L 108.010158 -123.430822 
L 108.010092 -123.430822 
L 108.010025 -123.430822 
L 108.009959 -123.430822 
L 108.009893 -123.430822 
L 108.009826 -123.430822 
L 108.00976 -123.36529 
L 108.009693 -123.36529 
L 108.009627 -123.36529 
L 108.009561 -123.36529 
L 108.009494 -124.194189 
L 108.009428 -124.194189 
L 108.009362 -124.194189 
L 108.009295 -124.194189 
L 108.009229 -124.194189 
L 108.009163 -124.194189 
L 108.009096 -128.088022 
L 108.00903 -128.088022 
L 108.008963 -128.088022 
L 108.008897 -130.653637 
L 108.008831 -130.653637 
L 108.008764 -130.499095 
L 108.008698 -130.499095 
L 108.008632 -130.499095 
L 108.008565 -130.447552 
L 108.008499 -130.447552 
L 108.008432 -130.4037 
L 108.008366 -130.4037 
L 108.0083 -130.4037 
L 108.008233 -130.4037 
L 108.008167 -130.4037 
L 108.008101 -130.4037 
L 108.008034 -131.399718 
L 108.007968 -131.371369 
L 108.007901 -131.371369 
L 108.007835 -131.886643 
L 108.007769 -132.953921 
L 108.007702 -135.55564 
L 108.007636 -135.55564 
L 108.00757 -135.581212 
L 108.007503 -135.581212 
L 108.007437 -135.581212 
L 108.00737 -135.581212 
L 108.007304 -136.028486 
L 108.007238 -136.028486 
L 108.007171 -136.028486 
L 108.007105 -136.028486 
L 108.007039 -137.036592 
L 108.006972 -137.282307 
L 108.006906 -137.282307 
L 108.00684 -137.282307 
L 108.006773 -137.592423 
L 108.006707 -137.592423 
L 108.00664 -137.592423 
L 108.006574 -137.74377 
L 108.006508 -137.74377 
L 108.006441 -137.74377 
L 108.006375 -137.485991 
L 108.006309 -145.272808 
L 108.006242 -145.75097 
L 108.006176 -145.955571 
L 108.006109 -147.076087 
L 108.006043 -147.076087 
L 108.005977 -155.713205 
L 108.00591 -160.433067 
L 108.005844 -160.549767 
L 108.005778 -161.063929 
L 108.005711 -163.33217 
L 108.005645 -163.607891 
L 108.005578 -165.776541 
L 108.005512 -169.536836 
L 108.005446 -170.964435 
L 108.005379 -181.958169 
L 108.005313 -187.553524 
L 108.005247 -187.560519 
L 108.00518 -188.911928 
L 108.005114 -192.179336 
L 108.005048 -192.583164 
L 108.004981 -193.853672 
L 108.004915 -198.948394 
L 108.004848 -199.044941 
L 108.004782 -201.083173 
L 108.004716 -201.179605 
L 108.004649 -201.226505 
L 108.004583 -201.235433 
L 108.004517 -202.41789 
L 108.00445 -203.073749 
L 108.004384 -205.144068 
L 108.004317 -210.82192 
L 108.004251 -224.93175 
L 108.004185 -228.040645 
L 108.004118 -230.606426 
L 108.004052 -256.475917 
L 108.003986 -349.085616 
z
" style="stroke: #ac99d2; stroke-opacity: 0.2"/>
    </defs>
    <g clip-path="url(#p8a3fafbe89)">
     <use xlink:href="#mc5fd72bd56" x="0" y="576" style="fill: #ac99d2; fill-opacity: 0.2; stroke: #ac99d2; stroke-opacity: 0.2"/>
    </g>
   </g>
   <g id="line2d_10">
    <path d="M 108.004649 229.338575 
L 108.005313 263.034836 
L 108.005977 312.245922 
L 108.00664 327.518328 
L 108.007304 359.275236 
L 108.007968 387.395856 
L 108.008632 392.486658 
L 108.009295 409.092369 
L 108.009959 413.334704 
L 108.010623 426.061709 
L 108.011286 444.485564 
L 108.01195 450.303624 
L 108.012614 456.727731 
L 108.013278 458.182246 
" clip-path="url(#p8a3fafbe89)" style="fill: none; stroke: #70cdbe; stroke-width: 3.5; stroke-linecap: square"/>
   </g>
   <g id="line2d_11">
    <path d="M 108.004649 226.914384 
L 108.013278 471.878927 
L 108.013278 471.878927 
" clip-path="url(#p8a3fafbe89)" style="fill: none; stroke: #f9b3ad; stroke-width: 3.5; stroke-linecap: square"/>
   </g>
   <g id="line2d_12">
    <path d="M 108.004649 99.644334 
L 108.005313 167.521694 
L 108.005977 287.155541 
L 108.00664 330.669777 
L 108.007304 360.366122 
L 108.007968 392.12303 
L 108.008632 416.970992 
L 108.009295 430.182835 
L 108.009959 436.122104 
L 108.010623 452.242977 
L 108.011286 453.697492 
L 108.01195 454.06112 
L 108.012614 456.97015 
L 108.013278 459.636761 
" clip-path="url(#p8a3fafbe89)" style="fill: none; stroke: #ffdd8e; stroke-width: 3.5; stroke-linecap: square"/>
   </g>
   <g id="line2d_13">
    <path d="M 108.004649 99.644334 
L 108.013278 458.909503 
L 108.013278 458.909503 
" clip-path="url(#p8a3fafbe89)" style="fill: none; stroke: #8fb4dc; stroke-width: 3.5; stroke-linecap: square"/>
   </g>
   <g id="line2d_14">
    <path d="M 108.003986 226.914384 
L 108.013278 471.394089 
L 108.013278 471.394089 
" clip-path="url(#p8a3fafbe89)" style="fill: none; stroke: #ac99d2; stroke-width: 3.5; stroke-linecap: square"/>
   </g>
  </g>
  <g id="axes_2">
   <g id="patch_5">
    <path d="M 174.370916 512.64 
L 838.08 512.64 
L 838.08 69.12 
L 174.370916 69.12 
z
" style="fill: #ffffff"/>
   </g>
   <g id="PolyCollection_6">
    <defs>
     <path id="m5540be9eae" d="M 221.778707 -476.355666 
L 221.778707 -476.355666 
L 269.186499 -330.236613 
L 316.594291 -190.194388 
L 364.002083 -143.453308 
L 411.409874 -132.803386 
L 458.817666 -113.809765 
L 506.225458 -111.395652 
L 553.63325 -113.469648 
L 601.041041 -106.957948 
L 648.448833 -114.892136 
L 695.856625 -114.940586 
L 743.264417 -114.581948 
L 790.672208 -111.085304 
L 838.08 -107.690188 
L 838.08 -125.03629 
L 838.08 -125.03629 
L 790.672208 -126.974395 
L 743.264417 -129.295811 
L 695.856625 -129.664431 
L 648.448833 -132.62191 
L 601.041041 -172.797844 
L 553.63325 -178.164682 
L 506.225458 -206.662365 
L 458.817666 -253.944176 
L 411.409874 -298.46437 
L 364.002083 -347.207138 
L 316.594291 -387.494531 
L 269.186499 -486.72 
L 221.778707 -476.355666 
z
" style="stroke: #ffdd8e; stroke-opacity: 0.2"/>
    </defs>
    <g clip-path="url(#p3223948d55)">
     <use xlink:href="#m5540be9eae" x="0" y="576" style="fill: #ffdd8e; fill-opacity: 0.2; stroke: #ffdd8e; stroke-opacity: 0.2"/>
    </g>
   </g>
   <g id="matplotlib.axis_3">
    <g id="xtick_2">
     <g id="line2d_15">
      <g>
       <use xlink:href="#mcba6bd5bea" x="174.370916" y="512.64" style="stroke: #000000; stroke-width: 2.5"/>
      </g>
     </g>
     <g id="text_10">
      <!-- 60 -->
      <g transform="translate(160.373416 540.856562) scale(0.22 -0.22)">
       <use xlink:href="#DejaVuSans-36"/>
       <use xlink:href="#DejaVuSans-30" x="63.623047"/>
      </g>
     </g>
    </g>
    <g id="xtick_3">
     <g id="line2d_16">
      <g>
       <use xlink:href="#mcba6bd5bea" x="269.186499" y="512.64" style="stroke: #000000; stroke-width: 2.5"/>
      </g>
     </g>
     <g id="text_11">
      <!-- 80 -->
      <g transform="translate(255.188999 540.856562) scale(0.22 -0.22)">
       <defs>
        <path id="DejaVuSans-38" d="M 2034 2216 
Q 1584 2216 1326 1975 
Q 1069 1734 1069 1313 
Q 1069 891 1326 650 
Q 1584 409 2034 409 
Q 2484 409 2743 651 
Q 3003 894 3003 1313 
Q 3003 1734 2745 1975 
Q 2488 2216 2034 2216 
z
M 1403 2484 
Q 997 2584 770 2862 
Q 544 3141 544 3541 
Q 544 4100 942 4425 
Q 1341 4750 2034 4750 
Q 2731 4750 3128 4425 
Q 3525 4100 3525 3541 
Q 3525 3141 3298 2862 
Q 3072 2584 2669 2484 
Q 3125 2378 3379 2068 
Q 3634 1759 3634 1313 
Q 3634 634 3220 271 
Q 2806 -91 2034 -91 
Q 1263 -91 848 271 
Q 434 634 434 1313 
Q 434 1759 690 2068 
Q 947 2378 1403 2484 
z
M 1172 3481 
Q 1172 3119 1398 2916 
Q 1625 2713 2034 2713 
Q 2441 2713 2670 2916 
Q 2900 3119 2900 3481 
Q 2900 3844 2670 4047 
Q 2441 4250 2034 4250 
Q 1625 4250 1398 4047 
Q 1172 3844 1172 3481 
z
" transform="scale(0.015625)"/>
       </defs>
       <use xlink:href="#DejaVuSans-38"/>
       <use xlink:href="#DejaVuSans-30" x="63.623047"/>
      </g>
     </g>
    </g>
    <g id="xtick_4">
     <g id="line2d_17">
      <g>
       <use xlink:href="#mcba6bd5bea" x="364.002083" y="512.64" style="stroke: #000000; stroke-width: 2.5"/>
      </g>
     </g>
     <g id="text_12">
      <!-- 100 -->
      <g transform="translate(343.005833 540.856562) scale(0.22 -0.22)">
       <defs>
        <path id="DejaVuSans-31" d="M 794 531 
L 1825 531 
L 1825 4091 
L 703 3866 
L 703 4441 
L 1819 4666 
L 2450 4666 
L 2450 531 
L 3481 531 
L 3481 0 
L 794 0 
L 794 531 
z
" transform="scale(0.015625)"/>
       </defs>
       <use xlink:href="#DejaVuSans-31"/>
       <use xlink:href="#DejaVuSans-30" x="63.623047"/>
       <use xlink:href="#DejaVuSans-30" x="127.246094"/>
      </g>
     </g>
    </g>
    <g id="xtick_5">
     <g id="line2d_18">
      <g>
       <use xlink:href="#mcba6bd5bea" x="458.817666" y="512.64" style="stroke: #000000; stroke-width: 2.5"/>
      </g>
     </g>
     <g id="text_13">
      <!-- 120 -->
      <g transform="translate(437.821416 540.856562) scale(0.22 -0.22)">
       <use xlink:href="#DejaVuSans-31"/>
       <use xlink:href="#DejaVuSans-32" x="63.623047"/>
       <use xlink:href="#DejaVuSans-30" x="127.246094"/>
      </g>
     </g>
    </g>
    <g id="xtick_6">
     <g id="line2d_19">
      <g>
       <use xlink:href="#mcba6bd5bea" x="553.63325" y="512.64" style="stroke: #000000; stroke-width: 2.5"/>
      </g>
     </g>
     <g id="text_14">
      <!-- 140 -->
      <g transform="translate(532.637 540.856562) scale(0.22 -0.22)">
       <use xlink:href="#DejaVuSans-31"/>
       <use xlink:href="#DejaVuSans-34" x="63.623047"/>
       <use xlink:href="#DejaVuSans-30" x="127.246094"/>
      </g>
     </g>
    </g>
    <g id="xtick_7">
     <g id="line2d_20">
      <g>
       <use xlink:href="#mcba6bd5bea" x="648.448833" y="512.64" style="stroke: #000000; stroke-width: 2.5"/>
      </g>
     </g>
     <g id="text_15">
      <!-- 160 -->
      <g transform="translate(627.452583 540.856562) scale(0.22 -0.22)">
       <use xlink:href="#DejaVuSans-31"/>
       <use xlink:href="#DejaVuSans-36" x="63.623047"/>
       <use xlink:href="#DejaVuSans-30" x="127.246094"/>
      </g>
     </g>
    </g>
    <g id="xtick_8">
     <g id="line2d_21">
      <g>
       <use xlink:href="#mcba6bd5bea" x="743.264417" y="512.64" style="stroke: #000000; stroke-width: 2.5"/>
      </g>
     </g>
     <g id="text_16">
      <!-- 180 -->
      <g transform="translate(722.268167 540.856562) scale(0.22 -0.22)">
       <use xlink:href="#DejaVuSans-31"/>
       <use xlink:href="#DejaVuSans-38" x="63.623047"/>
       <use xlink:href="#DejaVuSans-30" x="127.246094"/>
      </g>
     </g>
    </g>
    <g id="xtick_9">
     <g id="line2d_22">
      <g>
       <use xlink:href="#mcba6bd5bea" x="838.08" y="512.64" style="stroke: #000000; stroke-width: 2.5"/>
      </g>
     </g>
     <g id="text_17">
      <!-- 200 -->
      <g transform="translate(817.08375 540.856562) scale(0.22 -0.22)">
       <use xlink:href="#DejaVuSans-32"/>
       <use xlink:href="#DejaVuSans-30" x="63.623047"/>
       <use xlink:href="#DejaVuSans-30" x="127.246094"/>
      </g>
     </g>
    </g>
   </g>
   <g id="matplotlib.axis_4">
    <g id="ytick_9"/>
    <g id="ytick_10"/>
    <g id="ytick_11"/>
    <g id="ytick_12"/>
    <g id="ytick_13"/>
    <g id="ytick_14"/>
    <g id="ytick_15"/>
    <g id="ytick_16"/>
   </g>
   <g id="PolyCollection_7">
    <defs>
     <path id="m1bb0011b07" d="M 221.778707 -346.661425 
L 221.778707 -346.661425 
L 269.186499 -266.963617 
L 316.594291 -208.002418 
L 364.002083 -199.317779 
L 411.409874 -171.668703 
L 458.817666 -139.043804 
L 506.225458 -133.118139 
L 553.63325 -135.990635 
L 601.041041 -130.652198 
L 648.448833 -125.347082 
L 695.856625 -107.835098 
L 743.264417 -105.012113 
L 790.672208 -97.971088 
L 838.08 -97.292138 
L 838.08 -138.34337 
L 838.08 -138.34337 
L 790.672208 -140.57345 
L 743.264417 -146.38064 
L 695.856625 -155.193773 
L 648.448833 -174.529499 
L 601.041041 -194.678393 
L 553.63325 -197.824626 
L 506.225458 -233.908544 
L 458.817666 -238.164483 
L 411.409874 -261.780826 
L 364.002083 -297.645565 
L 316.594291 -319.505738 
L 269.186499 -358.966712 
L 221.778707 -346.661425 
z
" style="stroke: #70cdbe; stroke-opacity: 0.2"/>
    </defs>
    <g clip-path="url(#p3223948d55)">
     <use xlink:href="#m1bb0011b07" x="0" y="576" style="fill: #70cdbe; fill-opacity: 0.2; stroke: #70cdbe; stroke-opacity: 0.2"/>
    </g>
   </g>
   <g id="patch_6">
    <path d="M 174.370916 512.64 
L 838.08 512.64 
" style="fill: none; stroke: #000000; stroke-width: 2.5; stroke-linejoin: miter; stroke-linecap: square"/>
   </g>
   <g id="PolyCollection_8">
    <defs>
     <path id="m72703c2bd5" d="M 221.778707 -349.085616 
L 221.778707 -349.085616 
L 226.519487 -190.546818 
L 231.260266 -171.62715 
L 236.001045 -170.8907 
L 240.741824 -170.654012 
L 245.482603 -169.035171 
L 250.223383 -168.980696 
L 254.964162 -163.892712 
L 259.704941 -163.61207 
L 264.44572 -163.277078 
L 269.186499 -162.133447 
L 273.927278 -161.660559 
L 278.668058 -160.950813 
L 283.408837 -160.705189 
L 288.149616 -159.349335 
L 292.890395 -159.349335 
L 297.631174 -159.349335 
L 302.371953 -159.22498 
L 307.112733 -158.897706 
L 311.853512 -158.567081 
L 316.594291 -158.319733 
L 321.33507 -152.771671 
L 326.075849 -152.654896 
L 330.816628 -152.483692 
L 335.557408 -152.036222 
L 340.298187 -151.858239 
L 345.038966 -151.806293 
L 349.779745 -151.835476 
L 354.520524 -151.835476 
L 359.261303 -151.835476 
L 364.002083 -151.42739 
L 368.742862 -151.42739 
L 373.483641 -151.42739 
L 378.22442 -151.322105 
L 382.965199 -151.322105 
L 387.705979 -151.265219 
L 392.446758 -151.130472 
L 397.187537 -151.130472 
L 401.928316 -150.450362 
L 406.669095 -150.230136 
L 411.409874 -144.816902 
L 416.150654 -144.816902 
L 420.891433 -144.816902 
L 425.632212 -142.50375 
L 430.372991 -132.906717 
L 435.11377 -132.906717 
L 439.854549 -132.192058 
L 444.595329 -132.192058 
L 449.336108 -117.616635 
L 454.076887 -117.616635 
L 458.817666 -117.616635 
L 463.558445 -117.2501 
L 468.299224 -116.915229 
L 473.040004 -116.657572 
L 477.780783 -116.45677 
L 482.521562 -115.471478 
L 487.262341 -110.415826 
L 492.00312 -110.415826 
L 496.7439 -109.675989 
L 501.484679 -106.674834 
L 506.225458 -106.674834 
L 510.966237 -106.674834 
L 515.707016 -106.674834 
L 520.447795 -97.61554 
L 525.188575 -97.61554 
L 529.929354 -97.61554 
L 534.670133 -97.379037 
L 539.410912 -97.379037 
L 544.151691 -95.798789 
L 548.89247 -93.576903 
L 553.63325 -93.576903 
L 558.374029 -93.597207 
L 563.114808 -93.597207 
L 567.855587 -93.517721 
L 572.596366 -93.517721 
L 577.337145 -93.293761 
L 582.077925 -93.140608 
L 586.818704 -93.140608 
L 591.559483 -93.140608 
L 596.300262 -93.140608 
L 601.041041 -93.140608 
L 605.781821 -92.945072 
L 610.5226 -92.945072 
L 615.263379 -92.945072 
L 620.004158 -92.945072 
L 624.744937 -92.945072 
L 629.485716 -92.945072 
L 634.226496 -92.945072 
L 638.967275 -92.945072 
L 643.708054 -92.832134 
L 648.448833 -92.513505 
L 653.189612 -92.102684 
L 657.930391 -92.102684 
L 662.671171 -92.102684 
L 667.41195 -93.131852 
L 672.152729 -93.498782 
L 676.893508 -93.498782 
L 681.634287 -93.498782 
L 686.375066 -93.498782 
L 691.115846 -93.502422 
L 695.856625 -91.151648 
L 700.597404 -91.151648 
L 705.338183 -85.611037 
L 710.078962 -85.611037 
L 714.819741 -85.260991 
L 719.560521 -85.260991 
L 724.3013 -85.260991 
L 729.042079 -85.260991 
L 733.782858 -85.260991 
L 738.523637 -85.260991 
L 743.264417 -85.260991 
L 748.005196 -85.260991 
L 752.745975 -85.260991 
L 757.486754 -85.260991 
L 762.227533 -85.260991 
L 766.968312 -84.459711 
L 771.709092 -84.459711 
L 776.449871 -84.383426 
L 781.19065 -84.383426 
L 785.931429 -83.822445 
L 790.672208 -83.822445 
L 795.412987 -83.52 
L 800.153767 -83.52 
L 804.894546 -83.784938 
L 809.635325 -83.784938 
L 814.376104 -83.784938 
L 819.116883 -83.784938 
L 823.857662 -83.784938 
L 828.598442 -83.784938 
L 833.339221 -83.784938 
L 838.08 -83.784938 
L 838.08 -124.457207 
L 838.08 -124.457207 
L 833.339221 -124.457207 
L 828.598442 -124.457207 
L 823.857662 -124.457207 
L 819.116883 -124.457207 
L 814.376104 -124.457207 
L 809.635325 -124.457207 
L 804.894546 -124.457207 
L 800.153767 -125.449402 
L 795.412987 -125.449402 
L 790.672208 -125.389376 
L 785.931429 -125.389376 
L 781.19065 -126.525329 
L 776.449871 -126.525329 
L 771.709092 -126.691464 
L 766.968312 -126.691464 
L 762.227533 -126.617441 
L 757.486754 -126.617441 
L 752.745975 -126.617441 
L 748.005196 -126.617441 
L 743.264417 -126.617441 
L 738.523637 -126.617441 
L 733.782858 -126.617441 
L 729.042079 -126.617441 
L 724.3013 -126.617441 
L 719.560521 -126.617441 
L 714.819741 -126.617441 
L 710.078962 -130.873359 
L 705.338183 -130.873359 
L 700.597404 -133.817418 
L 695.856625 -133.817418 
L 691.115846 -136.799865 
L 686.375066 -137.045924 
L 681.634287 -137.045924 
L 676.893508 -137.045924 
L 672.152729 -137.045924 
L 667.41195 -140.564303 
L 662.671171 -145.714597 
L 657.930391 -145.714597 
L 653.189612 -145.714597 
L 648.448833 -146.515872 
L 643.708054 -146.439662 
L 638.967275 -147.053981 
L 634.226496 -147.053981 
L 629.485716 -147.053981 
L 624.744937 -147.053981 
L 620.004158 -147.053981 
L 615.263379 -147.053981 
L 610.5226 -147.053981 
L 605.781821 -147.053981 
L 601.041041 -147.585702 
L 596.300262 -147.585702 
L 591.559483 -147.585702 
L 586.818704 -147.585702 
L 582.077925 -147.585702 
L 577.337145 -148.159806 
L 572.596366 -148.178266 
L 567.855587 -148.178266 
L 563.114808 -148.583618 
L 558.374029 -148.583618 
L 553.63325 -148.846341 
L 548.89247 -148.846341 
L 544.151691 -148.563809 
L 539.410912 -150.377428 
L 534.670133 -150.377428 
L 529.929354 -150.383344 
L 525.188575 -150.383344 
L 520.447795 -150.383344 
L 515.707016 -155.869199 
L 510.966237 -155.869199 
L 506.225458 -155.869199 
L 501.484679 -155.869199 
L 496.7439 -155.777074 
L 492.00312 -155.522075 
L 487.262341 -155.522075 
L 482.521562 -160.648027 
L 477.780783 -161.602088 
L 473.040004 -161.886124 
L 468.299224 -162.355725 
L 463.558445 -162.748111 
L 458.817666 -163.108834 
L 454.076887 -163.108834 
L 449.336108 -163.108834 
L 444.595329 -163.320979 
L 439.854549 -163.320979 
L 435.11377 -166.727445 
L 430.372991 -166.727445 
L 425.632212 -165.615082 
L 420.891433 -167.423056 
L 416.150654 -167.423056 
L 411.409874 -167.423056 
L 406.669095 -168.312719 
L 401.928316 -169.304588 
L 397.187537 -169.594155 
L 392.446758 -169.594155 
L 387.705979 -169.701828 
L 382.965199 -169.88736 
L 378.22442 -169.88736 
L 373.483641 -170.509333 
L 368.742862 -170.509333 
L 364.002083 -170.509333 
L 359.261303 -170.343666 
L 354.520524 -170.343666 
L 349.779745 -170.343666 
L 345.038966 -170.615269 
L 340.298187 -170.805741 
L 335.557408 -170.870177 
L 330.816628 -171.634804 
L 326.075849 -171.706018 
L 321.33507 -172.074081 
L 316.594291 -171.374403 
L 311.853512 -171.369474 
L 307.112733 -172.008526 
L 302.371953 -171.923671 
L 297.631174 -177.374955 
L 292.890395 -177.374955 
L 288.149616 -177.374955 
L 283.408837 -177.716036 
L 278.668058 -177.712831 
L 273.927278 -178.4576 
L 269.186499 -179.681646 
L 264.44572 -181.204625 
L 259.704941 -181.596891 
L 254.964162 -186.891889 
L 250.223383 -192.470348 
L 245.482603 -192.658291 
L 240.741824 -197.099929 
L 236.001045 -216.256772 
L 231.260266 -217.702095 
L 226.519487 -243.629968 
L 221.778707 -349.085616 
z
" style="stroke: #f9b3ad; stroke-opacity: 0.2"/>
    </defs>
    <g clip-path="url(#p3223948d55)">
     <use xlink:href="#m72703c2bd5" x="0" y="576" style="fill: #f9b3ad; fill-opacity: 0.2; stroke: #f9b3ad; stroke-opacity: 0.2"/>
    </g>
   </g>
   <g id="PolyCollection_9">
    <defs>
     <path id="mb8deb0464c" d="M 221.778707 -476.355666 
L 221.778707 -476.355666 
L 226.519487 -196.585905 
L 231.260266 -190.052281 
L 236.001045 -177.739225 
L 240.741824 -177.58357 
L 245.482603 -175.81244 
L 250.223383 -174.64292 
L 254.964162 -171.563911 
L 259.704941 -166.925114 
L 264.44572 -166.881176 
L 269.186499 -166.761223 
L 273.927278 -159.075849 
L 278.668058 -154.779658 
L 283.408837 -149.406717 
L 288.149616 -149.285016 
L 292.890395 -147.587696 
L 297.631174 -146.188877 
L 302.371953 -146.00067 
L 307.112733 -146.00067 
L 311.853512 -146.00067 
L 316.594291 -143.123479 
L 321.33507 -143.123479 
L 326.075849 -143.043261 
L 330.816628 -143.039449 
L 335.557408 -140.675942 
L 340.298187 -140.614853 
L 345.038966 -140.191104 
L 349.779745 -137.635641 
L 354.520524 -135.496271 
L 359.261303 -135.496271 
L 364.002083 -135.584828 
L 368.742862 -135.441793 
L 373.483641 -135.441793 
L 378.22442 -135.420671 
L 382.965199 -135.318926 
L 387.705979 -133.755394 
L 392.446758 -133.755394 
L 397.187537 -129.453873 
L 401.928316 -129.453873 
L 406.669095 -129.453873 
L 411.409874 -129.453873 
L 416.150654 -129.453873 
L 420.891433 -129.453873 
L 425.632212 -129.453873 
L 430.372991 -127.981543 
L 435.11377 -127.525712 
L 439.854549 -127.525712 
L 444.595329 -126.759529 
L 449.336108 -126.759529 
L 454.076887 -126.759529 
L 458.817666 -125.753917 
L 463.558445 -125.753917 
L 468.299224 -124.41562 
L 473.040004 -124.41562 
L 477.780783 -121.391864 
L 482.521562 -121.391864 
L 487.262341 -121.391864 
L 492.00312 -121.75999 
L 496.7439 -121.75999 
L 501.484679 -121.75999 
L 506.225458 -122.150481 
L 510.966237 -122.150481 
L 515.707016 -121.87352 
L 520.447795 -121.707287 
L 525.188575 -121.707287 
L 529.929354 -121.707287 
L 534.670133 -118.476189 
L 539.410912 -118.336411 
L 544.151691 -117.745593 
L 548.89247 -117.421871 
L 553.63325 -117.264392 
L 558.374029 -116.011545 
L 563.114808 -116.011545 
L 567.855587 -116.011545 
L 572.596366 -116.011545 
L 577.337145 -116.011545 
L 582.077925 -116.011545 
L 586.818704 -115.554757 
L 591.559483 -115.164511 
L 596.300262 -115.164511 
L 601.041041 -110.546976 
L 605.781821 -110.546976 
L 610.5226 -110.546976 
L 615.263379 -111.2529 
L 620.004158 -111.213427 
L 624.744937 -111.213427 
L 629.485716 -111.213427 
L 634.226496 -111.816946 
L 638.967275 -111.759421 
L 643.708054 -111.759421 
L 648.448833 -111.759421 
L 653.189612 -111.759421 
L 657.930391 -110.521436 
L 662.671171 -111.622528 
L 667.41195 -111.246801 
L 672.152729 -111.246801 
L 676.893508 -111.143199 
L 681.634287 -110.91386 
L 686.375066 -110.91386 
L 691.115846 -110.91386 
L 695.856625 -110.91386 
L 700.597404 -110.730043 
L 705.338183 -110.730043 
L 710.078962 -110.730043 
L 714.819741 -110.699301 
L 719.560521 -109.228888 
L 724.3013 -109.228888 
L 729.042079 -109.228888 
L 733.782858 -106.706952 
L 738.523637 -106.706952 
L 743.264417 -106.706952 
L 748.005196 -106.706952 
L 752.745975 -106.706952 
L 757.486754 -106.706952 
L 762.227533 -106.706952 
L 766.968312 -106.706952 
L 771.709092 -106.706952 
L 776.449871 -106.706952 
L 781.19065 -106.706952 
L 785.931429 -106.706952 
L 790.672208 -106.552674 
L 795.412987 -106.552674 
L 800.153767 -106.552674 
L 804.894546 -106.552674 
L 809.635325 -106.552674 
L 814.376104 -106.552674 
L 819.116883 -106.552674 
L 823.857662 -106.552674 
L 828.598442 -106.552674 
L 833.339221 -106.552674 
L 838.08 -106.058428 
L 838.08 -128.122565 
L 838.08 -128.122565 
L 833.339221 -128.355577 
L 828.598442 -128.355577 
L 823.857662 -128.355577 
L 819.116883 -128.355577 
L 814.376104 -128.355577 
L 809.635325 -128.355577 
L 804.894546 -128.355577 
L 800.153767 -128.355577 
L 795.412987 -128.355577 
L 790.672208 -128.355577 
L 785.931429 -128.443718 
L 781.19065 -128.443718 
L 776.449871 -128.443718 
L 771.709092 -128.443718 
L 766.968312 -128.443718 
L 762.227533 -128.443718 
L 757.486754 -128.443718 
L 752.745975 -128.443718 
L 748.005196 -128.443718 
L 743.264417 -128.443718 
L 738.523637 -128.443718 
L 733.782858 -128.443718 
L 729.042079 -129.073231 
L 724.3013 -129.073231 
L 719.560521 -129.073231 
L 714.819741 -130.754266 
L 710.078962 -131.208363 
L 705.338183 -131.208363 
L 700.597404 -131.208363 
L 695.856625 -131.266965 
L 691.115846 -131.266965 
L 686.375066 -131.266965 
L 681.634287 -131.266965 
L 676.893508 -131.280045 
L 672.152729 -131.9037 
L 667.41195 -131.9037 
L 662.671171 -132.255231 
L 657.930391 -135.295676 
L 653.189612 -139.148493 
L 648.448833 -139.148493 
L 643.708054 -139.148493 
L 638.967275 -139.148493 
L 634.226496 -139.333387 
L 629.485716 -141.149002 
L 624.744937 -141.149002 
L 620.004158 -141.149002 
L 615.263379 -141.351948 
L 610.5226 -143.269968 
L 605.781821 -143.269968 
L 601.041041 -143.269968 
L 596.300262 -145.925007 
L 591.559483 -145.925007 
L 586.818704 -146.746857 
L 582.077925 -146.774907 
L 577.337145 -146.774907 
L 572.596366 -146.774907 
L 567.855587 -146.774907 
L 563.114808 -146.774907 
L 558.374029 -146.774907 
L 553.63325 -146.491737 
L 548.89247 -147.061515 
L 544.151691 -147.949889 
L 539.410912 -147.843909 
L 534.670133 -148.431388 
L 529.929354 -148.836578 
L 525.188575 -148.836578 
L 520.447795 -148.836578 
L 515.707016 -148.912764 
L 510.966237 -148.878222 
L 506.225458 -148.878222 
L 501.484679 -153.147419 
L 496.7439 -153.147419 
L 492.00312 -153.147419 
L 487.262341 -156.424575 
L 482.521562 -156.424575 
L 477.780783 -156.424575 
L 473.040004 -156.794687 
L 468.299224 -156.794687 
L 463.558445 -158.123001 
L 458.817666 -158.123001 
L 454.076887 -158.571904 
L 449.336108 -158.571904 
L 444.595329 -158.571904 
L 439.854549 -159.017816 
L 435.11377 -159.017816 
L 430.372991 -160.986177 
L 425.632212 -160.725942 
L 420.891433 -160.725942 
L 416.150654 -160.725942 
L 411.409874 -160.725942 
L 406.669095 -160.725942 
L 401.928316 -160.725942 
L 397.187537 -160.725942 
L 392.446758 -162.24248 
L 387.705979 -162.24248 
L 382.965199 -165.284913 
L 378.22442 -166.880101 
L 373.483641 -167.101399 
L 368.742862 -167.101399 
L 364.002083 -167.200783 
L 359.261303 -168.016598 
L 354.520524 -168.016598 
L 349.779745 -167.816581 
L 345.038966 -170.836758 
L 340.298187 -170.897846 
L 335.557408 -171.321596 
L 330.816628 -172.109538 
L 326.075849 -172.590565 
L 321.33507 -172.995184 
L 316.594291 -172.995184 
L 311.853512 -174.239119 
L 307.112733 -174.239119 
L 302.371953 -174.239119 
L 297.631174 -175.263008 
L 292.890395 -177.258056 
L 288.149616 -179.197024 
L 283.408837 -179.317742 
L 278.668058 -177.823507 
L 273.927278 -179.102957 
L 269.186499 -178.447737 
L 264.44572 -178.570204 
L 259.704941 -181.192876 
L 254.964162 -184.069073 
L 250.223383 -184.626351 
L 245.482603 -189.27489 
L 240.741824 -197.685365 
L 236.001045 -203.10535 
L 231.260266 -208.488891 
L 226.519487 -212.864129 
L 221.778707 -476.355666 
z
" style="stroke: #8fb4dc; stroke-opacity: 0.2"/>
    </defs>
    <g clip-path="url(#p3223948d55)">
     <use xlink:href="#mb8deb0464c" x="0" y="576" style="fill: #8fb4dc; fill-opacity: 0.2; stroke: #8fb4dc; stroke-opacity: 0.2"/>
    </g>
   </g>
   <g id="PolyCollection_10">
    <defs>
     <path id="m2d04ddde68" d="M 174.370916 -349.085616 
L 174.370916 -349.085616 
L 179.111695 -203.882136 
L 183.852474 -189.994888 
L 188.593253 -184.318418 
L 193.334032 -183.306188 
L 198.074812 -184.567803 
L 202.815591 -181.760985 
L 207.55637 -178.255664 
L 212.297149 -174.06314 
L 217.037928 -173.548663 
L 221.778707 -172.830334 
L 226.519487 -172.149976 
L 231.260266 -172.003989 
L 236.001045 -167.496904 
L 240.741824 -167.351032 
L 245.482603 -164.445922 
L 250.223383 -163.777077 
L 254.964162 -154.726559 
L 259.704941 -140.297369 
L 264.44572 -139.951844 
L 269.186499 -139.71642 
L 273.927278 -141.190649 
L 278.668058 -126.487954 
L 283.408837 -125.9762 
L 288.149616 -124.888113 
L 292.890395 -113.72371 
L 297.631174 -113.757011 
L 302.371953 -112.388966 
L 307.112733 -111.691032 
L 311.853512 -111.565312 
L 316.594291 -110.467115 
L 321.33507 -108.437791 
L 326.075849 -108.437791 
L 330.816628 -108.346211 
L 335.557408 -108.308393 
L 340.298187 -108.059298 
L 345.038966 -108.331121 
L 349.779745 -106.861246 
L 354.520524 -106.861246 
L 359.261303 -106.861246 
L 364.002083 -106.527755 
L 368.742862 -106.527755 
L 373.483641 -106.527755 
L 378.22442 -106.595452 
L 382.965199 -106.595452 
L 387.705979 -106.595452 
L 392.446758 -106.598748 
L 397.187537 -105.90992 
L 401.928316 -105.90992 
L 406.669095 -105.90992 
L 411.409874 -105.90992 
L 416.150654 -105.629937 
L 420.891433 -105.629937 
L 425.632212 -105.629937 
L 430.372991 -105.629937 
L 435.11377 -104.200994 
L 439.854549 -104.200994 
L 444.595329 -104.62094 
L 449.336108 -104.476123 
L 454.076887 -104.506559 
L 458.817666 -104.506559 
L 463.558445 -104.23579 
L 468.299224 -103.777293 
L 473.040004 -103.777293 
L 477.780783 -103.777293 
L 482.521562 -103.777293 
L 487.262341 -103.777293 
L 492.00312 -103.777293 
L 496.7439 -103.491023 
L 501.484679 -103.491023 
L 506.225458 -103.19706 
L 510.966237 -103.19706 
L 515.707016 -103.19706 
L 520.447795 -102.072842 
L 525.188575 -102.072842 
L 529.929354 -101.487008 
L 534.670133 -101.487008 
L 539.410912 -101.487008 
L 544.151691 -101.744553 
L 548.89247 -101.744553 
L 553.63325 -101.744553 
L 558.374029 -101.744553 
L 563.114808 -101.744553 
L 567.855587 -101.744553 
L 572.596366 -100.39168 
L 577.337145 -100.39168 
L 582.077925 -100.39168 
L 586.818704 -100.39168 
L 591.559483 -99.84131 
L 596.300262 -99.84131 
L 601.041041 -99.84131 
L 605.781821 -99.84131 
L 610.5226 -99.84131 
L 615.263379 -99.84131 
L 620.004158 -99.84131 
L 624.744937 -99.255127 
L 629.485716 -99.255127 
L 634.226496 -97.662706 
L 638.967275 -97.398029 
L 643.708054 -97.398029 
L 648.448833 -97.398029 
L 653.189612 -97.398029 
L 657.930391 -97.398029 
L 662.671171 -97.398029 
L 667.41195 -96.546186 
L 672.152729 -96.546186 
L 676.893508 -96.546186 
L 681.634287 -96.50776 
L 686.375066 -96.50776 
L 691.115846 -96.24245 
L 695.856625 -96.24245 
L 700.597404 -94.614968 
L 705.338183 -94.614968 
L 710.078962 -94.614968 
L 714.819741 -94.614968 
L 719.560521 -94.614968 
L 724.3013 -95.256624 
L 729.042079 -95.264418 
L 733.782858 -95.264418 
L 738.523637 -95.264418 
L 743.264417 -95.264418 
L 748.005196 -95.264418 
L 752.745975 -95.264418 
L 757.486754 -95.264418 
L 762.227533 -95.264418 
L 766.968312 -95.264418 
L 771.709092 -95.264418 
L 776.449871 -95.264418 
L 781.19065 -95.269922 
L 785.931429 -95.269922 
L 790.672208 -95.269922 
L 795.412987 -95.269922 
L 800.153767 -95.269922 
L 804.894546 -95.335138 
L 809.635325 -95.335138 
L 814.376104 -95.335138 
L 819.116883 -95.335138 
L 823.857662 -95.335138 
L 828.598442 -95.335138 
L 833.339221 -95.335138 
L 838.08 -95.153895 
L 838.08 -114.057926 
L 838.08 -114.057926 
L 833.339221 -114.119103 
L 828.598442 -114.119103 
L 823.857662 -114.119103 
L 819.116883 -114.119103 
L 814.376104 -114.119103 
L 809.635325 -114.119103 
L 804.894546 -114.119103 
L 800.153767 -115.881253 
L 795.412987 -115.881253 
L 790.672208 -115.881253 
L 785.931429 -115.881253 
L 781.19065 -115.881253 
L 776.449871 -116.371595 
L 771.709092 -116.371595 
L 766.968312 -116.371595 
L 762.227533 -116.371595 
L 757.486754 -116.371595 
L 752.745975 -116.371595 
L 748.005196 -116.371595 
L 743.264417 -116.371595 
L 738.523637 -116.371595 
L 733.782858 -116.371595 
L 729.042079 -116.371595 
L 724.3013 -117.106646 
L 719.560521 -119.930074 
L 714.819741 -119.930074 
L 710.078962 -119.930074 
L 705.338183 -119.930074 
L 700.597404 -119.930074 
L 695.856625 -122.181299 
L 691.115846 -122.181299 
L 686.375066 -122.158409 
L 681.634287 -122.158409 
L 676.893508 -122.362402 
L 672.152729 -122.362402 
L 667.41195 -122.362402 
L 662.671171 -123.449911 
L 657.930391 -123.449911 
L 653.189612 -123.449911 
L 648.448833 -123.449911 
L 643.708054 -123.449911 
L 638.967275 -123.449911 
L 634.226496 -123.427653 
L 629.485716 -123.532167 
L 624.744937 -123.532167 
L 620.004158 -123.430822 
L 615.263379 -123.430822 
L 610.5226 -123.430822 
L 605.781821 -123.430822 
L 601.041041 -123.430822 
L 596.300262 -123.430822 
L 591.559483 -123.430822 
L 586.818704 -123.36529 
L 582.077925 -123.36529 
L 577.337145 -123.36529 
L 572.596366 -123.36529 
L 567.855587 -124.194189 
L 563.114808 -124.194189 
L 558.374029 -124.194189 
L 553.63325 -124.194189 
L 548.89247 -124.194189 
L 544.151691 -124.194189 
L 539.410912 -128.088022 
L 534.670133 -128.088022 
L 529.929354 -128.088022 
L 525.188575 -130.653637 
L 520.447795 -130.653637 
L 515.707016 -130.499095 
L 510.966237 -130.499095 
L 506.225458 -130.499095 
L 501.484679 -130.447552 
L 496.7439 -130.447552 
L 492.00312 -130.4037 
L 487.262341 -130.4037 
L 482.521562 -130.4037 
L 477.780783 -130.4037 
L 473.040004 -130.4037 
L 468.299224 -130.4037 
L 463.558445 -131.399718 
L 458.817666 -131.371369 
L 454.076887 -131.371369 
L 449.336108 -131.886643 
L 444.595329 -132.953921 
L 439.854549 -135.55564 
L 435.11377 -135.55564 
L 430.372991 -135.581212 
L 425.632212 -135.581212 
L 420.891433 -135.581212 
L 416.150654 -135.581212 
L 411.409874 -136.028486 
L 406.669095 -136.028486 
L 401.928316 -136.028486 
L 397.187537 -136.028486 
L 392.446758 -137.036592 
L 387.705979 -137.282307 
L 382.965199 -137.282307 
L 378.22442 -137.282307 
L 373.483641 -137.592423 
L 368.742862 -137.592423 
L 364.002083 -137.592423 
L 359.261303 -137.74377 
L 354.520524 -137.74377 
L 349.779745 -137.74377 
L 345.038966 -137.485991 
L 340.298187 -145.272808 
L 335.557408 -145.75097 
L 330.816628 -145.955571 
L 326.075849 -147.076087 
L 321.33507 -147.076087 
L 316.594291 -155.713205 
L 311.853512 -160.433067 
L 307.112733 -160.549767 
L 302.371953 -161.063929 
L 297.631174 -163.33217 
L 292.890395 -163.607891 
L 288.149616 -165.776541 
L 283.408837 -169.536836 
L 278.668058 -170.964435 
L 273.927278 -181.958169 
L 269.186499 -187.553524 
L 264.44572 -187.560519 
L 259.704941 -188.911928 
L 254.964162 -192.179336 
L 250.223383 -192.583164 
L 245.482603 -193.853672 
L 240.741824 -198.948394 
L 236.001045 -199.044941 
L 231.260266 -201.083173 
L 226.519487 -201.179605 
L 221.778707 -201.226505 
L 217.037928 -201.235433 
L 212.297149 -202.41789 
L 207.55637 -203.073749 
L 202.815591 -205.144068 
L 198.074812 -210.82192 
L 193.334032 -224.93175 
L 188.593253 -228.040645 
L 183.852474 -230.606426 
L 179.111695 -256.475917 
L 174.370916 -349.085616 
z
" style="stroke: #ac99d2; stroke-opacity: 0.2"/>
    </defs>
    <g clip-path="url(#p3223948d55)">
     <use xlink:href="#m2d04ddde68" x="0" y="576" style="fill: #ac99d2; fill-opacity: 0.2; stroke: #ac99d2; stroke-opacity: 0.2"/>
    </g>
   </g>
   <g id="line2d_23">
    <path d="M 221.778707 229.338575 
L 269.186499 263.034836 
L 316.594291 312.245922 
L 364.002083 327.518328 
L 411.409874 359.275236 
L 458.817666 387.395856 
L 506.225458 392.486658 
L 553.63325 409.092369 
L 601.041041 413.334704 
L 648.448833 426.061709 
L 695.856625 444.485564 
L 743.264417 450.303624 
L 790.672208 456.727731 
L 838.08 458.182246 
" clip-path="url(#p3223948d55)" style="fill: none; stroke: #70cdbe; stroke-width: 3.5; stroke-linecap: square"/>
   </g>
   <g id="line2d_24">
    <path d="M 221.778707 226.914384 
L 226.519487 358.911607 
L 231.260266 381.335378 
L 236.001045 382.426264 
L 240.741824 392.12303 
L 245.482603 395.153269 
L 250.223383 395.274478 
L 254.964162 400.6077 
L 259.704941 403.39552 
L 264.44572 403.759148 
L 269.186499 405.092454 
L 273.927278 405.940921 
L 278.668058 406.668178 
L 283.408837 406.789388 
L 288.149616 407.637855 
L 297.631174 407.637855 
L 302.371953 410.425675 
L 307.112733 410.546884 
L 311.853512 411.031723 
L 316.594291 411.152932 
L 321.33507 413.577124 
L 326.075849 413.819543 
L 330.816628 413.940752 
L 335.557408 414.5468 
L 349.779745 414.910429 
L 359.261303 414.910429 
L 364.002083 415.031638 
L 373.483641 415.031638 
L 378.22442 415.395267 
L 382.965199 415.395267 
L 392.446758 415.637686 
L 397.187537 415.637686 
L 401.928316 416.122525 
L 406.669095 416.728572 
L 411.409874 419.880021 
L 420.891433 419.880021 
L 425.632212 421.940584 
L 430.372991 426.182919 
L 435.11377 426.182919 
L 439.854549 428.243482 
L 444.595329 428.243482 
L 449.336108 435.637266 
L 458.817666 435.637266 
L 473.040004 436.728152 
L 477.780783 436.970571 
L 482.521562 437.940247 
L 487.262341 443.031049 
L 492.00312 443.031049 
L 496.7439 443.273469 
L 501.484679 444.727983 
L 515.707016 444.727983 
L 520.447795 452.000558 
L 529.929354 452.000558 
L 534.670133 452.121767 
L 539.410912 452.121767 
L 544.151691 453.818701 
L 548.89247 454.788378 
L 553.63325 454.788378 
L 558.374029 454.909587 
L 563.114808 454.909587 
L 567.855587 455.152007 
L 572.596366 455.152007 
L 577.337145 455.273216 
L 582.077925 455.636845 
L 601.041041 455.636845 
L 605.781821 456.000474 
L 638.967275 456.000474 
L 643.708054 456.364102 
L 648.448833 456.485312 
L 653.189612 457.09136 
L 662.671171 457.09136 
L 667.41195 459.151922 
L 672.152729 460.727647 
L 686.375066 460.727647 
L 691.115846 460.848856 
L 695.856625 463.515467 
L 700.597404 463.515467 
L 705.338183 467.757802 
L 710.078962 467.757802 
L 714.819741 470.060784 
L 762.227533 470.060784 
L 766.968312 470.424413 
L 771.709092 470.424413 
L 776.449871 470.545622 
L 781.19065 470.545622 
L 785.931429 471.394089 
L 790.672208 471.394089 
L 795.412987 471.515299 
L 800.153767 471.515299 
L 804.894546 471.878927 
L 838.08 471.878927 
L 838.08 471.878927 
" clip-path="url(#p3223948d55)" style="fill: none; stroke: #f9b3ad; stroke-width: 3.5; stroke-linecap: square"/>
   </g>
   <g id="line2d_25">
    <path d="M 221.778707 99.644334 
L 269.186499 167.521694 
L 316.594291 287.155541 
L 364.002083 330.669777 
L 411.409874 360.366122 
L 458.817666 392.12303 
L 506.225458 416.970992 
L 553.63325 430.182835 
L 601.041041 436.122104 
L 648.448833 452.242977 
L 695.856625 453.697492 
L 743.264417 454.06112 
L 790.672208 456.97015 
L 838.08 459.636761 
" clip-path="url(#p3223948d55)" style="fill: none; stroke: #ffdd8e; stroke-width: 3.5; stroke-linecap: square"/>
   </g>
   <g id="line2d_26">
    <path d="M 221.778707 99.644334 
L 226.519487 371.274983 
L 231.260266 376.729414 
L 236.001045 385.577713 
L 240.741824 388.365533 
L 245.482603 393.456335 
L 250.223383 396.365365 
L 254.964162 398.183508 
L 259.704941 401.941005 
L 264.44572 403.27431 
L 269.186499 403.39552 
L 273.927278 406.910597 
L 278.668058 409.698417 
L 283.408837 411.63777 
L 288.149616 411.75898 
L 292.890395 413.577124 
L 297.631174 415.274058 
L 302.371953 415.880105 
L 311.853512 415.880105 
L 316.594291 417.940668 
L 321.33507 417.940668 
L 330.816628 418.425506 
L 335.557408 420.001231 
L 345.038966 420.486069 
L 349.779745 423.273889 
L 354.520524 424.243566 
L 359.261303 424.243566 
L 364.002083 424.607195 
L 368.742862 424.728404 
L 373.483641 424.728404 
L 378.22442 424.849614 
L 382.965199 425.698081 
L 387.705979 428.001063 
L 392.446758 428.001063 
L 397.187537 430.910092 
L 425.632212 430.910092 
L 430.372991 431.51614 
L 435.11377 432.728236 
L 439.854549 432.728236 
L 444.595329 433.334284 
L 454.076887 433.334284 
L 458.817666 434.061541 
L 463.558445 434.061541 
L 468.299224 435.394846 
L 473.040004 435.394846 
L 477.780783 437.09178 
L 487.262341 437.09178 
L 492.00312 438.546295 
L 501.484679 438.546295 
L 506.225458 440.485648 
L 510.966237 440.485648 
L 520.447795 440.728068 
L 529.929354 440.728068 
L 534.670133 442.546211 
L 539.410912 442.90984 
L 544.151691 443.152259 
L 548.89247 443.758307 
L 553.63325 444.121936 
L 558.374029 444.606774 
L 582.077925 444.606774 
L 586.818704 444.849193 
L 591.559483 445.455241 
L 596.300262 445.455241 
L 601.041041 449.091528 
L 610.5226 449.091528 
L 615.263379 449.697576 
L 620.004158 449.818785 
L 629.485716 449.818785 
L 634.226496 450.424833 
L 638.967275 450.546043 
L 653.189612 450.546043 
L 657.930391 453.091444 
L 662.671171 454.06112 
L 667.41195 454.424749 
L 672.152729 454.424749 
L 676.893508 454.788378 
L 681.634287 454.909587 
L 695.856625 454.909587 
L 700.597404 455.030797 
L 710.078962 455.030797 
L 714.819741 455.273216 
L 719.560521 456.848941 
L 729.042079 456.848941 
L 733.782858 458.424665 
L 785.931429 458.424665 
L 790.672208 458.545875 
L 833.339221 458.545875 
L 838.08 458.909503 
L 838.08 458.909503 
" clip-path="url(#p3223948d55)" style="fill: none; stroke: #8fb4dc; stroke-width: 3.5; stroke-linecap: square"/>
   </g>
   <g id="line2d_27">
    <path d="M 174.370916 226.914384 
L 179.111695 345.820973 
L 183.852474 365.699343 
L 188.593253 369.820468 
L 193.334032 371.881031 
L 198.074812 378.305138 
L 202.815591 382.547473 
L 207.55637 385.335294 
L 212.297149 387.759485 
L 217.037928 388.607952 
L 226.519487 389.335209 
L 231.260266 389.456419 
L 236.001045 392.729077 
L 240.741824 392.850287 
L 245.482603 396.850203 
L 250.223383 397.819879 
L 254.964162 402.547053 
L 259.704941 411.395351 
L 264.44572 412.243818 
L 269.186499 412.365028 
L 273.927278 414.425591 
L 278.668058 427.273805 
L 283.408837 428.243482 
L 288.149616 430.667673 
L 292.890395 437.3342 
L 297.631174 437.455409 
L 302.371953 439.273553 
L 307.112733 439.879601 
L 311.853512 440.00081 
L 316.594291 442.90984 
L 321.33507 448.243061 
L 326.075849 448.243061 
L 330.816628 448.849109 
L 335.557408 448.970318 
L 340.298187 449.333947 
L 345.038966 453.091444 
L 349.779745 453.697492 
L 359.261303 453.697492 
L 364.002083 453.939911 
L 373.483641 453.939911 
L 378.22442 454.06112 
L 387.705979 454.06112 
L 392.446758 454.18233 
L 397.187537 455.030797 
L 411.409874 455.030797 
L 416.150654 455.394426 
L 430.372991 455.394426 
L 435.11377 456.121683 
L 439.854549 456.121683 
L 444.595329 457.212569 
L 449.336108 457.818617 
L 454.076887 458.061036 
L 458.817666 458.061036 
L 463.558445 458.182246 
L 468.299224 458.909503 
L 492.00312 458.909503 
L 496.7439 459.030713 
L 501.484679 459.030713 
L 506.225458 459.151922 
L 515.707016 459.151922 
L 520.447795 459.636761 
L 525.188575 459.636761 
L 529.929354 461.212485 
L 539.410912 461.212485 
L 544.151691 463.030629 
L 567.855587 463.030629 
L 572.596366 464.121515 
L 586.818704 464.121515 
L 591.559483 464.363934 
L 620.004158 464.363934 
L 624.744937 464.606353 
L 629.485716 464.606353 
L 634.226496 465.45482 
L 638.967275 465.57603 
L 662.671171 465.57603 
L 667.41195 466.545706 
L 676.893508 466.545706 
L 681.634287 466.666916 
L 686.375066 466.666916 
L 691.115846 466.788125 
L 695.856625 466.788125 
L 700.597404 468.727479 
L 719.560521 468.727479 
L 724.3013 469.818365 
L 729.042079 470.181993 
L 776.449871 470.181993 
L 781.19065 470.424413 
L 800.153767 470.424413 
L 804.894546 471.27288 
L 833.339221 471.27288 
L 838.08 471.394089 
L 838.08 471.394089 
" clip-path="url(#p3223948d55)" style="fill: none; stroke: #ac99d2; stroke-width: 3.5; stroke-linecap: square"/>
   </g>
  </g>
  <g id="axes_3">
   <g id="patch_7">
    <path d="M 108 512.64 
L 838.08 512.64 
L 838.08 69.12 
L 108 69.12 
L 108 512.64 
z
" style="fill: none"/>
   </g>
   <g id="matplotlib.axis_5">
    <g id="text_18">
     <!-- Number of sample point evaluations -->
     <g transform="translate(249.711562 568.023125) scale(0.28 -0.28)">
      <defs>
       <path id="ArialMT-4e" d="M 488 0 
L 488 4581 
L 1109 4581 
L 3516 984 
L 3516 4581 
L 4097 4581 
L 4097 0 
L 3475 0 
L 1069 3600 
L 1069 0 
L 488 0 
z
" transform="scale(0.015625)"/>
       <path id="ArialMT-75" d="M 2597 0 
L 2597 488 
Q 2209 -75 1544 -75 
Q 1250 -75 995 37 
Q 741 150 617 320 
Q 494 491 444 738 
Q 409 903 409 1263 
L 409 3319 
L 972 3319 
L 972 1478 
Q 972 1038 1006 884 
Q 1059 663 1231 536 
Q 1403 409 1656 409 
Q 1909 409 2131 539 
Q 2353 669 2445 892 
Q 2538 1116 2538 1541 
L 2538 3319 
L 3100 3319 
L 3100 0 
L 2597 0 
z
" transform="scale(0.015625)"/>
       <path id="ArialMT-6d" d="M 422 0 
L 422 3319 
L 925 3319 
L 925 2853 
Q 1081 3097 1340 3245 
Q 1600 3394 1931 3394 
Q 2300 3394 2536 3241 
Q 2772 3088 2869 2813 
Q 3263 3394 3894 3394 
Q 4388 3394 4653 3120 
Q 4919 2847 4919 2278 
L 4919 0 
L 4359 0 
L 4359 2091 
Q 4359 2428 4304 2576 
Q 4250 2725 4106 2815 
Q 3963 2906 3769 2906 
Q 3419 2906 3187 2673 
Q 2956 2441 2956 1928 
L 2956 0 
L 2394 0 
L 2394 2156 
Q 2394 2531 2256 2718 
Q 2119 2906 1806 2906 
Q 1569 2906 1367 2781 
Q 1166 2656 1075 2415 
Q 984 2175 984 1722 
L 984 0 
L 422 0 
z
" transform="scale(0.015625)"/>
       <path id="ArialMT-62" d="M 941 0 
L 419 0 
L 419 4581 
L 981 4581 
L 981 2947 
Q 1338 3394 1891 3394 
Q 2197 3394 2470 3270 
Q 2744 3147 2920 2923 
Q 3097 2700 3197 2384 
Q 3297 2069 3297 1709 
Q 3297 856 2875 390 
Q 2453 -75 1863 -75 
Q 1275 -75 941 416 
L 941 0 
z
M 934 1684 
Q 934 1088 1097 822 
Q 1363 388 1816 388 
Q 2184 388 2453 708 
Q 2722 1028 2722 1663 
Q 2722 2313 2464 2622 
Q 2206 2931 1841 2931 
Q 1472 2931 1203 2611 
Q 934 2291 934 1684 
z
" transform="scale(0.015625)"/>
       <path id="ArialMT-65" d="M 2694 1069 
L 3275 997 
Q 3138 488 2766 206 
Q 2394 -75 1816 -75 
Q 1088 -75 661 373 
Q 234 822 234 1631 
Q 234 2469 665 2931 
Q 1097 3394 1784 3394 
Q 2450 3394 2872 2941 
Q 3294 2488 3294 1666 
Q 3294 1616 3291 1516 
L 816 1516 
Q 847 969 1125 678 
Q 1403 388 1819 388 
Q 2128 388 2347 550 
Q 2566 713 2694 1069 
z
M 847 1978 
L 2700 1978 
Q 2663 2397 2488 2606 
Q 2219 2931 1791 2931 
Q 1403 2931 1139 2672 
Q 875 2413 847 1978 
z
" transform="scale(0.015625)"/>
       <path id="ArialMT-72" d="M 416 0 
L 416 3319 
L 922 3319 
L 922 2816 
Q 1116 3169 1280 3281 
Q 1444 3394 1641 3394 
Q 1925 3394 2219 3213 
L 2025 2691 
Q 1819 2813 1613 2813 
Q 1428 2813 1281 2702 
Q 1134 2591 1072 2394 
Q 978 2094 978 1738 
L 978 0 
L 416 0 
z
" transform="scale(0.015625)"/>
       <path id="ArialMT-20" transform="scale(0.015625)"/>
       <path id="ArialMT-6f" d="M 213 1659 
Q 213 2581 725 3025 
Q 1153 3394 1769 3394 
Q 2453 3394 2887 2945 
Q 3322 2497 3322 1706 
Q 3322 1066 3130 698 
Q 2938 331 2570 128 
Q 2203 -75 1769 -75 
Q 1072 -75 642 372 
Q 213 819 213 1659 
z
M 791 1659 
Q 791 1022 1069 705 
Q 1347 388 1769 388 
Q 2188 388 2466 706 
Q 2744 1025 2744 1678 
Q 2744 2294 2464 2611 
Q 2184 2928 1769 2928 
Q 1347 2928 1069 2612 
Q 791 2297 791 1659 
z
" transform="scale(0.015625)"/>
       <path id="ArialMT-66" d="M 556 0 
L 556 2881 
L 59 2881 
L 59 3319 
L 556 3319 
L 556 3672 
Q 556 4006 616 4169 
Q 697 4388 901 4523 
Q 1106 4659 1475 4659 
Q 1713 4659 2000 4603 
L 1916 4113 
Q 1741 4144 1584 4144 
Q 1328 4144 1222 4034 
Q 1116 3925 1116 3625 
L 1116 3319 
L 1763 3319 
L 1763 2881 
L 1116 2881 
L 1116 0 
L 556 0 
z
" transform="scale(0.015625)"/>
       <path id="ArialMT-73" d="M 197 991 
L 753 1078 
Q 800 744 1014 566 
Q 1228 388 1613 388 
Q 2000 388 2187 545 
Q 2375 703 2375 916 
Q 2375 1106 2209 1216 
Q 2094 1291 1634 1406 
Q 1016 1563 777 1677 
Q 538 1791 414 1992 
Q 291 2194 291 2438 
Q 291 2659 392 2848 
Q 494 3038 669 3163 
Q 800 3259 1026 3326 
Q 1253 3394 1513 3394 
Q 1903 3394 2198 3281 
Q 2494 3169 2634 2976 
Q 2775 2784 2828 2463 
L 2278 2388 
Q 2241 2644 2061 2787 
Q 1881 2931 1553 2931 
Q 1166 2931 1000 2803 
Q 834 2675 834 2503 
Q 834 2394 903 2306 
Q 972 2216 1119 2156 
Q 1203 2125 1616 2013 
Q 2213 1853 2448 1751 
Q 2684 1650 2818 1456 
Q 2953 1263 2953 975 
Q 2953 694 2789 445 
Q 2625 197 2315 61 
Q 2006 -75 1616 -75 
Q 969 -75 630 194 
Q 291 463 197 991 
z
" transform="scale(0.015625)"/>
       <path id="ArialMT-61" d="M 2588 409 
Q 2275 144 1986 34 
Q 1697 -75 1366 -75 
Q 819 -75 525 192 
Q 231 459 231 875 
Q 231 1119 342 1320 
Q 453 1522 633 1644 
Q 813 1766 1038 1828 
Q 1203 1872 1538 1913 
Q 2219 1994 2541 2106 
Q 2544 2222 2544 2253 
Q 2544 2597 2384 2738 
Q 2169 2928 1744 2928 
Q 1347 2928 1158 2789 
Q 969 2650 878 2297 
L 328 2372 
Q 403 2725 575 2942 
Q 747 3159 1072 3276 
Q 1397 3394 1825 3394 
Q 2250 3394 2515 3294 
Q 2781 3194 2906 3042 
Q 3031 2891 3081 2659 
Q 3109 2516 3109 2141 
L 3109 1391 
Q 3109 606 3145 398 
Q 3181 191 3288 0 
L 2700 0 
Q 2613 175 2588 409 
z
M 2541 1666 
Q 2234 1541 1622 1453 
Q 1275 1403 1131 1340 
Q 988 1278 909 1158 
Q 831 1038 831 891 
Q 831 666 1001 516 
Q 1172 366 1500 366 
Q 1825 366 2078 508 
Q 2331 650 2450 897 
Q 2541 1088 2541 1459 
L 2541 1666 
z
" transform="scale(0.015625)"/>
       <path id="ArialMT-70" d="M 422 -1272 
L 422 3319 
L 934 3319 
L 934 2888 
Q 1116 3141 1344 3267 
Q 1572 3394 1897 3394 
Q 2322 3394 2647 3175 
Q 2972 2956 3137 2557 
Q 3303 2159 3303 1684 
Q 3303 1175 3120 767 
Q 2938 359 2589 142 
Q 2241 -75 1856 -75 
Q 1575 -75 1351 44 
Q 1128 163 984 344 
L 984 -1272 
L 422 -1272 
z
M 931 1641 
Q 931 1000 1190 694 
Q 1450 388 1819 388 
Q 2194 388 2461 705 
Q 2728 1022 2728 1688 
Q 2728 2322 2467 2637 
Q 2206 2953 1844 2953 
Q 1484 2953 1207 2617 
Q 931 2281 931 1641 
z
" transform="scale(0.015625)"/>
       <path id="ArialMT-6c" d="M 409 0 
L 409 4581 
L 972 4581 
L 972 0 
L 409 0 
z
" transform="scale(0.015625)"/>
       <path id="ArialMT-69" d="M 425 3934 
L 425 4581 
L 988 4581 
L 988 3934 
L 425 3934 
z
M 425 0 
L 425 3319 
L 988 3319 
L 988 0 
L 425 0 
z
" transform="scale(0.015625)"/>
       <path id="ArialMT-6e" d="M 422 0 
L 422 3319 
L 928 3319 
L 928 2847 
Q 1294 3394 1984 3394 
Q 2284 3394 2536 3286 
Q 2788 3178 2913 3003 
Q 3038 2828 3088 2588 
Q 3119 2431 3119 2041 
L 3119 0 
L 2556 0 
L 2556 2019 
Q 2556 2363 2490 2533 
Q 2425 2703 2258 2804 
Q 2091 2906 1866 2906 
Q 1506 2906 1245 2678 
Q 984 2450 984 1813 
L 984 0 
L 422 0 
z
" transform="scale(0.015625)"/>
       <path id="ArialMT-74" d="M 1650 503 
L 1731 6 
Q 1494 -44 1306 -44 
Q 1000 -44 831 53 
Q 663 150 594 308 
Q 525 466 525 972 
L 525 2881 
L 113 2881 
L 113 3319 
L 525 3319 
L 525 4141 
L 1084 4478 
L 1084 3319 
L 1650 3319 
L 1650 2881 
L 1084 2881 
L 1084 941 
Q 1084 700 1114 631 
Q 1144 563 1211 522 
Q 1278 481 1403 481 
Q 1497 481 1650 503 
z
" transform="scale(0.015625)"/>
       <path id="ArialMT-76" d="M 1344 0 
L 81 3319 
L 675 3319 
L 1388 1331 
Q 1503 1009 1600 663 
Q 1675 925 1809 1294 
L 2547 3319 
L 3125 3319 
L 1869 0 
L 1344 0 
z
" transform="scale(0.015625)"/>
      </defs>
      <use xlink:href="#ArialMT-4e"/>
      <use xlink:href="#ArialMT-75" x="72.216797"/>
      <use xlink:href="#ArialMT-6d" x="127.832031"/>
      <use xlink:href="#ArialMT-62" x="211.132812"/>
      <use xlink:href="#ArialMT-65" x="266.748047"/>
      <use xlink:href="#ArialMT-72" x="322.363281"/>
      <use xlink:href="#ArialMT-20" x="355.664062"/>
      <use xlink:href="#ArialMT-6f" x="383.447266"/>
      <use xlink:href="#ArialMT-66" x="439.0625"/>
      <use xlink:href="#ArialMT-20" x="466.845703"/>
      <use xlink:href="#ArialMT-73" x="494.628906"/>
      <use xlink:href="#ArialMT-61" x="544.628906"/>
      <use xlink:href="#ArialMT-6d" x="600.244141"/>
      <use xlink:href="#ArialMT-70" x="683.544922"/>
      <use xlink:href="#ArialMT-6c" x="739.160156"/>
      <use xlink:href="#ArialMT-65" x="761.376953"/>
      <use xlink:href="#ArialMT-20" x="816.992188"/>
      <use xlink:href="#ArialMT-70" x="844.775391"/>
      <use xlink:href="#ArialMT-6f" x="900.390625"/>
      <use xlink:href="#ArialMT-69" x="956.005859"/>
      <use xlink:href="#ArialMT-6e" x="978.222656"/>
      <use xlink:href="#ArialMT-74" x="1033.837891"/>
      <use xlink:href="#ArialMT-20" x="1061.621094"/>
      <use xlink:href="#ArialMT-65" x="1089.404297"/>
      <use xlink:href="#ArialMT-76" x="1145.019531"/>
      <use xlink:href="#ArialMT-61" x="1195.019531"/>
      <use xlink:href="#ArialMT-6c" x="1250.634766"/>
      <use xlink:href="#ArialMT-75" x="1272.851562"/>
      <use xlink:href="#ArialMT-61" x="1328.466797"/>
      <use xlink:href="#ArialMT-74" x="1384.082031"/>
      <use xlink:href="#ArialMT-69" x="1411.865234"/>
      <use xlink:href="#ArialMT-6f" x="1434.082031"/>
      <use xlink:href="#ArialMT-6e" x="1489.697266"/>
      <use xlink:href="#ArialMT-73" x="1545.3125"/>
     </g>
    </g>
   </g>
   <g id="matplotlib.axis_6">
    <g id="text_19">
     <!-- Relative hypervolume ratio -->
     <g transform="translate(37.106875 456.61375) rotate(-90) scale(0.28 -0.28)">
      <defs>
       <path id="ArialMT-52" d="M 503 0 
L 503 4581 
L 2534 4581 
Q 3147 4581 3465 4457 
Q 3784 4334 3975 4021 
Q 4166 3709 4166 3331 
Q 4166 2844 3850 2509 
Q 3534 2175 2875 2084 
Q 3116 1969 3241 1856 
Q 3506 1613 3744 1247 
L 4541 0 
L 3778 0 
L 3172 953 
Q 2906 1366 2734 1584 
Q 2563 1803 2427 1890 
Q 2291 1978 2150 2013 
Q 2047 2034 1813 2034 
L 1109 2034 
L 1109 0 
L 503 0 
z
M 1109 2559 
L 2413 2559 
Q 2828 2559 3062 2645 
Q 3297 2731 3419 2920 
Q 3541 3109 3541 3331 
Q 3541 3656 3305 3865 
Q 3069 4075 2559 4075 
L 1109 4075 
L 1109 2559 
z
" transform="scale(0.015625)"/>
       <path id="ArialMT-68" d="M 422 0 
L 422 4581 
L 984 4581 
L 984 2938 
Q 1378 3394 1978 3394 
Q 2347 3394 2619 3248 
Q 2891 3103 3008 2847 
Q 3125 2591 3125 2103 
L 3125 0 
L 2563 0 
L 2563 2103 
Q 2563 2525 2380 2717 
Q 2197 2909 1863 2909 
Q 1613 2909 1392 2779 
Q 1172 2650 1078 2428 
Q 984 2206 984 1816 
L 984 0 
L 422 0 
z
" transform="scale(0.015625)"/>
       <path id="ArialMT-79" d="M 397 -1278 
L 334 -750 
Q 519 -800 656 -800 
Q 844 -800 956 -737 
Q 1069 -675 1141 -563 
Q 1194 -478 1313 -144 
Q 1328 -97 1363 -6 
L 103 3319 
L 709 3319 
L 1400 1397 
Q 1534 1031 1641 628 
Q 1738 1016 1872 1384 
L 2581 3319 
L 3144 3319 
L 1881 -56 
Q 1678 -603 1566 -809 
Q 1416 -1088 1222 -1217 
Q 1028 -1347 759 -1347 
Q 597 -1347 397 -1278 
z
" transform="scale(0.015625)"/>
      </defs>
      <use xlink:href="#ArialMT-52"/>
      <use xlink:href="#ArialMT-65" x="72.216797"/>
      <use xlink:href="#ArialMT-6c" x="127.832031"/>
      <use xlink:href="#ArialMT-61" x="150.048828"/>
      <use xlink:href="#ArialMT-74" x="205.664062"/>
      <use xlink:href="#ArialMT-69" x="233.447266"/>
      <use xlink:href="#ArialMT-76" x="255.664062"/>
      <use xlink:href="#ArialMT-65" x="305.664062"/>
      <use xlink:href="#ArialMT-20" x="361.279297"/>
      <use xlink:href="#ArialMT-68" x="389.0625"/>
      <use xlink:href="#ArialMT-79" x="444.677734"/>
      <use xlink:href="#ArialMT-70" x="494.677734"/>
      <use xlink:href="#ArialMT-65" x="550.292969"/>
      <use xlink:href="#ArialMT-72" x="605.908203"/>
      <use xlink:href="#ArialMT-76" x="639.208984"/>
      <use xlink:href="#ArialMT-6f" x="689.208984"/>
      <use xlink:href="#ArialMT-6c" x="744.824219"/>
      <use xlink:href="#ArialMT-75" x="767.041016"/>
      <use xlink:href="#ArialMT-6d" x="822.65625"/>
      <use xlink:href="#ArialMT-65" x="905.957031"/>
      <use xlink:href="#ArialMT-20" x="961.572266"/>
      <use xlink:href="#ArialMT-72" x="989.355469"/>
      <use xlink:href="#ArialMT-61" x="1022.65625"/>
      <use xlink:href="#ArialMT-74" x="1078.271484"/>
      <use xlink:href="#ArialMT-69" x="1106.054688"/>
      <use xlink:href="#ArialMT-6f" x="1128.271484"/>
     </g>
    </g>
   </g>
   <g id="legend_1">
    <g id="patch_8">
     <path d="M 544.679375 264.95375 
L 824.08 264.95375 
Q 829.68 264.95375 829.68 259.35375 
L 829.68 83.12 
Q 829.68 77.52 824.08 77.52 
L 544.679375 77.52 
Q 539.079375 77.52 539.079375 83.12 
L 539.079375 259.35375 
Q 539.079375 264.95375 544.679375 264.95375 
z
" style="fill: #ffffff; opacity: 0.8; stroke: #000000; stroke-width: 2.5; stroke-linejoin: miter"/>
    </g>
    <g id="line2d_28">
     <path d="M 550.279375 99.303125 
L 592.279375 99.303125 
L 634.279375 99.303125 
" style="fill: none; stroke: #70cdbe; stroke-width: 3.5; stroke-linecap: square"/>
    </g>
    <g id="text_20">
     <!-- NSGA-II (29) -->
     <g transform="translate(656.679375 109.103125) scale(0.28 -0.28)">
      <defs>
       <path id="ArialMT-53" d="M 288 1472 
L 859 1522 
Q 900 1178 1048 958 
Q 1197 738 1509 602 
Q 1822 466 2213 466 
Q 2559 466 2825 569 
Q 3091 672 3220 851 
Q 3350 1031 3350 1244 
Q 3350 1459 3225 1620 
Q 3100 1781 2813 1891 
Q 2628 1963 1997 2114 
Q 1366 2266 1113 2400 
Q 784 2572 623 2826 
Q 463 3081 463 3397 
Q 463 3744 659 4045 
Q 856 4347 1234 4503 
Q 1613 4659 2075 4659 
Q 2584 4659 2973 4495 
Q 3363 4331 3572 4012 
Q 3781 3694 3797 3291 
L 3216 3247 
Q 3169 3681 2898 3903 
Q 2628 4125 2100 4125 
Q 1550 4125 1298 3923 
Q 1047 3722 1047 3438 
Q 1047 3191 1225 3031 
Q 1400 2872 2139 2705 
Q 2878 2538 3153 2413 
Q 3553 2228 3743 1945 
Q 3934 1663 3934 1294 
Q 3934 928 3725 604 
Q 3516 281 3123 101 
Q 2731 -78 2241 -78 
Q 1619 -78 1198 103 
Q 778 284 539 648 
Q 300 1013 288 1472 
z
" transform="scale(0.015625)"/>
       <path id="ArialMT-47" d="M 2638 1797 
L 2638 2334 
L 4578 2338 
L 4578 638 
Q 4131 281 3656 101 
Q 3181 -78 2681 -78 
Q 2006 -78 1454 211 
Q 903 500 622 1047 
Q 341 1594 341 2269 
Q 341 2938 620 3517 
Q 900 4097 1425 4378 
Q 1950 4659 2634 4659 
Q 3131 4659 3532 4498 
Q 3934 4338 4162 4050 
Q 4391 3763 4509 3300 
L 3963 3150 
Q 3859 3500 3706 3700 
Q 3553 3900 3268 4020 
Q 2984 4141 2638 4141 
Q 2222 4141 1919 4014 
Q 1616 3888 1430 3681 
Q 1244 3475 1141 3228 
Q 966 2803 966 2306 
Q 966 1694 1177 1281 
Q 1388 869 1791 669 
Q 2194 469 2647 469 
Q 3041 469 3416 620 
Q 3791 772 3984 944 
L 3984 1797 
L 2638 1797 
z
" transform="scale(0.015625)"/>
       <path id="ArialMT-41" d="M -9 0 
L 1750 4581 
L 2403 4581 
L 4278 0 
L 3588 0 
L 3053 1388 
L 1138 1388 
L 634 0 
L -9 0 
z
M 1313 1881 
L 2866 1881 
L 2388 3150 
Q 2169 3728 2063 4100 
Q 1975 3659 1816 3225 
L 1313 1881 
z
" transform="scale(0.015625)"/>
       <path id="ArialMT-2d" d="M 203 1375 
L 203 1941 
L 1931 1941 
L 1931 1375 
L 203 1375 
z
" transform="scale(0.015625)"/>
       <path id="ArialMT-49" d="M 597 0 
L 597 4581 
L 1203 4581 
L 1203 0 
L 597 0 
z
" transform="scale(0.015625)"/>
       <path id="ArialMT-28" d="M 1497 -1347 
Q 1031 -759 709 28 
Q 388 816 388 1659 
Q 388 2403 628 3084 
Q 909 3875 1497 4659 
L 1900 4659 
Q 1522 4009 1400 3731 
Q 1209 3300 1100 2831 
Q 966 2247 966 1656 
Q 966 153 1900 -1347 
L 1497 -1347 
z
" transform="scale(0.015625)"/>
       <path id="ArialMT-32" d="M 3222 541 
L 3222 0 
L 194 0 
Q 188 203 259 391 
Q 375 700 629 1000 
Q 884 1300 1366 1694 
Q 2113 2306 2375 2664 
Q 2638 3022 2638 3341 
Q 2638 3675 2398 3904 
Q 2159 4134 1775 4134 
Q 1369 4134 1125 3890 
Q 881 3647 878 3216 
L 300 3275 
Q 359 3922 746 4261 
Q 1134 4600 1788 4600 
Q 2447 4600 2831 4234 
Q 3216 3869 3216 3328 
Q 3216 3053 3103 2787 
Q 2991 2522 2730 2228 
Q 2469 1934 1863 1422 
Q 1356 997 1212 845 
Q 1069 694 975 541 
L 3222 541 
z
" transform="scale(0.015625)"/>
       <path id="ArialMT-39" d="M 350 1059 
L 891 1109 
Q 959 728 1153 556 
Q 1347 384 1650 384 
Q 1909 384 2104 503 
Q 2300 622 2425 820 
Q 2550 1019 2634 1356 
Q 2719 1694 2719 2044 
Q 2719 2081 2716 2156 
Q 2547 1888 2255 1720 
Q 1963 1553 1622 1553 
Q 1053 1553 659 1965 
Q 266 2378 266 3053 
Q 266 3750 677 4175 
Q 1088 4600 1706 4600 
Q 2153 4600 2523 4359 
Q 2894 4119 3086 3673 
Q 3278 3228 3278 2384 
Q 3278 1506 3087 986 
Q 2897 466 2520 194 
Q 2144 -78 1638 -78 
Q 1100 -78 759 220 
Q 419 519 350 1059 
z
M 2653 3081 
Q 2653 3566 2395 3850 
Q 2138 4134 1775 4134 
Q 1400 4134 1122 3828 
Q 844 3522 844 3034 
Q 844 2597 1108 2323 
Q 1372 2050 1759 2050 
Q 2150 2050 2401 2323 
Q 2653 2597 2653 3081 
z
" transform="scale(0.015625)"/>
       <path id="ArialMT-29" d="M 791 -1347 
L 388 -1347 
Q 1322 153 1322 1656 
Q 1322 2244 1188 2822 
Q 1081 3291 891 3722 
Q 769 4003 388 4659 
L 791 4659 
Q 1378 3875 1659 3084 
Q 1900 2403 1900 1659 
Q 1900 816 1576 28 
Q 1253 -759 791 -1347 
z
" transform="scale(0.015625)"/>
      </defs>
      <use xlink:href="#ArialMT-4e"/>
      <use xlink:href="#ArialMT-53" x="72.216797"/>
      <use xlink:href="#ArialMT-47" x="138.916016"/>
      <use xlink:href="#ArialMT-41" x="216.699219"/>
      <use xlink:href="#ArialMT-2d" x="283.398438"/>
      <use xlink:href="#ArialMT-49" x="316.699219"/>
      <use xlink:href="#ArialMT-49" x="344.482422"/>
      <use xlink:href="#ArialMT-20" x="372.265625"/>
      <use xlink:href="#ArialMT-28" x="400.048828"/>
      <use xlink:href="#ArialMT-32" x="433.349609"/>
      <use xlink:href="#ArialMT-39" x="488.964844"/>
      <use xlink:href="#ArialMT-29" x="544.580078"/>
     </g>
    </g>
    <g id="line2d_29">
     <path d="M 550.279375 133.996875 
L 592.279375 133.996875 
L 634.279375 133.996875 
" style="fill: none; stroke: #f9b3ad; stroke-width: 3.5; stroke-linecap: square"/>
    </g>
    <g id="text_21">
     <!-- MOBO (29) -->
     <g transform="translate(656.679375 143.796875) scale(0.28 -0.28)">
      <defs>
       <path id="ArialMT-4d" d="M 475 0 
L 475 4581 
L 1388 4581 
L 2472 1338 
Q 2622 884 2691 659 
Q 2769 909 2934 1394 
L 4031 4581 
L 4847 4581 
L 4847 0 
L 4263 0 
L 4263 3834 
L 2931 0 
L 2384 0 
L 1059 3900 
L 1059 0 
L 475 0 
z
" transform="scale(0.015625)"/>
       <path id="ArialMT-4f" d="M 309 2231 
Q 309 3372 921 4017 
Q 1534 4663 2503 4663 
Q 3138 4663 3647 4359 
Q 4156 4056 4423 3514 
Q 4691 2972 4691 2284 
Q 4691 1588 4409 1038 
Q 4128 488 3612 205 
Q 3097 -78 2500 -78 
Q 1853 -78 1343 234 
Q 834 547 571 1087 
Q 309 1628 309 2231 
z
M 934 2222 
Q 934 1394 1379 917 
Q 1825 441 2497 441 
Q 3181 441 3623 922 
Q 4066 1403 4066 2288 
Q 4066 2847 3877 3264 
Q 3688 3681 3323 3911 
Q 2959 4141 2506 4141 
Q 1863 4141 1398 3698 
Q 934 3256 934 2222 
z
" transform="scale(0.015625)"/>
       <path id="ArialMT-42" d="M 469 0 
L 469 4581 
L 2188 4581 
Q 2713 4581 3030 4442 
Q 3347 4303 3526 4014 
Q 3706 3725 3706 3409 
Q 3706 3116 3547 2856 
Q 3388 2597 3066 2438 
Q 3481 2316 3704 2022 
Q 3928 1728 3928 1328 
Q 3928 1006 3792 729 
Q 3656 453 3456 303 
Q 3256 153 2954 76 
Q 2653 0 2216 0 
L 469 0 
z
M 1075 2656 
L 2066 2656 
Q 2469 2656 2644 2709 
Q 2875 2778 2992 2937 
Q 3109 3097 3109 3338 
Q 3109 3566 3000 3739 
Q 2891 3913 2687 3977 
Q 2484 4041 1991 4041 
L 1075 4041 
L 1075 2656 
z
M 1075 541 
L 2216 541 
Q 2509 541 2628 563 
Q 2838 600 2978 687 
Q 3119 775 3209 942 
Q 3300 1109 3300 1328 
Q 3300 1584 3169 1773 
Q 3038 1963 2805 2039 
Q 2572 2116 2134 2116 
L 1075 2116 
L 1075 541 
z
" transform="scale(0.015625)"/>
      </defs>
      <use xlink:href="#ArialMT-4d"/>
      <use xlink:href="#ArialMT-4f" x="83.300781"/>
      <use xlink:href="#ArialMT-42" x="161.083984"/>
      <use xlink:href="#ArialMT-4f" x="227.783203"/>
      <use xlink:href="#ArialMT-20" x="305.566406"/>
      <use xlink:href="#ArialMT-28" x="333.349609"/>
      <use xlink:href="#ArialMT-32" x="366.650391"/>
      <use xlink:href="#ArialMT-39" x="422.265625"/>
      <use xlink:href="#ArialMT-29" x="477.880859"/>
     </g>
    </g>
    <g id="line2d_30">
     <path d="M 550.279375 168.673125 
L 592.279375 168.673125 
L 634.279375 168.673125 
" style="fill: none; stroke: #ffdd8e; stroke-width: 3.5; stroke-linecap: square"/>
    </g>
    <g id="text_22">
     <!-- NSGA-II (5) -->
     <g transform="translate(656.679375 178.473125) scale(0.28 -0.28)">
      <defs>
       <path id="ArialMT-35" d="M 266 1200 
L 856 1250 
Q 922 819 1161 601 
Q 1400 384 1738 384 
Q 2144 384 2425 690 
Q 2706 997 2706 1503 
Q 2706 1984 2436 2262 
Q 2166 2541 1728 2541 
Q 1456 2541 1237 2417 
Q 1019 2294 894 2097 
L 366 2166 
L 809 4519 
L 3088 4519 
L 3088 3981 
L 1259 3981 
L 1013 2750 
Q 1425 3038 1878 3038 
Q 2478 3038 2890 2622 
Q 3303 2206 3303 1553 
Q 3303 931 2941 478 
Q 2500 -78 1738 -78 
Q 1113 -78 717 272 
Q 322 622 266 1200 
z
" transform="scale(0.015625)"/>
      </defs>
      <use xlink:href="#ArialMT-4e"/>
      <use xlink:href="#ArialMT-53" x="72.216797"/>
      <use xlink:href="#ArialMT-47" x="138.916016"/>
      <use xlink:href="#ArialMT-41" x="216.699219"/>
      <use xlink:href="#ArialMT-2d" x="283.398438"/>
      <use xlink:href="#ArialMT-49" x="316.699219"/>
      <use xlink:href="#ArialMT-49" x="344.482422"/>
      <use xlink:href="#ArialMT-20" x="372.265625"/>
      <use xlink:href="#ArialMT-28" x="400.048828"/>
      <use xlink:href="#ArialMT-35" x="433.349609"/>
      <use xlink:href="#ArialMT-29" x="488.964844"/>
     </g>
    </g>
    <g id="line2d_31">
     <path d="M 550.279375 203.366875 
L 592.279375 203.366875 
L 634.279375 203.366875 
" style="fill: none; stroke: #8fb4dc; stroke-width: 3.5; stroke-linecap: square"/>
    </g>
    <g id="text_23">
     <!-- MOBO (5) -->
     <g transform="translate(656.679375 213.166875) scale(0.28 -0.28)">
      <use xlink:href="#ArialMT-4d"/>
      <use xlink:href="#ArialMT-4f" x="83.300781"/>
      <use xlink:href="#ArialMT-42" x="161.083984"/>
      <use xlink:href="#ArialMT-4f" x="227.783203"/>
      <use xlink:href="#ArialMT-20" x="305.566406"/>
      <use xlink:href="#ArialMT-28" x="333.349609"/>
      <use xlink:href="#ArialMT-35" x="366.650391"/>
      <use xlink:href="#ArialMT-29" x="422.265625"/>
     </g>
    </g>
    <g id="line2d_32">
     <path d="M 550.279375 238.060625 
L 592.279375 238.060625 
L 634.279375 238.060625 
" style="fill: none; stroke: #ac99d2; stroke-width: 3.5; stroke-linecap: square"/>
    </g>
    <g id="text_24">
     <!-- XLO (5) -->
     <g transform="translate(656.679375 247.860625) scale(0.28 -0.28)">
      <defs>
       <path id="ArialMT-58" d="M 28 0 
L 1800 2388 
L 238 4581 
L 959 4581 
L 1791 3406 
Q 2050 3041 2159 2844 
Q 2313 3094 2522 3366 
L 3444 4581 
L 4103 4581 
L 2494 2422 
L 4228 0 
L 3478 0 
L 2325 1634 
Q 2228 1775 2125 1941 
Q 1972 1691 1906 1597 
L 756 0 
L 28 0 
z
" transform="scale(0.015625)"/>
       <path id="ArialMT-4c" d="M 469 0 
L 469 4581 
L 1075 4581 
L 1075 541 
L 3331 541 
L 3331 0 
L 469 0 
z
" transform="scale(0.015625)"/>
      </defs>
      <use xlink:href="#ArialMT-58"/>
      <use xlink:href="#ArialMT-4c" x="66.699219"/>
      <use xlink:href="#ArialMT-4f" x="122.314453"/>
      <use xlink:href="#ArialMT-20" x="200.097656"/>
      <use xlink:href="#ArialMT-28" x="227.880859"/>
      <use xlink:href="#ArialMT-35" x="261.181641"/>
      <use xlink:href="#ArialMT-29" x="316.796875"/>
     </g>
    </g>
   </g>
  </g>
 </g>
 <defs>
  <clipPath id="p8a3fafbe89">
   <rect x="108" y="69.12" width="0.000007" height="443.52"/>
  </clipPath>
  <clipPath id="p3223948d55">
   <rect x="174.370916" y="69.12" width="663.709084" height="443.52"/>
  </clipPath>
 </defs>
</svg>
