<?xml version="1.0" encoding="utf-8" standalone="no"?>
<!DOCTYPE svg PUBLIC "-//W3C//DTD SVG 1.1//EN"
  "http://www.w3.org/Graphics/SVG/1.1/DTD/svg11.dtd">
<svg xmlns:xlink="http://www.w3.org/1999/xlink" width="640.527187pt" height="568.969219pt" viewBox="0 0 640.527187 568.969219" xmlns="http://www.w3.org/2000/svg" version="1.1">
 <metadata>
  <rdf:RDF xmlns:dc="http://purl.org/dc/elements/1.1/" xmlns:cc="http://creativecommons.org/ns#" xmlns:rdf="http://www.w3.org/1999/02/22-rdf-syntax-ns#">
   <cc:Work>
    <dc:type rdf:resource="http://purl.org/dc/dcmitype/StillImage"/>
    <dc:date>2026-05-07T17:06:48.322364</dc:date>
    <dc:format>image/svg+xml</dc:format>
    <dc:creator>
     <cc:Agent>
      <dc:title>Matplotlib v3.9.2, https://matplotlib.org/</dc:title>
     </cc:Agent>
    </dc:creator>
   </cc:Work>
  </rdf:RDF>
 </metadata>
 <defs>
  <style type="text/css">*{stroke-linejoin: round; stroke-linecap: butt}</style>
 </defs>
 <g id="figure_1">
  <g id="patch_1">
   <path d="M 0 568.969219 
L 640.527187 568.969219 
L 640.527187 0 
L 0 0 
z
" style="fill: #ffffff"/>
  </g>
  <g id="axes_1">
   <g id="patch_2">
    <path d="M 113.857188 491.3 
L 633.327187 491.3 
L 633.327187 7.2 
L 113.857188 7.2 
z
" style="fill: #ffffff"/>
   </g>
   <g id="PolyCollection_1">
    <defs>
     <path id="m8e4a854522" d="M 137.46946 -465.459647 
L 137.46946 -382.379962 
L 189.941177 -312.248073 
L 242.412895 -288.572455 
L 294.884612 -263.384088 
L 347.356329 -247.645949 
L 399.828046 -245.46372 
L 452.299763 -237.02959 
L 504.77148 -227.530881 
L 557.243198 -223.005169 
L 609.714915 -212.48119 
L 609.714915 -214.276516 
L 609.714915 -214.276516 
L 557.243198 -224.551471 
L 504.77148 -231.308612 
L 452.299763 -240.925941 
L 399.828046 -248.340427 
L 347.356329 -248.676833 
L 294.884612 -263.384184 
L 242.412895 -288.707009 
L 189.941177 -337.652791 
L 137.46946 -465.459647 
z
" style="stroke: #f9b3ad; stroke-opacity: 0.2"/>
    </defs>
    <g clip-path="url(#pab0f10bb24)">
     <use xlink:href="#m8e4a854522" x="0" y="568.969219" style="fill: #f9b3ad; fill-opacity: 0.2; stroke: #f9b3ad; stroke-opacity: 0.2"/>
    </g>
   </g>
   <g id="matplotlib.axis_1">
    <g id="xtick_1">
     <g id="line2d_1">
      <defs>
       <path id="md95f72aa9a" d="M 0 0 
L 0 10 
" style="stroke: #000000; stroke-width: 2.5"/>
      </defs>
      <g>
       <use xlink:href="#md95f72aa9a" x="137.46946" y="491.3" style="stroke: #000000; stroke-width: 2.5"/>
      </g>
     </g>
     <g id="text_1">
      <!-- $\mathit{1d}$ -->
      <g transform="translate(122.74946 521.262969) scale(0.23 -0.23)">
       <defs>
        <path id="DejaVuSans-31" d="M 794 531 
L 1825 531 
L 1825 4091 
L 703 3866 
L 703 4441 
L 1819 4666 
L 2450 4666 
L 2450 531 
L 3481 531 
L 3481 0 
L 794 0 
L 794 531 
z
" transform="scale(0.015625)"/>
        <path id="DejaVuSans-Oblique-64" d="M 2675 525 
Q 2444 222 2128 65 
Q 1813 -91 1428 -91 
Q 903 -91 598 267 
Q 294 625 294 1247 
Q 294 1766 478 2236 
Q 663 2706 1013 3078 
Q 1244 3325 1534 3454 
Q 1825 3584 2144 3584 
Q 2481 3584 2739 3421 
Q 2997 3259 3138 2956 
L 3513 4863 
L 4091 4863 
L 3144 0 
L 2566 0 
L 2675 525 
z
M 891 1350 
Q 891 897 1095 644 
Q 1300 391 1663 391 
Q 1931 391 2161 520 
Q 2391 650 2566 903 
Q 2750 1166 2856 1509 
Q 2963 1853 2963 2188 
Q 2963 2622 2758 2865 
Q 2553 3109 2194 3109 
Q 1922 3109 1687 2981 
Q 1453 2853 1288 2613 
Q 1106 2353 998 2009 
Q 891 1666 891 1350 
z
" transform="scale(0.015625)"/>
       </defs>
       <use xlink:href="#DejaVuSans-31" transform="translate(0 0.015625)"/>
       <use xlink:href="#DejaVuSans-Oblique-64" transform="translate(63.623047 0.015625)"/>
      </g>
     </g>
    </g>
    <g id="xtick_2">
     <g id="line2d_2">
      <g>
       <use xlink:href="#md95f72aa9a" x="242.412895" y="491.3" style="stroke: #000000; stroke-width: 2.5"/>
      </g>
     </g>
     <g id="text_2">
      <!-- $\mathit{3d}$ -->
      <g transform="translate(227.692895 521.262969) scale(0.23 -0.23)">
       <defs>
        <path id="DejaVuSans-33" d="M 2597 2516 
Q 3050 2419 3304 2112 
Q 3559 1806 3559 1356 
Q 3559 666 3084 287 
Q 2609 -91 1734 -91 
Q 1441 -91 1130 -33 
Q 819 25 488 141 
L 488 750 
Q 750 597 1062 519 
Q 1375 441 1716 441 
Q 2309 441 2620 675 
Q 2931 909 2931 1356 
Q 2931 1769 2642 2001 
Q 2353 2234 1838 2234 
L 1294 2234 
L 1294 2753 
L 1863 2753 
Q 2328 2753 2575 2939 
Q 2822 3125 2822 3475 
Q 2822 3834 2567 4026 
Q 2313 4219 1838 4219 
Q 1578 4219 1281 4162 
Q 984 4106 628 3988 
L 628 4550 
Q 988 4650 1302 4700 
Q 1616 4750 1894 4750 
Q 2613 4750 3031 4423 
Q 3450 4097 3450 3541 
Q 3450 3153 3228 2886 
Q 3006 2619 2597 2516 
z
" transform="scale(0.015625)"/>
       </defs>
       <use xlink:href="#DejaVuSans-33" transform="translate(0 0.015625)"/>
       <use xlink:href="#DejaVuSans-Oblique-64" transform="translate(63.623047 0.015625)"/>
      </g>
     </g>
    </g>
    <g id="xtick_3">
     <g id="line2d_3">
      <g>
       <use xlink:href="#md95f72aa9a" x="347.356329" y="491.3" style="stroke: #000000; stroke-width: 2.5"/>
      </g>
     </g>
     <g id="text_3">
      <!-- $\mathit{5d}$ -->
      <g transform="translate(332.636329 521.262969) scale(0.23 -0.23)">
       <defs>
        <path id="DejaVuSans-35" d="M 691 4666 
L 3169 4666 
L 3169 4134 
L 1269 4134 
L 1269 2991 
Q 1406 3038 1543 3061 
Q 1681 3084 1819 3084 
Q 2600 3084 3056 2656 
Q 3513 2228 3513 1497 
Q 3513 744 3044 326 
Q 2575 -91 1722 -91 
Q 1428 -91 1123 -41 
Q 819 9 494 109 
L 494 744 
Q 775 591 1075 516 
Q 1375 441 1709 441 
Q 2250 441 2565 725 
Q 2881 1009 2881 1497 
Q 2881 1984 2565 2268 
Q 2250 2553 1709 2553 
Q 1456 2553 1204 2497 
Q 953 2441 691 2322 
L 691 4666 
z
" transform="scale(0.015625)"/>
       </defs>
       <use xlink:href="#DejaVuSans-35" transform="translate(0 0.015625)"/>
       <use xlink:href="#DejaVuSans-Oblique-64" transform="translate(63.623047 0.015625)"/>
      </g>
     </g>
    </g>
    <g id="xtick_4">
     <g id="line2d_4">
      <g>
       <use xlink:href="#md95f72aa9a" x="452.299763" y="491.3" style="stroke: #000000; stroke-width: 2.5"/>
      </g>
     </g>
     <g id="text_4">
      <!-- $\mathit{7d}$ -->
      <g transform="translate(437.579763 521.262969) scale(0.23 -0.23)">
       <defs>
        <path id="DejaVuSans-37" d="M 525 4666 
L 3525 4666 
L 3525 4397 
L 1831 0 
L 1172 0 
L 2766 4134 
L 525 4134 
L 525 4666 
z
" transform="scale(0.015625)"/>
       </defs>
       <use xlink:href="#DejaVuSans-37" transform="translate(0 0.015625)"/>
       <use xlink:href="#DejaVuSans-Oblique-64" transform="translate(63.623047 0.015625)"/>
      </g>
     </g>
    </g>
    <g id="xtick_5">
     <g id="line2d_5">
      <g>
       <use xlink:href="#md95f72aa9a" x="557.243198" y="491.3" style="stroke: #000000; stroke-width: 2.5"/>
      </g>
     </g>
     <g id="text_5">
      <!-- $\mathit{9d}$ -->
      <g transform="translate(542.523198 521.262969) scale(0.23 -0.23)">
       <defs>
        <path id="DejaVuSans-39" d="M 703 97 
L 703 672 
Q 941 559 1184 500 
Q 1428 441 1663 441 
Q 2288 441 2617 861 
Q 2947 1281 2994 2138 
Q 2813 1869 2534 1725 
Q 2256 1581 1919 1581 
Q 1219 1581 811 2004 
Q 403 2428 403 3163 
Q 403 3881 828 4315 
Q 1253 4750 1959 4750 
Q 2769 4750 3195 4129 
Q 3622 3509 3622 2328 
Q 3622 1225 3098 567 
Q 2575 -91 1691 -91 
Q 1453 -91 1209 -44 
Q 966 3 703 97 
z
M 1959 2075 
Q 2384 2075 2632 2365 
Q 2881 2656 2881 3163 
Q 2881 3666 2632 3958 
Q 2384 4250 1959 4250 
Q 1534 4250 1286 3958 
Q 1038 3666 1038 3163 
Q 1038 2656 1286 2365 
Q 1534 2075 1959 2075 
z
" transform="scale(0.015625)"/>
       </defs>
       <use xlink:href="#DejaVuSans-39" transform="translate(0 0.015625)"/>
       <use xlink:href="#DejaVuSans-Oblique-64" transform="translate(63.623047 0.015625)"/>
      </g>
     </g>
    </g>
    <g id="text_6">
     <!-- Training sample size -->
     <g transform="translate(245.739375 555.876094) scale(0.28 -0.28)">
      <defs>
       <path id="ArialMT-54" d="M 1659 0 
L 1659 4041 
L 150 4041 
L 150 4581 
L 3781 4581 
L 3781 4041 
L 2266 4041 
L 2266 0 
L 1659 0 
z
" transform="scale(0.015625)"/>
       <path id="ArialMT-72" d="M 416 0 
L 416 3319 
L 922 3319 
L 922 2816 
Q 1116 3169 1280 3281 
Q 1444 3394 1641 3394 
Q 1925 3394 2219 3213 
L 2025 2691 
Q 1819 2813 1613 2813 
Q 1428 2813 1281 2702 
Q 1134 2591 1072 2394 
Q 978 2094 978 1738 
L 978 0 
L 416 0 
z
" transform="scale(0.015625)"/>
       <path id="ArialMT-61" d="M 2588 409 
Q 2275 144 1986 34 
Q 1697 -75 1366 -75 
Q 819 -75 525 192 
Q 231 459 231 875 
Q 231 1119 342 1320 
Q 453 1522 633 1644 
Q 813 1766 1038 1828 
Q 1203 1872 1538 1913 
Q 2219 1994 2541 2106 
Q 2544 2222 2544 2253 
Q 2544 2597 2384 2738 
Q 2169 2928 1744 2928 
Q 1347 2928 1158 2789 
Q 969 2650 878 2297 
L 328 2372 
Q 403 2725 575 2942 
Q 747 3159 1072 3276 
Q 1397 3394 1825 3394 
Q 2250 3394 2515 3294 
Q 2781 3194 2906 3042 
Q 3031 2891 3081 2659 
Q 3109 2516 3109 2141 
L 3109 1391 
Q 3109 606 3145 398 
Q 3181 191 3288 0 
L 2700 0 
Q 2613 175 2588 409 
z
M 2541 1666 
Q 2234 1541 1622 1453 
Q 1275 1403 1131 1340 
Q 988 1278 909 1158 
Q 831 1038 831 891 
Q 831 666 1001 516 
Q 1172 366 1500 366 
Q 1825 366 2078 508 
Q 2331 650 2450 897 
Q 2541 1088 2541 1459 
L 2541 1666 
z
" transform="scale(0.015625)"/>
       <path id="ArialMT-69" d="M 425 3934 
L 425 4581 
L 988 4581 
L 988 3934 
L 425 3934 
z
M 425 0 
L 425 3319 
L 988 3319 
L 988 0 
L 425 0 
z
" transform="scale(0.015625)"/>
       <path id="ArialMT-6e" d="M 422 0 
L 422 3319 
L 928 3319 
L 928 2847 
Q 1294 3394 1984 3394 
Q 2284 3394 2536 3286 
Q 2788 3178 2913 3003 
Q 3038 2828 3088 2588 
Q 3119 2431 3119 2041 
L 3119 0 
L 2556 0 
L 2556 2019 
Q 2556 2363 2490 2533 
Q 2425 2703 2258 2804 
Q 2091 2906 1866 2906 
Q 1506 2906 1245 2678 
Q 984 2450 984 1813 
L 984 0 
L 422 0 
z
" transform="scale(0.015625)"/>
       <path id="ArialMT-67" d="M 319 -275 
L 866 -356 
Q 900 -609 1056 -725 
Q 1266 -881 1628 -881 
Q 2019 -881 2231 -725 
Q 2444 -569 2519 -288 
Q 2563 -116 2559 434 
Q 2191 0 1641 0 
Q 956 0 581 494 
Q 206 988 206 1678 
Q 206 2153 378 2554 
Q 550 2956 876 3175 
Q 1203 3394 1644 3394 
Q 2231 3394 2613 2919 
L 2613 3319 
L 3131 3319 
L 3131 450 
Q 3131 -325 2973 -648 
Q 2816 -972 2473 -1159 
Q 2131 -1347 1631 -1347 
Q 1038 -1347 672 -1080 
Q 306 -813 319 -275 
z
M 784 1719 
Q 784 1066 1043 766 
Q 1303 466 1694 466 
Q 2081 466 2343 764 
Q 2606 1063 2606 1700 
Q 2606 2309 2336 2618 
Q 2066 2928 1684 2928 
Q 1309 2928 1046 2623 
Q 784 2319 784 1719 
z
" transform="scale(0.015625)"/>
       <path id="ArialMT-20" transform="scale(0.015625)"/>
       <path id="ArialMT-73" d="M 197 991 
L 753 1078 
Q 800 744 1014 566 
Q 1228 388 1613 388 
Q 2000 388 2187 545 
Q 2375 703 2375 916 
Q 2375 1106 2209 1216 
Q 2094 1291 1634 1406 
Q 1016 1563 777 1677 
Q 538 1791 414 1992 
Q 291 2194 291 2438 
Q 291 2659 392 2848 
Q 494 3038 669 3163 
Q 800 3259 1026 3326 
Q 1253 3394 1513 3394 
Q 1903 3394 2198 3281 
Q 2494 3169 2634 2976 
Q 2775 2784 2828 2463 
L 2278 2388 
Q 2241 2644 2061 2787 
Q 1881 2931 1553 2931 
Q 1166 2931 1000 2803 
Q 834 2675 834 2503 
Q 834 2394 903 2306 
Q 972 2216 1119 2156 
Q 1203 2125 1616 2013 
Q 2213 1853 2448 1751 
Q 2684 1650 2818 1456 
Q 2953 1263 2953 975 
Q 2953 694 2789 445 
Q 2625 197 2315 61 
Q 2006 -75 1616 -75 
Q 969 -75 630 194 
Q 291 463 197 991 
z
" transform="scale(0.015625)"/>
       <path id="ArialMT-6d" d="M 422 0 
L 422 3319 
L 925 3319 
L 925 2853 
Q 1081 3097 1340 3245 
Q 1600 3394 1931 3394 
Q 2300 3394 2536 3241 
Q 2772 3088 2869 2813 
Q 3263 3394 3894 3394 
Q 4388 3394 4653 3120 
Q 4919 2847 4919 2278 
L 4919 0 
L 4359 0 
L 4359 2091 
Q 4359 2428 4304 2576 
Q 4250 2725 4106 2815 
Q 3963 2906 3769 2906 
Q 3419 2906 3187 2673 
Q 2956 2441 2956 1928 
L 2956 0 
L 2394 0 
L 2394 2156 
Q 2394 2531 2256 2718 
Q 2119 2906 1806 2906 
Q 1569 2906 1367 2781 
Q 1166 2656 1075 2415 
Q 984 2175 984 1722 
L 984 0 
L 422 0 
z
" transform="scale(0.015625)"/>
       <path id="ArialMT-70" d="M 422 -1272 
L 422 3319 
L 934 3319 
L 934 2888 
Q 1116 3141 1344 3267 
Q 1572 3394 1897 3394 
Q 2322 3394 2647 3175 
Q 2972 2956 3137 2557 
Q 3303 2159 3303 1684 
Q 3303 1175 3120 767 
Q 2938 359 2589 142 
Q 2241 -75 1856 -75 
Q 1575 -75 1351 44 
Q 1128 163 984 344 
L 984 -1272 
L 422 -1272 
z
M 931 1641 
Q 931 1000 1190 694 
Q 1450 388 1819 388 
Q 2194 388 2461 705 
Q 2728 1022 2728 1688 
Q 2728 2322 2467 2637 
Q 2206 2953 1844 2953 
Q 1484 2953 1207 2617 
Q 931 2281 931 1641 
z
" transform="scale(0.015625)"/>
       <path id="ArialMT-6c" d="M 409 0 
L 409 4581 
L 972 4581 
L 972 0 
L 409 0 
z
" transform="scale(0.015625)"/>
       <path id="ArialMT-65" d="M 2694 1069 
L 3275 997 
Q 3138 488 2766 206 
Q 2394 -75 1816 -75 
Q 1088 -75 661 373 
Q 234 822 234 1631 
Q 234 2469 665 2931 
Q 1097 3394 1784 3394 
Q 2450 3394 2872 2941 
Q 3294 2488 3294 1666 
Q 3294 1616 3291 1516 
L 816 1516 
Q 847 969 1125 678 
Q 1403 388 1819 388 
Q 2128 388 2347 550 
Q 2566 713 2694 1069 
z
M 847 1978 
L 2700 1978 
Q 2663 2397 2488 2606 
Q 2219 2931 1791 2931 
Q 1403 2931 1139 2672 
Q 875 2413 847 1978 
z
" transform="scale(0.015625)"/>
       <path id="ArialMT-7a" d="M 125 0 
L 125 456 
L 2238 2881 
Q 1878 2863 1603 2863 
L 250 2863 
L 250 3319 
L 2963 3319 
L 2963 2947 
L 1166 841 
L 819 456 
Q 1197 484 1528 484 
L 3063 484 
L 3063 0 
L 125 0 
z
" transform="scale(0.015625)"/>
      </defs>
      <use xlink:href="#ArialMT-54"/>
      <use xlink:href="#ArialMT-72" x="57.333984"/>
      <use xlink:href="#ArialMT-61" x="90.634766"/>
      <use xlink:href="#ArialMT-69" x="146.25"/>
      <use xlink:href="#ArialMT-6e" x="168.466797"/>
      <use xlink:href="#ArialMT-69" x="224.082031"/>
      <use xlink:href="#ArialMT-6e" x="246.298828"/>
      <use xlink:href="#ArialMT-67" x="301.914062"/>
      <use xlink:href="#ArialMT-20" x="357.529297"/>
      <use xlink:href="#ArialMT-73" x="385.3125"/>
      <use xlink:href="#ArialMT-61" x="435.3125"/>
      <use xlink:href="#ArialMT-6d" x="490.927734"/>
      <use xlink:href="#ArialMT-70" x="574.228516"/>
      <use xlink:href="#ArialMT-6c" x="629.84375"/>
      <use xlink:href="#ArialMT-65" x="652.060547"/>
      <use xlink:href="#ArialMT-20" x="707.675781"/>
      <use xlink:href="#ArialMT-73" x="735.458984"/>
      <use xlink:href="#ArialMT-69" x="785.458984"/>
      <use xlink:href="#ArialMT-7a" x="807.675781"/>
      <use xlink:href="#ArialMT-65" x="857.675781"/>
     </g>
    </g>
   </g>
   <g id="matplotlib.axis_2">
    <g id="ytick_1">
     <g id="line2d_6">
      <defs>
       <path id="mfe5f6a3e75" d="M 0 0 
L -10 0 
" style="stroke: #000000; stroke-width: 2.5"/>
      </defs>
      <g>
       <use xlink:href="#mfe5f6a3e75" x="113.857188" y="433.489604" style="stroke: #000000; stroke-width: 2.5"/>
      </g>
     </g>
     <g id="text_7">
      <!-- 0.150 -->
      <g transform="translate(42.806875 441.721089) scale(0.23 -0.23)">
       <defs>
        <path id="ArialMT-30" d="M 266 2259 
Q 266 3072 433 3567 
Q 600 4063 929 4331 
Q 1259 4600 1759 4600 
Q 2128 4600 2406 4451 
Q 2684 4303 2865 4023 
Q 3047 3744 3150 3342 
Q 3253 2941 3253 2259 
Q 3253 1453 3087 958 
Q 2922 463 2592 192 
Q 2263 -78 1759 -78 
Q 1097 -78 719 397 
Q 266 969 266 2259 
z
M 844 2259 
Q 844 1131 1108 757 
Q 1372 384 1759 384 
Q 2147 384 2411 759 
Q 2675 1134 2675 2259 
Q 2675 3391 2411 3762 
Q 2147 4134 1753 4134 
Q 1366 4134 1134 3806 
Q 844 3388 844 2259 
z
" transform="scale(0.015625)"/>
        <path id="ArialMT-2e" d="M 581 0 
L 581 641 
L 1222 641 
L 1222 0 
L 581 0 
z
" transform="scale(0.015625)"/>
        <path id="ArialMT-31" d="M 2384 0 
L 1822 0 
L 1822 3584 
Q 1619 3391 1289 3197 
Q 959 3003 697 2906 
L 697 3450 
Q 1169 3672 1522 3987 
Q 1875 4303 2022 4600 
L 2384 4600 
L 2384 0 
z
" transform="scale(0.015625)"/>
        <path id="ArialMT-35" d="M 266 1200 
L 856 1250 
Q 922 819 1161 601 
Q 1400 384 1738 384 
Q 2144 384 2425 690 
Q 2706 997 2706 1503 
Q 2706 1984 2436 2262 
Q 2166 2541 1728 2541 
Q 1456 2541 1237 2417 
Q 1019 2294 894 2097 
L 366 2166 
L 809 4519 
L 3088 4519 
L 3088 3981 
L 1259 3981 
L 1013 2750 
Q 1425 3038 1878 3038 
Q 2478 3038 2890 2622 
Q 3303 2206 3303 1553 
Q 3303 931 2941 478 
Q 2500 -78 1738 -78 
Q 1113 -78 717 272 
Q 322 622 266 1200 
z
" transform="scale(0.015625)"/>
       </defs>
       <use xlink:href="#ArialMT-30"/>
       <use xlink:href="#ArialMT-2e" x="55.615234"/>
       <use xlink:href="#ArialMT-31" x="83.398438"/>
       <use xlink:href="#ArialMT-35" x="139.013672"/>
       <use xlink:href="#ArialMT-30" x="194.628906"/>
      </g>
     </g>
    </g>
    <g id="ytick_2">
     <g id="line2d_7">
      <g>
       <use xlink:href="#mfe5f6a3e75" x="113.857188" y="372.313987" style="stroke: #000000; stroke-width: 2.5"/>
      </g>
     </g>
     <g id="text_8">
      <!-- 0.175 -->
      <g transform="translate(42.806875 380.545471) scale(0.23 -0.23)">
       <defs>
        <path id="ArialMT-37" d="M 303 3981 
L 303 4522 
L 3269 4522 
L 3269 4084 
Q 2831 3619 2401 2847 
Q 1972 2075 1738 1259 
Q 1569 684 1522 0 
L 944 0 
Q 953 541 1156 1306 
Q 1359 2072 1739 2783 
Q 2119 3494 2547 3981 
L 303 3981 
z
" transform="scale(0.015625)"/>
       </defs>
       <use xlink:href="#ArialMT-30"/>
       <use xlink:href="#ArialMT-2e" x="55.615234"/>
       <use xlink:href="#ArialMT-31" x="83.398438"/>
       <use xlink:href="#ArialMT-37" x="139.013672"/>
       <use xlink:href="#ArialMT-35" x="194.628906"/>
      </g>
     </g>
    </g>
    <g id="ytick_3">
     <g id="line2d_8">
      <g>
       <use xlink:href="#mfe5f6a3e75" x="113.857188" y="311.138369" style="stroke: #000000; stroke-width: 2.5"/>
      </g>
     </g>
     <g id="text_9">
      <!-- 0.200 -->
      <g transform="translate(42.806875 319.369853) scale(0.23 -0.23)">
       <defs>
        <path id="ArialMT-32" d="M 3222 541 
L 3222 0 
L 194 0 
Q 188 203 259 391 
Q 375 700 629 1000 
Q 884 1300 1366 1694 
Q 2113 2306 2375 2664 
Q 2638 3022 2638 3341 
Q 2638 3675 2398 3904 
Q 2159 4134 1775 4134 
Q 1369 4134 1125 3890 
Q 881 3647 878 3216 
L 300 3275 
Q 359 3922 746 4261 
Q 1134 4600 1788 4600 
Q 2447 4600 2831 4234 
Q 3216 3869 3216 3328 
Q 3216 3053 3103 2787 
Q 2991 2522 2730 2228 
Q 2469 1934 1863 1422 
Q 1356 997 1212 845 
Q 1069 694 975 541 
L 3222 541 
z
" transform="scale(0.015625)"/>
       </defs>
       <use xlink:href="#ArialMT-30"/>
       <use xlink:href="#ArialMT-2e" x="55.615234"/>
       <use xlink:href="#ArialMT-32" x="83.398438"/>
       <use xlink:href="#ArialMT-30" x="139.013672"/>
       <use xlink:href="#ArialMT-30" x="194.628906"/>
      </g>
     </g>
    </g>
    <g id="ytick_4">
     <g id="line2d_9">
      <g>
       <use xlink:href="#mfe5f6a3e75" x="113.857188" y="249.962751" style="stroke: #000000; stroke-width: 2.5"/>
      </g>
     </g>
     <g id="text_10">
      <!-- 0.225 -->
      <g transform="translate(42.806875 258.194236) scale(0.23 -0.23)">
       <use xlink:href="#ArialMT-30"/>
       <use xlink:href="#ArialMT-2e" x="55.615234"/>
       <use xlink:href="#ArialMT-32" x="83.398438"/>
       <use xlink:href="#ArialMT-32" x="139.013672"/>
       <use xlink:href="#ArialMT-35" x="194.628906"/>
      </g>
     </g>
    </g>
    <g id="ytick_5">
     <g id="line2d_10">
      <g>
       <use xlink:href="#mfe5f6a3e75" x="113.857188" y="188.787134" style="stroke: #000000; stroke-width: 2.5"/>
      </g>
     </g>
     <g id="text_11">
      <!-- 0.250 -->
      <g transform="translate(42.806875 197.018618) scale(0.23 -0.23)">
       <use xlink:href="#ArialMT-30"/>
       <use xlink:href="#ArialMT-2e" x="55.615234"/>
       <use xlink:href="#ArialMT-32" x="83.398438"/>
       <use xlink:href="#ArialMT-35" x="139.013672"/>
       <use xlink:href="#ArialMT-30" x="194.628906"/>
      </g>
     </g>
    </g>
    <g id="ytick_6">
     <g id="line2d_11">
      <g>
       <use xlink:href="#mfe5f6a3e75" x="113.857188" y="127.611516" style="stroke: #000000; stroke-width: 2.5"/>
      </g>
     </g>
     <g id="text_12">
      <!-- 0.275 -->
      <g transform="translate(42.806875 135.843001) scale(0.23 -0.23)">
       <use xlink:href="#ArialMT-30"/>
       <use xlink:href="#ArialMT-2e" x="55.615234"/>
       <use xlink:href="#ArialMT-32" x="83.398438"/>
       <use xlink:href="#ArialMT-37" x="139.013672"/>
       <use xlink:href="#ArialMT-35" x="194.628906"/>
      </g>
     </g>
    </g>
    <g id="ytick_7">
     <g id="line2d_12">
      <g>
       <use xlink:href="#mfe5f6a3e75" x="113.857188" y="66.435899" style="stroke: #000000; stroke-width: 2.5"/>
      </g>
     </g>
     <g id="text_13">
      <!-- 0.300 -->
      <g transform="translate(42.806875 74.667383) scale(0.23 -0.23)">
       <defs>
        <path id="ArialMT-33" d="M 269 1209 
L 831 1284 
Q 928 806 1161 595 
Q 1394 384 1728 384 
Q 2125 384 2398 659 
Q 2672 934 2672 1341 
Q 2672 1728 2419 1979 
Q 2166 2231 1775 2231 
Q 1616 2231 1378 2169 
L 1441 2663 
Q 1497 2656 1531 2656 
Q 1891 2656 2178 2843 
Q 2466 3031 2466 3422 
Q 2466 3731 2256 3934 
Q 2047 4138 1716 4138 
Q 1388 4138 1169 3931 
Q 950 3725 888 3313 
L 325 3413 
Q 428 3978 793 4289 
Q 1159 4600 1703 4600 
Q 2078 4600 2393 4439 
Q 2709 4278 2876 4000 
Q 3044 3722 3044 3409 
Q 3044 3113 2884 2869 
Q 2725 2625 2413 2481 
Q 2819 2388 3044 2092 
Q 3269 1797 3269 1353 
Q 3269 753 2831 336 
Q 2394 -81 1725 -81 
Q 1122 -81 723 278 
Q 325 638 269 1209 
z
" transform="scale(0.015625)"/>
       </defs>
       <use xlink:href="#ArialMT-30"/>
       <use xlink:href="#ArialMT-2e" x="55.615234"/>
       <use xlink:href="#ArialMT-33" x="83.398438"/>
       <use xlink:href="#ArialMT-30" x="139.013672"/>
       <use xlink:href="#ArialMT-30" x="194.628906"/>
      </g>
     </g>
    </g>
    <g id="text_14">
     <!-- $\mathrm{WMAPE}$ -->
     <g transform="translate(27.241875 302.17) rotate(-90) scale(0.28 -0.28)">
      <defs>
       <path id="DejaVuSans-57" d="M 213 4666 
L 850 4666 
L 1831 722 
L 2809 4666 
L 3519 4666 
L 4500 722 
L 5478 4666 
L 6119 4666 
L 4947 0 
L 4153 0 
L 3169 4050 
L 2175 0 
L 1381 0 
L 213 4666 
z
" transform="scale(0.015625)"/>
       <path id="DejaVuSans-4d" d="M 628 4666 
L 1569 4666 
L 2759 1491 
L 3956 4666 
L 4897 4666 
L 4897 0 
L 4281 0 
L 4281 4097 
L 3078 897 
L 2444 897 
L 1241 4097 
L 1241 0 
L 628 0 
L 628 4666 
z
" transform="scale(0.015625)"/>
       <path id="DejaVuSans-41" d="M 2188 4044 
L 1331 1722 
L 3047 1722 
L 2188 4044 
z
M 1831 4666 
L 2547 4666 
L 4325 0 
L 3669 0 
L 3244 1197 
L 1141 1197 
L 716 0 
L 50 0 
L 1831 4666 
z
" transform="scale(0.015625)"/>
       <path id="DejaVuSans-50" d="M 1259 4147 
L 1259 2394 
L 2053 2394 
Q 2494 2394 2734 2622 
Q 2975 2850 2975 3272 
Q 2975 3691 2734 3919 
Q 2494 4147 2053 4147 
L 1259 4147 
z
M 628 4666 
L 2053 4666 
Q 2838 4666 3239 4311 
Q 3641 3956 3641 3272 
Q 3641 2581 3239 2228 
Q 2838 1875 2053 1875 
L 1259 1875 
L 1259 0 
L 628 0 
L 628 4666 
z
" transform="scale(0.015625)"/>
       <path id="DejaVuSans-45" d="M 628 4666 
L 3578 4666 
L 3578 4134 
L 1259 4134 
L 1259 2753 
L 3481 2753 
L 3481 2222 
L 1259 2222 
L 1259 531 
L 3634 531 
L 3634 0 
L 628 0 
L 628 4666 
z
" transform="scale(0.015625)"/>
      </defs>
      <use xlink:href="#DejaVuSans-57" transform="translate(0 0.09375)"/>
      <use xlink:href="#DejaVuSans-4d" transform="translate(98.876953 0.09375)"/>
      <use xlink:href="#DejaVuSans-41" transform="translate(185.15625 0.09375)"/>
      <use xlink:href="#DejaVuSans-50" transform="translate(253.564453 0.09375)"/>
      <use xlink:href="#DejaVuSans-45" transform="translate(313.867188 0.09375)"/>
     </g>
    </g>
   </g>
   <g id="PolyCollection_2">
    <defs>
     <path id="m505c6e980c" d="M 137.46946 -436.311291 
L 137.46946 -436.311291 
L 189.941177 -362.035818 
L 242.412895 -329.578281 
L 294.884612 -301.978208 
L 347.356329 -277.598089 
L 399.828046 -263.956514 
L 452.299763 -255.04317 
L 504.77148 -244.522972 
L 557.243198 -239.117481 
L 609.714915 -227.695222 
L 609.714915 -227.695222 
L 609.714915 -227.695222 
L 557.243198 -239.117481 
L 504.77148 -244.522972 
L 452.299763 -255.04317 
L 399.828046 -263.956514 
L 347.356329 -277.598089 
L 294.884612 -301.978208 
L 242.412895 -329.578281 
L 189.941177 -362.035818 
L 137.46946 -436.311291 
z
" style="stroke: #ccd376; stroke-opacity: 0.2"/>
    </defs>
    <g clip-path="url(#pab0f10bb24)">
     <use xlink:href="#m505c6e980c" x="0" y="568.969219" style="fill: #ccd376; fill-opacity: 0.2; stroke: #ccd376; stroke-opacity: 0.2"/>
    </g>
   </g>
   <g id="patch_3">
    <path d="M 113.857188 491.3 
L 113.857188 7.2 
" style="fill: none; stroke: #000000; stroke-width: 2.5; stroke-linejoin: miter; stroke-linecap: square"/>
   </g>
   <g id="patch_4">
    <path d="M 113.857188 491.3 
L 633.327187 491.3 
" style="fill: none; stroke: #000000; stroke-width: 2.5; stroke-linejoin: miter; stroke-linecap: square"/>
   </g>
   <g id="PolyCollection_3">
    <defs>
     <path id="mda7855db73" d="M 137.46946 -518.087587 
L 137.46946 -518.087587 
L 189.941177 -520.907379 
L 242.412895 -521.675675 
L 294.884612 -518.96633 
L 347.356329 -298.384931 
L 399.828046 -273.90384 
L 452.299763 -247.100952 
L 504.77148 -221.893411 
L 557.243198 -196.657777 
L 609.714915 -174.787078 
L 609.714915 -174.787078 
L 609.714915 -174.787078 
L 557.243198 -196.657777 
L 504.77148 -221.893411 
L 452.299763 -247.100952 
L 399.828046 -273.90384 
L 347.356329 -298.384931 
L 294.884612 -518.96633 
L 242.412895 -521.675675 
L 189.941177 -520.907379 
L 137.46946 -518.087587 
z
" style="stroke: #eb7e60; stroke-opacity: 0.2"/>
    </defs>
    <g clip-path="url(#pab0f10bb24)">
     <use xlink:href="#mda7855db73" x="0" y="568.969219" style="fill: #eb7e60; fill-opacity: 0.2; stroke: #eb7e60; stroke-opacity: 0.2"/>
    </g>
   </g>
   <g id="PolyCollection_4">
    <defs>
     <path id="m4a4a9b3c5e" d="M 137.46946 -490.272409 
L 137.46946 -480.3992 
L 189.941177 -322.921002 
L 242.412895 -266.732188 
L 294.884612 -236.387357 
L 347.356329 -222.271458 
L 399.828046 -203.297876 
L 452.299763 -194.918555 
L 504.77148 -173.681598 
L 557.243198 -159.559655 
L 609.714915 -150.546394 
L 609.714915 -154.352242 
L 609.714915 -154.352242 
L 557.243198 -163.620282 
L 504.77148 -180.812477 
L 452.299763 -199.095016 
L 399.828046 -209.517411 
L 347.356329 -228.067048 
L 294.884612 -241.964933 
L 242.412895 -274.14685 
L 189.941177 -331.535839 
L 137.46946 -490.272409 
z
" style="stroke: #f5aa61; stroke-opacity: 0.2"/>
    </defs>
    <g clip-path="url(#pab0f10bb24)">
     <use xlink:href="#m4a4a9b3c5e" x="0" y="568.969219" style="fill: #f5aa61; fill-opacity: 0.2; stroke: #f5aa61; stroke-opacity: 0.2"/>
    </g>
   </g>
   <g id="PolyCollection_5">
    <defs>
     <path id="mda73cb47d0" d="M 137.46946 -539.764673 
L 137.46946 -539.764673 
L 189.941177 -325.207642 
L 242.412895 -277.380411 
L 294.884612 -241.574145 
L 347.356329 -219.888488 
L 399.828046 -202.249685 
L 452.299763 -181.477557 
L 504.77148 -168.887255 
L 557.243198 -153.589313 
L 609.714915 -140.536756 
L 609.714915 -140.536756 
L 609.714915 -140.536756 
L 557.243198 -153.589313 
L 504.77148 -168.887255 
L 452.299763 -181.477557 
L 399.828046 -202.249685 
L 347.356329 -219.888488 
L 294.884612 -241.574145 
L 242.412895 -277.380411 
L 189.941177 -325.207642 
L 137.46946 -539.764673 
z
" style="stroke: #8fb4dc; stroke-opacity: 0.2"/>
    </defs>
    <g clip-path="url(#pab0f10bb24)">
     <use xlink:href="#mda73cb47d0" x="0" y="568.969219" style="fill: #8fb4dc; fill-opacity: 0.2; stroke: #8fb4dc; stroke-opacity: 0.2"/>
    </g>
   </g>
   <g id="legend_1">
    <g id="patch_5">
     <path d="M 377.236562 268.3175 
L 619.327187 268.3175 
Q 624.927187 268.3175 624.927187 262.7175 
L 624.927187 21.2 
Q 624.927187 15.6 619.327187 15.6 
L 377.236562 15.6 
Q 371.636562 15.6 371.636562 21.2 
L 371.636562 262.7175 
Q 371.636562 268.3175 377.236562 268.3175 
L 377.236562 268.3175 
z
" style="fill: none; opacity: 0.8; stroke: #000000; stroke-width: 2.5; stroke-linejoin: miter"/>
    </g>
    <g id="line2d_13">
     <path d="M 382.836562 37.041875 
L 424.836562 37.041875 
L 466.836562 37.041875 
" style="fill: none; stroke: #f9b3ad; stroke-width: 5; stroke-linecap: square"/>
    </g>
    <g id="text_15">
     <!-- GP -->
     <g transform="translate(489.236562 46.841875) scale(0.28 -0.28)">
      <defs>
       <path id="ArialMT-47" d="M 2638 1797 
L 2638 2334 
L 4578 2338 
L 4578 638 
Q 4131 281 3656 101 
Q 3181 -78 2681 -78 
Q 2006 -78 1454 211 
Q 903 500 622 1047 
Q 341 1594 341 2269 
Q 341 2938 620 3517 
Q 900 4097 1425 4378 
Q 1950 4659 2634 4659 
Q 3131 4659 3532 4498 
Q 3934 4338 4162 4050 
Q 4391 3763 4509 3300 
L 3963 3150 
Q 3859 3500 3706 3700 
Q 3553 3900 3268 4020 
Q 2984 4141 2638 4141 
Q 2222 4141 1919 4014 
Q 1616 3888 1430 3681 
Q 1244 3475 1141 3228 
Q 966 2803 966 2306 
Q 966 1694 1177 1281 
Q 1388 869 1791 669 
Q 2194 469 2647 469 
Q 3041 469 3416 620 
Q 3791 772 3984 944 
L 3984 1797 
L 2638 1797 
z
" transform="scale(0.015625)"/>
       <path id="ArialMT-50" d="M 494 0 
L 494 4581 
L 2222 4581 
Q 2678 4581 2919 4538 
Q 3256 4481 3484 4323 
Q 3713 4166 3852 3881 
Q 3991 3597 3991 3256 
Q 3991 2672 3619 2267 
Q 3247 1863 2275 1863 
L 1100 1863 
L 1100 0 
L 494 0 
z
M 1100 2403 
L 2284 2403 
Q 2872 2403 3119 2622 
Q 3366 2841 3366 3238 
Q 3366 3525 3220 3729 
Q 3075 3934 2838 4000 
Q 2684 4041 2272 4041 
L 1100 4041 
L 1100 2403 
z
" transform="scale(0.015625)"/>
      </defs>
      <use xlink:href="#ArialMT-47"/>
      <use xlink:href="#ArialMT-50" x="77.783203"/>
     </g>
    </g>
    <g id="line2d_14">
     <path d="M 382.836562 71.04875 
L 424.836562 71.04875 
L 466.836562 71.04875 
" style="fill: none; stroke: #ccd376; stroke-width: 5; stroke-linecap: square"/>
    </g>
    <g id="text_16">
     <!-- SVR -->
     <g transform="translate(489.236562 80.84875) scale(0.28 -0.28)">
      <defs>
       <path id="ArialMT-53" d="M 288 1472 
L 859 1522 
Q 900 1178 1048 958 
Q 1197 738 1509 602 
Q 1822 466 2213 466 
Q 2559 466 2825 569 
Q 3091 672 3220 851 
Q 3350 1031 3350 1244 
Q 3350 1459 3225 1620 
Q 3100 1781 2813 1891 
Q 2628 1963 1997 2114 
Q 1366 2266 1113 2400 
Q 784 2572 623 2826 
Q 463 3081 463 3397 
Q 463 3744 659 4045 
Q 856 4347 1234 4503 
Q 1613 4659 2075 4659 
Q 2584 4659 2973 4495 
Q 3363 4331 3572 4012 
Q 3781 3694 3797 3291 
L 3216 3247 
Q 3169 3681 2898 3903 
Q 2628 4125 2100 4125 
Q 1550 4125 1298 3923 
Q 1047 3722 1047 3438 
Q 1047 3191 1225 3031 
Q 1400 2872 2139 2705 
Q 2878 2538 3153 2413 
Q 3553 2228 3743 1945 
Q 3934 1663 3934 1294 
Q 3934 928 3725 604 
Q 3516 281 3123 101 
Q 2731 -78 2241 -78 
Q 1619 -78 1198 103 
Q 778 284 539 648 
Q 300 1013 288 1472 
z
" transform="scale(0.015625)"/>
       <path id="ArialMT-56" d="M 1803 0 
L 28 4581 
L 684 4581 
L 1875 1253 
Q 2019 853 2116 503 
Q 2222 878 2363 1253 
L 3600 4581 
L 4219 4581 
L 2425 0 
L 1803 0 
z
" transform="scale(0.015625)"/>
       <path id="ArialMT-52" d="M 503 0 
L 503 4581 
L 2534 4581 
Q 3147 4581 3465 4457 
Q 3784 4334 3975 4021 
Q 4166 3709 4166 3331 
Q 4166 2844 3850 2509 
Q 3534 2175 2875 2084 
Q 3116 1969 3241 1856 
Q 3506 1613 3744 1247 
L 4541 0 
L 3778 0 
L 3172 953 
Q 2906 1366 2734 1584 
Q 2563 1803 2427 1890 
Q 2291 1978 2150 2013 
Q 2047 2034 1813 2034 
L 1109 2034 
L 1109 0 
L 503 0 
z
M 1109 2559 
L 2413 2559 
Q 2828 2559 3062 2645 
Q 3297 2731 3419 2920 
Q 3541 3109 3541 3331 
Q 3541 3656 3305 3865 
Q 3069 4075 2559 4075 
L 1109 4075 
L 1109 2559 
z
" transform="scale(0.015625)"/>
      </defs>
      <use xlink:href="#ArialMT-53"/>
      <use xlink:href="#ArialMT-56" x="66.699219"/>
      <use xlink:href="#ArialMT-52" x="133.398438"/>
     </g>
    </g>
    <g id="line2d_15">
     <path d="M 382.836562 105.055625 
L 424.836562 105.055625 
L 466.836562 105.055625 
" style="fill: none; stroke: #f5aa61; stroke-width: 5; stroke-linecap: square"/>
    </g>
    <g id="text_17">
     <!-- RF -->
     <g transform="translate(489.236562 114.855625) scale(0.28 -0.28)">
      <defs>
       <path id="ArialMT-46" d="M 525 0 
L 525 4581 
L 3616 4581 
L 3616 4041 
L 1131 4041 
L 1131 2622 
L 3281 2622 
L 3281 2081 
L 1131 2081 
L 1131 0 
L 525 0 
z
" transform="scale(0.015625)"/>
      </defs>
      <use xlink:href="#ArialMT-52"/>
      <use xlink:href="#ArialMT-46" x="72.216797"/>
     </g>
    </g>
    <g id="line2d_16">
     <path d="M 382.836562 139.40375 
L 424.836562 139.40375 
L 466.836562 139.40375 
" style="fill: none; stroke: #eb7e60; stroke-width: 5; stroke-linecap: square"/>
    </g>
    <g id="text_18">
     <!-- LightGBM -->
     <g transform="translate(489.236562 149.20375) scale(0.28 -0.28)">
      <defs>
       <path id="ArialMT-4c" d="M 469 0 
L 469 4581 
L 1075 4581 
L 1075 541 
L 3331 541 
L 3331 0 
L 469 0 
z
" transform="scale(0.015625)"/>
       <path id="ArialMT-68" d="M 422 0 
L 422 4581 
L 984 4581 
L 984 2938 
Q 1378 3394 1978 3394 
Q 2347 3394 2619 3248 
Q 2891 3103 3008 2847 
Q 3125 2591 3125 2103 
L 3125 0 
L 2563 0 
L 2563 2103 
Q 2563 2525 2380 2717 
Q 2197 2909 1863 2909 
Q 1613 2909 1392 2779 
Q 1172 2650 1078 2428 
Q 984 2206 984 1816 
L 984 0 
L 422 0 
z
" transform="scale(0.015625)"/>
       <path id="ArialMT-74" d="M 1650 503 
L 1731 6 
Q 1494 -44 1306 -44 
Q 1000 -44 831 53 
Q 663 150 594 308 
Q 525 466 525 972 
L 525 2881 
L 113 2881 
L 113 3319 
L 525 3319 
L 525 4141 
L 1084 4478 
L 1084 3319 
L 1650 3319 
L 1650 2881 
L 1084 2881 
L 1084 941 
Q 1084 700 1114 631 
Q 1144 563 1211 522 
Q 1278 481 1403 481 
Q 1497 481 1650 503 
z
" transform="scale(0.015625)"/>
       <path id="ArialMT-42" d="M 469 0 
L 469 4581 
L 2188 4581 
Q 2713 4581 3030 4442 
Q 3347 4303 3526 4014 
Q 3706 3725 3706 3409 
Q 3706 3116 3547 2856 
Q 3388 2597 3066 2438 
Q 3481 2316 3704 2022 
Q 3928 1728 3928 1328 
Q 3928 1006 3792 729 
Q 3656 453 3456 303 
Q 3256 153 2954 76 
Q 2653 0 2216 0 
L 469 0 
z
M 1075 2656 
L 2066 2656 
Q 2469 2656 2644 2709 
Q 2875 2778 2992 2937 
Q 3109 3097 3109 3338 
Q 3109 3566 3000 3739 
Q 2891 3913 2687 3977 
Q 2484 4041 1991 4041 
L 1075 4041 
L 1075 2656 
z
M 1075 541 
L 2216 541 
Q 2509 541 2628 563 
Q 2838 600 2978 687 
Q 3119 775 3209 942 
Q 3300 1109 3300 1328 
Q 3300 1584 3169 1773 
Q 3038 1963 2805 2039 
Q 2572 2116 2134 2116 
L 1075 2116 
L 1075 541 
z
" transform="scale(0.015625)"/>
       <path id="ArialMT-4d" d="M 475 0 
L 475 4581 
L 1388 4581 
L 2472 1338 
Q 2622 884 2691 659 
Q 2769 909 2934 1394 
L 4031 4581 
L 4847 4581 
L 4847 0 
L 4263 0 
L 4263 3834 
L 2931 0 
L 2384 0 
L 1059 3900 
L 1059 0 
L 475 0 
z
" transform="scale(0.015625)"/>
      </defs>
      <use xlink:href="#ArialMT-4c"/>
      <use xlink:href="#ArialMT-69" x="55.615234"/>
      <use xlink:href="#ArialMT-67" x="77.832031"/>
      <use xlink:href="#ArialMT-68" x="133.447266"/>
      <use xlink:href="#ArialMT-74" x="189.0625"/>
      <use xlink:href="#ArialMT-47" x="216.845703"/>
      <use xlink:href="#ArialMT-42" x="294.628906"/>
      <use xlink:href="#ArialMT-4d" x="361.328125"/>
     </g>
    </g>
    <g id="line2d_17">
     <path d="M 382.836562 173.73875 
L 424.836562 173.73875 
L 466.836562 173.73875 
" style="fill: none; stroke: #70cdbe; stroke-width: 5; stroke-linecap: square"/>
    </g>
    <g id="text_19">
     <!-- CatBoost -->
     <g transform="translate(489.236562 183.53875) scale(0.28 -0.28)">
      <defs>
       <path id="ArialMT-43" d="M 3763 1606 
L 4369 1453 
Q 4178 706 3683 314 
Q 3188 -78 2472 -78 
Q 1731 -78 1267 223 
Q 803 525 561 1097 
Q 319 1669 319 2325 
Q 319 3041 592 3573 
Q 866 4106 1370 4382 
Q 1875 4659 2481 4659 
Q 3169 4659 3637 4309 
Q 4106 3959 4291 3325 
L 3694 3184 
Q 3534 3684 3231 3912 
Q 2928 4141 2469 4141 
Q 1941 4141 1586 3887 
Q 1231 3634 1087 3207 
Q 944 2781 944 2328 
Q 944 1744 1114 1308 
Q 1284 872 1643 656 
Q 2003 441 2422 441 
Q 2931 441 3284 734 
Q 3638 1028 3763 1606 
z
" transform="scale(0.015625)"/>
       <path id="ArialMT-6f" d="M 213 1659 
Q 213 2581 725 3025 
Q 1153 3394 1769 3394 
Q 2453 3394 2887 2945 
Q 3322 2497 3322 1706 
Q 3322 1066 3130 698 
Q 2938 331 2570 128 
Q 2203 -75 1769 -75 
Q 1072 -75 642 372 
Q 213 819 213 1659 
z
M 791 1659 
Q 791 1022 1069 705 
Q 1347 388 1769 388 
Q 2188 388 2466 706 
Q 2744 1025 2744 1678 
Q 2744 2294 2464 2611 
Q 2184 2928 1769 2928 
Q 1347 2928 1069 2612 
Q 791 2297 791 1659 
z
" transform="scale(0.015625)"/>
      </defs>
      <use xlink:href="#ArialMT-43"/>
      <use xlink:href="#ArialMT-61" x="72.216797"/>
      <use xlink:href="#ArialMT-74" x="127.832031"/>
      <use xlink:href="#ArialMT-42" x="155.615234"/>
      <use xlink:href="#ArialMT-6f" x="222.314453"/>
      <use xlink:href="#ArialMT-6f" x="277.929688"/>
      <use xlink:href="#ArialMT-73" x="333.544922"/>
      <use xlink:href="#ArialMT-74" x="383.544922"/>
     </g>
    </g>
    <g id="line2d_18">
     <path d="M 382.836562 207.745625 
L 424.836562 207.745625 
L 466.836562 207.745625 
" style="fill: none; stroke: #8fb4dc; stroke-width: 5; stroke-linecap: square"/>
    </g>
    <g id="text_20">
     <!-- XGBoost -->
     <g transform="translate(489.236562 217.545625) scale(0.28 -0.28)">
      <defs>
       <path id="ArialMT-58" d="M 28 0 
L 1800 2388 
L 238 4581 
L 959 4581 
L 1791 3406 
Q 2050 3041 2159 2844 
Q 2313 3094 2522 3366 
L 3444 4581 
L 4103 4581 
L 2494 2422 
L 4228 0 
L 3478 0 
L 2325 1634 
Q 2228 1775 2125 1941 
Q 1972 1691 1906 1597 
L 756 0 
L 28 0 
z
" transform="scale(0.015625)"/>
      </defs>
      <use xlink:href="#ArialMT-58"/>
      <use xlink:href="#ArialMT-47" x="66.699219"/>
      <use xlink:href="#ArialMT-42" x="144.482422"/>
      <use xlink:href="#ArialMT-6f" x="211.181641"/>
      <use xlink:href="#ArialMT-6f" x="266.796875"/>
      <use xlink:href="#ArialMT-73" x="322.412109"/>
      <use xlink:href="#ArialMT-74" x="372.412109"/>
     </g>
    </g>
    <g id="line2d_19">
     <path d="M 382.836562 241.7525 
L 424.836562 241.7525 
L 466.836562 241.7525 
" style="fill: none; stroke: #ac99d2; stroke-width: 5; stroke-linecap: square"/>
    </g>
    <g id="text_21">
     <!-- MSG -->
     <g transform="translate(489.236562 251.5525) scale(0.28 -0.28)">
      <use xlink:href="#ArialMT-4d"/>
      <use xlink:href="#ArialMT-53" x="83.300781"/>
      <use xlink:href="#ArialMT-47" x="150"/>
     </g>
    </g>
   </g>
   <g id="PolyCollection_6">
    <defs>
     <path id="m7231eb2489" d="M 137.46946 -432.575226 
L 137.46946 -432.575226 
L 189.941177 -330.448245 
L 242.412895 -277.896583 
L 294.884612 -240.67835 
L 347.356329 -209.388429 
L 399.828046 -182.956534 
L 452.299763 -155.081846 
L 504.77148 -138.41903 
L 557.243198 -123.275181 
L 609.714915 -99.673764 
L 609.714915 -99.673764 
L 609.714915 -99.673764 
L 557.243198 -123.275181 
L 504.77148 -138.41903 
L 452.299763 -155.081846 
L 399.828046 -182.956534 
L 347.356329 -209.388429 
L 294.884612 -240.67835 
L 242.412895 -277.896583 
L 189.941177 -330.448245 
L 137.46946 -432.575226 
z
" style="stroke: #70cdbe; stroke-opacity: 0.2"/>
    </defs>
    <g clip-path="url(#pab0f10bb24)">
     <use xlink:href="#m7231eb2489" x="0" y="568.969219" style="fill: #70cdbe; fill-opacity: 0.2; stroke: #70cdbe; stroke-opacity: 0.2"/>
    </g>
   </g>
   <g id="PolyCollection_7">
    <defs>
     <path id="m8349838d72" d="M 137.46946 -493.625082 
L 137.46946 -441.037068 
L 189.941177 -257.223172 
L 242.412895 -227.495851 
L 294.884612 -197.751884 
L 347.356329 -183.313939 
L 399.828046 -163.315511 
L 452.299763 -160.081647 
L 504.77148 -137.965945 
L 557.243198 -123.605176 
L 609.714915 -110.411694 
L 609.714915 -116.004298 
L 609.714915 -116.004298 
L 557.243198 -136.205059 
L 504.77148 -147.456143 
L 452.299763 -170.110365 
L 399.828046 -176.361835 
L 347.356329 -205.715921 
L 294.884612 -212.132147 
L 242.412895 -246.43877 
L 189.941177 -302.887743 
L 137.46946 -493.625082 
z
" style="stroke: #ac99d2; stroke-opacity: 0.2"/>
    </defs>
    <g clip-path="url(#pab0f10bb24)">
     <use xlink:href="#m8349838d72" x="0" y="568.969219" style="fill: #ac99d2; fill-opacity: 0.2; stroke: #ac99d2; stroke-opacity: 0.2"/>
    </g>
   </g>
   <g id="line2d_20">
    <path d="M 137.46946 145.049415 
L 189.941177 244.018786 
L 242.412895 280.329487 
L 294.884612 305.585083 
L 347.356329 320.807828 
L 399.828046 322.067146 
L 452.299763 329.991453 
L 504.77148 339.549472 
L 557.243198 345.190898 
L 609.714915 355.590366 
" clip-path="url(#pab0f10bb24)" style="fill: none; stroke: #f9b3ad; stroke-width: 5; stroke-linecap: square"/>
   </g>
   <g id="line2d_21">
    <path d="M 137.46946 132.657928 
L 189.941177 206.933401 
L 242.412895 239.390938 
L 294.884612 266.99101 
L 347.356329 291.371129 
L 399.828046 305.012704 
L 452.299763 313.926048 
L 504.77148 324.446246 
L 557.243198 329.851738 
L 609.714915 341.273997 
" clip-path="url(#pab0f10bb24)" style="fill: none; stroke: #ccd376; stroke-width: 5; stroke-linecap: square"/>
   </g>
   <g id="line2d_22">
    <path d="M 137.46946 50.881631 
L 189.941177 48.061839 
L 242.412895 47.293544 
L 294.884612 50.002889 
L 347.356329 270.584288 
L 399.828046 295.065379 
L 452.299763 321.868267 
L 504.77148 347.075808 
L 557.243198 372.311441 
L 609.714915 394.182141 
" clip-path="url(#pab0f10bb24)" style="fill: none; stroke: #eb7e60; stroke-width: 5; stroke-linecap: square"/>
   </g>
   <g id="line2d_23">
    <path d="M 137.46946 83.633414 
L 189.941177 241.740798 
L 242.412895 298.5297 
L 294.884612 329.793074 
L 347.356329 343.799966 
L 399.828046 362.561575 
L 452.299763 371.962433 
L 504.77148 391.722181 
L 557.243198 407.37925 
L 609.714915 416.5199 
" clip-path="url(#pab0f10bb24)" style="fill: none; stroke: #f5aa61; stroke-width: 5; stroke-linecap: square"/>
   </g>
   <g id="line2d_24">
    <path d="M 137.46946 29.204545 
L 189.941177 243.761577 
L 242.412895 291.588807 
L 294.884612 327.395074 
L 347.356329 349.080731 
L 399.828046 366.719534 
L 452.299763 387.491662 
L 504.77148 400.081964 
L 557.243198 415.379906 
L 609.714915 428.432463 
" clip-path="url(#pab0f10bb24)" style="fill: none; stroke: #8fb4dc; stroke-width: 5; stroke-linecap: square"/>
   </g>
   <g id="line2d_25">
    <path d="M 137.46946 136.393992 
L 189.941177 238.520974 
L 242.412895 291.072636 
L 294.884612 328.290868 
L 347.356329 359.58079 
L 399.828046 386.012684 
L 452.299763 413.887373 
L 504.77148 430.550189 
L 557.243198 445.694038 
L 609.714915 469.295455 
" clip-path="url(#pab0f10bb24)" style="fill: none; stroke: #70cdbe; stroke-width: 5; stroke-linecap: square"/>
   </g>
   <g id="line2d_26">
    <path d="M 137.46946 101.638143 
L 189.941177 288.913761 
L 242.412895 332.001908 
L 294.884612 364.027203 
L 347.356329 374.454289 
L 399.828046 399.130546 
L 452.299763 403.873213 
L 504.77148 426.258175 
L 557.243198 439.064101 
L 609.714915 455.761223 
" clip-path="url(#pab0f10bb24)" style="fill: none; stroke: #ac99d2; stroke-width: 5; stroke-linecap: square"/>
   </g>
  </g>
 </g>
 <defs>
  <clipPath id="pab0f10bb24">
   <rect x="113.857188" y="7.2" width="519.47" height="484.1"/>
  </clipPath>
 </defs>
</svg>
