<?xml version="1.0" encoding="utf-8" standalone="no"?>
<!DOCTYPE svg PUBLIC "-//W3C//DTD SVG 1.1//EN"
  "http://www.w3.org/Graphics/SVG/1.1/DTD/svg11.dtd">
<svg xmlns:xlink="http://www.w3.org/1999/xlink" width="425.832891pt" height="404.405049pt" viewBox="0 0 425.832891 404.405049" xmlns="http://www.w3.org/2000/svg" version="1.1">
 <metadata>
  <rdf:RDF xmlns:dc="http://purl.org/dc/elements/1.1/" xmlns:cc="http://creativecommons.org/ns#" xmlns:rdf="http://www.w3.org/1999/02/22-rdf-syntax-ns#">
   <cc:Work>
    <dc:type rdf:resource="http://purl.org/dc/dcmitype/StillImage"/>
    <dc:date>2026-05-07T15:50:16.143657</dc:date>
    <dc:format>image/svg+xml</dc:format>
    <dc:creator>
     <cc:Agent>
      <dc:title>Matplotlib v3.9.2, https://matplotlib.org/</dc:title>
     </cc:Agent>
    </dc:creator>
   </cc:Work>
  </rdf:RDF>
 </metadata>
 <defs>
  <style type="text/css">*{stroke-linejoin: round; stroke-linecap: butt}</style>
 </defs>
 <g id="figure_1">
  <g id="patch_1">
   <path d="M 0 404.405049 
L 425.832891 404.405049 
L 425.832891 0 
L 0 0 
z
" style="fill: #ffffff"/>
  </g>
  <g id="axes_1">
   <g id="patch_2">
    <path d="M 374.62 202.202524 
C 374.62 178.077948 369.867985 154.187953 360.635909 131.899751 
C 351.403833 109.611549 337.871238 89.358589 320.812587 72.299938 
C 303.753935 55.241286 283.500976 41.708691 261.212773 32.476616 
C 238.924571 23.24454 215.034576 18.492524 190.91 18.492524 
C 166.785424 18.492524 142.895429 23.24454 120.607227 32.476616 
C 98.319024 41.708691 78.066065 55.241286 61.007413 72.299938 
C 43.948762 89.358589 30.416167 109.611549 21.184091 131.899751 
C 11.952015 154.187953 7.2 178.077948 7.2 202.202524 
C 7.2 226.327101 11.952015 250.217096 21.184091 272.505298 
C 30.416167 294.7935 43.948762 315.04646 61.007413 332.105111 
C 78.066065 349.163763 98.319024 362.696358 120.607227 371.928433 
C 142.895429 381.160509 166.785424 385.912524 190.91 385.912524 
C 215.034576 385.912524 238.924571 381.160509 261.212773 371.928433 
C 283.500976 362.696358 303.753935 349.163763 320.812587 332.105111 
C 337.871238 315.04646 351.403833 294.7935 360.635909 272.505298 
C 369.867985 250.217096 374.62 226.327101 374.62 202.202524 
M 190.91 202.202524 
C 190.91 202.202524 190.91 202.202524 190.91 202.202524 
C 190.91 202.202524 190.91 202.202524 190.91 202.202524 
C 190.91 202.202524 190.91 202.202524 190.91 202.202524 
C 190.91 202.202524 190.91 202.202524 190.91 202.202524 
C 190.91 202.202524 190.91 202.202524 190.91 202.202524 
C 190.91 202.202524 190.91 202.202524 190.91 202.202524 
C 190.91 202.202524 190.91 202.202524 190.91 202.202524 
C 190.91 202.202524 190.91 202.202524 190.91 202.202524 
C 190.91 202.202524 190.91 202.202524 190.91 202.202524 
C 190.91 202.202524 190.91 202.202524 190.91 202.202524 
C 190.91 202.202524 190.91 202.202524 190.91 202.202524 
C 190.91 202.202524 190.91 202.202524 190.91 202.202524 
C 190.91 202.202524 190.91 202.202524 190.91 202.202524 
C 190.91 202.202524 190.91 202.202524 190.91 202.202524 
C 190.91 202.202524 190.91 202.202524 190.91 202.202524 
C 190.91 202.202524 190.91 202.202524 190.91 202.202524 
z
" style="fill: #ffffff"/>
   </g>
   <g id="matplotlib.axis_1">
    <g id="xtick_1">
     <g id="line2d_1">
      <path d="M 190.91 202.202524 
L 374.62 202.202524 
" clip-path="url(#p83b8178d76)" style="fill: none; stroke: #b0b0b0; stroke-width: 0.8; stroke-linecap: square"/>
     </g>
     <g id="text_1">
      <!-- sigma2_i -->
      <g transform="translate(358.607109 206.014634) scale(0.15 -0.15)">
       <defs>
        <path id="ArialMT-73" d="M 197 991 
L 753 1078 
Q 800 744 1014 566 
Q 1228 388 1613 388 
Q 2000 388 2187 545 
Q 2375 703 2375 916 
Q 2375 1106 2209 1216 
Q 2094 1291 1634 1406 
Q 1016 1563 777 1677 
Q 538 1791 414 1992 
Q 291 2194 291 2438 
Q 291 2659 392 2848 
Q 494 3038 669 3163 
Q 800 3259 1026 3326 
Q 1253 3394 1513 3394 
Q 1903 3394 2198 3281 
Q 2494 3169 2634 2976 
Q 2775 2784 2828 2463 
L 2278 2388 
Q 2241 2644 2061 2787 
Q 1881 2931 1553 2931 
Q 1166 2931 1000 2803 
Q 834 2675 834 2503 
Q 834 2394 903 2306 
Q 972 2216 1119 2156 
Q 1203 2125 1616 2013 
Q 2213 1853 2448 1751 
Q 2684 1650 2818 1456 
Q 2953 1263 2953 975 
Q 2953 694 2789 445 
Q 2625 197 2315 61 
Q 2006 -75 1616 -75 
Q 969 -75 630 194 
Q 291 463 197 991 
z
" transform="scale(0.015625)"/>
        <path id="ArialMT-69" d="M 425 3934 
L 425 4581 
L 988 4581 
L 988 3934 
L 425 3934 
z
M 425 0 
L 425 3319 
L 988 3319 
L 988 0 
L 425 0 
z
" transform="scale(0.015625)"/>
        <path id="ArialMT-67" d="M 319 -275 
L 866 -356 
Q 900 -609 1056 -725 
Q 1266 -881 1628 -881 
Q 2019 -881 2231 -725 
Q 2444 -569 2519 -288 
Q 2563 -116 2559 434 
Q 2191 0 1641 0 
Q 956 0 581 494 
Q 206 988 206 1678 
Q 206 2153 378 2554 
Q 550 2956 876 3175 
Q 1203 3394 1644 3394 
Q 2231 3394 2613 2919 
L 2613 3319 
L 3131 3319 
L 3131 450 
Q 3131 -325 2973 -648 
Q 2816 -972 2473 -1159 
Q 2131 -1347 1631 -1347 
Q 1038 -1347 672 -1080 
Q 306 -813 319 -275 
z
M 784 1719 
Q 784 1066 1043 766 
Q 1303 466 1694 466 
Q 2081 466 2343 764 
Q 2606 1063 2606 1700 
Q 2606 2309 2336 2618 
Q 2066 2928 1684 2928 
Q 1309 2928 1046 2623 
Q 784 2319 784 1719 
z
" transform="scale(0.015625)"/>
        <path id="ArialMT-6d" d="M 422 0 
L 422 3319 
L 925 3319 
L 925 2853 
Q 1081 3097 1340 3245 
Q 1600 3394 1931 3394 
Q 2300 3394 2536 3241 
Q 2772 3088 2869 2813 
Q 3263 3394 3894 3394 
Q 4388 3394 4653 3120 
Q 4919 2847 4919 2278 
L 4919 0 
L 4359 0 
L 4359 2091 
Q 4359 2428 4304 2576 
Q 4250 2725 4106 2815 
Q 3963 2906 3769 2906 
Q 3419 2906 3187 2673 
Q 2956 2441 2956 1928 
L 2956 0 
L 2394 0 
L 2394 2156 
Q 2394 2531 2256 2718 
Q 2119 2906 1806 2906 
Q 1569 2906 1367 2781 
Q 1166 2656 1075 2415 
Q 984 2175 984 1722 
L 984 0 
L 422 0 
z
" transform="scale(0.015625)"/>
        <path id="ArialMT-61" d="M 2588 409 
Q 2275 144 1986 34 
Q 1697 -75 1366 -75 
Q 819 -75 525 192 
Q 231 459 231 875 
Q 231 1119 342 1320 
Q 453 1522 633 1644 
Q 813 1766 1038 1828 
Q 1203 1872 1538 1913 
Q 2219 1994 2541 2106 
Q 2544 2222 2544 2253 
Q 2544 2597 2384 2738 
Q 2169 2928 1744 2928 
Q 1347 2928 1158 2789 
Q 969 2650 878 2297 
L 328 2372 
Q 403 2725 575 2942 
Q 747 3159 1072 3276 
Q 1397 3394 1825 3394 
Q 2250 3394 2515 3294 
Q 2781 3194 2906 3042 
Q 3031 2891 3081 2659 
Q 3109 2516 3109 2141 
L 3109 1391 
Q 3109 606 3145 398 
Q 3181 191 3288 0 
L 2700 0 
Q 2613 175 2588 409 
z
M 2541 1666 
Q 2234 1541 1622 1453 
Q 1275 1403 1131 1340 
Q 988 1278 909 1158 
Q 831 1038 831 891 
Q 831 666 1001 516 
Q 1172 366 1500 366 
Q 1825 366 2078 508 
Q 2331 650 2450 897 
Q 2541 1088 2541 1459 
L 2541 1666 
z
" transform="scale(0.015625)"/>
        <path id="ArialMT-32" d="M 3222 541 
L 3222 0 
L 194 0 
Q 188 203 259 391 
Q 375 700 629 1000 
Q 884 1300 1366 1694 
Q 2113 2306 2375 2664 
Q 2638 3022 2638 3341 
Q 2638 3675 2398 3904 
Q 2159 4134 1775 4134 
Q 1369 4134 1125 3890 
Q 881 3647 878 3216 
L 300 3275 
Q 359 3922 746 4261 
Q 1134 4600 1788 4600 
Q 2447 4600 2831 4234 
Q 3216 3869 3216 3328 
Q 3216 3053 3103 2787 
Q 2991 2522 2730 2228 
Q 2469 1934 1863 1422 
Q 1356 997 1212 845 
Q 1069 694 975 541 
L 3222 541 
z
" transform="scale(0.015625)"/>
        <path id="ArialMT-5f" d="M -97 -1272 
L -97 -866 
L 3631 -866 
L 3631 -1272 
L -97 -1272 
z
" transform="scale(0.015625)"/>
       </defs>
       <use xlink:href="#ArialMT-73"/>
       <use xlink:href="#ArialMT-69" x="50"/>
       <use xlink:href="#ArialMT-67" x="72.216797"/>
       <use xlink:href="#ArialMT-6d" x="127.832031"/>
       <use xlink:href="#ArialMT-61" x="211.132812"/>
       <use xlink:href="#ArialMT-32" x="266.748047"/>
       <use xlink:href="#ArialMT-5f" x="322.363281"/>
       <use xlink:href="#ArialMT-69" x="377.978516"/>
      </g>
     </g>
    </g>
    <g id="xtick_2">
     <g id="line2d_2">
      <path d="M 190.91 202.202524 
L 247.679512 27.483932 
" clip-path="url(#p83b8178d76)" style="fill: none; stroke: #b0b0b0; stroke-width: 0.8; stroke-linecap: square"/>
     </g>
     <g id="text_2">
      <!-- sigma2_0 -->
      <g transform="translate(219.488562 17.98125) scale(0.15 -0.15)">
       <defs>
        <path id="ArialMT-30" d="M 266 2259 
Q 266 3072 433 3567 
Q 600 4063 929 4331 
Q 1259 4600 1759 4600 
Q 2128 4600 2406 4451 
Q 2684 4303 2865 4023 
Q 3047 3744 3150 3342 
Q 3253 2941 3253 2259 
Q 3253 1453 3087 958 
Q 2922 463 2592 192 
Q 2263 -78 1759 -78 
Q 1097 -78 719 397 
Q 266 969 266 2259 
z
M 844 2259 
Q 844 1131 1108 757 
Q 1372 384 1759 384 
Q 2147 384 2411 759 
Q 2675 1134 2675 2259 
Q 2675 3391 2411 3762 
Q 2147 4134 1753 4134 
Q 1366 4134 1134 3806 
Q 844 3388 844 2259 
z
" transform="scale(0.015625)"/>
       </defs>
       <use xlink:href="#ArialMT-73"/>
       <use xlink:href="#ArialMT-69" x="50"/>
       <use xlink:href="#ArialMT-67" x="72.216797"/>
       <use xlink:href="#ArialMT-6d" x="127.832031"/>
       <use xlink:href="#ArialMT-61" x="211.132812"/>
       <use xlink:href="#ArialMT-32" x="266.748047"/>
       <use xlink:href="#ArialMT-5f" x="322.363281"/>
       <use xlink:href="#ArialMT-30" x="377.978516"/>
      </g>
     </g>
    </g>
    <g id="xtick_3">
     <g id="line2d_3">
      <path d="M 190.91 202.202524 
L 42.285488 94.220496 
" clip-path="url(#p83b8178d76)" style="fill: none; stroke: #b0b0b0; stroke-width: 0.8; stroke-linecap: square"/>
     </g>
     <g id="text_3">
      <!-- alpha -->
      <g transform="translate(12.610031 89.869237) scale(0.15 -0.15)">
       <defs>
        <path id="ArialMT-6c" d="M 409 0 
L 409 4581 
L 972 4581 
L 972 0 
L 409 0 
z
" transform="scale(0.015625)"/>
        <path id="ArialMT-70" d="M 422 -1272 
L 422 3319 
L 934 3319 
L 934 2888 
Q 1116 3141 1344 3267 
Q 1572 3394 1897 3394 
Q 2322 3394 2647 3175 
Q 2972 2956 3137 2557 
Q 3303 2159 3303 1684 
Q 3303 1175 3120 767 
Q 2938 359 2589 142 
Q 2241 -75 1856 -75 
Q 1575 -75 1351 44 
Q 1128 163 984 344 
L 984 -1272 
L 422 -1272 
z
M 931 1641 
Q 931 1000 1190 694 
Q 1450 388 1819 388 
Q 2194 388 2461 705 
Q 2728 1022 2728 1688 
Q 2728 2322 2467 2637 
Q 2206 2953 1844 2953 
Q 1484 2953 1207 2617 
Q 931 2281 931 1641 
z
" transform="scale(0.015625)"/>
        <path id="ArialMT-68" d="M 422 0 
L 422 4581 
L 984 4581 
L 984 2938 
Q 1378 3394 1978 3394 
Q 2347 3394 2619 3248 
Q 2891 3103 3008 2847 
Q 3125 2591 3125 2103 
L 3125 0 
L 2563 0 
L 2563 2103 
Q 2563 2525 2380 2717 
Q 2197 2909 1863 2909 
Q 1613 2909 1392 2779 
Q 1172 2650 1078 2428 
Q 984 2206 984 1816 
L 984 0 
L 422 0 
z
" transform="scale(0.015625)"/>
       </defs>
       <use xlink:href="#ArialMT-61"/>
       <use xlink:href="#ArialMT-6c" x="55.615234"/>
       <use xlink:href="#ArialMT-70" x="77.832031"/>
       <use xlink:href="#ArialMT-68" x="133.447266"/>
       <use xlink:href="#ArialMT-61" x="189.0625"/>
      </g>
     </g>
    </g>
    <g id="xtick_4">
     <g id="line2d_4">
      <path d="M 190.91 202.202524 
L 42.285488 310.184553 
" clip-path="url(#p83b8178d76)" style="fill: none; stroke: #b0b0b0; stroke-width: 0.8; stroke-linecap: square"/>
     </g>
     <g id="text_4">
      <!-- Q_D -->
      <g transform="translate(15.538547 322.387375) scale(0.15 -0.15)">
       <defs>
        <path id="ArialMT-51" d="M 3966 491 
Q 4388 200 4744 66 
L 4566 -356 
Q 4072 -178 3581 206 
Q 3072 -78 2456 -78 
Q 1834 -78 1328 222 
Q 822 522 548 1065 
Q 275 1609 275 2291 
Q 275 2969 550 3525 
Q 825 4081 1333 4372 
Q 1841 4663 2469 4663 
Q 3103 4663 3612 4361 
Q 4122 4059 4389 3517 
Q 4656 2975 4656 2294 
Q 4656 1728 4484 1276 
Q 4313 825 3966 491 
z
M 2631 1266 
Q 3156 1119 3497 828 
Q 4031 1316 4031 2294 
Q 4031 2850 3842 3265 
Q 3653 3681 3289 3911 
Q 2925 4141 2472 4141 
Q 1794 4141 1347 3677 
Q 900 3213 900 2291 
Q 900 1397 1342 919 
Q 1784 441 2472 441 
Q 2797 441 3084 563 
Q 2800 747 2484 825 
L 2631 1266 
z
" transform="scale(0.015625)"/>
        <path id="ArialMT-44" d="M 494 0 
L 494 4581 
L 2072 4581 
Q 2606 4581 2888 4516 
Q 3281 4425 3559 4188 
Q 3922 3881 4101 3404 
Q 4281 2928 4281 2316 
Q 4281 1794 4159 1391 
Q 4038 988 3847 723 
Q 3656 459 3429 307 
Q 3203 156 2883 78 
Q 2563 0 2147 0 
L 494 0 
z
M 1100 541 
L 2078 541 
Q 2531 541 2789 625 
Q 3047 709 3200 863 
Q 3416 1078 3536 1442 
Q 3656 1806 3656 2325 
Q 3656 3044 3420 3430 
Q 3184 3816 2847 3947 
Q 2603 4041 2063 4041 
L 1100 4041 
L 1100 541 
z
" transform="scale(0.015625)"/>
       </defs>
       <use xlink:href="#ArialMT-51"/>
       <use xlink:href="#ArialMT-5f" x="77.783203"/>
       <use xlink:href="#ArialMT-44" x="133.398438"/>
      </g>
     </g>
    </g>
    <g id="xtick_5">
     <g id="line2d_5">
      <path d="M 190.91 202.202524 
L 247.679512 376.921117 
" clip-path="url(#p83b8178d76)" style="fill: none; stroke: #b0b0b0; stroke-width: 0.8; stroke-linecap: square"/>
     </g>
     <g id="text_5">
      <!-- log2_over_omega -->
      <g transform="translate(191.967078 394.048018) scale(0.15 -0.15)">
       <defs>
        <path id="ArialMT-6f" d="M 213 1659 
Q 213 2581 725 3025 
Q 1153 3394 1769 3394 
Q 2453 3394 2887 2945 
Q 3322 2497 3322 1706 
Q 3322 1066 3130 698 
Q 2938 331 2570 128 
Q 2203 -75 1769 -75 
Q 1072 -75 642 372 
Q 213 819 213 1659 
z
M 791 1659 
Q 791 1022 1069 705 
Q 1347 388 1769 388 
Q 2188 388 2466 706 
Q 2744 1025 2744 1678 
Q 2744 2294 2464 2611 
Q 2184 2928 1769 2928 
Q 1347 2928 1069 2612 
Q 791 2297 791 1659 
z
" transform="scale(0.015625)"/>
        <path id="ArialMT-76" d="M 1344 0 
L 81 3319 
L 675 3319 
L 1388 1331 
Q 1503 1009 1600 663 
Q 1675 925 1809 1294 
L 2547 3319 
L 3125 3319 
L 1869 0 
L 1344 0 
z
" transform="scale(0.015625)"/>
        <path id="ArialMT-65" d="M 2694 1069 
L 3275 997 
Q 3138 488 2766 206 
Q 2394 -75 1816 -75 
Q 1088 -75 661 373 
Q 234 822 234 1631 
Q 234 2469 665 2931 
Q 1097 3394 1784 3394 
Q 2450 3394 2872 2941 
Q 3294 2488 3294 1666 
Q 3294 1616 3291 1516 
L 816 1516 
Q 847 969 1125 678 
Q 1403 388 1819 388 
Q 2128 388 2347 550 
Q 2566 713 2694 1069 
z
M 847 1978 
L 2700 1978 
Q 2663 2397 2488 2606 
Q 2219 2931 1791 2931 
Q 1403 2931 1139 2672 
Q 875 2413 847 1978 
z
" transform="scale(0.015625)"/>
        <path id="ArialMT-72" d="M 416 0 
L 416 3319 
L 922 3319 
L 922 2816 
Q 1116 3169 1280 3281 
Q 1444 3394 1641 3394 
Q 1925 3394 2219 3213 
L 2025 2691 
Q 1819 2813 1613 2813 
Q 1428 2813 1281 2702 
Q 1134 2591 1072 2394 
Q 978 2094 978 1738 
L 978 0 
L 416 0 
z
" transform="scale(0.015625)"/>
       </defs>
       <use xlink:href="#ArialMT-6c"/>
       <use xlink:href="#ArialMT-6f" x="22.216797"/>
       <use xlink:href="#ArialMT-67" x="77.832031"/>
       <use xlink:href="#ArialMT-32" x="133.447266"/>
       <use xlink:href="#ArialMT-5f" x="189.0625"/>
       <use xlink:href="#ArialMT-6f" x="244.677734"/>
       <use xlink:href="#ArialMT-76" x="300.292969"/>
       <use xlink:href="#ArialMT-65" x="350.292969"/>
       <use xlink:href="#ArialMT-72" x="405.908203"/>
       <use xlink:href="#ArialMT-5f" x="439.208984"/>
       <use xlink:href="#ArialMT-6f" x="494.824219"/>
       <use xlink:href="#ArialMT-6d" x="550.439453"/>
       <use xlink:href="#ArialMT-65" x="633.740234"/>
       <use xlink:href="#ArialMT-67" x="689.355469"/>
       <use xlink:href="#ArialMT-61" x="744.970703"/>
      </g>
     </g>
    </g>
   </g>
   <g id="matplotlib.axis_2">
    <g id="ytick_1">
     <g id="line2d_6">
      <path d="M 190.91 202.202524 
C 190.91 202.202524 190.91 202.202524 190.91 202.202524 
C 190.91 202.202524 190.91 202.202524 190.91 202.202524 
C 190.91 202.202524 190.91 202.202524 190.91 202.202524 
C 190.91 202.202524 190.91 202.202524 190.91 202.202524 
C 190.91 202.202524 190.91 202.202524 190.91 202.202524 
C 190.91 202.202524 190.91 202.202524 190.91 202.202524 
C 190.91 202.202524 190.91 202.202524 190.91 202.202524 
C 190.91 202.202524 190.91 202.202524 190.91 202.202524 
C 190.91 202.202524 190.91 202.202524 190.91 202.202524 
C 190.91 202.202524 190.91 202.202524 190.91 202.202524 
C 190.91 202.202524 190.91 202.202524 190.91 202.202524 
C 190.91 202.202524 190.91 202.202524 190.91 202.202524 
C 190.91 202.202524 190.91 202.202524 190.91 202.202524 
C 190.91 202.202524 190.91 202.202524 190.91 202.202524 
C 190.91 202.202524 190.91 202.202524 190.91 202.202524 
C 190.91 202.202524 190.91 202.202524 190.91 202.202524 
" clip-path="url(#p83b8178d76)" style="fill: none; stroke: #b0b0b0; stroke-width: 0.8; stroke-linecap: square"/>
     </g>
     <g id="text_6">
      <!-- 0.0 -->
      <g transform="translate(190.91 199.817524) scale(0.12 -0.12)">
       <defs>
        <path id="ArialMT-2e" d="M 581 0 
L 581 641 
L 1222 641 
L 1222 0 
L 581 0 
z
" transform="scale(0.015625)"/>
       </defs>
       <use xlink:href="#ArialMT-30"/>
       <use xlink:href="#ArialMT-2e" x="55.615234"/>
       <use xlink:href="#ArialMT-30" x="83.398438"/>
      </g>
     </g>
    </g>
    <g id="ytick_2">
     <g id="line2d_7">
      <path d="M 234.6686 202.202524 
C 234.6686 196.456198 233.536699 190.765747 231.337675 185.456833 
C 229.138651 180.14792 225.915269 175.323789 221.852002 171.260522 
C 217.788736 167.197255 212.964605 163.973874 207.655691 161.77485 
C 202.346778 159.575826 196.656327 158.443925 190.91 158.443925 
C 185.163673 158.443925 179.473222 159.575826 174.164309 161.77485 
C 168.855395 163.973874 164.031264 167.197255 159.967998 171.260522 
C 155.904731 175.323789 152.681349 180.14792 150.482325 185.456833 
C 148.283301 190.765747 147.1514 196.456198 147.1514 202.202524 
C 147.1514 207.948851 148.283301 213.639302 150.482325 218.948216 
C 152.681349 224.257129 155.904731 229.08126 159.967998 233.144527 
C 164.031264 237.207793 168.855395 240.431175 174.164309 242.630199 
C 179.473222 244.829223 185.163673 245.961124 190.91 245.961124 
C 196.656327 245.961124 202.346778 244.829223 207.655691 242.630199 
C 212.964605 240.431175 217.788736 237.207793 221.852002 233.144527 
C 225.915269 229.08126 229.138651 224.257129 231.337675 218.948216 
C 233.536699 213.639302 234.6686 207.948851 234.6686 202.202524 
" clip-path="url(#p83b8178d76)" style="fill: none; stroke: #b0b0b0; stroke-width: 0.8; stroke-linecap: square"/>
     </g>
     <g id="text_7">
      <!-- 0.25 -->
      <g transform="translate(231.337675 183.071833) scale(0.12 -0.12)">
       <defs>
        <path id="ArialMT-35" d="M 266 1200 
L 856 1250 
Q 922 819 1161 601 
Q 1400 384 1738 384 
Q 2144 384 2425 690 
Q 2706 997 2706 1503 
Q 2706 1984 2436 2262 
Q 2166 2541 1728 2541 
Q 1456 2541 1237 2417 
Q 1019 2294 894 2097 
L 366 2166 
L 809 4519 
L 3088 4519 
L 3088 3981 
L 1259 3981 
L 1013 2750 
Q 1425 3038 1878 3038 
Q 2478 3038 2890 2622 
Q 3303 2206 3303 1553 
Q 3303 931 2941 478 
Q 2500 -78 1738 -78 
Q 1113 -78 717 272 
Q 322 622 266 1200 
z
" transform="scale(0.015625)"/>
       </defs>
       <use xlink:href="#ArialMT-30"/>
       <use xlink:href="#ArialMT-2e" x="55.615234"/>
       <use xlink:href="#ArialMT-32" x="83.398438"/>
       <use xlink:href="#ArialMT-35" x="139.013672"/>
      </g>
     </g>
    </g>
    <g id="ytick_3">
     <g id="line2d_8">
      <path d="M 278.427199 202.202524 
C 278.427199 190.709871 276.163397 179.328969 271.765349 168.711142 
C 267.367301 158.093315 260.920538 148.445053 252.794005 140.318519 
C 244.667472 132.191986 235.019209 125.745223 224.401382 121.347175 
C 213.783555 116.949127 202.402653 114.685325 190.91 114.685325 
C 179.417347 114.685325 168.036445 116.949127 157.418618 121.347175 
C 146.800791 125.745223 137.152528 132.191986 129.025995 140.318519 
C 120.899462 148.445053 114.452699 158.093315 110.054651 168.711142 
C 105.656603 179.328969 103.392801 190.709871 103.392801 202.202524 
C 103.392801 213.695178 105.656603 225.076079 110.054651 235.693907 
C 114.452699 246.311734 120.899462 255.959996 129.025995 264.086529 
C 137.152528 272.213063 146.800791 278.659826 157.418618 283.057874 
C 168.036445 287.455922 179.417347 289.719724 190.91 289.719724 
C 202.402653 289.719724 213.783555 287.455922 224.401382 283.057874 
C 235.019209 278.659826 244.667472 272.213063 252.794005 264.086529 
C 260.920538 255.959996 267.367301 246.311734 271.765349 235.693907 
C 276.163397 225.076079 278.427199 213.695178 278.427199 202.202524 
" clip-path="url(#p83b8178d76)" style="fill: none; stroke: #b0b0b0; stroke-width: 0.8; stroke-linecap: square"/>
     </g>
     <g id="text_8">
      <!-- 0.5 -->
      <g transform="translate(271.765349 166.326142) scale(0.12 -0.12)">
       <use xlink:href="#ArialMT-30"/>
       <use xlink:href="#ArialMT-2e" x="55.615234"/>
       <use xlink:href="#ArialMT-35" x="83.398438"/>
      </g>
     </g>
    </g>
    <g id="ytick_4">
     <g id="line2d_9">
      <path d="M 322.185799 202.202524 
C 322.185799 184.963545 318.790096 167.892192 312.193024 151.965451 
C 305.595952 136.03871 295.925807 121.566317 283.736007 109.376517 
C 271.546208 97.186717 257.073814 87.516573 241.147073 80.919501 
C 225.220333 74.322429 208.14898 70.926726 190.91 70.926726 
C 173.67102 70.926726 156.599667 74.322429 140.672927 80.919501 
C 124.746186 87.516573 110.273792 97.186717 98.083993 109.376517 
C 85.894193 121.566317 76.224048 136.03871 69.626976 151.965451 
C 63.029904 167.892192 59.634201 184.963545 59.634201 202.202524 
C 59.634201 219.441504 63.029904 236.512857 69.626976 252.439598 
C 76.224048 268.366338 85.894193 282.838732 98.083993 295.028532 
C 110.273792 307.218332 124.746186 316.888476 140.672927 323.485548 
C 156.599667 330.08262 173.67102 333.478323 190.91 333.478323 
C 208.14898 333.478323 225.220333 330.08262 241.147073 323.485548 
C 257.073814 316.888476 271.546208 307.218332 283.736007 295.028532 
C 295.925807 282.838732 305.595952 268.366338 312.193024 252.439598 
C 318.790096 236.512857 322.185799 219.441504 322.185799 202.202524 
" clip-path="url(#p83b8178d76)" style="fill: none; stroke: #b0b0b0; stroke-width: 0.8; stroke-linecap: square"/>
     </g>
     <g id="text_9">
      <!-- 0.75 -->
      <g transform="translate(312.193024 149.580451) scale(0.12 -0.12)">
       <defs>
        <path id="ArialMT-37" d="M 303 3981 
L 303 4522 
L 3269 4522 
L 3269 4084 
Q 2831 3619 2401 2847 
Q 1972 2075 1738 1259 
Q 1569 684 1522 0 
L 944 0 
Q 953 541 1156 1306 
Q 1359 2072 1739 2783 
Q 2119 3494 2547 3981 
L 303 3981 
z
" transform="scale(0.015625)"/>
       </defs>
       <use xlink:href="#ArialMT-30"/>
       <use xlink:href="#ArialMT-2e" x="55.615234"/>
       <use xlink:href="#ArialMT-37" x="83.398438"/>
       <use xlink:href="#ArialMT-35" x="139.013672"/>
      </g>
     </g>
    </g>
    <g id="ytick_5">
     <g id="line2d_10">
      <path d="M 365.944398 202.202524 
C 365.944398 179.217218 361.416794 156.455414 352.620698 135.21976 
C 343.824602 113.984106 330.931076 94.687581 314.67801 78.434514 
C 298.424944 62.181448 279.128419 49.287922 257.892764 40.491826 
C 236.65711 31.69573 213.895307 27.168126 190.91 27.168126 
C 167.924693 27.168126 145.16289 31.69573 123.927236 40.491826 
C 102.691581 49.287922 83.395056 62.181448 67.14199 78.434514 
C 50.888924 94.687581 37.995398 113.984106 29.199302 135.21976 
C 20.403206 156.455414 15.875602 179.217218 15.875602 202.202524 
C 15.875602 225.187831 20.403206 247.949634 29.199302 269.185289 
C 37.995398 290.420943 50.888924 309.717468 67.14199 325.970534 
C 83.395056 342.223601 102.691581 355.117127 123.927236 363.913223 
C 145.16289 372.709319 167.924693 377.236923 190.91 377.236923 
C 213.895307 377.236923 236.65711 372.709319 257.892764 363.913223 
C 279.128419 355.117127 298.424944 342.223601 314.67801 325.970534 
C 330.931076 309.717468 343.824602 290.420943 352.620698 269.185289 
C 361.416794 247.949634 365.944398 225.187831 365.944398 202.202524 
" clip-path="url(#p83b8178d76)" style="fill: none; stroke: #b0b0b0; stroke-width: 0.8; stroke-linecap: square"/>
     </g>
     <g id="text_10">
      <!-- 1.0 -->
      <g transform="translate(352.620698 132.83476) scale(0.12 -0.12)">
       <defs>
        <path id="ArialMT-31" d="M 2384 0 
L 1822 0 
L 1822 3584 
Q 1619 3391 1289 3197 
Q 959 3003 697 2906 
L 697 3450 
Q 1169 3672 1522 3987 
Q 1875 4303 2022 4600 
L 2384 4600 
L 2384 0 
z
" transform="scale(0.015625)"/>
       </defs>
       <use xlink:href="#ArialMT-31"/>
       <use xlink:href="#ArialMT-2e" x="55.615234"/>
       <use xlink:href="#ArialMT-30" x="83.398438"/>
      </g>
     </g>
    </g>
   </g>
   <g id="line2d_11">
    <path d="M 208.699306 202.202524 
L 194.748831 190.387817 
L 163.220727 182.08509 
L 58.093528 298.69934 
L 190.916809 202.22348 
L 208.699306 202.202524 
" clip-path="url(#p83b8178d76)" style="fill: none; stroke: #ac99d2; stroke-opacity: 0.5; stroke-width: 0.3; stroke-linecap: square"/>
    <defs>
     <path id="m4ade3667b0" d="M 0 1 
C 0.265203 1 0.51958 0.894634 0.707107 0.707107 
C 0.894634 0.51958 1 0.265203 1 0 
C 1 -0.265203 0.894634 -0.51958 0.707107 -0.707107 
C 0.51958 -0.894634 0.265203 -1 0 -1 
C -0.265203 -1 -0.51958 -0.894634 -0.707107 -0.707107 
C -0.894634 -0.51958 -1 -0.265203 -1 0 
C -1 0.265203 -0.894634 0.51958 -0.707107 0.707107 
C -0.51958 0.894634 -0.265203 1 0 1 
z
" style="stroke: #ac99d2"/>
    </defs>
    <g clip-path="url(#p83b8178d76)">
     <use xlink:href="#m4ade3667b0" x="208.699306" y="202.202524" style="fill: #ac99d2; stroke: #ac99d2"/>
     <use xlink:href="#m4ade3667b0" x="194.748831" y="190.387817" style="fill: #ac99d2; stroke: #ac99d2"/>
     <use xlink:href="#m4ade3667b0" x="163.220727" y="182.08509" style="fill: #ac99d2; stroke: #ac99d2"/>
     <use xlink:href="#m4ade3667b0" x="58.093528" y="298.69934" style="fill: #ac99d2; stroke: #ac99d2"/>
     <use xlink:href="#m4ade3667b0" x="190.916809" y="202.22348" style="fill: #ac99d2; stroke: #ac99d2"/>
     <use xlink:href="#m4ade3667b0" x="208.699306" y="202.202524" style="fill: #ac99d2; stroke: #ac99d2"/>
    </g>
   </g>
   <g id="line2d_12">
    <path d="M 225.587245 202.202524 
L 200.928566 171.36855 
L 134.55666 161.259427 
L 81.297662 281.84055 
L 231.890029 328.326084 
L 225.587245 202.202524 
" clip-path="url(#p83b8178d76)" style="fill: none; stroke: #ac99d2; stroke-opacity: 0.5; stroke-width: 0.3; stroke-linecap: square"/>
    <g clip-path="url(#p83b8178d76)">
     <use xlink:href="#m4ade3667b0" x="225.587245" y="202.202524" style="fill: #ac99d2; stroke: #ac99d2"/>
     <use xlink:href="#m4ade3667b0" x="200.928566" y="171.36855" style="fill: #ac99d2; stroke: #ac99d2"/>
     <use xlink:href="#m4ade3667b0" x="134.55666" y="161.259427" style="fill: #ac99d2; stroke: #ac99d2"/>
     <use xlink:href="#m4ade3667b0" x="81.297662" y="281.84055" style="fill: #ac99d2; stroke: #ac99d2"/>
     <use xlink:href="#m4ade3667b0" x="231.890029" y="328.326084" style="fill: #ac99d2; stroke: #ac99d2"/>
     <use xlink:href="#m4ade3667b0" x="225.587245" y="202.202524" style="fill: #ac99d2; stroke: #ac99d2"/>
    </g>
   </g>
   <g id="line2d_13">
    <path d="M 226.296788 202.202524 
L 199.409186 176.044719 
L 188.22068 200.248619 
L 62.760445 295.308626 
L 215.353471 277.431794 
L 226.296788 202.202524 
" clip-path="url(#p83b8178d76)" style="fill: none; stroke: #ac99d2; stroke-opacity: 0.5; stroke-width: 0.3; stroke-linecap: square"/>
    <g clip-path="url(#p83b8178d76)">
     <use xlink:href="#m4ade3667b0" x="226.296788" y="202.202524" style="fill: #ac99d2; stroke: #ac99d2"/>
     <use xlink:href="#m4ade3667b0" x="199.409186" y="176.044719" style="fill: #ac99d2; stroke: #ac99d2"/>
     <use xlink:href="#m4ade3667b0" x="188.22068" y="200.248619" style="fill: #ac99d2; stroke: #ac99d2"/>
     <use xlink:href="#m4ade3667b0" x="62.760445" y="295.308626" style="fill: #ac99d2; stroke: #ac99d2"/>
     <use xlink:href="#m4ade3667b0" x="215.353471" y="277.431794" style="fill: #ac99d2; stroke: #ac99d2"/>
     <use xlink:href="#m4ade3667b0" x="226.296788" y="202.202524" style="fill: #ac99d2; stroke: #ac99d2"/>
    </g>
   </g>
   <g id="line2d_14">
    <path d="M 226.602073 202.202524 
L 195.917489 186.791059 
L 127.748635 156.313106 
L 61.230375 296.420287 
L 244.165565 366.106301 
L 226.602073 202.202524 
" clip-path="url(#p83b8178d76)" style="fill: none; stroke: #ac99d2; stroke-opacity: 0.5; stroke-width: 0.3; stroke-linecap: square"/>
    <g clip-path="url(#p83b8178d76)">
     <use xlink:href="#m4ade3667b0" x="226.602073" y="202.202524" style="fill: #ac99d2; stroke: #ac99d2"/>
     <use xlink:href="#m4ade3667b0" x="195.917489" y="186.791059" style="fill: #ac99d2; stroke: #ac99d2"/>
     <use xlink:href="#m4ade3667b0" x="127.748635" y="156.313106" style="fill: #ac99d2; stroke: #ac99d2"/>
     <use xlink:href="#m4ade3667b0" x="61.230375" y="296.420287" style="fill: #ac99d2; stroke: #ac99d2"/>
     <use xlink:href="#m4ade3667b0" x="244.165565" y="366.106301" style="fill: #ac99d2; stroke: #ac99d2"/>
     <use xlink:href="#m4ade3667b0" x="226.602073" y="202.202524" style="fill: #ac99d2; stroke: #ac99d2"/>
    </g>
   </g>
   <g id="line2d_15">
    <path d="M 226.783742 202.202524 
L 196.289493 185.646146 
L 183.007052 196.460697 
L 53.781375 301.832302 
L 235.730055 340.144469 
L 226.783742 202.202524 
" clip-path="url(#p83b8178d76)" style="fill: none; stroke: #ac99d2; stroke-opacity: 0.5; stroke-width: 0.3; stroke-linecap: square"/>
    <g clip-path="url(#p83b8178d76)">
     <use xlink:href="#m4ade3667b0" x="226.783742" y="202.202524" style="fill: #ac99d2; stroke: #ac99d2"/>
     <use xlink:href="#m4ade3667b0" x="196.289493" y="185.646146" style="fill: #ac99d2; stroke: #ac99d2"/>
     <use xlink:href="#m4ade3667b0" x="183.007052" y="196.460697" style="fill: #ac99d2; stroke: #ac99d2"/>
     <use xlink:href="#m4ade3667b0" x="53.781375" y="301.832302" style="fill: #ac99d2; stroke: #ac99d2"/>
     <use xlink:href="#m4ade3667b0" x="235.730055" y="340.144469" style="fill: #ac99d2; stroke: #ac99d2"/>
     <use xlink:href="#m4ade3667b0" x="226.783742" y="202.202524" style="fill: #ac99d2; stroke: #ac99d2"/>
    </g>
   </g>
   <g id="line2d_16">
    <path d="M 227.782726 202.202524 
L 190.934927 202.125806 
L 178.061733 192.867712 
L 66.885154 292.31185 
L 207.36672 252.851099 
L 227.782726 202.202524 
" clip-path="url(#p83b8178d76)" style="fill: none; stroke: #ac99d2; stroke-opacity: 0.5; stroke-width: 0.3; stroke-linecap: square"/>
    <g clip-path="url(#p83b8178d76)">
     <use xlink:href="#m4ade3667b0" x="227.782726" y="202.202524" style="fill: #ac99d2; stroke: #ac99d2"/>
     <use xlink:href="#m4ade3667b0" x="190.934927" y="202.125806" style="fill: #ac99d2; stroke: #ac99d2"/>
     <use xlink:href="#m4ade3667b0" x="178.061733" y="192.867712" style="fill: #ac99d2; stroke: #ac99d2"/>
     <use xlink:href="#m4ade3667b0" x="66.885154" y="292.31185" style="fill: #ac99d2; stroke: #ac99d2"/>
     <use xlink:href="#m4ade3667b0" x="207.36672" y="252.851099" style="fill: #ac99d2; stroke: #ac99d2"/>
     <use xlink:href="#m4ade3667b0" x="227.782726" y="202.202524" style="fill: #ac99d2; stroke: #ac99d2"/>
    </g>
   </g>
   <g id="line2d_17">
    <path d="M 227.859816 202.202524 
L 191.047378 201.779718 
L 51.127698 100.644738 
L 186.26496 205.577344 
L 191.470693 203.928162 
L 227.859816 202.202524 
" clip-path="url(#p83b8178d76)" style="fill: none; stroke: #ac99d2; stroke-opacity: 0.5; stroke-width: 0.3; stroke-linecap: square"/>
    <g clip-path="url(#p83b8178d76)">
     <use xlink:href="#m4ade3667b0" x="227.859816" y="202.202524" style="fill: #ac99d2; stroke: #ac99d2"/>
     <use xlink:href="#m4ade3667b0" x="191.047378" y="201.779718" style="fill: #ac99d2; stroke: #ac99d2"/>
     <use xlink:href="#m4ade3667b0" x="51.127698" y="100.644738" style="fill: #ac99d2; stroke: #ac99d2"/>
     <use xlink:href="#m4ade3667b0" x="186.26496" y="205.577344" style="fill: #ac99d2; stroke: #ac99d2"/>
     <use xlink:href="#m4ade3667b0" x="191.470693" y="203.928162" style="fill: #ac99d2; stroke: #ac99d2"/>
     <use xlink:href="#m4ade3667b0" x="227.859816" y="202.202524" style="fill: #ac99d2; stroke: #ac99d2"/>
    </g>
   </g>
   <g id="line2d_18">
    <path d="M 227.860638 202.202524 
L 213.648055 132.221988 
L 73.324369 116.771563 
L 65.912823 293.01829 
L 190.920858 202.235943 
L 227.860638 202.202524 
" clip-path="url(#p83b8178d76)" style="fill: none; stroke: #ac99d2; stroke-opacity: 0.5; stroke-width: 0.3; stroke-linecap: square"/>
    <g clip-path="url(#p83b8178d76)">
     <use xlink:href="#m4ade3667b0" x="227.860638" y="202.202524" style="fill: #ac99d2; stroke: #ac99d2"/>
     <use xlink:href="#m4ade3667b0" x="213.648055" y="132.221988" style="fill: #ac99d2; stroke: #ac99d2"/>
     <use xlink:href="#m4ade3667b0" x="73.324369" y="116.771563" style="fill: #ac99d2; stroke: #ac99d2"/>
     <use xlink:href="#m4ade3667b0" x="65.912823" y="293.01829" style="fill: #ac99d2; stroke: #ac99d2"/>
     <use xlink:href="#m4ade3667b0" x="190.920858" y="202.235943" style="fill: #ac99d2; stroke: #ac99d2"/>
     <use xlink:href="#m4ade3667b0" x="227.860638" y="202.202524" style="fill: #ac99d2; stroke: #ac99d2"/>
    </g>
   </g>
   <g id="line2d_19">
    <path d="M 229.671891 202.202524 
L 192.005018 198.832405 
L 189.430746 201.127784 
L 80.602581 282.345556 
L 244.372916 366.74446 
L 229.671891 202.202524 
" clip-path="url(#p83b8178d76)" style="fill: none; stroke: #ac99d2; stroke-opacity: 0.5; stroke-width: 0.3; stroke-linecap: square"/>
    <g clip-path="url(#p83b8178d76)">
     <use xlink:href="#m4ade3667b0" x="229.671891" y="202.202524" style="fill: #ac99d2; stroke: #ac99d2"/>
     <use xlink:href="#m4ade3667b0" x="192.005018" y="198.832405" style="fill: #ac99d2; stroke: #ac99d2"/>
     <use xlink:href="#m4ade3667b0" x="189.430746" y="201.127784" style="fill: #ac99d2; stroke: #ac99d2"/>
     <use xlink:href="#m4ade3667b0" x="80.602581" y="282.345556" style="fill: #ac99d2; stroke: #ac99d2"/>
     <use xlink:href="#m4ade3667b0" x="244.372916" y="366.74446" style="fill: #ac99d2; stroke: #ac99d2"/>
     <use xlink:href="#m4ade3667b0" x="229.671891" y="202.202524" style="fill: #ac99d2; stroke: #ac99d2"/>
    </g>
   </g>
   <g id="line2d_20">
    <path d="M 230.608547 202.202524 
L 191.171724 201.397022 
L 53.021652 102.020775 
L 81.842978 281.444355 
L 206.585883 250.447932 
L 230.608547 202.202524 
" clip-path="url(#p83b8178d76)" style="fill: none; stroke: #ac99d2; stroke-opacity: 0.5; stroke-width: 0.3; stroke-linecap: square"/>
    <g clip-path="url(#p83b8178d76)">
     <use xlink:href="#m4ade3667b0" x="230.608547" y="202.202524" style="fill: #ac99d2; stroke: #ac99d2"/>
     <use xlink:href="#m4ade3667b0" x="191.171724" y="201.397022" style="fill: #ac99d2; stroke: #ac99d2"/>
     <use xlink:href="#m4ade3667b0" x="53.021652" y="102.020775" style="fill: #ac99d2; stroke: #ac99d2"/>
     <use xlink:href="#m4ade3667b0" x="81.842978" y="281.444355" style="fill: #ac99d2; stroke: #ac99d2"/>
     <use xlink:href="#m4ade3667b0" x="206.585883" y="250.447932" style="fill: #ac99d2; stroke: #ac99d2"/>
     <use xlink:href="#m4ade3667b0" x="230.608547" y="202.202524" style="fill: #ac99d2; stroke: #ac99d2"/>
    </g>
   </g>
   <g id="line2d_21">
    <path d="M 230.77779 202.202524 
L 190.971055 202.014617 
L 171.564294 188.147046 
L 49.711361 304.789341 
L 223.108706 301.299953 
L 230.77779 202.202524 
" clip-path="url(#p83b8178d76)" style="fill: none; stroke: #ac99d2; stroke-opacity: 0.5; stroke-width: 0.3; stroke-linecap: square"/>
    <g clip-path="url(#p83b8178d76)">
     <use xlink:href="#m4ade3667b0" x="230.77779" y="202.202524" style="fill: #ac99d2; stroke: #ac99d2"/>
     <use xlink:href="#m4ade3667b0" x="190.971055" y="202.014617" style="fill: #ac99d2; stroke: #ac99d2"/>
     <use xlink:href="#m4ade3667b0" x="171.564294" y="188.147046" style="fill: #ac99d2; stroke: #ac99d2"/>
     <use xlink:href="#m4ade3667b0" x="49.711361" y="304.789341" style="fill: #ac99d2; stroke: #ac99d2"/>
     <use xlink:href="#m4ade3667b0" x="223.108706" y="301.299953" style="fill: #ac99d2; stroke: #ac99d2"/>
     <use xlink:href="#m4ade3667b0" x="230.77779" y="202.202524" style="fill: #ac99d2; stroke: #ac99d2"/>
    </g>
   </g>
   <g id="line2d_22">
    <path d="M 231.303351 202.202524 
L 197.615063 181.566462 
L 153.443925 174.981828 
L 50.098943 304.507746 
L 209.462392 259.300916 
L 231.303351 202.202524 
" clip-path="url(#p83b8178d76)" style="fill: none; stroke: #ac99d2; stroke-opacity: 0.5; stroke-width: 0.3; stroke-linecap: square"/>
    <g clip-path="url(#p83b8178d76)">
     <use xlink:href="#m4ade3667b0" x="231.303351" y="202.202524" style="fill: #ac99d2; stroke: #ac99d2"/>
     <use xlink:href="#m4ade3667b0" x="197.615063" y="181.566462" style="fill: #ac99d2; stroke: #ac99d2"/>
     <use xlink:href="#m4ade3667b0" x="153.443925" y="174.981828" style="fill: #ac99d2; stroke: #ac99d2"/>
     <use xlink:href="#m4ade3667b0" x="50.098943" y="304.507746" style="fill: #ac99d2; stroke: #ac99d2"/>
     <use xlink:href="#m4ade3667b0" x="209.462392" y="259.300916" style="fill: #ac99d2; stroke: #ac99d2"/>
     <use xlink:href="#m4ade3667b0" x="231.303351" y="202.202524" style="fill: #ac99d2; stroke: #ac99d2"/>
    </g>
   </g>
   <g id="line2d_23">
    <path d="M 231.447554 202.202524 
L 198.150289 179.919206 
L 54.577934 103.15148 
L 73.536302 287.479508 
L 215.941104 279.240342 
L 231.447554 202.202524 
" clip-path="url(#p83b8178d76)" style="fill: none; stroke: #ac99d2; stroke-opacity: 0.5; stroke-width: 0.3; stroke-linecap: square"/>
    <g clip-path="url(#p83b8178d76)">
     <use xlink:href="#m4ade3667b0" x="231.447554" y="202.202524" style="fill: #ac99d2; stroke: #ac99d2"/>
     <use xlink:href="#m4ade3667b0" x="198.150289" y="179.919206" style="fill: #ac99d2; stroke: #ac99d2"/>
     <use xlink:href="#m4ade3667b0" x="54.577934" y="103.15148" style="fill: #ac99d2; stroke: #ac99d2"/>
     <use xlink:href="#m4ade3667b0" x="73.536302" y="287.479508" style="fill: #ac99d2; stroke: #ac99d2"/>
     <use xlink:href="#m4ade3667b0" x="215.941104" y="279.240342" style="fill: #ac99d2; stroke: #ac99d2"/>
     <use xlink:href="#m4ade3667b0" x="231.447554" y="202.202524" style="fill: #ac99d2; stroke: #ac99d2"/>
    </g>
   </g>
   <g id="line2d_24">
    <path d="M 231.895472 202.202524 
L 193.30813 194.821839 
L 54.472021 103.07453 
L 113.730026 258.277058 
L 200.882191 232.893774 
L 231.895472 202.202524 
" clip-path="url(#p83b8178d76)" style="fill: none; stroke: #ac99d2; stroke-opacity: 0.5; stroke-width: 0.3; stroke-linecap: square"/>
    <g clip-path="url(#p83b8178d76)">
     <use xlink:href="#m4ade3667b0" x="231.895472" y="202.202524" style="fill: #ac99d2; stroke: #ac99d2"/>
     <use xlink:href="#m4ade3667b0" x="193.30813" y="194.821839" style="fill: #ac99d2; stroke: #ac99d2"/>
     <use xlink:href="#m4ade3667b0" x="54.472021" y="103.07453" style="fill: #ac99d2; stroke: #ac99d2"/>
     <use xlink:href="#m4ade3667b0" x="113.730026" y="258.277058" style="fill: #ac99d2; stroke: #ac99d2"/>
     <use xlink:href="#m4ade3667b0" x="200.882191" y="232.893774" style="fill: #ac99d2; stroke: #ac99d2"/>
     <use xlink:href="#m4ade3667b0" x="231.895472" y="202.202524" style="fill: #ac99d2; stroke: #ac99d2"/>
    </g>
   </g>
   <g id="line2d_25">
    <path d="M 231.922044 202.202524 
L 193.681392 193.673057 
L 188.532115 200.47489 
L 72.406102 288.300646 
L 239.457166 351.615339 
L 231.922044 202.202524 
" clip-path="url(#p83b8178d76)" style="fill: none; stroke: #ac99d2; stroke-opacity: 0.5; stroke-width: 0.3; stroke-linecap: square"/>
    <g clip-path="url(#p83b8178d76)">
     <use xlink:href="#m4ade3667b0" x="231.922044" y="202.202524" style="fill: #ac99d2; stroke: #ac99d2"/>
     <use xlink:href="#m4ade3667b0" x="193.681392" y="193.673057" style="fill: #ac99d2; stroke: #ac99d2"/>
     <use xlink:href="#m4ade3667b0" x="188.532115" y="200.47489" style="fill: #ac99d2; stroke: #ac99d2"/>
     <use xlink:href="#m4ade3667b0" x="72.406102" y="288.300646" style="fill: #ac99d2; stroke: #ac99d2"/>
     <use xlink:href="#m4ade3667b0" x="239.457166" y="351.615339" style="fill: #ac99d2; stroke: #ac99d2"/>
     <use xlink:href="#m4ade3667b0" x="231.922044" y="202.202524" style="fill: #ac99d2; stroke: #ac99d2"/>
    </g>
   </g>
   <g id="line2d_26">
    <path d="M 232.074149 202.202524 
L 192.467896 197.407814 
L 186.687195 199.134477 
L 92.366028 273.798911 
L 215.756734 278.672908 
L 232.074149 202.202524 
" clip-path="url(#p83b8178d76)" style="fill: none; stroke: #ac99d2; stroke-opacity: 0.5; stroke-width: 0.3; stroke-linecap: square"/>
    <g clip-path="url(#p83b8178d76)">
     <use xlink:href="#m4ade3667b0" x="232.074149" y="202.202524" style="fill: #ac99d2; stroke: #ac99d2"/>
     <use xlink:href="#m4ade3667b0" x="192.467896" y="197.407814" style="fill: #ac99d2; stroke: #ac99d2"/>
     <use xlink:href="#m4ade3667b0" x="186.687195" y="199.134477" style="fill: #ac99d2; stroke: #ac99d2"/>
     <use xlink:href="#m4ade3667b0" x="92.366028" y="273.798911" style="fill: #ac99d2; stroke: #ac99d2"/>
     <use xlink:href="#m4ade3667b0" x="215.756734" y="278.672908" style="fill: #ac99d2; stroke: #ac99d2"/>
     <use xlink:href="#m4ade3667b0" x="232.074149" y="202.202524" style="fill: #ac99d2; stroke: #ac99d2"/>
    </g>
   </g>
   <g id="line2d_27">
    <path d="M 232.248571 202.202524 
L 207.802024 150.214219 
L 168.486474 185.910879 
L 59.690581 297.539013 
L 195.170285 215.314334 
L 232.248571 202.202524 
" clip-path="url(#p83b8178d76)" style="fill: none; stroke: #ac99d2; stroke-opacity: 0.5; stroke-width: 0.3; stroke-linecap: square"/>
    <g clip-path="url(#p83b8178d76)">
     <use xlink:href="#m4ade3667b0" x="232.248571" y="202.202524" style="fill: #ac99d2; stroke: #ac99d2"/>
     <use xlink:href="#m4ade3667b0" x="207.802024" y="150.214219" style="fill: #ac99d2; stroke: #ac99d2"/>
     <use xlink:href="#m4ade3667b0" x="168.486474" y="185.910879" style="fill: #ac99d2; stroke: #ac99d2"/>
     <use xlink:href="#m4ade3667b0" x="59.690581" y="297.539013" style="fill: #ac99d2; stroke: #ac99d2"/>
     <use xlink:href="#m4ade3667b0" x="195.170285" y="215.314334" style="fill: #ac99d2; stroke: #ac99d2"/>
     <use xlink:href="#m4ade3667b0" x="232.248571" y="202.202524" style="fill: #ac99d2; stroke: #ac99d2"/>
    </g>
   </g>
   <g id="line2d_28">
    <path d="M 232.268915 202.202524 
L 196.776264 184.148021 
L 134.555774 161.258783 
L 49.514194 304.932591 
L 236.17194 341.504452 
L 232.268915 202.202524 
" clip-path="url(#p83b8178d76)" style="fill: none; stroke: #ac99d2; stroke-opacity: 0.5; stroke-width: 0.3; stroke-linecap: square"/>
    <g clip-path="url(#p83b8178d76)">
     <use xlink:href="#m4ade3667b0" x="232.268915" y="202.202524" style="fill: #ac99d2; stroke: #ac99d2"/>
     <use xlink:href="#m4ade3667b0" x="196.776264" y="184.148021" style="fill: #ac99d2; stroke: #ac99d2"/>
     <use xlink:href="#m4ade3667b0" x="134.555774" y="161.258783" style="fill: #ac99d2; stroke: #ac99d2"/>
     <use xlink:href="#m4ade3667b0" x="49.514194" y="304.932591" style="fill: #ac99d2; stroke: #ac99d2"/>
     <use xlink:href="#m4ade3667b0" x="236.17194" y="341.504452" style="fill: #ac99d2; stroke: #ac99d2"/>
     <use xlink:href="#m4ade3667b0" x="232.268915" y="202.202524" style="fill: #ac99d2; stroke: #ac99d2"/>
    </g>
   </g>
   <g id="line2d_29">
    <path d="M 233.645062 202.202524 
L 192.432197 197.517683 
L 64.171428 110.121562 
L 49.361997 305.043169 
L 214.207802 273.905786 
L 233.645062 202.202524 
" clip-path="url(#p83b8178d76)" style="fill: none; stroke: #ac99d2; stroke-opacity: 0.5; stroke-width: 0.3; stroke-linecap: square"/>
    <g clip-path="url(#p83b8178d76)">
     <use xlink:href="#m4ade3667b0" x="233.645062" y="202.202524" style="fill: #ac99d2; stroke: #ac99d2"/>
     <use xlink:href="#m4ade3667b0" x="192.432197" y="197.517683" style="fill: #ac99d2; stroke: #ac99d2"/>
     <use xlink:href="#m4ade3667b0" x="64.171428" y="110.121562" style="fill: #ac99d2; stroke: #ac99d2"/>
     <use xlink:href="#m4ade3667b0" x="49.361997" y="305.043169" style="fill: #ac99d2; stroke: #ac99d2"/>
     <use xlink:href="#m4ade3667b0" x="214.207802" y="273.905786" style="fill: #ac99d2; stroke: #ac99d2"/>
     <use xlink:href="#m4ade3667b0" x="233.645062" y="202.202524" style="fill: #ac99d2; stroke: #ac99d2"/>
    </g>
   </g>
   <g id="line2d_30">
    <path d="M 233.737334 202.202524 
L 195.043303 189.481525 
L 50.51457 100.199274 
L 96.817547 270.564693 
L 214.49468 274.788707 
L 233.737334 202.202524 
" clip-path="url(#p83b8178d76)" style="fill: none; stroke: #ac99d2; stroke-opacity: 0.5; stroke-width: 0.3; stroke-linecap: square"/>
    <g clip-path="url(#p83b8178d76)">
     <use xlink:href="#m4ade3667b0" x="233.737334" y="202.202524" style="fill: #ac99d2; stroke: #ac99d2"/>
     <use xlink:href="#m4ade3667b0" x="195.043303" y="189.481525" style="fill: #ac99d2; stroke: #ac99d2"/>
     <use xlink:href="#m4ade3667b0" x="50.51457" y="100.199274" style="fill: #ac99d2; stroke: #ac99d2"/>
     <use xlink:href="#m4ade3667b0" x="96.817547" y="270.564693" style="fill: #ac99d2; stroke: #ac99d2"/>
     <use xlink:href="#m4ade3667b0" x="214.49468" y="274.788707" style="fill: #ac99d2; stroke: #ac99d2"/>
     <use xlink:href="#m4ade3667b0" x="233.737334" y="202.202524" style="fill: #ac99d2; stroke: #ac99d2"/>
    </g>
   </g>
   <g id="line2d_31">
    <path d="M 234.340584 202.202524 
L 195.498415 188.080836 
L 141.371432 166.210648 
L 65.269329 293.485815 
L 240.309097 354.237312 
L 234.340584 202.202524 
" clip-path="url(#p83b8178d76)" style="fill: none; stroke: #ac99d2; stroke-opacity: 0.5; stroke-width: 0.3; stroke-linecap: square"/>
    <g clip-path="url(#p83b8178d76)">
     <use xlink:href="#m4ade3667b0" x="234.340584" y="202.202524" style="fill: #ac99d2; stroke: #ac99d2"/>
     <use xlink:href="#m4ade3667b0" x="195.498415" y="188.080836" style="fill: #ac99d2; stroke: #ac99d2"/>
     <use xlink:href="#m4ade3667b0" x="141.371432" y="166.210648" style="fill: #ac99d2; stroke: #ac99d2"/>
     <use xlink:href="#m4ade3667b0" x="65.269329" y="293.485815" style="fill: #ac99d2; stroke: #ac99d2"/>
     <use xlink:href="#m4ade3667b0" x="240.309097" y="354.237312" style="fill: #ac99d2; stroke: #ac99d2"/>
     <use xlink:href="#m4ade3667b0" x="234.340584" y="202.202524" style="fill: #ac99d2; stroke: #ac99d2"/>
    </g>
   </g>
   <g id="line2d_32">
    <path d="M 234.437987 202.202524 
L 194.526504 191.07207 
L 128.126699 156.587786 
L 51.338259 303.60733 
L 219.734951 290.916601 
L 234.437987 202.202524 
" clip-path="url(#p83b8178d76)" style="fill: none; stroke: #ac99d2; stroke-opacity: 0.5; stroke-width: 0.3; stroke-linecap: square"/>
    <g clip-path="url(#p83b8178d76)">
     <use xlink:href="#m4ade3667b0" x="234.437987" y="202.202524" style="fill: #ac99d2; stroke: #ac99d2"/>
     <use xlink:href="#m4ade3667b0" x="194.526504" y="191.07207" style="fill: #ac99d2; stroke: #ac99d2"/>
     <use xlink:href="#m4ade3667b0" x="128.126699" y="156.587786" style="fill: #ac99d2; stroke: #ac99d2"/>
     <use xlink:href="#m4ade3667b0" x="51.338259" y="303.60733" style="fill: #ac99d2; stroke: #ac99d2"/>
     <use xlink:href="#m4ade3667b0" x="219.734951" y="290.916601" style="fill: #ac99d2; stroke: #ac99d2"/>
     <use xlink:href="#m4ade3667b0" x="234.437987" y="202.202524" style="fill: #ac99d2; stroke: #ac99d2"/>
    </g>
   </g>
   <g id="line2d_33">
    <path d="M 234.952678 202.202524 
L 191.508737 200.3598 
L 149.563659 172.162649 
L 71.79907 288.74168 
L 244.66178 367.633493 
L 234.952678 202.202524 
" clip-path="url(#p83b8178d76)" style="fill: none; stroke: #ac99d2; stroke-opacity: 0.5; stroke-width: 0.3; stroke-linecap: square"/>
    <g clip-path="url(#p83b8178d76)">
     <use xlink:href="#m4ade3667b0" x="234.952678" y="202.202524" style="fill: #ac99d2; stroke: #ac99d2"/>
     <use xlink:href="#m4ade3667b0" x="191.508737" y="200.3598" style="fill: #ac99d2; stroke: #ac99d2"/>
     <use xlink:href="#m4ade3667b0" x="149.563659" y="172.162649" style="fill: #ac99d2; stroke: #ac99d2"/>
     <use xlink:href="#m4ade3667b0" x="71.79907" y="288.74168" style="fill: #ac99d2; stroke: #ac99d2"/>
     <use xlink:href="#m4ade3667b0" x="244.66178" y="367.633493" style="fill: #ac99d2; stroke: #ac99d2"/>
     <use xlink:href="#m4ade3667b0" x="234.952678" y="202.202524" style="fill: #ac99d2; stroke: #ac99d2"/>
    </g>
   </g>
   <g id="line2d_34">
    <path d="M 235.16888 202.202524 
L 191.280696 201.06164 
L 58.155179 105.750501 
L 91.84367 274.178426 
L 191.266528 203.299806 
L 235.16888 202.202524 
" clip-path="url(#p83b8178d76)" style="fill: none; stroke: #ac99d2; stroke-opacity: 0.5; stroke-width: 0.3; stroke-linecap: square"/>
    <g clip-path="url(#p83b8178d76)">
     <use xlink:href="#m4ade3667b0" x="235.16888" y="202.202524" style="fill: #ac99d2; stroke: #ac99d2"/>
     <use xlink:href="#m4ade3667b0" x="191.280696" y="201.06164" style="fill: #ac99d2; stroke: #ac99d2"/>
     <use xlink:href="#m4ade3667b0" x="58.155179" y="105.750501" style="fill: #ac99d2; stroke: #ac99d2"/>
     <use xlink:href="#m4ade3667b0" x="91.84367" y="274.178426" style="fill: #ac99d2; stroke: #ac99d2"/>
     <use xlink:href="#m4ade3667b0" x="191.266528" y="203.299806" style="fill: #ac99d2; stroke: #ac99d2"/>
     <use xlink:href="#m4ade3667b0" x="235.16888" y="202.202524" style="fill: #ac99d2; stroke: #ac99d2"/>
    </g>
   </g>
   <g id="line2d_35">
    <path d="M 235.20306 202.202524 
L 192.444173 197.480827 
L 143.804047 167.978046 
L 75.670027 285.929265 
L 238.236263 347.857784 
L 235.20306 202.202524 
" clip-path="url(#p83b8178d76)" style="fill: none; stroke: #ac99d2; stroke-opacity: 0.5; stroke-width: 0.3; stroke-linecap: square"/>
    <g clip-path="url(#p83b8178d76)">
     <use xlink:href="#m4ade3667b0" x="235.20306" y="202.202524" style="fill: #ac99d2; stroke: #ac99d2"/>
     <use xlink:href="#m4ade3667b0" x="192.444173" y="197.480827" style="fill: #ac99d2; stroke: #ac99d2"/>
     <use xlink:href="#m4ade3667b0" x="143.804047" y="167.978046" style="fill: #ac99d2; stroke: #ac99d2"/>
     <use xlink:href="#m4ade3667b0" x="75.670027" y="285.929265" style="fill: #ac99d2; stroke: #ac99d2"/>
     <use xlink:href="#m4ade3667b0" x="238.236263" y="347.857784" style="fill: #ac99d2; stroke: #ac99d2"/>
     <use xlink:href="#m4ade3667b0" x="235.20306" y="202.202524" style="fill: #ac99d2; stroke: #ac99d2"/>
    </g>
   </g>
   <g id="line2d_36">
    <path d="M 235.392732 202.202524 
L 193.57016 194.015394 
L 184.631866 197.641193 
L 189.435838 203.273566 
L 221.921306 297.64551 
L 235.392732 202.202524 
" clip-path="url(#p83b8178d76)" style="fill: none; stroke: #ac99d2; stroke-opacity: 0.5; stroke-width: 0.3; stroke-linecap: square"/>
    <g clip-path="url(#p83b8178d76)">
     <use xlink:href="#m4ade3667b0" x="235.392732" y="202.202524" style="fill: #ac99d2; stroke: #ac99d2"/>
     <use xlink:href="#m4ade3667b0" x="193.57016" y="194.015394" style="fill: #ac99d2; stroke: #ac99d2"/>
     <use xlink:href="#m4ade3667b0" x="184.631866" y="197.641193" style="fill: #ac99d2; stroke: #ac99d2"/>
     <use xlink:href="#m4ade3667b0" x="189.435838" y="203.273566" style="fill: #ac99d2; stroke: #ac99d2"/>
     <use xlink:href="#m4ade3667b0" x="221.921306" y="297.64551" style="fill: #ac99d2; stroke: #ac99d2"/>
     <use xlink:href="#m4ade3667b0" x="235.392732" y="202.202524" style="fill: #ac99d2; stroke: #ac99d2"/>
    </g>
   </g>
   <g id="line2d_37">
    <path d="M 235.659466 202.202524 
L 191.302907 200.993281 
L 66.731511 111.981571 
L 150.315729 231.695989 
L 210.830616 263.511877 
L 235.659466 202.202524 
" clip-path="url(#p83b8178d76)" style="fill: none; stroke: #ac99d2; stroke-opacity: 0.5; stroke-width: 0.3; stroke-linecap: square"/>
    <g clip-path="url(#p83b8178d76)">
     <use xlink:href="#m4ade3667b0" x="235.659466" y="202.202524" style="fill: #ac99d2; stroke: #ac99d2"/>
     <use xlink:href="#m4ade3667b0" x="191.302907" y="200.993281" style="fill: #ac99d2; stroke: #ac99d2"/>
     <use xlink:href="#m4ade3667b0" x="66.731511" y="111.981571" style="fill: #ac99d2; stroke: #ac99d2"/>
     <use xlink:href="#m4ade3667b0" x="150.315729" y="231.695989" style="fill: #ac99d2; stroke: #ac99d2"/>
     <use xlink:href="#m4ade3667b0" x="210.830616" y="263.511877" style="fill: #ac99d2; stroke: #ac99d2"/>
     <use xlink:href="#m4ade3667b0" x="235.659466" y="202.202524" style="fill: #ac99d2; stroke: #ac99d2"/>
    </g>
   </g>
   <g id="line2d_38">
    <path d="M 235.69318 202.202524 
L 192.183134 198.284221 
L 130.200733 158.09466 
L 61.05495 296.547741 
L 242.133843 359.853302 
L 235.69318 202.202524 
" clip-path="url(#p83b8178d76)" style="fill: none; stroke: #ac99d2; stroke-opacity: 0.5; stroke-width: 0.3; stroke-linecap: square"/>
    <g clip-path="url(#p83b8178d76)">
     <use xlink:href="#m4ade3667b0" x="235.69318" y="202.202524" style="fill: #ac99d2; stroke: #ac99d2"/>
     <use xlink:href="#m4ade3667b0" x="192.183134" y="198.284221" style="fill: #ac99d2; stroke: #ac99d2"/>
     <use xlink:href="#m4ade3667b0" x="130.200733" y="158.09466" style="fill: #ac99d2; stroke: #ac99d2"/>
     <use xlink:href="#m4ade3667b0" x="61.05495" y="296.547741" style="fill: #ac99d2; stroke: #ac99d2"/>
     <use xlink:href="#m4ade3667b0" x="242.133843" y="359.853302" style="fill: #ac99d2; stroke: #ac99d2"/>
     <use xlink:href="#m4ade3667b0" x="235.69318" y="202.202524" style="fill: #ac99d2; stroke: #ac99d2"/>
    </g>
   </g>
   <g id="line2d_39">
    <path d="M 235.797876 202.202524 
L 191.883681 199.205843 
L 124.42865 153.900996 
L 54.45539 301.342602 
L 207.515936 253.310341 
L 235.797876 202.202524 
" clip-path="url(#p83b8178d76)" style="fill: none; stroke: #ac99d2; stroke-opacity: 0.5; stroke-width: 0.3; stroke-linecap: square"/>
    <g clip-path="url(#p83b8178d76)">
     <use xlink:href="#m4ade3667b0" x="235.797876" y="202.202524" style="fill: #ac99d2; stroke: #ac99d2"/>
     <use xlink:href="#m4ade3667b0" x="191.883681" y="199.205843" style="fill: #ac99d2; stroke: #ac99d2"/>
     <use xlink:href="#m4ade3667b0" x="124.42865" y="153.900996" style="fill: #ac99d2; stroke: #ac99d2"/>
     <use xlink:href="#m4ade3667b0" x="54.45539" y="301.342602" style="fill: #ac99d2; stroke: #ac99d2"/>
     <use xlink:href="#m4ade3667b0" x="207.515936" y="253.310341" style="fill: #ac99d2; stroke: #ac99d2"/>
     <use xlink:href="#m4ade3667b0" x="235.797876" y="202.202524" style="fill: #ac99d2; stroke: #ac99d2"/>
    </g>
   </g>
   <g id="line2d_40">
    <path d="M 235.919309 202.202524 
L 191.558932 200.205316 
L 157.37349 177.836824 
L 86.666819 277.939629 
L 229.370319 320.571214 
L 235.919309 202.202524 
" clip-path="url(#p83b8178d76)" style="fill: none; stroke: #ac99d2; stroke-opacity: 0.5; stroke-width: 0.3; stroke-linecap: square"/>
    <g clip-path="url(#p83b8178d76)">
     <use xlink:href="#m4ade3667b0" x="235.919309" y="202.202524" style="fill: #ac99d2; stroke: #ac99d2"/>
     <use xlink:href="#m4ade3667b0" x="191.558932" y="200.205316" style="fill: #ac99d2; stroke: #ac99d2"/>
     <use xlink:href="#m4ade3667b0" x="157.37349" y="177.836824" style="fill: #ac99d2; stroke: #ac99d2"/>
     <use xlink:href="#m4ade3667b0" x="86.666819" y="277.939629" style="fill: #ac99d2; stroke: #ac99d2"/>
     <use xlink:href="#m4ade3667b0" x="229.370319" y="320.571214" style="fill: #ac99d2; stroke: #ac99d2"/>
     <use xlink:href="#m4ade3667b0" x="235.919309" y="202.202524" style="fill: #ac99d2; stroke: #ac99d2"/>
    </g>
   </g>
   <g id="line2d_41">
    <path d="M 236.26909 202.202524 
L 191.019149 201.866597 
L 169.070176 186.334964 
L 56.969945 299.51567 
L 244.142443 366.035139 
L 236.26909 202.202524 
" clip-path="url(#p83b8178d76)" style="fill: none; stroke: #ac99d2; stroke-opacity: 0.5; stroke-width: 0.3; stroke-linecap: square"/>
    <g clip-path="url(#p83b8178d76)">
     <use xlink:href="#m4ade3667b0" x="236.26909" y="202.202524" style="fill: #ac99d2; stroke: #ac99d2"/>
     <use xlink:href="#m4ade3667b0" x="191.019149" y="201.866597" style="fill: #ac99d2; stroke: #ac99d2"/>
     <use xlink:href="#m4ade3667b0" x="169.070176" y="186.334964" style="fill: #ac99d2; stroke: #ac99d2"/>
     <use xlink:href="#m4ade3667b0" x="56.969945" y="299.51567" style="fill: #ac99d2; stroke: #ac99d2"/>
     <use xlink:href="#m4ade3667b0" x="244.142443" y="366.035139" style="fill: #ac99d2; stroke: #ac99d2"/>
     <use xlink:href="#m4ade3667b0" x="236.26909" y="202.202524" style="fill: #ac99d2; stroke: #ac99d2"/>
    </g>
   </g>
   <g id="line2d_42">
    <path d="M 236.518152 202.202524 
L 192.42383 197.543436 
L 189.397602 201.103703 
L 140.836854 238.582795 
L 243.729535 364.764337 
L 236.518152 202.202524 
" clip-path="url(#p83b8178d76)" style="fill: none; stroke: #ac99d2; stroke-opacity: 0.5; stroke-width: 0.3; stroke-linecap: square"/>
    <g clip-path="url(#p83b8178d76)">
     <use xlink:href="#m4ade3667b0" x="236.518152" y="202.202524" style="fill: #ac99d2; stroke: #ac99d2"/>
     <use xlink:href="#m4ade3667b0" x="192.42383" y="197.543436" style="fill: #ac99d2; stroke: #ac99d2"/>
     <use xlink:href="#m4ade3667b0" x="189.397602" y="201.103703" style="fill: #ac99d2; stroke: #ac99d2"/>
     <use xlink:href="#m4ade3667b0" x="140.836854" y="238.582795" style="fill: #ac99d2; stroke: #ac99d2"/>
     <use xlink:href="#m4ade3667b0" x="243.729535" y="364.764337" style="fill: #ac99d2; stroke: #ac99d2"/>
     <use xlink:href="#m4ade3667b0" x="236.518152" y="202.202524" style="fill: #ac99d2; stroke: #ac99d2"/>
    </g>
   </g>
   <g id="line2d_43">
    <path d="M 237.242128 202.202524 
L 192.753764 196.528004 
L 160.167872 179.867061 
L 71.689143 288.821547 
L 209.943003 260.780084 
L 237.242128 202.202524 
" clip-path="url(#p83b8178d76)" style="fill: none; stroke: #ac99d2; stroke-opacity: 0.5; stroke-width: 0.3; stroke-linecap: square"/>
    <g clip-path="url(#p83b8178d76)">
     <use xlink:href="#m4ade3667b0" x="237.242128" y="202.202524" style="fill: #ac99d2; stroke: #ac99d2"/>
     <use xlink:href="#m4ade3667b0" x="192.753764" y="196.528004" style="fill: #ac99d2; stroke: #ac99d2"/>
     <use xlink:href="#m4ade3667b0" x="160.167872" y="179.867061" style="fill: #ac99d2; stroke: #ac99d2"/>
     <use xlink:href="#m4ade3667b0" x="71.689143" y="288.821547" style="fill: #ac99d2; stroke: #ac99d2"/>
     <use xlink:href="#m4ade3667b0" x="209.943003" y="260.780084" style="fill: #ac99d2; stroke: #ac99d2"/>
     <use xlink:href="#m4ade3667b0" x="237.242128" y="202.202524" style="fill: #ac99d2; stroke: #ac99d2"/>
    </g>
   </g>
   <g id="line2d_44">
    <path d="M 237.415749 202.202524 
L 193.238991 195.034627 
L 65.598905 111.158685 
L 69.542858 290.380915 
L 191.308246 203.4282 
L 237.415749 202.202524 
" clip-path="url(#p83b8178d76)" style="fill: none; stroke: #ac99d2; stroke-opacity: 0.5; stroke-width: 0.3; stroke-linecap: square"/>
    <g clip-path="url(#p83b8178d76)">
     <use xlink:href="#m4ade3667b0" x="237.415749" y="202.202524" style="fill: #ac99d2; stroke: #ac99d2"/>
     <use xlink:href="#m4ade3667b0" x="193.238991" y="195.034627" style="fill: #ac99d2; stroke: #ac99d2"/>
     <use xlink:href="#m4ade3667b0" x="65.598905" y="111.158685" style="fill: #ac99d2; stroke: #ac99d2"/>
     <use xlink:href="#m4ade3667b0" x="69.542858" y="290.380915" style="fill: #ac99d2; stroke: #ac99d2"/>
     <use xlink:href="#m4ade3667b0" x="191.308246" y="203.4282" style="fill: #ac99d2; stroke: #ac99d2"/>
     <use xlink:href="#m4ade3667b0" x="237.415749" y="202.202524" style="fill: #ac99d2; stroke: #ac99d2"/>
    </g>
   </g>
   <g id="line2d_45">
    <path d="M 237.792405 202.202524 
L 191.024757 201.849337 
L 166.835048 184.711048 
L 78.144609 284.131376 
L 244.139864 366.027201 
L 237.792405 202.202524 
" clip-path="url(#p83b8178d76)" style="fill: none; stroke: #ac99d2; stroke-opacity: 0.5; stroke-width: 0.3; stroke-linecap: square"/>
    <g clip-path="url(#p83b8178d76)">
     <use xlink:href="#m4ade3667b0" x="237.792405" y="202.202524" style="fill: #ac99d2; stroke: #ac99d2"/>
     <use xlink:href="#m4ade3667b0" x="191.024757" y="201.849337" style="fill: #ac99d2; stroke: #ac99d2"/>
     <use xlink:href="#m4ade3667b0" x="166.835048" y="184.711048" style="fill: #ac99d2; stroke: #ac99d2"/>
     <use xlink:href="#m4ade3667b0" x="78.144609" y="284.131376" style="fill: #ac99d2; stroke: #ac99d2"/>
     <use xlink:href="#m4ade3667b0" x="244.139864" y="366.027201" style="fill: #ac99d2; stroke: #ac99d2"/>
     <use xlink:href="#m4ade3667b0" x="237.792405" y="202.202524" style="fill: #ac99d2; stroke: #ac99d2"/>
    </g>
   </g>
   <g id="line2d_46">
    <path d="M 238.105079 202.202524 
L 193.946145 192.858232 
L 59.888673 107.009958 
L 85.150523 279.041282 
L 219.901306 291.428589 
L 238.105079 202.202524 
" clip-path="url(#p83b8178d76)" style="fill: none; stroke: #ac99d2; stroke-opacity: 0.5; stroke-width: 0.3; stroke-linecap: square"/>
    <g clip-path="url(#p83b8178d76)">
     <use xlink:href="#m4ade3667b0" x="238.105079" y="202.202524" style="fill: #ac99d2; stroke: #ac99d2"/>
     <use xlink:href="#m4ade3667b0" x="193.946145" y="192.858232" style="fill: #ac99d2; stroke: #ac99d2"/>
     <use xlink:href="#m4ade3667b0" x="59.888673" y="107.009958" style="fill: #ac99d2; stroke: #ac99d2"/>
     <use xlink:href="#m4ade3667b0" x="85.150523" y="279.041282" style="fill: #ac99d2; stroke: #ac99d2"/>
     <use xlink:href="#m4ade3667b0" x="219.901306" y="291.428589" style="fill: #ac99d2; stroke: #ac99d2"/>
     <use xlink:href="#m4ade3667b0" x="238.105079" y="202.202524" style="fill: #ac99d2; stroke: #ac99d2"/>
    </g>
   </g>
   <g id="line2d_47">
    <path d="M 238.139752 202.202524 
L 191.202019 201.303783 
L 64.687958 110.496843 
L 63.992334 294.413606 
L 195.431759 216.119068 
L 238.139752 202.202524 
" clip-path="url(#p83b8178d76)" style="fill: none; stroke: #ac99d2; stroke-opacity: 0.5; stroke-width: 0.3; stroke-linecap: square"/>
    <g clip-path="url(#p83b8178d76)">
     <use xlink:href="#m4ade3667b0" x="238.139752" y="202.202524" style="fill: #ac99d2; stroke: #ac99d2"/>
     <use xlink:href="#m4ade3667b0" x="191.202019" y="201.303783" style="fill: #ac99d2; stroke: #ac99d2"/>
     <use xlink:href="#m4ade3667b0" x="64.687958" y="110.496843" style="fill: #ac99d2; stroke: #ac99d2"/>
     <use xlink:href="#m4ade3667b0" x="63.992334" y="294.413606" style="fill: #ac99d2; stroke: #ac99d2"/>
     <use xlink:href="#m4ade3667b0" x="195.431759" y="216.119068" style="fill: #ac99d2; stroke: #ac99d2"/>
     <use xlink:href="#m4ade3667b0" x="238.139752" y="202.202524" style="fill: #ac99d2; stroke: #ac99d2"/>
    </g>
   </g>
   <g id="line2d_48">
    <path d="M 238.958905 202.202524 
L 191.984163 198.896592 
L 131.070234 158.72639 
L 71.761258 288.769153 
L 228.206466 316.989244 
L 238.958905 202.202524 
" clip-path="url(#p83b8178d76)" style="fill: none; stroke: #ac99d2; stroke-opacity: 0.5; stroke-width: 0.3; stroke-linecap: square"/>
    <g clip-path="url(#p83b8178d76)">
     <use xlink:href="#m4ade3667b0" x="238.958905" y="202.202524" style="fill: #ac99d2; stroke: #ac99d2"/>
     <use xlink:href="#m4ade3667b0" x="191.984163" y="198.896592" style="fill: #ac99d2; stroke: #ac99d2"/>
     <use xlink:href="#m4ade3667b0" x="131.070234" y="158.72639" style="fill: #ac99d2; stroke: #ac99d2"/>
     <use xlink:href="#m4ade3667b0" x="71.761258" y="288.769153" style="fill: #ac99d2; stroke: #ac99d2"/>
     <use xlink:href="#m4ade3667b0" x="228.206466" y="316.989244" style="fill: #ac99d2; stroke: #ac99d2"/>
     <use xlink:href="#m4ade3667b0" x="238.958905" y="202.202524" style="fill: #ac99d2; stroke: #ac99d2"/>
    </g>
   </g>
   <g id="line2d_49">
    <path d="M 239.684856 202.202524 
L 194.452229 191.300664 
L 64.920548 110.665829 
L 122.403217 251.975616 
L 192.889714 208.295458 
L 239.684856 202.202524 
" clip-path="url(#p83b8178d76)" style="fill: none; stroke: #ac99d2; stroke-opacity: 0.5; stroke-width: 0.3; stroke-linecap: square"/>
    <g clip-path="url(#p83b8178d76)">
     <use xlink:href="#m4ade3667b0" x="239.684856" y="202.202524" style="fill: #ac99d2; stroke: #ac99d2"/>
     <use xlink:href="#m4ade3667b0" x="194.452229" y="191.300664" style="fill: #ac99d2; stroke: #ac99d2"/>
     <use xlink:href="#m4ade3667b0" x="64.920548" y="110.665829" style="fill: #ac99d2; stroke: #ac99d2"/>
     <use xlink:href="#m4ade3667b0" x="122.403217" y="251.975616" style="fill: #ac99d2; stroke: #ac99d2"/>
     <use xlink:href="#m4ade3667b0" x="192.889714" y="208.295458" style="fill: #ac99d2; stroke: #ac99d2"/>
     <use xlink:href="#m4ade3667b0" x="239.684856" y="202.202524" style="fill: #ac99d2; stroke: #ac99d2"/>
    </g>
   </g>
   <g id="line2d_50">
    <path d="M 240.143817 202.202524 
L 191.731787 199.673325 
L 58.272191 105.835516 
L 66.398043 292.665757 
L 244.301693 366.525258 
L 240.143817 202.202524 
" clip-path="url(#p83b8178d76)" style="fill: none; stroke: #ac99d2; stroke-opacity: 0.5; stroke-width: 0.3; stroke-linecap: square"/>
    <g clip-path="url(#p83b8178d76)">
     <use xlink:href="#m4ade3667b0" x="240.143817" y="202.202524" style="fill: #ac99d2; stroke: #ac99d2"/>
     <use xlink:href="#m4ade3667b0" x="191.731787" y="199.673325" style="fill: #ac99d2; stroke: #ac99d2"/>
     <use xlink:href="#m4ade3667b0" x="58.272191" y="105.835516" style="fill: #ac99d2; stroke: #ac99d2"/>
     <use xlink:href="#m4ade3667b0" x="66.398043" y="292.665757" style="fill: #ac99d2; stroke: #ac99d2"/>
     <use xlink:href="#m4ade3667b0" x="244.301693" y="366.525258" style="fill: #ac99d2; stroke: #ac99d2"/>
     <use xlink:href="#m4ade3667b0" x="240.143817" y="202.202524" style="fill: #ac99d2; stroke: #ac99d2"/>
    </g>
   </g>
   <g id="line2d_51">
    <path d="M 240.15303 202.202524 
L 191.841784 199.334788 
L 167.172349 184.956111 
L 68.685721 291.003661 
L 226.542749 311.86885 
L 240.15303 202.202524 
" clip-path="url(#p83b8178d76)" style="fill: none; stroke: #ac99d2; stroke-opacity: 0.5; stroke-width: 0.3; stroke-linecap: square"/>
    <g clip-path="url(#p83b8178d76)">
     <use xlink:href="#m4ade3667b0" x="240.15303" y="202.202524" style="fill: #ac99d2; stroke: #ac99d2"/>
     <use xlink:href="#m4ade3667b0" x="191.841784" y="199.334788" style="fill: #ac99d2; stroke: #ac99d2"/>
     <use xlink:href="#m4ade3667b0" x="167.172349" y="184.956111" style="fill: #ac99d2; stroke: #ac99d2"/>
     <use xlink:href="#m4ade3667b0" x="68.685721" y="291.003661" style="fill: #ac99d2; stroke: #ac99d2"/>
     <use xlink:href="#m4ade3667b0" x="226.542749" y="311.86885" style="fill: #ac99d2; stroke: #ac99d2"/>
     <use xlink:href="#m4ade3667b0" x="240.15303" y="202.202524" style="fill: #ac99d2; stroke: #ac99d2"/>
    </g>
   </g>
   <g id="line2d_52">
    <path d="M 240.627901 202.202524 
L 193.463983 194.342173 
L 88.24364 127.611048 
L 54.677945 301.180906 
L 241.94581 359.274597 
L 240.627901 202.202524 
" clip-path="url(#p83b8178d76)" style="fill: none; stroke: #ac99d2; stroke-opacity: 0.5; stroke-width: 0.3; stroke-linecap: square"/>
    <g clip-path="url(#p83b8178d76)">
     <use xlink:href="#m4ade3667b0" x="240.627901" y="202.202524" style="fill: #ac99d2; stroke: #ac99d2"/>
     <use xlink:href="#m4ade3667b0" x="193.463983" y="194.342173" style="fill: #ac99d2; stroke: #ac99d2"/>
     <use xlink:href="#m4ade3667b0" x="88.24364" y="127.611048" style="fill: #ac99d2; stroke: #ac99d2"/>
     <use xlink:href="#m4ade3667b0" x="54.677945" y="301.180906" style="fill: #ac99d2; stroke: #ac99d2"/>
     <use xlink:href="#m4ade3667b0" x="241.94581" y="359.274597" style="fill: #ac99d2; stroke: #ac99d2"/>
     <use xlink:href="#m4ade3667b0" x="240.627901" y="202.202524" style="fill: #ac99d2; stroke: #ac99d2"/>
    </g>
   </g>
   <g id="line2d_53">
    <path d="M 240.885988 202.202524 
L 191.597539 200.086497 
L 168.671261 186.045134 
L 100.921324 267.583125 
L 229.512881 321.009976 
L 240.885988 202.202524 
" clip-path="url(#p83b8178d76)" style="fill: none; stroke: #ac99d2; stroke-opacity: 0.5; stroke-width: 0.3; stroke-linecap: square"/>
    <g clip-path="url(#p83b8178d76)">
     <use xlink:href="#m4ade3667b0" x="240.885988" y="202.202524" style="fill: #ac99d2; stroke: #ac99d2"/>
     <use xlink:href="#m4ade3667b0" x="191.597539" y="200.086497" style="fill: #ac99d2; stroke: #ac99d2"/>
     <use xlink:href="#m4ade3667b0" x="168.671261" y="186.045134" style="fill: #ac99d2; stroke: #ac99d2"/>
     <use xlink:href="#m4ade3667b0" x="100.921324" y="267.583125" style="fill: #ac99d2; stroke: #ac99d2"/>
     <use xlink:href="#m4ade3667b0" x="229.512881" y="321.009976" style="fill: #ac99d2; stroke: #ac99d2"/>
     <use xlink:href="#m4ade3667b0" x="240.885988" y="202.202524" style="fill: #ac99d2; stroke: #ac99d2"/>
    </g>
   </g>
   <g id="line2d_54">
    <path d="M 241.042931 202.202524 
L 193.055124 195.600512 
L 52.863984 101.906223 
L 49.549981 304.90659 
L 215.021058 276.408731 
L 241.042931 202.202524 
" clip-path="url(#p83b8178d76)" style="fill: none; stroke: #ac99d2; stroke-opacity: 0.5; stroke-width: 0.3; stroke-linecap: square"/>
    <g clip-path="url(#p83b8178d76)">
     <use xlink:href="#m4ade3667b0" x="241.042931" y="202.202524" style="fill: #ac99d2; stroke: #ac99d2"/>
     <use xlink:href="#m4ade3667b0" x="193.055124" y="195.600512" style="fill: #ac99d2; stroke: #ac99d2"/>
     <use xlink:href="#m4ade3667b0" x="52.863984" y="101.906223" style="fill: #ac99d2; stroke: #ac99d2"/>
     <use xlink:href="#m4ade3667b0" x="49.549981" y="304.90659" style="fill: #ac99d2; stroke: #ac99d2"/>
     <use xlink:href="#m4ade3667b0" x="215.021058" y="276.408731" style="fill: #ac99d2; stroke: #ac99d2"/>
     <use xlink:href="#m4ade3667b0" x="241.042931" y="202.202524" style="fill: #ac99d2; stroke: #ac99d2"/>
    </g>
   </g>
   <g id="line2d_55">
    <path d="M 241.259174 202.202524 
L 194.475076 191.23035 
L 179.814464 194.141145 
L 58.186574 298.631738 
L 243.580821 364.306644 
L 241.259174 202.202524 
" clip-path="url(#p83b8178d76)" style="fill: none; stroke: #ac99d2; stroke-opacity: 0.5; stroke-width: 0.3; stroke-linecap: square"/>
    <g clip-path="url(#p83b8178d76)">
     <use xlink:href="#m4ade3667b0" x="241.259174" y="202.202524" style="fill: #ac99d2; stroke: #ac99d2"/>
     <use xlink:href="#m4ade3667b0" x="194.475076" y="191.23035" style="fill: #ac99d2; stroke: #ac99d2"/>
     <use xlink:href="#m4ade3667b0" x="179.814464" y="194.141145" style="fill: #ac99d2; stroke: #ac99d2"/>
     <use xlink:href="#m4ade3667b0" x="58.186574" y="298.631738" style="fill: #ac99d2; stroke: #ac99d2"/>
     <use xlink:href="#m4ade3667b0" x="243.580821" y="364.306644" style="fill: #ac99d2; stroke: #ac99d2"/>
     <use xlink:href="#m4ade3667b0" x="241.259174" y="202.202524" style="fill: #ac99d2; stroke: #ac99d2"/>
    </g>
   </g>
   <g id="line2d_56">
    <path d="M 242.245694 202.202524 
L 191.120655 201.554195 
L 169.82985 186.886899 
L 61.83268 295.982687 
L 222.274236 298.731718 
L 242.245694 202.202524 
" clip-path="url(#p83b8178d76)" style="fill: none; stroke: #ac99d2; stroke-opacity: 0.5; stroke-width: 0.3; stroke-linecap: square"/>
    <g clip-path="url(#p83b8178d76)">
     <use xlink:href="#m4ade3667b0" x="242.245694" y="202.202524" style="fill: #ac99d2; stroke: #ac99d2"/>
     <use xlink:href="#m4ade3667b0" x="191.120655" y="201.554195" style="fill: #ac99d2; stroke: #ac99d2"/>
     <use xlink:href="#m4ade3667b0" x="169.82985" y="186.886899" style="fill: #ac99d2; stroke: #ac99d2"/>
     <use xlink:href="#m4ade3667b0" x="61.83268" y="295.982687" style="fill: #ac99d2; stroke: #ac99d2"/>
     <use xlink:href="#m4ade3667b0" x="222.274236" y="298.731718" style="fill: #ac99d2; stroke: #ac99d2"/>
     <use xlink:href="#m4ade3667b0" x="242.245694" y="202.202524" style="fill: #ac99d2; stroke: #ac99d2"/>
    </g>
   </g>
   <g id="line2d_57">
    <path d="M 243.592797 202.202524 
L 190.955517 202.062437 
L 120.454581 151.013666 
L 126.927797 248.688316 
L 237.893842 346.803923 
L 243.592797 202.202524 
" clip-path="url(#p83b8178d76)" style="fill: none; stroke: #ac99d2; stroke-opacity: 0.5; stroke-width: 0.3; stroke-linecap: square"/>
    <g clip-path="url(#p83b8178d76)">
     <use xlink:href="#m4ade3667b0" x="243.592797" y="202.202524" style="fill: #ac99d2; stroke: #ac99d2"/>
     <use xlink:href="#m4ade3667b0" x="190.955517" y="202.062437" style="fill: #ac99d2; stroke: #ac99d2"/>
     <use xlink:href="#m4ade3667b0" x="120.454581" y="151.013666" style="fill: #ac99d2; stroke: #ac99d2"/>
     <use xlink:href="#m4ade3667b0" x="126.927797" y="248.688316" style="fill: #ac99d2; stroke: #ac99d2"/>
     <use xlink:href="#m4ade3667b0" x="237.893842" y="346.803923" style="fill: #ac99d2; stroke: #ac99d2"/>
     <use xlink:href="#m4ade3667b0" x="243.592797" y="202.202524" style="fill: #ac99d2; stroke: #ac99d2"/>
    </g>
   </g>
   <g id="line2d_58">
    <path d="M 244.292367 202.202524 
L 192.256753 198.057646 
L 63.000321 109.270703 
L 58.877064 298.130068 
L 221.106064 295.136452 
L 244.292367 202.202524 
" clip-path="url(#p83b8178d76)" style="fill: none; stroke: #ac99d2; stroke-opacity: 0.5; stroke-width: 0.3; stroke-linecap: square"/>
    <g clip-path="url(#p83b8178d76)">
     <use xlink:href="#m4ade3667b0" x="244.292367" y="202.202524" style="fill: #ac99d2; stroke: #ac99d2"/>
     <use xlink:href="#m4ade3667b0" x="192.256753" y="198.057646" style="fill: #ac99d2; stroke: #ac99d2"/>
     <use xlink:href="#m4ade3667b0" x="63.000321" y="109.270703" style="fill: #ac99d2; stroke: #ac99d2"/>
     <use xlink:href="#m4ade3667b0" x="58.877064" y="298.130068" style="fill: #ac99d2; stroke: #ac99d2"/>
     <use xlink:href="#m4ade3667b0" x="221.106064" y="295.136452" style="fill: #ac99d2; stroke: #ac99d2"/>
     <use xlink:href="#m4ade3667b0" x="244.292367" y="202.202524" style="fill: #ac99d2; stroke: #ac99d2"/>
    </g>
   </g>
   <g id="line2d_59">
    <path d="M 244.85595 202.202524 
L 191.472302 200.471936 
L 71.572746 115.498934 
L 75.092706 286.348714 
L 193.110295 208.974337 
L 244.85595 202.202524 
" clip-path="url(#p83b8178d76)" style="fill: none; stroke: #ac99d2; stroke-opacity: 0.5; stroke-width: 0.3; stroke-linecap: square"/>
    <g clip-path="url(#p83b8178d76)">
     <use xlink:href="#m4ade3667b0" x="244.85595" y="202.202524" style="fill: #ac99d2; stroke: #ac99d2"/>
     <use xlink:href="#m4ade3667b0" x="191.472302" y="200.471936" style="fill: #ac99d2; stroke: #ac99d2"/>
     <use xlink:href="#m4ade3667b0" x="71.572746" y="115.498934" style="fill: #ac99d2; stroke: #ac99d2"/>
     <use xlink:href="#m4ade3667b0" x="75.092706" y="286.348714" style="fill: #ac99d2; stroke: #ac99d2"/>
     <use xlink:href="#m4ade3667b0" x="193.110295" y="208.974337" style="fill: #ac99d2; stroke: #ac99d2"/>
     <use xlink:href="#m4ade3667b0" x="244.85595" y="202.202524" style="fill: #ac99d2; stroke: #ac99d2"/>
    </g>
   </g>
   <g id="line2d_60">
    <path d="M 246.085763 202.202524 
L 191.931793 199.057769 
L 58.6251 106.091918 
L 57.116605 299.409116 
L 243.457332 363.926582 
L 246.085763 202.202524 
" clip-path="url(#p83b8178d76)" style="fill: none; stroke: #ac99d2; stroke-opacity: 0.5; stroke-width: 0.3; stroke-linecap: square"/>
    <g clip-path="url(#p83b8178d76)">
     <use xlink:href="#m4ade3667b0" x="246.085763" y="202.202524" style="fill: #ac99d2; stroke: #ac99d2"/>
     <use xlink:href="#m4ade3667b0" x="191.931793" y="199.057769" style="fill: #ac99d2; stroke: #ac99d2"/>
     <use xlink:href="#m4ade3667b0" x="58.6251" y="106.091918" style="fill: #ac99d2; stroke: #ac99d2"/>
     <use xlink:href="#m4ade3667b0" x="57.116605" y="299.409116" style="fill: #ac99d2; stroke: #ac99d2"/>
     <use xlink:href="#m4ade3667b0" x="243.457332" y="363.926582" style="fill: #ac99d2; stroke: #ac99d2"/>
     <use xlink:href="#m4ade3667b0" x="246.085763" y="202.202524" style="fill: #ac99d2; stroke: #ac99d2"/>
    </g>
   </g>
   <g id="line2d_61">
    <path d="M 246.658835 202.202524 
L 193.469427 194.32542 
L 51.68842 101.052126 
L 60.61308 296.868778 
L 215.239267 277.080309 
L 246.658835 202.202524 
" clip-path="url(#p83b8178d76)" style="fill: none; stroke: #ac99d2; stroke-opacity: 0.5; stroke-width: 0.3; stroke-linecap: square"/>
    <g clip-path="url(#p83b8178d76)">
     <use xlink:href="#m4ade3667b0" x="246.658835" y="202.202524" style="fill: #ac99d2; stroke: #ac99d2"/>
     <use xlink:href="#m4ade3667b0" x="193.469427" y="194.32542" style="fill: #ac99d2; stroke: #ac99d2"/>
     <use xlink:href="#m4ade3667b0" x="51.68842" y="101.052126" style="fill: #ac99d2; stroke: #ac99d2"/>
     <use xlink:href="#m4ade3667b0" x="60.61308" y="296.868778" style="fill: #ac99d2; stroke: #ac99d2"/>
     <use xlink:href="#m4ade3667b0" x="215.239267" y="277.080309" style="fill: #ac99d2; stroke: #ac99d2"/>
     <use xlink:href="#m4ade3667b0" x="246.658835" y="202.202524" style="fill: #ac99d2; stroke: #ac99d2"/>
    </g>
   </g>
   <g id="line2d_62">
    <path d="M 247.570031 202.202524 
L 196.142817 186.097569 
L 67.568583 112.589739 
L 70.369339 289.780441 
L 217.385981 283.687214 
L 247.570031 202.202524 
" clip-path="url(#p83b8178d76)" style="fill: none; stroke: #ac99d2; stroke-opacity: 0.5; stroke-width: 0.3; stroke-linecap: square"/>
    <g clip-path="url(#p83b8178d76)">
     <use xlink:href="#m4ade3667b0" x="247.570031" y="202.202524" style="fill: #ac99d2; stroke: #ac99d2"/>
     <use xlink:href="#m4ade3667b0" x="196.142817" y="186.097569" style="fill: #ac99d2; stroke: #ac99d2"/>
     <use xlink:href="#m4ade3667b0" x="67.568583" y="112.589739" style="fill: #ac99d2; stroke: #ac99d2"/>
     <use xlink:href="#m4ade3667b0" x="70.369339" y="289.780441" style="fill: #ac99d2; stroke: #ac99d2"/>
     <use xlink:href="#m4ade3667b0" x="217.385981" y="283.687214" style="fill: #ac99d2; stroke: #ac99d2"/>
     <use xlink:href="#m4ade3667b0" x="247.570031" y="202.202524" style="fill: #ac99d2; stroke: #ac99d2"/>
    </g>
   </g>
   <g id="line2d_63">
    <path d="M 248.151027 202.202524 
L 192.155774 198.368426 
L 80.883211 122.263383 
L 61.955571 295.893401 
L 244.540831 367.26125 
L 248.151027 202.202524 
" clip-path="url(#p83b8178d76)" style="fill: none; stroke: #ac99d2; stroke-opacity: 0.5; stroke-width: 0.3; stroke-linecap: square"/>
    <g clip-path="url(#p83b8178d76)">
     <use xlink:href="#m4ade3667b0" x="248.151027" y="202.202524" style="fill: #ac99d2; stroke: #ac99d2"/>
     <use xlink:href="#m4ade3667b0" x="192.155774" y="198.368426" style="fill: #ac99d2; stroke: #ac99d2"/>
     <use xlink:href="#m4ade3667b0" x="80.883211" y="122.263383" style="fill: #ac99d2; stroke: #ac99d2"/>
     <use xlink:href="#m4ade3667b0" x="61.955571" y="295.893401" style="fill: #ac99d2; stroke: #ac99d2"/>
     <use xlink:href="#m4ade3667b0" x="244.540831" y="367.26125" style="fill: #ac99d2; stroke: #ac99d2"/>
     <use xlink:href="#m4ade3667b0" x="248.151027" y="202.202524" style="fill: #ac99d2; stroke: #ac99d2"/>
    </g>
   </g>
   <g id="line2d_64">
    <path d="M 250.010733 202.202524 
L 192.988878 195.804394 
L 54.30766 102.955115 
L 51.159188 303.737433 
L 215.802423 278.813526 
L 250.010733 202.202524 
" clip-path="url(#p83b8178d76)" style="fill: none; stroke: #ac99d2; stroke-opacity: 0.5; stroke-width: 0.3; stroke-linecap: square"/>
    <g clip-path="url(#p83b8178d76)">
     <use xlink:href="#m4ade3667b0" x="250.010733" y="202.202524" style="fill: #ac99d2; stroke: #ac99d2"/>
     <use xlink:href="#m4ade3667b0" x="192.988878" y="195.804394" style="fill: #ac99d2; stroke: #ac99d2"/>
     <use xlink:href="#m4ade3667b0" x="54.30766" y="102.955115" style="fill: #ac99d2; stroke: #ac99d2"/>
     <use xlink:href="#m4ade3667b0" x="51.159188" y="303.737433" style="fill: #ac99d2; stroke: #ac99d2"/>
     <use xlink:href="#m4ade3667b0" x="215.802423" y="278.813526" style="fill: #ac99d2; stroke: #ac99d2"/>
     <use xlink:href="#m4ade3667b0" x="250.010733" y="202.202524" style="fill: #ac99d2; stroke: #ac99d2"/>
    </g>
   </g>
   <g id="line2d_65">
    <path d="M 251.637236 202.202524 
L 191.188011 201.346895 
L 169.283046 186.489623 
L 55.166137 300.826214 
L 230.224764 323.200927 
L 251.637236 202.202524 
" clip-path="url(#p83b8178d76)" style="fill: none; stroke: #ac99d2; stroke-opacity: 0.5; stroke-width: 0.3; stroke-linecap: square"/>
    <g clip-path="url(#p83b8178d76)">
     <use xlink:href="#m4ade3667b0" x="251.637236" y="202.202524" style="fill: #ac99d2; stroke: #ac99d2"/>
     <use xlink:href="#m4ade3667b0" x="191.188011" y="201.346895" style="fill: #ac99d2; stroke: #ac99d2"/>
     <use xlink:href="#m4ade3667b0" x="169.283046" y="186.489623" style="fill: #ac99d2; stroke: #ac99d2"/>
     <use xlink:href="#m4ade3667b0" x="55.166137" y="300.826214" style="fill: #ac99d2; stroke: #ac99d2"/>
     <use xlink:href="#m4ade3667b0" x="230.224764" y="323.200927" style="fill: #ac99d2; stroke: #ac99d2"/>
     <use xlink:href="#m4ade3667b0" x="251.637236" y="202.202524" style="fill: #ac99d2; stroke: #ac99d2"/>
    </g>
   </g>
   <g id="line2d_66">
    <path d="M 254.708047 202.202524 
L 191.248448 201.160887 
L 110.092893 143.485459 
L 50.410494 304.281391 
L 197.685133 223.054241 
L 254.708047 202.202524 
" clip-path="url(#p83b8178d76)" style="fill: none; stroke: #ac99d2; stroke-opacity: 0.5; stroke-width: 0.3; stroke-linecap: square"/>
    <g clip-path="url(#p83b8178d76)">
     <use xlink:href="#m4ade3667b0" x="254.708047" y="202.202524" style="fill: #ac99d2; stroke: #ac99d2"/>
     <use xlink:href="#m4ade3667b0" x="191.248448" y="201.160887" style="fill: #ac99d2; stroke: #ac99d2"/>
     <use xlink:href="#m4ade3667b0" x="110.092893" y="143.485459" style="fill: #ac99d2; stroke: #ac99d2"/>
     <use xlink:href="#m4ade3667b0" x="50.410494" y="304.281391" style="fill: #ac99d2; stroke: #ac99d2"/>
     <use xlink:href="#m4ade3667b0" x="197.685133" y="223.054241" style="fill: #ac99d2; stroke: #ac99d2"/>
     <use xlink:href="#m4ade3667b0" x="254.708047" y="202.202524" style="fill: #ac99d2; stroke: #ac99d2"/>
    </g>
   </g>
   <g id="line2d_67">
    <path d="M 258.193743 202.202524 
L 193.283462 194.897759 
L 54.027816 102.751797 
L 110.855573 260.36547 
L 222.324388 298.886069 
L 258.193743 202.202524 
" clip-path="url(#p83b8178d76)" style="fill: none; stroke: #ac99d2; stroke-opacity: 0.5; stroke-width: 0.3; stroke-linecap: square"/>
    <g clip-path="url(#p83b8178d76)">
     <use xlink:href="#m4ade3667b0" x="258.193743" y="202.202524" style="fill: #ac99d2; stroke: #ac99d2"/>
     <use xlink:href="#m4ade3667b0" x="193.283462" y="194.897759" style="fill: #ac99d2; stroke: #ac99d2"/>
     <use xlink:href="#m4ade3667b0" x="54.027816" y="102.751797" style="fill: #ac99d2; stroke: #ac99d2"/>
     <use xlink:href="#m4ade3667b0" x="110.855573" y="260.36547" style="fill: #ac99d2; stroke: #ac99d2"/>
     <use xlink:href="#m4ade3667b0" x="222.324388" y="298.886069" style="fill: #ac99d2; stroke: #ac99d2"/>
     <use xlink:href="#m4ade3667b0" x="258.193743" y="202.202524" style="fill: #ac99d2; stroke: #ac99d2"/>
    </g>
   </g>
   <g id="line2d_68">
    <path d="M 269.57927 202.202524 
L 191.07948 201.680917 
L 50.432606 100.139723 
L 74.00329 287.140221 
L 222.021196 297.952941 
L 269.57927 202.202524 
" clip-path="url(#p83b8178d76)" style="fill: none; stroke: #ac99d2; stroke-opacity: 0.5; stroke-width: 0.3; stroke-linecap: square"/>
    <g clip-path="url(#p83b8178d76)">
     <use xlink:href="#m4ade3667b0" x="269.57927" y="202.202524" style="fill: #ac99d2; stroke: #ac99d2"/>
     <use xlink:href="#m4ade3667b0" x="191.07948" y="201.680917" style="fill: #ac99d2; stroke: #ac99d2"/>
     <use xlink:href="#m4ade3667b0" x="50.432606" y="100.139723" style="fill: #ac99d2; stroke: #ac99d2"/>
     <use xlink:href="#m4ade3667b0" x="74.00329" y="287.140221" style="fill: #ac99d2; stroke: #ac99d2"/>
     <use xlink:href="#m4ade3667b0" x="222.021196" y="297.952941" style="fill: #ac99d2; stroke: #ac99d2"/>
     <use xlink:href="#m4ade3667b0" x="269.57927" y="202.202524" style="fill: #ac99d2; stroke: #ac99d2"/>
    </g>
   </g>
   <g id="line2d_69">
    <path d="M 278.997733 202.202524 
L 191.034279 201.820032 
L 99.424165 135.734175 
L 60.625099 296.860046 
L 220.128658 292.128306 
L 278.997733 202.202524 
" clip-path="url(#p83b8178d76)" style="fill: none; stroke: #ac99d2; stroke-opacity: 0.5; stroke-width: 0.3; stroke-linecap: square"/>
    <g clip-path="url(#p83b8178d76)">
     <use xlink:href="#m4ade3667b0" x="278.997733" y="202.202524" style="fill: #ac99d2; stroke: #ac99d2"/>
     <use xlink:href="#m4ade3667b0" x="191.034279" y="201.820032" style="fill: #ac99d2; stroke: #ac99d2"/>
     <use xlink:href="#m4ade3667b0" x="99.424165" y="135.734175" style="fill: #ac99d2; stroke: #ac99d2"/>
     <use xlink:href="#m4ade3667b0" x="60.625099" y="296.860046" style="fill: #ac99d2; stroke: #ac99d2"/>
     <use xlink:href="#m4ade3667b0" x="220.128658" y="292.128306" style="fill: #ac99d2; stroke: #ac99d2"/>
     <use xlink:href="#m4ade3667b0" x="278.997733" y="202.202524" style="fill: #ac99d2; stroke: #ac99d2"/>
    </g>
   </g>
   <g id="line2d_70">
    <path d="M 281.940598 202.202524 
L 190.953218 202.069512 
L 100.544731 136.548313 
L 63.824472 294.535565 
L 233.241424 332.485251 
L 281.940598 202.202524 
" clip-path="url(#p83b8178d76)" style="fill: none; stroke: #ac99d2; stroke-opacity: 0.5; stroke-width: 0.3; stroke-linecap: square"/>
    <g clip-path="url(#p83b8178d76)">
     <use xlink:href="#m4ade3667b0" x="281.940598" y="202.202524" style="fill: #ac99d2; stroke: #ac99d2"/>
     <use xlink:href="#m4ade3667b0" x="190.953218" y="202.069512" style="fill: #ac99d2; stroke: #ac99d2"/>
     <use xlink:href="#m4ade3667b0" x="100.544731" y="136.548313" style="fill: #ac99d2; stroke: #ac99d2"/>
     <use xlink:href="#m4ade3667b0" x="63.824472" y="294.535565" style="fill: #ac99d2; stroke: #ac99d2"/>
     <use xlink:href="#m4ade3667b0" x="233.241424" y="332.485251" style="fill: #ac99d2; stroke: #ac99d2"/>
     <use xlink:href="#m4ade3667b0" x="281.940598" y="202.202524" style="fill: #ac99d2; stroke: #ac99d2"/>
    </g>
   </g>
   <g id="patch_3">
    <path d="M 374.62 202.202524 
C 374.62 178.077948 369.867985 154.187953 360.635909 131.899751 
C 351.403833 109.611549 337.871238 89.358589 320.812587 72.299938 
C 303.753935 55.241286 283.500976 41.708691 261.212773 32.476616 
C 238.924571 23.24454 215.034576 18.492524 190.91 18.492524 
C 166.785424 18.492524 142.895429 23.24454 120.607227 32.476616 
C 98.319024 41.708691 78.066065 55.241286 61.007413 72.299938 
C 43.948762 89.358589 30.416167 109.611549 21.184091 131.899751 
C 11.952015 154.187953 7.2 178.077948 7.2 202.202524 
C 7.2 226.327101 11.952015 250.217096 21.184091 272.505298 
C 30.416167 294.7935 43.948762 315.04646 61.007413 332.105111 
C 78.066065 349.163763 98.319024 362.696358 120.607227 371.928433 
C 142.895429 381.160509 166.785424 385.912524 190.91 385.912524 
C 215.034576 385.912524 238.924571 381.160509 261.212773 371.928433 
C 283.500976 362.696358 303.753935 349.163763 320.812587 332.105111 
C 337.871238 315.04646 351.403833 294.7935 360.635909 272.505298 
C 369.867985 250.217096 374.62 226.327101 374.62 202.202524 
" style="fill: none; stroke: #000000; stroke-width: 0.8; stroke-linejoin: miter; stroke-linecap: square"/>
   </g>
  </g>
 </g>
 <defs>
  <clipPath id="p83b8178d76">
   <path d="M 374.62 202.202524 
C 374.62 178.077948 369.867985 154.187953 360.635909 131.899751 
C 351.403833 109.611549 337.871238 89.358589 320.812587 72.299938 
C 303.753935 55.241286 283.500976 41.708691 261.212773 32.476616 
C 238.924571 23.24454 215.034576 18.492524 190.91 18.492524 
C 166.785424 18.492524 142.895429 23.24454 120.607227 32.476616 
C 98.319024 41.708691 78.066065 55.241286 61.007413 72.299938 
C 43.948762 89.358589 30.416167 109.611549 21.184091 131.899751 
C 11.952015 154.187953 7.2 178.077948 7.2 202.202524 
C 7.2 226.327101 11.952015 250.217096 21.184091 272.505298 
C 30.416167 294.7935 43.948762 315.04646 61.007413 332.105111 
C 78.066065 349.163763 98.319024 362.696358 120.607227 371.928433 
C 142.895429 381.160509 166.785424 385.912524 190.91 385.912524 
C 215.034576 385.912524 238.924571 381.160509 261.212773 371.928433 
C 283.500976 362.696358 303.753935 349.163763 320.812587 332.105111 
C 337.871238 315.04646 351.403833 294.7935 360.635909 272.505298 
C 369.867985 250.217096 374.62 226.327101 374.62 202.202524 
M 190.91 202.202524 
C 190.91 202.202524 190.91 202.202524 190.91 202.202524 
C 190.91 202.202524 190.91 202.202524 190.91 202.202524 
C 190.91 202.202524 190.91 202.202524 190.91 202.202524 
C 190.91 202.202524 190.91 202.202524 190.91 202.202524 
C 190.91 202.202524 190.91 202.202524 190.91 202.202524 
C 190.91 202.202524 190.91 202.202524 190.91 202.202524 
C 190.91 202.202524 190.91 202.202524 190.91 202.202524 
C 190.91 202.202524 190.91 202.202524 190.91 202.202524 
C 190.91 202.202524 190.91 202.202524 190.91 202.202524 
C 190.91 202.202524 190.91 202.202524 190.91 202.202524 
C 190.91 202.202524 190.91 202.202524 190.91 202.202524 
C 190.91 202.202524 190.91 202.202524 190.91 202.202524 
C 190.91 202.202524 190.91 202.202524 190.91 202.202524 
C 190.91 202.202524 190.91 202.202524 190.91 202.202524 
C 190.91 202.202524 190.91 202.202524 190.91 202.202524 
C 190.91 202.202524 190.91 202.202524 190.91 202.202524 
z
"/>
  </clipPath>
 </defs>
</svg>
